M48
; DRILL file KiCad 10.0.4 date 2026-07-18T21:48:23
; FORMAT={-:-/ absolute / metric / decimal}
; #@! TF.CreationDate,2026-07-18T21:48:23+02:00
; #@! TF.GenerationSoftware,Kicad,Pcbnew,10.0.4
; #@! TF.FileFunction,MixedPlating,1,4
FMAT,2
METRIC
; #@! TA.AperFunction,Plated,PTH,ViaDrill
T1C0.300
; #@! TA.AperFunction,Plated,PTH,ComponentDrill
T2C0.750
; #@! TA.AperFunction,Plated,PTH,ComponentDrill
T3C0.800
; #@! TA.AperFunction,Plated,PTH,ComponentDrill
T4C0.900
; #@! TA.AperFunction,Plated,PTH,ComponentDrill
T5C1.000
; #@! TA.AperFunction,Plated,PTH,ComponentDrill
T6C1.100
; #@! TA.AperFunction,Plated,PTH,ComponentDrill
T7C1.300
; #@! TA.AperFunction,NonPlated,NPTH,ComponentDrill
T8C3.200
%
G90
G05
T1
X22.178Y-13.047
X52.032Y-48.014
T2
X8.0Y-53.0
X9.27Y-53.0
X10.54Y-53.0
X20.0Y-16.0
X21.27Y-16.0
X22.54Y-16.0
T3
X18.0Y-52.5
X18.0Y-55.0
X28.0Y-53.0
X30.0Y-16.0
X33.0Y-53.0
X38.0Y-53.0
X40.16Y-16.0
X48.16Y-53.0
X76.0Y-16.0
X76.0Y-26.16
X76.0Y-51.0
X76.0Y-61.16
T4
X76.0Y-11.46
X76.0Y-14.0
X76.0Y-46.46
X76.0Y-49.0
T5
X1.74Y-24.0
X1.74Y-46.86
X4.28Y-24.0
X4.28Y-46.86
X6.82Y-24.0
X6.82Y-46.86
X9.36Y-24.0
X9.36Y-46.86
X11.9Y-24.0
X11.9Y-46.86
X14.44Y-24.0
X14.44Y-46.86
X16.98Y-24.0
X16.98Y-46.86
X19.52Y-24.0
X19.52Y-46.86
X22.06Y-24.0
X22.06Y-46.86
X24.6Y-24.0
X24.6Y-46.86
X27.14Y-24.0
X27.14Y-46.86
X29.68Y-24.0
X29.68Y-46.86
X32.22Y-24.0
X32.22Y-46.86
X34.76Y-24.0
X34.76Y-46.86
X37.3Y-24.0
X37.3Y-46.86
X39.84Y-24.0
X39.84Y-46.86
X42.38Y-24.0
X42.38Y-46.86
X44.92Y-24.0
X44.92Y-46.86
X47.46Y-24.0
X47.46Y-46.86
X50.0Y-24.0
X50.0Y-46.86
T6
X8.0Y-63.0
X18.0Y-6.0
X18.16Y-63.0
X28.16Y-6.0
X35.0Y-6.0
X45.16Y-6.0
T7
X7.0Y-12.0
X12.0Y-12.0
X26.0Y-62.0
X31.0Y-62.0
X36.0Y-62.0
X41.0Y-62.0
X54.0Y-16.0
X54.0Y-50.0
X56.0Y-10.0
X56.0Y-22.0
X56.0Y-44.0
X56.0Y-56.0
X57.0Y-30.0
X57.0Y-62.0
X62.0Y-30.0
X62.0Y-62.0
X67.0Y-30.0
X67.0Y-62.0
X68.2Y-10.0
X68.2Y-22.0
X68.2Y-44.0
X68.2Y-56.0
T8
X5.0Y-5.0
X5.0Y-65.0
X75.0Y-5.0
X75.0Y-65.0
M30
