%TF.GenerationSoftware,KiCad,Pcbnew,10.0.4*%
%TF.CreationDate,2026-07-18T21:48:22+02:00*%
%TF.ProjectId,BluePill-Relay-Carrier,426c7565-5069-46c6-9c2d-52656c61792d,rev?*%
%TF.SameCoordinates,Original*%
%TF.FileFunction,Other,User*%
%FSLAX46Y46*%
G04 Gerber Fmt 4.6, Leading zero omitted, Abs format (unit mm)*
G04 Created by KiCad (PCBNEW 10.0.4) date 2026-07-18 21:48:22*
%MOMM*%
%LPD*%
G01*
G04 APERTURE LIST*
%ADD10C,0.050000*%
G04 APERTURE END LIST*
%TO.C,U1*%
D10*
X-30000Y-22230000D02*
X51770000Y-22230000D01*
X-30000Y-25770000D02*
X-30000Y-22230000D01*
X51770000Y-22230000D02*
X51770000Y-25770000D01*
X51770000Y-25770000D02*
X-30000Y-25770000D01*
%TO.C,RY1*%
X52200000Y-7900000D02*
X52200000Y-24100000D01*
X52200000Y-24100000D02*
X72000000Y-24100000D01*
X72000000Y-7900000D02*
X52200000Y-7900000D01*
X72000000Y-24100000D02*
X72000000Y-7900000D01*
%TO.C,C1*%
X21400000Y-53750000D02*
G75*
G02*
X14600000Y-53750000I-3400000J0D01*
G01*
X14600000Y-53750000D02*
G75*
G02*
X21400000Y-53750000I3400000J0D01*
G01*
%TO.C,R4*%
X74500000Y-49950000D02*
X77500000Y-49950000D01*
X77500000Y-62210000D01*
X74500000Y-62210000D01*
X74500000Y-49950000D01*
%TO.C,J4*%
X23000000Y-57500000D02*
X44000000Y-57500000D01*
X44000000Y-67500000D01*
X23000000Y-67500000D01*
X23000000Y-57500000D01*
%TO.C,C2*%
X26950000Y-51500000D02*
X34050000Y-51500000D01*
X34050000Y-54500000D01*
X26950000Y-54500000D01*
X26950000Y-51500000D01*
%TO.C,D5*%
X73790000Y-45310000D02*
X78210000Y-45310000D01*
X78210000Y-50150000D01*
X73790000Y-50150000D01*
X73790000Y-45310000D01*
%TO.C,D4*%
X73790000Y-10310000D02*
X78210000Y-10310000D01*
X78210000Y-15150000D01*
X73790000Y-15150000D01*
X73790000Y-10310000D01*
%TO.C,U2*%
X-30000Y-45090000D02*
X51770000Y-45090000D01*
X-30000Y-48630000D02*
X-30000Y-45090000D01*
X51770000Y-45090000D02*
X51770000Y-48630000D01*
X51770000Y-48630000D02*
X-30000Y-48630000D01*
%TO.C,J3*%
X54000000Y-57500000D02*
X70000000Y-57500000D01*
X70000000Y-67500000D01*
X54000000Y-67500000D01*
X54000000Y-57500000D01*
%TO.C,D2*%
X6650000Y-61400000D02*
X19510000Y-61400000D01*
X19510000Y-64600000D01*
X6650000Y-64600000D01*
X6650000Y-61400000D01*
%TO.C,D3*%
X16650000Y-4400000D02*
X29510000Y-4400000D01*
X29510000Y-7600000D01*
X16650000Y-7600000D01*
X16650000Y-4400000D01*
%TO.C,Q2*%
X6540000Y-50270000D02*
X6540000Y-55010000D01*
X6540000Y-50270000D02*
X12000000Y-50270000D01*
X12000000Y-55010000D02*
X6540000Y-55010000D01*
X12000000Y-55010000D02*
X12000000Y-50270000D01*
%TO.C,R1*%
X28950000Y-14500000D02*
X41210000Y-14500000D01*
X41210000Y-17500000D01*
X28950000Y-17500000D01*
X28950000Y-14500000D01*
%TO.C,J1*%
X4000000Y-7500000D02*
X15000000Y-7500000D01*
X15000000Y-17500000D01*
X4000000Y-17500000D01*
X4000000Y-7500000D01*
%TO.C,RY2*%
X52200000Y-41900000D02*
X52200000Y-58100000D01*
X52200000Y-58100000D02*
X72000000Y-58100000D01*
X72000000Y-41900000D02*
X52200000Y-41900000D01*
X72000000Y-58100000D02*
X72000000Y-41900000D01*
%TO.C,R3*%
X74500000Y-14950000D02*
X77500000Y-14950000D01*
X77500000Y-27210000D01*
X74500000Y-27210000D01*
X74500000Y-14950000D01*
%TO.C,J2*%
X54000000Y-25500000D02*
X70000000Y-25500000D01*
X70000000Y-35500000D01*
X54000000Y-35500000D01*
X54000000Y-25500000D01*
%TO.C,R2*%
X36950000Y-51500000D02*
X49210000Y-51500000D01*
X49210000Y-54500000D01*
X36950000Y-54500000D01*
X36950000Y-51500000D01*
%TO.C,D1*%
X33650000Y-4400000D02*
X46510000Y-4400000D01*
X46510000Y-7600000D01*
X33650000Y-7600000D01*
X33650000Y-4400000D01*
%TO.C,Q1*%
X18540000Y-13270000D02*
X18540000Y-18010000D01*
X18540000Y-13270000D02*
X24000000Y-13270000D01*
X24000000Y-18010000D02*
X18540000Y-18010000D01*
X24000000Y-18010000D02*
X24000000Y-13270000D01*
%TD*%
M02*
