%TF.GenerationSoftware,KiCad,Pcbnew,10.0.4*%
%TF.CreationDate,2026-07-18T21:48:22+02:00*%
%TF.ProjectId,BluePill-Relay-Carrier,426c7565-5069-46c6-9c2d-52656c61792d,rev?*%
%TF.SameCoordinates,Original*%
%TF.FileFunction,Soldermask,Bot*%
%TF.FilePolarity,Negative*%
%FSLAX46Y46*%
G04 Gerber Fmt 4.6, Leading zero omitted, Abs format (unit mm)*
G04 Created by KiCad (PCBNEW 10.0.4) date 2026-07-18 21:48:22*
%MOMM*%
%LPD*%
G01*
G04 APERTURE LIST*
G04 Aperture macros list*
%AMRoundRect*
0 Rectangle with rounded corners*
0 $1 Rounding radius*
0 $2 $3 $4 $5 $6 $7 $8 $9 X,Y pos of 4 corners*
0 Add a 4 corners polygon primitive as box body*
4,1,4,$2,$3,$4,$5,$6,$7,$8,$9,$2,$3,0*
0 Add four circle primitives for the rounded corners*
1,1,$1+$1,$2,$3*
1,1,$1+$1,$4,$5*
1,1,$1+$1,$6,$7*
1,1,$1+$1,$8,$9*
0 Add four rect primitives between the rounded corners*
20,1,$1+$1,$2,$3,$4,$5,0*
20,1,$1+$1,$4,$5,$6,$7,0*
20,1,$1+$1,$6,$7,$8,$9,0*
20,1,$1+$1,$8,$9,$2,$3,0*%
G04 Aperture macros list end*
%ADD10R,1.700000X1.700000*%
%ADD11C,1.700000*%
%ADD12C,2.500000*%
%ADD13RoundRect,0.250000X-1.000000X-1.000000X1.000000X-1.000000X1.000000X1.000000X-1.000000X1.000000X0*%
%ADD14RoundRect,0.250000X0.550000X-0.550000X0.550000X0.550000X-0.550000X0.550000X-0.550000X-0.550000X0*%
%ADD15C,1.600000*%
%ADD16RoundRect,0.250000X-1.050000X-1.050000X1.050000X-1.050000X1.050000X1.050000X-1.050000X1.050000X0*%
%ADD17C,2.600000*%
%ADD18C,4.200000*%
%ADD19R,1.800000X1.800000*%
%ADD20C,1.800000*%
%ADD21RoundRect,0.249999X-0.850001X-0.850001X0.850001X-0.850001X0.850001X0.850001X-0.850001X0.850001X0*%
%ADD22C,2.200000*%
%ADD23R,1.050000X1.500000*%
%ADD24O,1.050000X1.500000*%
G04 APERTURE END LIST*
D10*
%TO.C,U1*%
X50000000Y-24000000D03*
D11*
X47460000Y-24000000D03*
X44920000Y-24000000D03*
X42380000Y-24000000D03*
X39840000Y-24000000D03*
X37300000Y-24000000D03*
X34760000Y-24000000D03*
X32220000Y-24000000D03*
X29680000Y-24000000D03*
X27140000Y-24000000D03*
X24600000Y-24000000D03*
X22060000Y-24000000D03*
X19520000Y-24000000D03*
X16980000Y-24000000D03*
X14440000Y-24000000D03*
X11900000Y-24000000D03*
X9360000Y-24000000D03*
X6820000Y-24000000D03*
X4280000Y-24000000D03*
X1740000Y-24000000D03*
%TD*%
D12*
%TO.C,RY1*%
X54000000Y-16000000D03*
X68200000Y-10000000D03*
X68200000Y-22000000D03*
D13*
X56000000Y-10000000D03*
D12*
X56000000Y-22000000D03*
%TD*%
D14*
%TO.C,C1*%
X18000000Y-55000000D03*
D15*
X18000000Y-52500000D03*
%TD*%
%TO.C,R4*%
X76000000Y-51000000D03*
X76000000Y-61160000D03*
%TD*%
D16*
%TO.C,J4*%
X26000000Y-62000000D03*
D17*
X31000000Y-62000000D03*
X36000000Y-62000000D03*
X41000000Y-62000000D03*
%TD*%
D15*
%TO.C,C2*%
X28000000Y-53000000D03*
X33000000Y-53000000D03*
%TD*%
D18*
%TO.C,MH4*%
X5000000Y-65000000D03*
%TD*%
%TO.C,MH3*%
X75000000Y-65000000D03*
%TD*%
D19*
%TO.C,D5*%
X76000000Y-49000000D03*
D20*
X76000000Y-46460000D03*
%TD*%
D19*
%TO.C,D4*%
X76000000Y-14000000D03*
D20*
X76000000Y-11460000D03*
%TD*%
D10*
%TO.C,U2*%
X50000000Y-46860000D03*
D11*
X47460000Y-46860000D03*
X44920000Y-46860000D03*
X42380000Y-46860000D03*
X39840000Y-46860000D03*
X37300000Y-46860000D03*
X34760000Y-46860000D03*
X32220000Y-46860000D03*
X29680000Y-46860000D03*
X27140000Y-46860000D03*
X24600000Y-46860000D03*
X22060000Y-46860000D03*
X19520000Y-46860000D03*
X16980000Y-46860000D03*
X14440000Y-46860000D03*
X11900000Y-46860000D03*
X9360000Y-46860000D03*
X6820000Y-46860000D03*
X4280000Y-46860000D03*
X1740000Y-46860000D03*
%TD*%
D16*
%TO.C,J3*%
X57000000Y-62000000D03*
D17*
X62000000Y-62000000D03*
X67000000Y-62000000D03*
%TD*%
D18*
%TO.C,MH1*%
X5000000Y-5000000D03*
%TD*%
D21*
%TO.C,D2*%
X8000000Y-63000000D03*
D22*
X18160000Y-63000000D03*
%TD*%
D21*
%TO.C,D3*%
X18000000Y-6000000D03*
D22*
X28160000Y-6000000D03*
%TD*%
D23*
%TO.C,Q2*%
X8000000Y-53000000D03*
D24*
X9270000Y-53000000D03*
X10540000Y-53000000D03*
%TD*%
D15*
%TO.C,R1*%
X30000000Y-16000000D03*
X40160000Y-16000000D03*
%TD*%
D16*
%TO.C,J1*%
X7000000Y-12000000D03*
D17*
X12000000Y-12000000D03*
%TD*%
D12*
%TO.C,RY2*%
X54000000Y-50000000D03*
X68200000Y-44000000D03*
X68200000Y-56000000D03*
D13*
X56000000Y-44000000D03*
D12*
X56000000Y-56000000D03*
%TD*%
D15*
%TO.C,R3*%
X76000000Y-16000000D03*
X76000000Y-26160000D03*
%TD*%
D16*
%TO.C,J2*%
X57000000Y-30000000D03*
D17*
X62000000Y-30000000D03*
X67000000Y-30000000D03*
%TD*%
D15*
%TO.C,R2*%
X38000000Y-53000000D03*
X48160000Y-53000000D03*
%TD*%
D21*
%TO.C,D1*%
X35000000Y-6000000D03*
D22*
X45160000Y-6000000D03*
%TD*%
D18*
%TO.C,MH2*%
X75000000Y-5000000D03*
%TD*%
D23*
%TO.C,Q1*%
X20000000Y-16000000D03*
D24*
X21270000Y-16000000D03*
X22540000Y-16000000D03*
%TD*%
M02*
