%TF.GenerationSoftware,KiCad,Pcbnew,10.0.4*%
%TF.CreationDate,2026-07-19T21:02:14+02:00*%
%TF.ProjectId,BluePill-Relay-Carrier,426c7565-5069-46c6-9c2d-52656c61792d,rev?*%
%TF.SameCoordinates,Original*%
%TF.FileFunction,Copper,L2,Inr*%
%TF.FilePolarity,Positive*%
%FSLAX46Y46*%
G04 Gerber Fmt 4.6, Leading zero omitted, Abs format (unit mm)*
G04 Created by KiCad (PCBNEW 10.0.4) date 2026-07-19 21:02:14*
%MOMM*%
%LPD*%
G01*
G04 APERTURE LIST*
G04 Aperture macros list*
%AMRoundRect*
0 Rectangle with rounded corners*
0 $1 Rounding radius*
0 $2 $3 $4 $5 $6 $7 $8 $9 X,Y pos of 4 corners*
0 Add a 4 corners polygon primitive as box body*
4,1,4,$2,$3,$4,$5,$6,$7,$8,$9,$2,$3,0*
0 Add four circle primitives for the rounded corners*
1,1,$1+$1,$2,$3*
1,1,$1+$1,$4,$5*
1,1,$1+$1,$6,$7*
1,1,$1+$1,$8,$9*
0 Add four rect primitives between the rounded corners*
20,1,$1+$1,$2,$3,$4,$5,0*
20,1,$1+$1,$4,$5,$6,$7,0*
20,1,$1+$1,$6,$7,$8,$9,0*
20,1,$1+$1,$8,$9,$2,$3,0*%
G04 Aperture macros list end*
%TA.AperFunction,ComponentPad*%
%ADD10R,1.700000X1.700000*%
%TD*%
%TA.AperFunction,ComponentPad*%
%ADD11C,1.700000*%
%TD*%
%TA.AperFunction,ComponentPad*%
%ADD12C,2.500000*%
%TD*%
%TA.AperFunction,ComponentPad*%
%ADD13RoundRect,0.250000X-1.000000X-1.000000X1.000000X-1.000000X1.000000X1.000000X-1.000000X1.000000X0*%
%TD*%
%TA.AperFunction,ComponentPad*%
%ADD14RoundRect,0.250000X0.550000X-0.550000X0.550000X0.550000X-0.550000X0.550000X-0.550000X-0.550000X0*%
%TD*%
%TA.AperFunction,ComponentPad*%
%ADD15C,1.600000*%
%TD*%
%TA.AperFunction,ComponentPad*%
%ADD16RoundRect,0.250000X-1.050000X-1.050000X1.050000X-1.050000X1.050000X1.050000X-1.050000X1.050000X0*%
%TD*%
%TA.AperFunction,ComponentPad*%
%ADD17C,2.600000*%
%TD*%
%TA.AperFunction,ComponentPad*%
%ADD18R,1.800000X1.800000*%
%TD*%
%TA.AperFunction,ComponentPad*%
%ADD19C,1.800000*%
%TD*%
%TA.AperFunction,ComponentPad*%
%ADD20RoundRect,0.249999X-0.850001X-0.850001X0.850001X-0.850001X0.850001X0.850001X-0.850001X0.850001X0*%
%TD*%
%TA.AperFunction,ComponentPad*%
%ADD21C,2.200000*%
%TD*%
%TA.AperFunction,ComponentPad*%
%ADD22R,1.050000X1.500000*%
%TD*%
%TA.AperFunction,ComponentPad*%
%ADD23O,1.050000X1.500000*%
%TD*%
%TA.AperFunction,ViaPad*%
%ADD24C,0.600000*%
%TD*%
G04 APERTURE END LIST*
D10*
%TO.N,N/C*%
%TO.C,U1*%
X50000000Y-24000000D03*
D11*
X47460000Y-24000000D03*
X44920000Y-24000000D03*
X42380000Y-24000000D03*
%TO.N,PA0*%
X39840000Y-24000000D03*
%TO.N,PA1*%
X37300000Y-24000000D03*
%TO.N,N/C*%
X34760000Y-24000000D03*
X32220000Y-24000000D03*
X29680000Y-24000000D03*
X27140000Y-24000000D03*
X24600000Y-24000000D03*
X22060000Y-24000000D03*
X19520000Y-24000000D03*
X16980000Y-24000000D03*
X14440000Y-24000000D03*
X11900000Y-24000000D03*
X9360000Y-24000000D03*
X6820000Y-24000000D03*
%TO.N,GND*%
X4280000Y-24000000D03*
X1740000Y-24000000D03*
%TD*%
D12*
%TO.N,RY1_COM*%
%TO.C,RY1*%
X54000000Y-16000000D03*
%TO.N,RY1_NC*%
X68200000Y-10000000D03*
%TO.N,RY1_NO*%
X68200000Y-22000000D03*
D13*
%TO.N,+5V*%
X56000000Y-10000000D03*
D12*
%TO.N,RY1_Drive*%
X56000000Y-22000000D03*
%TD*%
D14*
%TO.N,+5V*%
%TO.C,C1*%
X18000000Y-55000000D03*
D15*
%TO.N,GND*%
X18000000Y-52500000D03*
%TD*%
%TO.N,LED2_K*%
%TO.C,R4*%
X76000000Y-51000000D03*
%TO.N,RY2_Drive*%
X76000000Y-61160000D03*
%TD*%
D16*
%TO.N,+5V*%
%TO.C,J4*%
X26000000Y-62000000D03*
D17*
%TO.N,GND*%
X31000000Y-62000000D03*
%TO.N,PB6*%
X36000000Y-62000000D03*
%TO.N,PB7*%
X41000000Y-62000000D03*
%TD*%
D15*
%TO.N,+5V*%
%TO.C,C2*%
X28000000Y-53000000D03*
%TO.N,GND*%
X33000000Y-53000000D03*
%TD*%
D18*
%TO.N,LED2_K*%
%TO.C,D5*%
X76000000Y-48400000D03*
D19*
%TO.N,+5V*%
X76000000Y-45860000D03*
%TD*%
D18*
%TO.N,LED1_K*%
%TO.C,D4*%
X76000000Y-13400000D03*
D19*
%TO.N,+5V*%
X76000000Y-10860000D03*
%TD*%
D10*
%TO.N,N/C*%
%TO.C,U2*%
X50000000Y-46860000D03*
D11*
%TO.N,GND*%
X47460000Y-46860000D03*
%TO.N,+5V*%
X44920000Y-46860000D03*
%TO.N,N/C*%
X42380000Y-46860000D03*
X39840000Y-46860000D03*
%TO.N,PB7*%
X37300000Y-46860000D03*
%TO.N,PB6*%
X34760000Y-46860000D03*
%TO.N,N/C*%
X32220000Y-46860000D03*
X29680000Y-46860000D03*
X27140000Y-46860000D03*
X24600000Y-46860000D03*
X22060000Y-46860000D03*
X19520000Y-46860000D03*
X16980000Y-46860000D03*
X14440000Y-46860000D03*
X11900000Y-46860000D03*
X9360000Y-46860000D03*
X6820000Y-46860000D03*
X4280000Y-46860000D03*
X1740000Y-46860000D03*
%TD*%
D16*
%TO.N,RY2_COM*%
%TO.C,J3*%
X57000000Y-62000000D03*
D17*
%TO.N,RY2_NO*%
X62000000Y-62000000D03*
%TO.N,RY2_NC*%
X67000000Y-62000000D03*
%TD*%
D20*
%TO.N,+5V*%
%TO.C,D2*%
X8000000Y-63000000D03*
D21*
%TO.N,RY2_Drive*%
X18160000Y-63000000D03*
%TD*%
D20*
%TO.N,+5V*%
%TO.C,D3*%
X18000000Y-6000000D03*
D21*
%TO.N,VCC_IN*%
X28160000Y-6000000D03*
%TD*%
D22*
%TO.N,Q2B*%
%TO.C,Q2*%
X8000000Y-53000000D03*
D23*
%TO.N,RY2_Drive*%
X9270000Y-53000000D03*
%TO.N,GND*%
X10540000Y-53000000D03*
%TD*%
D15*
%TO.N,PA0*%
%TO.C,R1*%
X30000000Y-16000000D03*
%TO.N,Q1B*%
X40160000Y-16000000D03*
%TD*%
D16*
%TO.N,VCC_IN*%
%TO.C,J1*%
X7000000Y-12000000D03*
D17*
%TO.N,GND*%
X12000000Y-12000000D03*
%TD*%
D12*
%TO.N,RY2_COM*%
%TO.C,RY2*%
X54000000Y-49100000D03*
%TO.N,RY2_NC*%
X68200000Y-43100000D03*
%TO.N,RY2_NO*%
X68200000Y-55100000D03*
D13*
%TO.N,+5V*%
X56000000Y-43100000D03*
D12*
%TO.N,RY2_Drive*%
X56000000Y-55100000D03*
%TD*%
D15*
%TO.N,LED1_K*%
%TO.C,R3*%
X76000000Y-16000000D03*
%TO.N,RY1_Drive*%
X76000000Y-26160000D03*
%TD*%
D16*
%TO.N,RY1_COM*%
%TO.C,J2*%
X57000000Y-30000000D03*
D17*
%TO.N,RY1_NO*%
X62000000Y-30000000D03*
%TO.N,RY1_NC*%
X67000000Y-30000000D03*
%TD*%
D15*
%TO.N,PA1*%
%TO.C,R2*%
X38000000Y-53000000D03*
%TO.N,Q2B*%
X48160000Y-53000000D03*
%TD*%
D20*
%TO.N,+5V*%
%TO.C,D1*%
X35000000Y-6000000D03*
D21*
%TO.N,RY1_Drive*%
X45160000Y-6000000D03*
%TD*%
D22*
%TO.N,Q1B*%
%TO.C,Q1*%
X20000000Y-16000000D03*
D23*
%TO.N,RY1_Drive*%
X21270000Y-16000000D03*
%TO.N,GND*%
X22540000Y-16000000D03*
%TD*%
D24*
%TO.N,PA1*%
X52031500Y-48014000D03*
%TO.N,RY1_Drive*%
X22178000Y-13047000D03*
%TD*%
%TA.AperFunction,Conductor*%
%TO.N,GND*%
G36*
X79359191Y-618907D02*
G01*
X79395155Y-668407D01*
X79400000Y-699000D01*
X79400000Y-69301000D01*
X79381093Y-69359191D01*
X79331593Y-69395155D01*
X79301000Y-69400000D01*
X699000Y-69400000D01*
X640809Y-69381093D01*
X604845Y-69331593D01*
X600000Y-69301000D01*
X600000Y-64878710D01*
X3149500Y-64878710D01*
X3149500Y-65121289D01*
X3181161Y-65361781D01*
X3181161Y-65361786D01*
X3243944Y-65596092D01*
X3243948Y-65596105D01*
X3336772Y-65820204D01*
X3336774Y-65820208D01*
X3336776Y-65820212D01*
X3458064Y-66030289D01*
X3458066Y-66030292D01*
X3605729Y-66222731D01*
X3605731Y-66222733D01*
X3605735Y-66222738D01*
X3777262Y-66394265D01*
X3777266Y-66394268D01*
X3777268Y-66394270D01*
X3969707Y-66541933D01*
X3969711Y-66541936D01*
X4179788Y-66663224D01*
X4403900Y-66756054D01*
X4638211Y-66818838D01*
X4878712Y-66850500D01*
X4878713Y-66850500D01*
X5121287Y-66850500D01*
X5121288Y-66850500D01*
X5361789Y-66818838D01*
X5596100Y-66756054D01*
X5820212Y-66663224D01*
X6030289Y-66541936D01*
X6222738Y-66394265D01*
X6394265Y-66222738D01*
X6541936Y-66030289D01*
X6663224Y-65820212D01*
X6756054Y-65596100D01*
X6818838Y-65361789D01*
X6850500Y-65121288D01*
X6850500Y-64878712D01*
X6850500Y-64878710D01*
X73149500Y-64878710D01*
X73149500Y-65121289D01*
X73181161Y-65361781D01*
X73181161Y-65361786D01*
X73243944Y-65596092D01*
X73243948Y-65596105D01*
X73336772Y-65820204D01*
X73336774Y-65820208D01*
X73336776Y-65820212D01*
X73458064Y-66030289D01*
X73458066Y-66030292D01*
X73605729Y-66222731D01*
X73605731Y-66222733D01*
X73605735Y-66222738D01*
X73777262Y-66394265D01*
X73777266Y-66394268D01*
X73777268Y-66394270D01*
X73969707Y-66541933D01*
X73969711Y-66541936D01*
X74179788Y-66663224D01*
X74403900Y-66756054D01*
X74638211Y-66818838D01*
X74878712Y-66850500D01*
X74878713Y-66850500D01*
X75121287Y-66850500D01*
X75121288Y-66850500D01*
X75361789Y-66818838D01*
X75596100Y-66756054D01*
X75820212Y-66663224D01*
X76030289Y-66541936D01*
X76222738Y-66394265D01*
X76394265Y-66222738D01*
X76541936Y-66030289D01*
X76663224Y-65820212D01*
X76756054Y-65596100D01*
X76818838Y-65361789D01*
X76850500Y-65121288D01*
X76850500Y-64878712D01*
X76818838Y-64638211D01*
X76756054Y-64403900D01*
X76663224Y-64179788D01*
X76541936Y-63969711D01*
X76420365Y-63811276D01*
X76394270Y-63777268D01*
X76394268Y-63777266D01*
X76394265Y-63777262D01*
X76222738Y-63605735D01*
X76222733Y-63605731D01*
X76222731Y-63605729D01*
X76030292Y-63458066D01*
X76030289Y-63458064D01*
X75820212Y-63336776D01*
X75820208Y-63336774D01*
X75820204Y-63336772D01*
X75596105Y-63243948D01*
X75596104Y-63243947D01*
X75596100Y-63243946D01*
X75361789Y-63181162D01*
X75361786Y-63181161D01*
X75361784Y-63181161D01*
X75121289Y-63149500D01*
X75121288Y-63149500D01*
X74878712Y-63149500D01*
X74878710Y-63149500D01*
X74638218Y-63181161D01*
X74638213Y-63181161D01*
X74403907Y-63243944D01*
X74403894Y-63243948D01*
X74179795Y-63336772D01*
X73969707Y-63458066D01*
X73777268Y-63605729D01*
X73605729Y-63777268D01*
X73458066Y-63969707D01*
X73336772Y-64179795D01*
X73243948Y-64403894D01*
X73243944Y-64403907D01*
X73181161Y-64638213D01*
X73181161Y-64638218D01*
X73149500Y-64878710D01*
X6850500Y-64878710D01*
X6818838Y-64638211D01*
X6771711Y-64462332D01*
X6774913Y-64401233D01*
X6813419Y-64353683D01*
X6872519Y-64337847D01*
X6903656Y-64344613D01*
X7018435Y-64389877D01*
X7106897Y-64400500D01*
X8893102Y-64400499D01*
X8981565Y-64389877D01*
X9122343Y-64334361D01*
X9242923Y-64242923D01*
X9334361Y-64122343D01*
X9389877Y-63981565D01*
X9400500Y-63893103D01*
X9400499Y-62889774D01*
X16759500Y-62889774D01*
X16759500Y-63110225D01*
X16793984Y-63327948D01*
X16862102Y-63537599D01*
X16862104Y-63537602D01*
X16862105Y-63537606D01*
X16962185Y-63734022D01*
X17091758Y-63912365D01*
X17247635Y-64068242D01*
X17425978Y-64197815D01*
X17622394Y-64297895D01*
X17832049Y-64366015D01*
X17919140Y-64379809D01*
X18049775Y-64400500D01*
X18049778Y-64400500D01*
X18270225Y-64400500D01*
X18379086Y-64383257D01*
X18487951Y-64366015D01*
X18697606Y-64297895D01*
X18894022Y-64197815D01*
X19072365Y-64068242D01*
X19228242Y-63912365D01*
X19357815Y-63734022D01*
X19457895Y-63537606D01*
X19526015Y-63327951D01*
X19543257Y-63219086D01*
X19560500Y-63110225D01*
X19560500Y-62889774D01*
X19526015Y-62672051D01*
X19526015Y-62672049D01*
X19457895Y-62462394D01*
X19357815Y-62265978D01*
X19228242Y-62087635D01*
X19072365Y-61931758D01*
X18894022Y-61802185D01*
X18894021Y-61802184D01*
X18894019Y-61802183D01*
X18804825Y-61756736D01*
X18697606Y-61702105D01*
X18697602Y-61702104D01*
X18697599Y-61702102D01*
X18487948Y-61633984D01*
X18270225Y-61599500D01*
X18270222Y-61599500D01*
X18049778Y-61599500D01*
X18049775Y-61599500D01*
X17832051Y-61633984D01*
X17622400Y-61702102D01*
X17425980Y-61802183D01*
X17414668Y-61810402D01*
X17247635Y-61931758D01*
X17091758Y-62087635D01*
X17069713Y-62117978D01*
X16962183Y-62265980D01*
X16862102Y-62462400D01*
X16793984Y-62672051D01*
X16759500Y-62889774D01*
X9400499Y-62889774D01*
X9400499Y-62106898D01*
X9389877Y-62018435D01*
X9334361Y-61877657D01*
X9242923Y-61757077D01*
X9122343Y-61665639D01*
X9073671Y-61646445D01*
X8981566Y-61610123D01*
X8893104Y-61599500D01*
X7106901Y-61599500D01*
X7106891Y-61599501D01*
X7018435Y-61610123D01*
X7018429Y-61610124D01*
X6877656Y-61665639D01*
X6757080Y-61757074D01*
X6757074Y-61757080D01*
X6665639Y-61877656D01*
X6610123Y-62018433D01*
X6599500Y-62106892D01*
X6599500Y-63753085D01*
X6580593Y-63811276D01*
X6531093Y-63847240D01*
X6469907Y-63847240D01*
X6421958Y-63813352D01*
X6394270Y-63777268D01*
X6394268Y-63777266D01*
X6394265Y-63777262D01*
X6222738Y-63605735D01*
X6222733Y-63605731D01*
X6222731Y-63605729D01*
X6030292Y-63458066D01*
X6030289Y-63458064D01*
X5820212Y-63336776D01*
X5820208Y-63336774D01*
X5820204Y-63336772D01*
X5596105Y-63243948D01*
X5596104Y-63243947D01*
X5596100Y-63243946D01*
X5361789Y-63181162D01*
X5361786Y-63181161D01*
X5361784Y-63181161D01*
X5121289Y-63149500D01*
X5121288Y-63149500D01*
X4878712Y-63149500D01*
X4878710Y-63149500D01*
X4638218Y-63181161D01*
X4638213Y-63181161D01*
X4403907Y-63243944D01*
X4403894Y-63243948D01*
X4179795Y-63336772D01*
X3969707Y-63458066D01*
X3777268Y-63605729D01*
X3605729Y-63777268D01*
X3458066Y-63969707D01*
X3336772Y-64179795D01*
X3243948Y-64403894D01*
X3243944Y-64403907D01*
X3181161Y-64638213D01*
X3181161Y-64638218D01*
X3149500Y-64878710D01*
X600000Y-64878710D01*
X600000Y-60906893D01*
X24399500Y-60906893D01*
X24399500Y-63093106D01*
X24410123Y-63181565D01*
X24465637Y-63322339D01*
X24465638Y-63322341D01*
X24465639Y-63322342D01*
X24557078Y-63442922D01*
X24677658Y-63534361D01*
X24677659Y-63534361D01*
X24677660Y-63534362D01*
X24745438Y-63561090D01*
X24818436Y-63589877D01*
X24906898Y-63600500D01*
X24906900Y-63600500D01*
X27093100Y-63600500D01*
X27093102Y-63600500D01*
X27181564Y-63589877D01*
X27322342Y-63534361D01*
X27442922Y-63442922D01*
X27534361Y-63322342D01*
X27589877Y-63181564D01*
X27600500Y-63093102D01*
X27600500Y-61882021D01*
X29200000Y-61882021D01*
X29200000Y-62117978D01*
X29230798Y-62351908D01*
X29230798Y-62351913D01*
X29291867Y-62579824D01*
X29291871Y-62579837D01*
X29382163Y-62797824D01*
X29382165Y-62797829D01*
X29500142Y-63002169D01*
X29562720Y-63083724D01*
X30398957Y-62247486D01*
X30423978Y-62307890D01*
X30495112Y-62414351D01*
X30585649Y-62504888D01*
X30692110Y-62576022D01*
X30752510Y-62601041D01*
X29916274Y-63437278D01*
X29916273Y-63437278D01*
X29997830Y-63499857D01*
X30202170Y-63617834D01*
X30202175Y-63617836D01*
X30420162Y-63708128D01*
X30420175Y-63708132D01*
X30648088Y-63769201D01*
X30882021Y-63799999D01*
X30882023Y-63800000D01*
X31117977Y-63800000D01*
X31117978Y-63799999D01*
X31351908Y-63769201D01*
X31351913Y-63769201D01*
X31579824Y-63708132D01*
X31579837Y-63708128D01*
X31797824Y-63617836D01*
X31797829Y-63617834D01*
X32002165Y-63499860D01*
X32083724Y-63437278D01*
X31247487Y-62601041D01*
X31307890Y-62576022D01*
X31414351Y-62504888D01*
X31504888Y-62414351D01*
X31576022Y-62307890D01*
X31601041Y-62247487D01*
X32437278Y-63083724D01*
X32499860Y-63002165D01*
X32617834Y-62797829D01*
X32617836Y-62797824D01*
X32708128Y-62579837D01*
X32708132Y-62579824D01*
X32769201Y-62351913D01*
X32769201Y-62351908D01*
X32799999Y-62117978D01*
X32800000Y-62117977D01*
X32800000Y-61882023D01*
X32799999Y-61882020D01*
X32798948Y-61874034D01*
X34399500Y-61874034D01*
X34399500Y-62125965D01*
X34438908Y-62374780D01*
X34516759Y-62614379D01*
X34610228Y-62797824D01*
X34631130Y-62838845D01*
X34779207Y-63042656D01*
X34957344Y-63220793D01*
X35161155Y-63368870D01*
X35385621Y-63483241D01*
X35625215Y-63561090D01*
X35625216Y-63561090D01*
X35625219Y-63561091D01*
X35874035Y-63600500D01*
X35874038Y-63600500D01*
X36125965Y-63600500D01*
X36374780Y-63561091D01*
X36374781Y-63561090D01*
X36374785Y-63561090D01*
X36614379Y-63483241D01*
X36838845Y-63368870D01*
X37042656Y-63220793D01*
X37220793Y-63042656D01*
X37368870Y-62838845D01*
X37483241Y-62614379D01*
X37561090Y-62374785D01*
X37564713Y-62351913D01*
X37600500Y-62125965D01*
X37600500Y-61874034D01*
X39399500Y-61874034D01*
X39399500Y-62125965D01*
X39438908Y-62374780D01*
X39516759Y-62614379D01*
X39610228Y-62797824D01*
X39631130Y-62838845D01*
X39779207Y-63042656D01*
X39957344Y-63220793D01*
X40161155Y-63368870D01*
X40385621Y-63483241D01*
X40625215Y-63561090D01*
X40625216Y-63561090D01*
X40625219Y-63561091D01*
X40874035Y-63600500D01*
X40874038Y-63600500D01*
X41125965Y-63600500D01*
X41374780Y-63561091D01*
X41374781Y-63561090D01*
X41374785Y-63561090D01*
X41614379Y-63483241D01*
X41838845Y-63368870D01*
X42042656Y-63220793D01*
X42220793Y-63042656D01*
X42368870Y-62838845D01*
X42483241Y-62614379D01*
X42561090Y-62374785D01*
X42564713Y-62351913D01*
X42600500Y-62125965D01*
X42600500Y-61874034D01*
X42561091Y-61625219D01*
X42561090Y-61625215D01*
X42483241Y-61385621D01*
X42426055Y-61273388D01*
X42368871Y-61161156D01*
X42224270Y-60962130D01*
X42224269Y-60962128D01*
X42220796Y-60957348D01*
X42220795Y-60957347D01*
X42220793Y-60957344D01*
X42170342Y-60906893D01*
X55399500Y-60906893D01*
X55399500Y-63093106D01*
X55410123Y-63181565D01*
X55465637Y-63322339D01*
X55465638Y-63322341D01*
X55465639Y-63322342D01*
X55557078Y-63442922D01*
X55677658Y-63534361D01*
X55677659Y-63534361D01*
X55677660Y-63534362D01*
X55745438Y-63561090D01*
X55818436Y-63589877D01*
X55906898Y-63600500D01*
X55906900Y-63600500D01*
X58093100Y-63600500D01*
X58093102Y-63600500D01*
X58181564Y-63589877D01*
X58322342Y-63534361D01*
X58442922Y-63442922D01*
X58534361Y-63322342D01*
X58589877Y-63181564D01*
X58600500Y-63093102D01*
X58600500Y-61874034D01*
X60399500Y-61874034D01*
X60399500Y-62125965D01*
X60438908Y-62374780D01*
X60516759Y-62614379D01*
X60610228Y-62797824D01*
X60631130Y-62838845D01*
X60779207Y-63042656D01*
X60957344Y-63220793D01*
X61161155Y-63368870D01*
X61385621Y-63483241D01*
X61625215Y-63561090D01*
X61625216Y-63561090D01*
X61625219Y-63561091D01*
X61874035Y-63600500D01*
X61874038Y-63600500D01*
X62125965Y-63600500D01*
X62374780Y-63561091D01*
X62374781Y-63561090D01*
X62374785Y-63561090D01*
X62614379Y-63483241D01*
X62838845Y-63368870D01*
X63042656Y-63220793D01*
X63220793Y-63042656D01*
X63368870Y-62838845D01*
X63483241Y-62614379D01*
X63561090Y-62374785D01*
X63564713Y-62351913D01*
X63600500Y-62125965D01*
X63600500Y-61874034D01*
X65399500Y-61874034D01*
X65399500Y-62125965D01*
X65438908Y-62374780D01*
X65516759Y-62614379D01*
X65610228Y-62797824D01*
X65631130Y-62838845D01*
X65779207Y-63042656D01*
X65957344Y-63220793D01*
X66161155Y-63368870D01*
X66385621Y-63483241D01*
X66625215Y-63561090D01*
X66625216Y-63561090D01*
X66625219Y-63561091D01*
X66874035Y-63600500D01*
X66874038Y-63600500D01*
X67125965Y-63600500D01*
X67374780Y-63561091D01*
X67374781Y-63561090D01*
X67374785Y-63561090D01*
X67614379Y-63483241D01*
X67838845Y-63368870D01*
X68042656Y-63220793D01*
X68220793Y-63042656D01*
X68368870Y-62838845D01*
X68483241Y-62614379D01*
X68561090Y-62374785D01*
X68564713Y-62351913D01*
X68600500Y-62125965D01*
X68600500Y-61874034D01*
X68561091Y-61625219D01*
X68561090Y-61625215D01*
X68483241Y-61385621D01*
X68368870Y-61161155D01*
X68368868Y-61161151D01*
X68344558Y-61127692D01*
X68344556Y-61127690D01*
X68305104Y-61073389D01*
X68305101Y-61073385D01*
X74899500Y-61073385D01*
X74899500Y-61246614D01*
X74926597Y-61417702D01*
X74926598Y-61417706D01*
X74980123Y-61582438D01*
X74980125Y-61582441D01*
X75041094Y-61702102D01*
X75058768Y-61736788D01*
X75160586Y-61876928D01*
X75283072Y-61999414D01*
X75423212Y-62101232D01*
X75577555Y-62179873D01*
X75577557Y-62179873D01*
X75577558Y-62179874D01*
X75577561Y-62179876D01*
X75742293Y-62233401D01*
X75742297Y-62233402D01*
X75913386Y-62260500D01*
X75913389Y-62260500D01*
X76086614Y-62260500D01*
X76257702Y-62233402D01*
X76257706Y-62233401D01*
X76422438Y-62179876D01*
X76422440Y-62179874D01*
X76422445Y-62179873D01*
X76576788Y-62101232D01*
X76716928Y-61999414D01*
X76839414Y-61876928D01*
X76941232Y-61736788D01*
X77019873Y-61582445D01*
X77019874Y-61582440D01*
X77019876Y-61582438D01*
X77073401Y-61417706D01*
X77073402Y-61417702D01*
X77100500Y-61246614D01*
X77100500Y-61073385D01*
X77073402Y-60902297D01*
X77073401Y-60902293D01*
X77019876Y-60737561D01*
X77019874Y-60737558D01*
X77019873Y-60737557D01*
X77019873Y-60737555D01*
X76941232Y-60583212D01*
X76839414Y-60443072D01*
X76716928Y-60320586D01*
X76576788Y-60218768D01*
X76576787Y-60218767D01*
X76576785Y-60218766D01*
X76422441Y-60140125D01*
X76422438Y-60140123D01*
X76257706Y-60086598D01*
X76257702Y-60086597D01*
X76086614Y-60059500D01*
X76086611Y-60059500D01*
X75913389Y-60059500D01*
X75913386Y-60059500D01*
X75742297Y-60086597D01*
X75742293Y-60086598D01*
X75577561Y-60140123D01*
X75577558Y-60140125D01*
X75423214Y-60218766D01*
X75283073Y-60320585D01*
X75160585Y-60443073D01*
X75058766Y-60583214D01*
X74980125Y-60737558D01*
X74980123Y-60737561D01*
X74926598Y-60902293D01*
X74926597Y-60902297D01*
X74899500Y-61073385D01*
X68305101Y-61073385D01*
X68220793Y-60957344D01*
X68042656Y-60779207D01*
X67838845Y-60631130D01*
X67838844Y-60631129D01*
X67838842Y-60631128D01*
X67614379Y-60516759D01*
X67374780Y-60438908D01*
X67125965Y-60399500D01*
X67125962Y-60399500D01*
X66874038Y-60399500D01*
X66874035Y-60399500D01*
X66625219Y-60438908D01*
X66385620Y-60516759D01*
X66161157Y-60631128D01*
X65957345Y-60779206D01*
X65779206Y-60957345D01*
X65631128Y-61161157D01*
X65516759Y-61385620D01*
X65438908Y-61625219D01*
X65399500Y-61874034D01*
X63600500Y-61874034D01*
X63561091Y-61625219D01*
X63561090Y-61625215D01*
X63483241Y-61385621D01*
X63368870Y-61161155D01*
X63220793Y-60957344D01*
X63042656Y-60779207D01*
X62838845Y-60631130D01*
X62838844Y-60631129D01*
X62838842Y-60631128D01*
X62614379Y-60516759D01*
X62374780Y-60438908D01*
X62125965Y-60399500D01*
X62125962Y-60399500D01*
X61874038Y-60399500D01*
X61874035Y-60399500D01*
X61625219Y-60438908D01*
X61385620Y-60516759D01*
X61161157Y-60631128D01*
X60957345Y-60779206D01*
X60779206Y-60957345D01*
X60631128Y-61161157D01*
X60516759Y-61385620D01*
X60438908Y-61625219D01*
X60399500Y-61874034D01*
X58600500Y-61874034D01*
X58600500Y-60906898D01*
X58589877Y-60818436D01*
X58534361Y-60677658D01*
X58442922Y-60557078D01*
X58322342Y-60465639D01*
X58322341Y-60465638D01*
X58322339Y-60465637D01*
X58181565Y-60410123D01*
X58093106Y-60399500D01*
X58093102Y-60399500D01*
X55906898Y-60399500D01*
X55906893Y-60399500D01*
X55818434Y-60410123D01*
X55677660Y-60465637D01*
X55677656Y-60465640D01*
X55557081Y-60557075D01*
X55557075Y-60557081D01*
X55465640Y-60677656D01*
X55465637Y-60677660D01*
X55410123Y-60818434D01*
X55399500Y-60906893D01*
X42170342Y-60906893D01*
X42042656Y-60779207D01*
X41838845Y-60631130D01*
X41838844Y-60631129D01*
X41838842Y-60631128D01*
X41614379Y-60516759D01*
X41374780Y-60438908D01*
X41125965Y-60399500D01*
X41125962Y-60399500D01*
X40874038Y-60399500D01*
X40874035Y-60399500D01*
X40625219Y-60438908D01*
X40385620Y-60516759D01*
X40161157Y-60631128D01*
X39957345Y-60779206D01*
X39779206Y-60957345D01*
X39631128Y-61161157D01*
X39516759Y-61385620D01*
X39438908Y-61625219D01*
X39399500Y-61874034D01*
X37600500Y-61874034D01*
X37561091Y-61625219D01*
X37561090Y-61625215D01*
X37483241Y-61385621D01*
X37368870Y-61161155D01*
X37220793Y-60957344D01*
X37042656Y-60779207D01*
X36838845Y-60631130D01*
X36838844Y-60631129D01*
X36838842Y-60631128D01*
X36614379Y-60516759D01*
X36374780Y-60438908D01*
X36125965Y-60399500D01*
X36125962Y-60399500D01*
X35874038Y-60399500D01*
X35874035Y-60399500D01*
X35625219Y-60438908D01*
X35385620Y-60516759D01*
X35161157Y-60631128D01*
X34957345Y-60779206D01*
X34779206Y-60957345D01*
X34631128Y-61161157D01*
X34516759Y-61385620D01*
X34438908Y-61625219D01*
X34399500Y-61874034D01*
X32798948Y-61874034D01*
X32769201Y-61648091D01*
X32769201Y-61648086D01*
X32708132Y-61420175D01*
X32708128Y-61420162D01*
X32617836Y-61202175D01*
X32617834Y-61202170D01*
X32499857Y-60997830D01*
X32437278Y-60916274D01*
X31601041Y-61752510D01*
X31576022Y-61692110D01*
X31504888Y-61585649D01*
X31414351Y-61495112D01*
X31307890Y-61423978D01*
X31247486Y-61398957D01*
X32083724Y-60562720D01*
X32083725Y-60562720D01*
X32002169Y-60500142D01*
X31797829Y-60382165D01*
X31797824Y-60382163D01*
X31579837Y-60291871D01*
X31579824Y-60291867D01*
X31351911Y-60230798D01*
X31117978Y-60200000D01*
X30882021Y-60200000D01*
X30648091Y-60230798D01*
X30648086Y-60230798D01*
X30420175Y-60291867D01*
X30420162Y-60291871D01*
X30202175Y-60382163D01*
X30202170Y-60382165D01*
X29997831Y-60500141D01*
X29916274Y-60562720D01*
X30752512Y-61398958D01*
X30692110Y-61423978D01*
X30585649Y-61495112D01*
X30495112Y-61585649D01*
X30423978Y-61692110D01*
X30398958Y-61752512D01*
X29562720Y-60916274D01*
X29500141Y-60997831D01*
X29382165Y-61202170D01*
X29382163Y-61202175D01*
X29291871Y-61420162D01*
X29291867Y-61420175D01*
X29230798Y-61648086D01*
X29230798Y-61648091D01*
X29200000Y-61882021D01*
X27600500Y-61882021D01*
X27600500Y-60906898D01*
X27589877Y-60818436D01*
X27534361Y-60677658D01*
X27442922Y-60557078D01*
X27322342Y-60465639D01*
X27322341Y-60465638D01*
X27322339Y-60465637D01*
X27181565Y-60410123D01*
X27093106Y-60399500D01*
X27093102Y-60399500D01*
X24906898Y-60399500D01*
X24906893Y-60399500D01*
X24818434Y-60410123D01*
X24677660Y-60465637D01*
X24677656Y-60465640D01*
X24557081Y-60557075D01*
X24557075Y-60557081D01*
X24465640Y-60677656D01*
X24465637Y-60677660D01*
X24410123Y-60818434D01*
X24399500Y-60906893D01*
X600000Y-60906893D01*
X600000Y-52205130D01*
X7174500Y-52205130D01*
X7174500Y-53794860D01*
X7174501Y-53794863D01*
X7177414Y-53819990D01*
X7182317Y-53831093D01*
X7222794Y-53922765D01*
X7302235Y-54002206D01*
X7405009Y-54047585D01*
X7430135Y-54050500D01*
X8569864Y-54050499D01*
X8594991Y-54047585D01*
X8697765Y-54002206D01*
X8740270Y-53959700D01*
X8794785Y-53931925D01*
X8855217Y-53941496D01*
X8865275Y-53947392D01*
X8878970Y-53956543D01*
X8878983Y-53956550D01*
X8979133Y-53998033D01*
X9029211Y-54018776D01*
X9188695Y-54050500D01*
X9188696Y-54050500D01*
X9351304Y-54050500D01*
X9351305Y-54050500D01*
X9510789Y-54018776D01*
X9661021Y-53956548D01*
X9689954Y-53937215D01*
X9748837Y-53920607D01*
X9806241Y-53941783D01*
X9814957Y-53949527D01*
X9886596Y-54021166D01*
X9886600Y-54021169D01*
X10054472Y-54133340D01*
X10054484Y-54133346D01*
X10241016Y-54210609D01*
X10241019Y-54210610D01*
X10289999Y-54220352D01*
X10290000Y-54220352D01*
X10290000Y-53280330D01*
X10309745Y-53300075D01*
X10395255Y-53349444D01*
X10490630Y-53375000D01*
X10589370Y-53375000D01*
X10684745Y-53349444D01*
X10770255Y-53300075D01*
X10790000Y-53280330D01*
X10790000Y-54220352D01*
X10838980Y-54210610D01*
X10838983Y-54210609D01*
X11025515Y-54133346D01*
X11025527Y-54133340D01*
X11193399Y-54021169D01*
X11193403Y-54021166D01*
X11336166Y-53878403D01*
X11336169Y-53878399D01*
X11448340Y-53710527D01*
X11448346Y-53710515D01*
X11525609Y-53523983D01*
X11525609Y-53523981D01*
X11564999Y-53325956D01*
X11565000Y-53325952D01*
X11565000Y-53250001D01*
X11564999Y-53250000D01*
X10820330Y-53250000D01*
X10840075Y-53230255D01*
X10889444Y-53144745D01*
X10915000Y-53049370D01*
X10915000Y-52950630D01*
X10889444Y-52855255D01*
X10840075Y-52769745D01*
X10820330Y-52750000D01*
X11564999Y-52750000D01*
X11565000Y-52749999D01*
X11565000Y-52674047D01*
X11564999Y-52674043D01*
X11525609Y-52476018D01*
X11525609Y-52476016D01*
X11507246Y-52431683D01*
X11493163Y-52397684D01*
X16700000Y-52397684D01*
X16700000Y-52602315D01*
X16732008Y-52804412D01*
X16795243Y-52999027D01*
X16888139Y-53181348D01*
X16888143Y-53181353D01*
X16920523Y-53225920D01*
X16920524Y-53225920D01*
X17600000Y-52546444D01*
X17600000Y-52552661D01*
X17627259Y-52654394D01*
X17679920Y-52745606D01*
X17754394Y-52820080D01*
X17845606Y-52872741D01*
X17947339Y-52900000D01*
X17953553Y-52900000D01*
X17274078Y-53579475D01*
X17318647Y-53611858D01*
X17500973Y-53704757D01*
X17505860Y-53706345D01*
X17555360Y-53742309D01*
X17574268Y-53800499D01*
X17555361Y-53858690D01*
X17505862Y-53894654D01*
X17475268Y-53899500D01*
X17406893Y-53899500D01*
X17318434Y-53910123D01*
X17177660Y-53965637D01*
X17177656Y-53965640D01*
X17057081Y-54057075D01*
X17057075Y-54057081D01*
X16965640Y-54177656D01*
X16965637Y-54177660D01*
X16910123Y-54318434D01*
X16899500Y-54406893D01*
X16899500Y-55593106D01*
X16910123Y-55681565D01*
X16965637Y-55822339D01*
X16965638Y-55822341D01*
X16965639Y-55822342D01*
X17057078Y-55942922D01*
X17177658Y-56034361D01*
X17177659Y-56034361D01*
X17177660Y-56034362D01*
X17248047Y-56062119D01*
X17318436Y-56089877D01*
X17406898Y-56100500D01*
X17406900Y-56100500D01*
X18593100Y-56100500D01*
X18593102Y-56100500D01*
X18681564Y-56089877D01*
X18822342Y-56034361D01*
X18942922Y-55942922D01*
X19034361Y-55822342D01*
X19089877Y-55681564D01*
X19100500Y-55593102D01*
X19100500Y-54977969D01*
X54449500Y-54977969D01*
X54449500Y-55222030D01*
X54487677Y-55463071D01*
X54563096Y-55695185D01*
X54673892Y-55912637D01*
X54695897Y-55942924D01*
X54817345Y-56110083D01*
X54989917Y-56282655D01*
X55133369Y-56386878D01*
X55187362Y-56426107D01*
X55296088Y-56481505D01*
X55404815Y-56536904D01*
X55636924Y-56612321D01*
X55636925Y-56612321D01*
X55636928Y-56612322D01*
X55877970Y-56650500D01*
X55877973Y-56650500D01*
X56122030Y-56650500D01*
X56363071Y-56612322D01*
X56363072Y-56612321D01*
X56363076Y-56612321D01*
X56595185Y-56536904D01*
X56812639Y-56426106D01*
X57010083Y-56282655D01*
X57182655Y-56110083D01*
X57326106Y-55912639D01*
X57436904Y-55695185D01*
X57512321Y-55463076D01*
X57550500Y-55222027D01*
X57550500Y-54977973D01*
X57550500Y-54977969D01*
X66649500Y-54977969D01*
X66649500Y-55222030D01*
X66687677Y-55463071D01*
X66763096Y-55695185D01*
X66873892Y-55912637D01*
X66895897Y-55942924D01*
X67017345Y-56110083D01*
X67189917Y-56282655D01*
X67333369Y-56386878D01*
X67387362Y-56426107D01*
X67496088Y-56481505D01*
X67604815Y-56536904D01*
X67836924Y-56612321D01*
X67836925Y-56612321D01*
X67836928Y-56612322D01*
X68077970Y-56650500D01*
X68077973Y-56650500D01*
X68322030Y-56650500D01*
X68563071Y-56612322D01*
X68563072Y-56612321D01*
X68563076Y-56612321D01*
X68795185Y-56536904D01*
X69012639Y-56426106D01*
X69210083Y-56282655D01*
X69382655Y-56110083D01*
X69526106Y-55912639D01*
X69636904Y-55695185D01*
X69712321Y-55463076D01*
X69750500Y-55222027D01*
X69750500Y-54977973D01*
X69750500Y-54977969D01*
X69712322Y-54736928D01*
X69712321Y-54736924D01*
X69636904Y-54504815D01*
X69581505Y-54396088D01*
X69526107Y-54287362D01*
X69470343Y-54210610D01*
X69382655Y-54089917D01*
X69210083Y-53917345D01*
X69091367Y-53831093D01*
X69012637Y-53773892D01*
X68795185Y-53663096D01*
X68563071Y-53587677D01*
X68322030Y-53549500D01*
X68322027Y-53549500D01*
X68077973Y-53549500D01*
X68077970Y-53549500D01*
X67836928Y-53587677D01*
X67604814Y-53663096D01*
X67387362Y-53773892D01*
X67189918Y-53917344D01*
X67017344Y-54089918D01*
X66873892Y-54287362D01*
X66763096Y-54504814D01*
X66687677Y-54736928D01*
X66649500Y-54977969D01*
X57550500Y-54977969D01*
X57512322Y-54736928D01*
X57512321Y-54736924D01*
X57436904Y-54504815D01*
X57381505Y-54396088D01*
X57326107Y-54287362D01*
X57270343Y-54210610D01*
X57182655Y-54089917D01*
X57010083Y-53917345D01*
X56891367Y-53831093D01*
X56812637Y-53773892D01*
X56595185Y-53663096D01*
X56363071Y-53587677D01*
X56122030Y-53549500D01*
X56122027Y-53549500D01*
X55877973Y-53549500D01*
X55877970Y-53549500D01*
X55636928Y-53587677D01*
X55404814Y-53663096D01*
X55187362Y-53773892D01*
X54989918Y-53917344D01*
X54817344Y-54089918D01*
X54673892Y-54287362D01*
X54563096Y-54504814D01*
X54487677Y-54736928D01*
X54449500Y-54977969D01*
X19100500Y-54977969D01*
X19100500Y-54406898D01*
X19089877Y-54318436D01*
X19062119Y-54248047D01*
X19034362Y-54177660D01*
X19034361Y-54177659D01*
X19034361Y-54177658D01*
X18942922Y-54057078D01*
X18822342Y-53965639D01*
X18822341Y-53965638D01*
X18822339Y-53965637D01*
X18681565Y-53910123D01*
X18593106Y-53899500D01*
X18593102Y-53899500D01*
X18524732Y-53899500D01*
X18466541Y-53880593D01*
X18430577Y-53831093D01*
X18430577Y-53769907D01*
X18466541Y-53720407D01*
X18494140Y-53706345D01*
X18499026Y-53704757D01*
X18681342Y-53611863D01*
X18681350Y-53611858D01*
X18725920Y-53579475D01*
X18046445Y-52900000D01*
X18052661Y-52900000D01*
X18154394Y-52872741D01*
X18245606Y-52820080D01*
X18320080Y-52745606D01*
X18372741Y-52654394D01*
X18400000Y-52552661D01*
X18400000Y-52546445D01*
X19079475Y-53225920D01*
X19111858Y-53181350D01*
X19111863Y-53181342D01*
X19204758Y-52999023D01*
X19204760Y-52999020D01*
X19232585Y-52913385D01*
X26899500Y-52913385D01*
X26899500Y-53086614D01*
X26926597Y-53257702D01*
X26926598Y-53257706D01*
X26980123Y-53422438D01*
X26980125Y-53422441D01*
X27031862Y-53523983D01*
X27058768Y-53576788D01*
X27160586Y-53716928D01*
X27283072Y-53839414D01*
X27423212Y-53941232D01*
X27577555Y-54019873D01*
X27577557Y-54019873D01*
X27577558Y-54019874D01*
X27577561Y-54019876D01*
X27742293Y-54073401D01*
X27742297Y-54073402D01*
X27913386Y-54100500D01*
X27913389Y-54100500D01*
X28086614Y-54100500D01*
X28257702Y-54073402D01*
X28257706Y-54073401D01*
X28422438Y-54019876D01*
X28422440Y-54019874D01*
X28422445Y-54019873D01*
X28540538Y-53959702D01*
X28552646Y-53953533D01*
X28564698Y-53947392D01*
X28576788Y-53941232D01*
X28716928Y-53839414D01*
X28839414Y-53716928D01*
X28941232Y-53576788D01*
X29019873Y-53422445D01*
X29019874Y-53422440D01*
X29019876Y-53422438D01*
X29073401Y-53257706D01*
X29073402Y-53257702D01*
X29100500Y-53086614D01*
X29100500Y-52913387D01*
X29099851Y-52909291D01*
X29099851Y-52909289D01*
X29099850Y-52909285D01*
X29098013Y-52897684D01*
X31700000Y-52897684D01*
X31700000Y-53102315D01*
X31732008Y-53304412D01*
X31795243Y-53499027D01*
X31888139Y-53681348D01*
X31888143Y-53681353D01*
X31920523Y-53725920D01*
X31920524Y-53725920D01*
X32600000Y-53046444D01*
X32600000Y-53052661D01*
X32627259Y-53154394D01*
X32679920Y-53245606D01*
X32754394Y-53320080D01*
X32845606Y-53372741D01*
X32947339Y-53400000D01*
X32953553Y-53400000D01*
X32274078Y-54079475D01*
X32318647Y-54111858D01*
X32500972Y-54204756D01*
X32695587Y-54267991D01*
X32897685Y-54300000D01*
X33102315Y-54300000D01*
X33304412Y-54267991D01*
X33499027Y-54204756D01*
X33681342Y-54111863D01*
X33681350Y-54111858D01*
X33725920Y-54079475D01*
X33046445Y-53400000D01*
X33052661Y-53400000D01*
X33154394Y-53372741D01*
X33245606Y-53320080D01*
X33320080Y-53245606D01*
X33372741Y-53154394D01*
X33400000Y-53052661D01*
X33400000Y-53046445D01*
X34079475Y-53725920D01*
X34111858Y-53681350D01*
X34111863Y-53681342D01*
X34204756Y-53499027D01*
X34267991Y-53304412D01*
X34300000Y-53102315D01*
X34300000Y-52913385D01*
X36899500Y-52913385D01*
X36899500Y-53086614D01*
X36926597Y-53257702D01*
X36926598Y-53257706D01*
X36980123Y-53422438D01*
X36980125Y-53422441D01*
X37031862Y-53523983D01*
X37058768Y-53576788D01*
X37160586Y-53716928D01*
X37283072Y-53839414D01*
X37423212Y-53941232D01*
X37577555Y-54019873D01*
X37577557Y-54019873D01*
X37577558Y-54019874D01*
X37577561Y-54019876D01*
X37742293Y-54073401D01*
X37742297Y-54073402D01*
X37913386Y-54100500D01*
X37913389Y-54100500D01*
X38086614Y-54100500D01*
X38257702Y-54073402D01*
X38257706Y-54073401D01*
X38422438Y-54019876D01*
X38422440Y-54019874D01*
X38422445Y-54019873D01*
X38576788Y-53941232D01*
X38716928Y-53839414D01*
X38839414Y-53716928D01*
X38941232Y-53576788D01*
X39019873Y-53422445D01*
X39019874Y-53422440D01*
X39019876Y-53422438D01*
X39073401Y-53257706D01*
X39073402Y-53257702D01*
X39100500Y-53086614D01*
X39100500Y-52913385D01*
X47059500Y-52913385D01*
X47059500Y-53086614D01*
X47086597Y-53257702D01*
X47086598Y-53257706D01*
X47140123Y-53422438D01*
X47140125Y-53422441D01*
X47191862Y-53523983D01*
X47218768Y-53576788D01*
X47320586Y-53716928D01*
X47443072Y-53839414D01*
X47583212Y-53941232D01*
X47737555Y-54019873D01*
X47737557Y-54019873D01*
X47737558Y-54019874D01*
X47737561Y-54019876D01*
X47902293Y-54073401D01*
X47902297Y-54073402D01*
X48073386Y-54100500D01*
X48073389Y-54100500D01*
X48246614Y-54100500D01*
X48417702Y-54073402D01*
X48417706Y-54073401D01*
X48582438Y-54019876D01*
X48582440Y-54019874D01*
X48582445Y-54019873D01*
X48736788Y-53941232D01*
X48876928Y-53839414D01*
X48999414Y-53716928D01*
X49101232Y-53576788D01*
X49179873Y-53422445D01*
X49179874Y-53422440D01*
X49179876Y-53422438D01*
X49233401Y-53257706D01*
X49233402Y-53257702D01*
X49260500Y-53086614D01*
X49260500Y-52913385D01*
X49233402Y-52742297D01*
X49233401Y-52742293D01*
X49179876Y-52577561D01*
X49179874Y-52577558D01*
X49179873Y-52577557D01*
X49179873Y-52577555D01*
X49101232Y-52423212D01*
X48999414Y-52283072D01*
X48876928Y-52160586D01*
X48736788Y-52058768D01*
X48736787Y-52058767D01*
X48736785Y-52058766D01*
X48582441Y-51980125D01*
X48582438Y-51980123D01*
X48417706Y-51926598D01*
X48417702Y-51926597D01*
X48246614Y-51899500D01*
X48246611Y-51899500D01*
X48073389Y-51899500D01*
X48073386Y-51899500D01*
X47902297Y-51926597D01*
X47902293Y-51926598D01*
X47737561Y-51980123D01*
X47737558Y-51980125D01*
X47583214Y-52058766D01*
X47443073Y-52160585D01*
X47320585Y-52283073D01*
X47218766Y-52423214D01*
X47140125Y-52577558D01*
X47140123Y-52577561D01*
X47086598Y-52742293D01*
X47086597Y-52742297D01*
X47059500Y-52913385D01*
X39100500Y-52913385D01*
X39073402Y-52742297D01*
X39073401Y-52742293D01*
X39019876Y-52577561D01*
X39019874Y-52577558D01*
X39019873Y-52577557D01*
X39019873Y-52577555D01*
X38941232Y-52423212D01*
X38839414Y-52283072D01*
X38716928Y-52160586D01*
X38576788Y-52058768D01*
X38576787Y-52058767D01*
X38576785Y-52058766D01*
X38422441Y-51980125D01*
X38422438Y-51980123D01*
X38257706Y-51926598D01*
X38257702Y-51926597D01*
X38086614Y-51899500D01*
X38086611Y-51899500D01*
X37913389Y-51899500D01*
X37913386Y-51899500D01*
X37742297Y-51926597D01*
X37742293Y-51926598D01*
X37577561Y-51980123D01*
X37577558Y-51980125D01*
X37423214Y-52058766D01*
X37283073Y-52160585D01*
X37160585Y-52283073D01*
X37058766Y-52423214D01*
X36980125Y-52577558D01*
X36980123Y-52577561D01*
X36926598Y-52742293D01*
X36926597Y-52742297D01*
X36899500Y-52913385D01*
X34300000Y-52913385D01*
X34300000Y-52897684D01*
X34267991Y-52695587D01*
X34204756Y-52500972D01*
X34111858Y-52318647D01*
X34079475Y-52274078D01*
X33400000Y-52953553D01*
X33400000Y-52947339D01*
X33372741Y-52845606D01*
X33320080Y-52754394D01*
X33245606Y-52679920D01*
X33154394Y-52627259D01*
X33052661Y-52600000D01*
X33046445Y-52600000D01*
X33725920Y-51920524D01*
X33725920Y-51920523D01*
X33681353Y-51888143D01*
X33681348Y-51888139D01*
X33499027Y-51795243D01*
X33304412Y-51732008D01*
X33102315Y-51700000D01*
X32897685Y-51700000D01*
X32695587Y-51732008D01*
X32500972Y-51795243D01*
X32318651Y-51888139D01*
X32318647Y-51888141D01*
X32274078Y-51920523D01*
X32953555Y-52600000D01*
X32947339Y-52600000D01*
X32845606Y-52627259D01*
X32754394Y-52679920D01*
X32679920Y-52754394D01*
X32627259Y-52845606D01*
X32600000Y-52947339D01*
X32600000Y-52953555D01*
X31920523Y-52274078D01*
X31888141Y-52318647D01*
X31888139Y-52318651D01*
X31795243Y-52500972D01*
X31732008Y-52695587D01*
X31700000Y-52897684D01*
X29098013Y-52897684D01*
X29073402Y-52742297D01*
X29073401Y-52742293D01*
X29019876Y-52577561D01*
X29019874Y-52577558D01*
X29019873Y-52577557D01*
X29019873Y-52577555D01*
X28941232Y-52423212D01*
X28839414Y-52283072D01*
X28716928Y-52160586D01*
X28576788Y-52058768D01*
X28576787Y-52058767D01*
X28576785Y-52058766D01*
X28552642Y-52046465D01*
X28422441Y-51980125D01*
X28422438Y-51980123D01*
X28257706Y-51926598D01*
X28257702Y-51926597D01*
X28086614Y-51899500D01*
X28086611Y-51899500D01*
X27913389Y-51899500D01*
X27913386Y-51899500D01*
X27742297Y-51926597D01*
X27742293Y-51926598D01*
X27577561Y-51980123D01*
X27577558Y-51980125D01*
X27423214Y-52058766D01*
X27283073Y-52160585D01*
X27160585Y-52283073D01*
X27058766Y-52423214D01*
X26980125Y-52577558D01*
X26980123Y-52577561D01*
X26926598Y-52742293D01*
X26926597Y-52742297D01*
X26899500Y-52913385D01*
X19232585Y-52913385D01*
X19243787Y-52878909D01*
X19243787Y-52878906D01*
X19267991Y-52804412D01*
X19300000Y-52602315D01*
X19300000Y-52397684D01*
X19267991Y-52195587D01*
X19204756Y-52000972D01*
X19111858Y-51818647D01*
X19079475Y-51774078D01*
X18400000Y-52453553D01*
X18400000Y-52447339D01*
X18372741Y-52345606D01*
X18320080Y-52254394D01*
X18245606Y-52179920D01*
X18154394Y-52127259D01*
X18052661Y-52100000D01*
X18046445Y-52100000D01*
X18725920Y-51420524D01*
X18725920Y-51420523D01*
X18681353Y-51388143D01*
X18681348Y-51388139D01*
X18499027Y-51295243D01*
X18304412Y-51232008D01*
X18102315Y-51200000D01*
X17897685Y-51200000D01*
X17695587Y-51232008D01*
X17500972Y-51295243D01*
X17318651Y-51388139D01*
X17318647Y-51388141D01*
X17274078Y-51420523D01*
X17953555Y-52100000D01*
X17947339Y-52100000D01*
X17845606Y-52127259D01*
X17754394Y-52179920D01*
X17679920Y-52254394D01*
X17627259Y-52345606D01*
X17600000Y-52447339D01*
X17600000Y-52453555D01*
X16920523Y-51774078D01*
X16888141Y-51818647D01*
X16888139Y-51818651D01*
X16795243Y-52000972D01*
X16732008Y-52195587D01*
X16700000Y-52397684D01*
X11493163Y-52397684D01*
X11448346Y-52289484D01*
X11448340Y-52289472D01*
X11336169Y-52121600D01*
X11336166Y-52121596D01*
X11193403Y-51978833D01*
X11193399Y-51978830D01*
X11025527Y-51866659D01*
X11025515Y-51866653D01*
X10838984Y-51789390D01*
X10790000Y-51779646D01*
X10790000Y-52719670D01*
X10770255Y-52699925D01*
X10684745Y-52650556D01*
X10589370Y-52625000D01*
X10490630Y-52625000D01*
X10395255Y-52650556D01*
X10309745Y-52699925D01*
X10290000Y-52719670D01*
X10290000Y-51779646D01*
X10241015Y-51789390D01*
X10054484Y-51866653D01*
X10054472Y-51866659D01*
X9886601Y-51978829D01*
X9814957Y-52050472D01*
X9760440Y-52078248D01*
X9700008Y-52068676D01*
X9689953Y-52062783D01*
X9661026Y-52043454D01*
X9661016Y-52043449D01*
X9510790Y-51981224D01*
X9351305Y-51949500D01*
X9188695Y-51949500D01*
X9188694Y-51949500D01*
X9029209Y-51981224D01*
X8878978Y-52043451D01*
X8878977Y-52043452D01*
X8865267Y-52052612D01*
X8806377Y-52069216D01*
X8748975Y-52048035D01*
X8740275Y-52040304D01*
X8697765Y-51997794D01*
X8594991Y-51952415D01*
X8594990Y-51952414D01*
X8594988Y-51952414D01*
X8569868Y-51949500D01*
X7430139Y-51949500D01*
X7430136Y-51949501D01*
X7405009Y-51952414D01*
X7302235Y-51997794D01*
X7222794Y-52077235D01*
X7177414Y-52180011D01*
X7174500Y-52205130D01*
X600000Y-52205130D01*
X600000Y-50913385D01*
X74899500Y-50913385D01*
X74899500Y-51086614D01*
X74926597Y-51257702D01*
X74926598Y-51257706D01*
X74980123Y-51422438D01*
X74980125Y-51422441D01*
X74980126Y-51422444D01*
X74980127Y-51422445D01*
X75058768Y-51576788D01*
X75160586Y-51716928D01*
X75283072Y-51839414D01*
X75423212Y-51941232D01*
X75577555Y-52019873D01*
X75577557Y-52019873D01*
X75577558Y-52019874D01*
X75577561Y-52019876D01*
X75742293Y-52073401D01*
X75742297Y-52073402D01*
X75913386Y-52100500D01*
X75913389Y-52100500D01*
X76086614Y-52100500D01*
X76257702Y-52073402D01*
X76257706Y-52073401D01*
X76422438Y-52019876D01*
X76422440Y-52019874D01*
X76422445Y-52019873D01*
X76576788Y-51941232D01*
X76716928Y-51839414D01*
X76839414Y-51716928D01*
X76941232Y-51576788D01*
X77019873Y-51422445D01*
X77019874Y-51422440D01*
X77019876Y-51422438D01*
X77073401Y-51257706D01*
X77073402Y-51257702D01*
X77100500Y-51086614D01*
X77100500Y-50913385D01*
X77073402Y-50742297D01*
X77073401Y-50742293D01*
X77019876Y-50577561D01*
X77019874Y-50577558D01*
X77019873Y-50577557D01*
X77019873Y-50577555D01*
X76941232Y-50423212D01*
X76839414Y-50283072D01*
X76716928Y-50160586D01*
X76576788Y-50058768D01*
X76576787Y-50058767D01*
X76576785Y-50058766D01*
X76422441Y-49980125D01*
X76422438Y-49980123D01*
X76257706Y-49926598D01*
X76257702Y-49926597D01*
X76086614Y-49899500D01*
X76086611Y-49899500D01*
X75913389Y-49899500D01*
X75913386Y-49899500D01*
X75742297Y-49926597D01*
X75742293Y-49926598D01*
X75577561Y-49980123D01*
X75577558Y-49980125D01*
X75423214Y-50058766D01*
X75283073Y-50160585D01*
X75160585Y-50283073D01*
X75058766Y-50423214D01*
X74980125Y-50577558D01*
X74980123Y-50577561D01*
X74926598Y-50742293D01*
X74926597Y-50742297D01*
X74899500Y-50913385D01*
X600000Y-50913385D01*
X600000Y-47552963D01*
X618907Y-47494772D01*
X668407Y-47458808D01*
X729593Y-47458808D01*
X779090Y-47494770D01*
X862447Y-47609501D01*
X990499Y-47737553D01*
X1137006Y-47843996D01*
X1298361Y-47926211D01*
X1470591Y-47982171D01*
X1542136Y-47993502D01*
X1649451Y-48010500D01*
X1649454Y-48010500D01*
X1830549Y-48010500D01*
X1919977Y-47996335D01*
X2009409Y-47982171D01*
X2181639Y-47926211D01*
X2342994Y-47843996D01*
X2489501Y-47737553D01*
X2617553Y-47609501D01*
X2723996Y-47462994D01*
X2806211Y-47301639D01*
X2862171Y-47129409D01*
X2879435Y-47020407D01*
X2890500Y-46950549D01*
X2890500Y-46769450D01*
X3129500Y-46769450D01*
X3129500Y-46950549D01*
X3157828Y-47129406D01*
X3213788Y-47301637D01*
X3292001Y-47455139D01*
X3296004Y-47462994D01*
X3402447Y-47609501D01*
X3530499Y-47737553D01*
X3677006Y-47843996D01*
X3838361Y-47926211D01*
X4010591Y-47982171D01*
X4082136Y-47993502D01*
X4189451Y-48010500D01*
X4189454Y-48010500D01*
X4370549Y-48010500D01*
X4459977Y-47996335D01*
X4549409Y-47982171D01*
X4721639Y-47926211D01*
X4882994Y-47843996D01*
X5029501Y-47737553D01*
X5157553Y-47609501D01*
X5263996Y-47462994D01*
X5346211Y-47301639D01*
X5402171Y-47129409D01*
X5419435Y-47020407D01*
X5430500Y-46950549D01*
X5430500Y-46769450D01*
X5669500Y-46769450D01*
X5669500Y-46950549D01*
X5697828Y-47129406D01*
X5753788Y-47301637D01*
X5832001Y-47455139D01*
X5836004Y-47462994D01*
X5942447Y-47609501D01*
X6070499Y-47737553D01*
X6217006Y-47843996D01*
X6378361Y-47926211D01*
X6550591Y-47982171D01*
X6622136Y-47993502D01*
X6729451Y-48010500D01*
X6729454Y-48010500D01*
X6910549Y-48010500D01*
X6999977Y-47996335D01*
X7089409Y-47982171D01*
X7261639Y-47926211D01*
X7422994Y-47843996D01*
X7569501Y-47737553D01*
X7697553Y-47609501D01*
X7803996Y-47462994D01*
X7886211Y-47301639D01*
X7942171Y-47129409D01*
X7959435Y-47020407D01*
X7970500Y-46950549D01*
X7970500Y-46769450D01*
X8209500Y-46769450D01*
X8209500Y-46950549D01*
X8237828Y-47129406D01*
X8293788Y-47301637D01*
X8372001Y-47455139D01*
X8376004Y-47462994D01*
X8482447Y-47609501D01*
X8610499Y-47737553D01*
X8757006Y-47843996D01*
X8918361Y-47926211D01*
X9090591Y-47982171D01*
X9162136Y-47993502D01*
X9269451Y-48010500D01*
X9269454Y-48010500D01*
X9450549Y-48010500D01*
X9539977Y-47996335D01*
X9629409Y-47982171D01*
X9801639Y-47926211D01*
X9962994Y-47843996D01*
X10109501Y-47737553D01*
X10237553Y-47609501D01*
X10343996Y-47462994D01*
X10426211Y-47301639D01*
X10482171Y-47129409D01*
X10499435Y-47020407D01*
X10510500Y-46950549D01*
X10510500Y-46769450D01*
X10749500Y-46769450D01*
X10749500Y-46950549D01*
X10777828Y-47129406D01*
X10833788Y-47301637D01*
X10912001Y-47455139D01*
X10916004Y-47462994D01*
X11022447Y-47609501D01*
X11150499Y-47737553D01*
X11297006Y-47843996D01*
X11458361Y-47926211D01*
X11630591Y-47982171D01*
X11702136Y-47993502D01*
X11809451Y-48010500D01*
X11809454Y-48010500D01*
X11990549Y-48010500D01*
X12079977Y-47996335D01*
X12169409Y-47982171D01*
X12341639Y-47926211D01*
X12502994Y-47843996D01*
X12649501Y-47737553D01*
X12777553Y-47609501D01*
X12883996Y-47462994D01*
X12966211Y-47301639D01*
X13022171Y-47129409D01*
X13039435Y-47020407D01*
X13050500Y-46950549D01*
X13050500Y-46769450D01*
X13289500Y-46769450D01*
X13289500Y-46950549D01*
X13317828Y-47129406D01*
X13373788Y-47301637D01*
X13452001Y-47455139D01*
X13456004Y-47462994D01*
X13562447Y-47609501D01*
X13690499Y-47737553D01*
X13837006Y-47843996D01*
X13998361Y-47926211D01*
X14170591Y-47982171D01*
X14242136Y-47993502D01*
X14349451Y-48010500D01*
X14349454Y-48010500D01*
X14530549Y-48010500D01*
X14619977Y-47996335D01*
X14709409Y-47982171D01*
X14881639Y-47926211D01*
X15042994Y-47843996D01*
X15189501Y-47737553D01*
X15317553Y-47609501D01*
X15423996Y-47462994D01*
X15506211Y-47301639D01*
X15562171Y-47129409D01*
X15579435Y-47020407D01*
X15590500Y-46950549D01*
X15590500Y-46769450D01*
X15829500Y-46769450D01*
X15829500Y-46950549D01*
X15857828Y-47129406D01*
X15913788Y-47301637D01*
X15992001Y-47455139D01*
X15996004Y-47462994D01*
X16102447Y-47609501D01*
X16230499Y-47737553D01*
X16377006Y-47843996D01*
X16538361Y-47926211D01*
X16710591Y-47982171D01*
X16782136Y-47993502D01*
X16889451Y-48010500D01*
X16889454Y-48010500D01*
X17070549Y-48010500D01*
X17159977Y-47996335D01*
X17249409Y-47982171D01*
X17421639Y-47926211D01*
X17582994Y-47843996D01*
X17729501Y-47737553D01*
X17857553Y-47609501D01*
X17963996Y-47462994D01*
X18046211Y-47301639D01*
X18102171Y-47129409D01*
X18119435Y-47020407D01*
X18130500Y-46950549D01*
X18130500Y-46769450D01*
X18369500Y-46769450D01*
X18369500Y-46950549D01*
X18397828Y-47129406D01*
X18453788Y-47301637D01*
X18532001Y-47455139D01*
X18536004Y-47462994D01*
X18642447Y-47609501D01*
X18770499Y-47737553D01*
X18917006Y-47843996D01*
X19078361Y-47926211D01*
X19250591Y-47982171D01*
X19322136Y-47993502D01*
X19429451Y-48010500D01*
X19429454Y-48010500D01*
X19610549Y-48010500D01*
X19699977Y-47996335D01*
X19789409Y-47982171D01*
X19961639Y-47926211D01*
X20122994Y-47843996D01*
X20269501Y-47737553D01*
X20397553Y-47609501D01*
X20503996Y-47462994D01*
X20586211Y-47301639D01*
X20642171Y-47129409D01*
X20659435Y-47020407D01*
X20670500Y-46950549D01*
X20670500Y-46769450D01*
X20909500Y-46769450D01*
X20909500Y-46950549D01*
X20937828Y-47129406D01*
X20993788Y-47301637D01*
X21072001Y-47455139D01*
X21076004Y-47462994D01*
X21182447Y-47609501D01*
X21310499Y-47737553D01*
X21457006Y-47843996D01*
X21618361Y-47926211D01*
X21790591Y-47982171D01*
X21862136Y-47993502D01*
X21969451Y-48010500D01*
X21969454Y-48010500D01*
X22150549Y-48010500D01*
X22239977Y-47996335D01*
X22329409Y-47982171D01*
X22501639Y-47926211D01*
X22662994Y-47843996D01*
X22809501Y-47737553D01*
X22937553Y-47609501D01*
X23043996Y-47462994D01*
X23126211Y-47301639D01*
X23182171Y-47129409D01*
X23199435Y-47020407D01*
X23210500Y-46950549D01*
X23210500Y-46769450D01*
X23449500Y-46769450D01*
X23449500Y-46950549D01*
X23477828Y-47129406D01*
X23533788Y-47301637D01*
X23612001Y-47455139D01*
X23616004Y-47462994D01*
X23722447Y-47609501D01*
X23850499Y-47737553D01*
X23997006Y-47843996D01*
X24158361Y-47926211D01*
X24330591Y-47982171D01*
X24402136Y-47993502D01*
X24509451Y-48010500D01*
X24509454Y-48010500D01*
X24690549Y-48010500D01*
X24779977Y-47996335D01*
X24869409Y-47982171D01*
X25041639Y-47926211D01*
X25202994Y-47843996D01*
X25349501Y-47737553D01*
X25477553Y-47609501D01*
X25583996Y-47462994D01*
X25666211Y-47301639D01*
X25722171Y-47129409D01*
X25739435Y-47020407D01*
X25750500Y-46950549D01*
X25750500Y-46769450D01*
X25989500Y-46769450D01*
X25989500Y-46950549D01*
X26017828Y-47129406D01*
X26073788Y-47301637D01*
X26152001Y-47455139D01*
X26156004Y-47462994D01*
X26262447Y-47609501D01*
X26390499Y-47737553D01*
X26537006Y-47843996D01*
X26698361Y-47926211D01*
X26870591Y-47982171D01*
X26942136Y-47993502D01*
X27049451Y-48010500D01*
X27049454Y-48010500D01*
X27230549Y-48010500D01*
X27319977Y-47996335D01*
X27409409Y-47982171D01*
X27581639Y-47926211D01*
X27742994Y-47843996D01*
X27889501Y-47737553D01*
X28017553Y-47609501D01*
X28123996Y-47462994D01*
X28206211Y-47301639D01*
X28262171Y-47129409D01*
X28279435Y-47020407D01*
X28290500Y-46950549D01*
X28290500Y-46769450D01*
X28529500Y-46769450D01*
X28529500Y-46950549D01*
X28557828Y-47129406D01*
X28613788Y-47301637D01*
X28692001Y-47455139D01*
X28696004Y-47462994D01*
X28802447Y-47609501D01*
X28930499Y-47737553D01*
X29077006Y-47843996D01*
X29238361Y-47926211D01*
X29410591Y-47982171D01*
X29482136Y-47993502D01*
X29589451Y-48010500D01*
X29589454Y-48010500D01*
X29770549Y-48010500D01*
X29859977Y-47996335D01*
X29949409Y-47982171D01*
X30121639Y-47926211D01*
X30282994Y-47843996D01*
X30429501Y-47737553D01*
X30557553Y-47609501D01*
X30663996Y-47462994D01*
X30746211Y-47301639D01*
X30802171Y-47129409D01*
X30819435Y-47020407D01*
X30830500Y-46950549D01*
X30830500Y-46769450D01*
X31069500Y-46769450D01*
X31069500Y-46950549D01*
X31097828Y-47129406D01*
X31153788Y-47301637D01*
X31232001Y-47455139D01*
X31236004Y-47462994D01*
X31342447Y-47609501D01*
X31470499Y-47737553D01*
X31617006Y-47843996D01*
X31778361Y-47926211D01*
X31950591Y-47982171D01*
X32022136Y-47993502D01*
X32129451Y-48010500D01*
X32129454Y-48010500D01*
X32310549Y-48010500D01*
X32399977Y-47996335D01*
X32489409Y-47982171D01*
X32661639Y-47926211D01*
X32822994Y-47843996D01*
X32969501Y-47737553D01*
X33097553Y-47609501D01*
X33203996Y-47462994D01*
X33286211Y-47301639D01*
X33342171Y-47129409D01*
X33359435Y-47020407D01*
X33370500Y-46950549D01*
X33370500Y-46769450D01*
X33609500Y-46769450D01*
X33609500Y-46950549D01*
X33637828Y-47129406D01*
X33693788Y-47301637D01*
X33772001Y-47455139D01*
X33776004Y-47462994D01*
X33882447Y-47609501D01*
X34010499Y-47737553D01*
X34157006Y-47843996D01*
X34318361Y-47926211D01*
X34490591Y-47982171D01*
X34562136Y-47993502D01*
X34669451Y-48010500D01*
X34669454Y-48010500D01*
X34850549Y-48010500D01*
X34939977Y-47996335D01*
X35029409Y-47982171D01*
X35201639Y-47926211D01*
X35362994Y-47843996D01*
X35509501Y-47737553D01*
X35637553Y-47609501D01*
X35743996Y-47462994D01*
X35826211Y-47301639D01*
X35882171Y-47129409D01*
X35899435Y-47020407D01*
X35910500Y-46950549D01*
X35910500Y-46769450D01*
X36149500Y-46769450D01*
X36149500Y-46950549D01*
X36177828Y-47129406D01*
X36233788Y-47301637D01*
X36312001Y-47455139D01*
X36316004Y-47462994D01*
X36422447Y-47609501D01*
X36550499Y-47737553D01*
X36697006Y-47843996D01*
X36858361Y-47926211D01*
X37030591Y-47982171D01*
X37102136Y-47993502D01*
X37209451Y-48010500D01*
X37209454Y-48010500D01*
X37390549Y-48010500D01*
X37479977Y-47996335D01*
X37569409Y-47982171D01*
X37741639Y-47926211D01*
X37902994Y-47843996D01*
X38049501Y-47737553D01*
X38177553Y-47609501D01*
X38283996Y-47462994D01*
X38366211Y-47301639D01*
X38422171Y-47129409D01*
X38439435Y-47020407D01*
X38450500Y-46950549D01*
X38450500Y-46769450D01*
X38689500Y-46769450D01*
X38689500Y-46950549D01*
X38717828Y-47129406D01*
X38773788Y-47301637D01*
X38852001Y-47455139D01*
X38856004Y-47462994D01*
X38962447Y-47609501D01*
X39090499Y-47737553D01*
X39237006Y-47843996D01*
X39398361Y-47926211D01*
X39570591Y-47982171D01*
X39642136Y-47993502D01*
X39749451Y-48010500D01*
X39749454Y-48010500D01*
X39930549Y-48010500D01*
X40019977Y-47996335D01*
X40109409Y-47982171D01*
X40281639Y-47926211D01*
X40442994Y-47843996D01*
X40589501Y-47737553D01*
X40717553Y-47609501D01*
X40823996Y-47462994D01*
X40906211Y-47301639D01*
X40962171Y-47129409D01*
X40979435Y-47020407D01*
X40990500Y-46950549D01*
X40990500Y-46769450D01*
X41229500Y-46769450D01*
X41229500Y-46950549D01*
X41257828Y-47129406D01*
X41313788Y-47301637D01*
X41392001Y-47455139D01*
X41396004Y-47462994D01*
X41502447Y-47609501D01*
X41630499Y-47737553D01*
X41777006Y-47843996D01*
X41938361Y-47926211D01*
X42110591Y-47982171D01*
X42182136Y-47993502D01*
X42289451Y-48010500D01*
X42289454Y-48010500D01*
X42470549Y-48010500D01*
X42559977Y-47996335D01*
X42649409Y-47982171D01*
X42821639Y-47926211D01*
X42982994Y-47843996D01*
X43129501Y-47737553D01*
X43257553Y-47609501D01*
X43363996Y-47462994D01*
X43446211Y-47301639D01*
X43502171Y-47129409D01*
X43519435Y-47020407D01*
X43530500Y-46950549D01*
X43530500Y-46769450D01*
X43769500Y-46769450D01*
X43769500Y-46950549D01*
X43797828Y-47129406D01*
X43853788Y-47301637D01*
X43932001Y-47455139D01*
X43936004Y-47462994D01*
X44042447Y-47609501D01*
X44170499Y-47737553D01*
X44317006Y-47843996D01*
X44478361Y-47926211D01*
X44650591Y-47982171D01*
X44722136Y-47993502D01*
X44829451Y-48010500D01*
X44829454Y-48010500D01*
X45010549Y-48010500D01*
X45099977Y-47996335D01*
X45189409Y-47982171D01*
X45361639Y-47926211D01*
X45361642Y-47926209D01*
X45361646Y-47926208D01*
X45465608Y-47873235D01*
X45512527Y-47849329D01*
X45512530Y-47849328D01*
X45516166Y-47847474D01*
X45522994Y-47843996D01*
X45669501Y-47737553D01*
X45797553Y-47609501D01*
X45903996Y-47462994D01*
X45986211Y-47301639D01*
X45990962Y-47287018D01*
X46026924Y-47237517D01*
X46085115Y-47218608D01*
X46143306Y-47237514D01*
X46179271Y-47287013D01*
X46179272Y-47287015D01*
X46208904Y-47378215D01*
X46305376Y-47567553D01*
X46305380Y-47567559D01*
X46344728Y-47621716D01*
X46344729Y-47621716D01*
X46977037Y-46989407D01*
X46994075Y-47052993D01*
X47059901Y-47167007D01*
X47152993Y-47260099D01*
X47267007Y-47325925D01*
X47330589Y-47342962D01*
X46698282Y-47975269D01*
X46698282Y-47975270D01*
X46752440Y-48014619D01*
X46752446Y-48014623D01*
X46941784Y-48111095D01*
X47143878Y-48176759D01*
X47353750Y-48210000D01*
X47566250Y-48210000D01*
X47776121Y-48176759D01*
X47978215Y-48111095D01*
X48167556Y-48014620D01*
X48221716Y-47975270D01*
X47589408Y-47342962D01*
X47652993Y-47325925D01*
X47767007Y-47260099D01*
X47860099Y-47167007D01*
X47925925Y-47052993D01*
X47942962Y-46989408D01*
X48575270Y-47621716D01*
X48614620Y-47567556D01*
X48662290Y-47473999D01*
X48705554Y-47430735D01*
X48765986Y-47421163D01*
X48820503Y-47448940D01*
X48848281Y-47503456D01*
X48849500Y-47518944D01*
X48849500Y-47754860D01*
X48849501Y-47754863D01*
X48852414Y-47779990D01*
X48853397Y-47782216D01*
X48897794Y-47882765D01*
X48977235Y-47962206D01*
X49080009Y-48007585D01*
X49105135Y-48010500D01*
X50894864Y-48010499D01*
X50919991Y-48007585D01*
X51022765Y-47962206D01*
X51050028Y-47934943D01*
X51431000Y-47934943D01*
X51431000Y-48093057D01*
X51471923Y-48245784D01*
X51550980Y-48382716D01*
X51662784Y-48494520D01*
X51799716Y-48573577D01*
X51952443Y-48614500D01*
X51952445Y-48614500D01*
X52110555Y-48614500D01*
X52110557Y-48614500D01*
X52263284Y-48573577D01*
X52381474Y-48505340D01*
X52441320Y-48492619D01*
X52497216Y-48517505D01*
X52527809Y-48570493D01*
X52525127Y-48621669D01*
X52487678Y-48736926D01*
X52449500Y-48977969D01*
X52449500Y-49222030D01*
X52487677Y-49463071D01*
X52563096Y-49695185D01*
X52673892Y-49912637D01*
X52722924Y-49980123D01*
X52817345Y-50110083D01*
X52989917Y-50282655D01*
X53133369Y-50386878D01*
X53187362Y-50426107D01*
X53296088Y-50481505D01*
X53404815Y-50536904D01*
X53636924Y-50612321D01*
X53636925Y-50612321D01*
X53636928Y-50612322D01*
X53877970Y-50650500D01*
X53877973Y-50650500D01*
X54122030Y-50650500D01*
X54363071Y-50612322D01*
X54363072Y-50612321D01*
X54363076Y-50612321D01*
X54595185Y-50536904D01*
X54812639Y-50426106D01*
X55010083Y-50282655D01*
X55182655Y-50110083D01*
X55326106Y-49912639D01*
X55436904Y-49695185D01*
X55512321Y-49463076D01*
X55512322Y-49463071D01*
X55550500Y-49222030D01*
X55550500Y-48977969D01*
X55512322Y-48736928D01*
X55474872Y-48621669D01*
X55436904Y-48504815D01*
X55326106Y-48287361D01*
X55182655Y-48089917D01*
X55010083Y-47917345D01*
X54909128Y-47843997D01*
X54812637Y-47773892D01*
X54595185Y-47663096D01*
X54363071Y-47587677D01*
X54122030Y-47549500D01*
X54122027Y-47549500D01*
X53877973Y-47549500D01*
X53877970Y-47549500D01*
X53636928Y-47587677D01*
X53404814Y-47663096D01*
X53187362Y-47773892D01*
X52989918Y-47917344D01*
X52817344Y-48089918D01*
X52811091Y-48098525D01*
X52761589Y-48134487D01*
X52700404Y-48134484D01*
X52650905Y-48098519D01*
X52632000Y-48040331D01*
X52632000Y-47934944D01*
X52629659Y-47926208D01*
X52591077Y-47782216D01*
X52512020Y-47645284D01*
X52400216Y-47533480D01*
X52263284Y-47454423D01*
X52110557Y-47413500D01*
X51952443Y-47413500D01*
X51799716Y-47454423D01*
X51662784Y-47533480D01*
X51550980Y-47645284D01*
X51471923Y-47782216D01*
X51431000Y-47934943D01*
X51050028Y-47934943D01*
X51102206Y-47882765D01*
X51147585Y-47779991D01*
X51150500Y-47754865D01*
X51150499Y-45965136D01*
X51147585Y-45940009D01*
X51102206Y-45837235D01*
X51030486Y-45765515D01*
X74799500Y-45765515D01*
X74799500Y-45954484D01*
X74829058Y-46141113D01*
X74887453Y-46320832D01*
X74969818Y-46482484D01*
X74973240Y-46489199D01*
X75084310Y-46642073D01*
X75217927Y-46775690D01*
X75370801Y-46886760D01*
X75539168Y-46972547D01*
X75643188Y-47006345D01*
X75692689Y-47042309D01*
X75711596Y-47100500D01*
X75692689Y-47158691D01*
X75643189Y-47194655D01*
X75612596Y-47199500D01*
X75055139Y-47199500D01*
X75055136Y-47199501D01*
X75030009Y-47202414D01*
X74927235Y-47247794D01*
X74847794Y-47327235D01*
X74802414Y-47430011D01*
X74799500Y-47455130D01*
X74799500Y-49344860D01*
X74799501Y-49344863D01*
X74802414Y-49369990D01*
X74827756Y-49427385D01*
X74847794Y-49472765D01*
X74927235Y-49552206D01*
X75030009Y-49597585D01*
X75055135Y-49600500D01*
X76944864Y-49600499D01*
X76969991Y-49597585D01*
X77072765Y-49552206D01*
X77152206Y-49472765D01*
X77197585Y-49369991D01*
X77200500Y-49344865D01*
X77200499Y-47455136D01*
X77197585Y-47430009D01*
X77152206Y-47327235D01*
X77072765Y-47247794D01*
X76969991Y-47202415D01*
X76969990Y-47202414D01*
X76969988Y-47202414D01*
X76944869Y-47199500D01*
X76387404Y-47199500D01*
X76329213Y-47180593D01*
X76293249Y-47131093D01*
X76293249Y-47069907D01*
X76329213Y-47020407D01*
X76356810Y-47006346D01*
X76460832Y-46972547D01*
X76629199Y-46886760D01*
X76782073Y-46775690D01*
X76915690Y-46642073D01*
X77026760Y-46489199D01*
X77112547Y-46320832D01*
X77170940Y-46141118D01*
X77175790Y-46110497D01*
X77200500Y-45954484D01*
X77200500Y-45765515D01*
X77170941Y-45578886D01*
X77159359Y-45543240D01*
X77112547Y-45399168D01*
X77026760Y-45230801D01*
X76915690Y-45077927D01*
X76782073Y-44944310D01*
X76629199Y-44833240D01*
X76629198Y-44833239D01*
X76629196Y-44833238D01*
X76460832Y-44747453D01*
X76281113Y-44689058D01*
X76094484Y-44659500D01*
X76094481Y-44659500D01*
X75905519Y-44659500D01*
X75905516Y-44659500D01*
X75718886Y-44689058D01*
X75539167Y-44747453D01*
X75370803Y-44833238D01*
X75217928Y-44944309D01*
X75084309Y-45077928D01*
X74973238Y-45230803D01*
X74887453Y-45399167D01*
X74829058Y-45578886D01*
X74799500Y-45765515D01*
X51030486Y-45765515D01*
X51022765Y-45757794D01*
X50919991Y-45712415D01*
X50919990Y-45712414D01*
X50919988Y-45712414D01*
X50894868Y-45709500D01*
X49105139Y-45709500D01*
X49105136Y-45709501D01*
X49080009Y-45712414D01*
X48977235Y-45757794D01*
X48897794Y-45837235D01*
X48852414Y-45940011D01*
X48849500Y-45965130D01*
X48849500Y-46201053D01*
X48830593Y-46259244D01*
X48781093Y-46295208D01*
X48719907Y-46295208D01*
X48670407Y-46259244D01*
X48662290Y-46245998D01*
X48614623Y-46152446D01*
X48614619Y-46152440D01*
X48575270Y-46098282D01*
X48575269Y-46098282D01*
X47942962Y-46730589D01*
X47925925Y-46667007D01*
X47860099Y-46552993D01*
X47767007Y-46459901D01*
X47652993Y-46394075D01*
X47589407Y-46377037D01*
X48221716Y-45744729D01*
X48221716Y-45744728D01*
X48167559Y-45705380D01*
X48167553Y-45705376D01*
X47978215Y-45608904D01*
X47776121Y-45543240D01*
X47566250Y-45510000D01*
X47353750Y-45510000D01*
X47143878Y-45543240D01*
X46941784Y-45608904D01*
X46752446Y-45705376D01*
X46752442Y-45705378D01*
X46698282Y-45744728D01*
X47330591Y-46377037D01*
X47267007Y-46394075D01*
X47152993Y-46459901D01*
X47059901Y-46552993D01*
X46994075Y-46667007D01*
X46977037Y-46730591D01*
X46344728Y-46098282D01*
X46305378Y-46152442D01*
X46305376Y-46152446D01*
X46208904Y-46341784D01*
X46179272Y-46432984D01*
X46143308Y-46482484D01*
X46085117Y-46501391D01*
X46026926Y-46482484D01*
X45990962Y-46432984D01*
X45990962Y-46432983D01*
X45986211Y-46418362D01*
X45986211Y-46418361D01*
X45903996Y-46257006D01*
X45797553Y-46110499D01*
X45669501Y-45982447D01*
X45522994Y-45876004D01*
X45522990Y-45876001D01*
X45522988Y-45876000D01*
X45512527Y-45870670D01*
X45512526Y-45870670D01*
X45361637Y-45793788D01*
X45189406Y-45737828D01*
X45010549Y-45709500D01*
X45010546Y-45709500D01*
X44829454Y-45709500D01*
X44829451Y-45709500D01*
X44650593Y-45737828D01*
X44478362Y-45793788D01*
X44317008Y-45876002D01*
X44243752Y-45929225D01*
X44170499Y-45982447D01*
X44042447Y-46110499D01*
X44020205Y-46141113D01*
X43936002Y-46257008D01*
X43853788Y-46418362D01*
X43797828Y-46590593D01*
X43769500Y-46769450D01*
X43530500Y-46769450D01*
X43502171Y-46590593D01*
X43502171Y-46590591D01*
X43446211Y-46418361D01*
X43363996Y-46257006D01*
X43257553Y-46110499D01*
X43129501Y-45982447D01*
X42982994Y-45876004D01*
X42982993Y-45876003D01*
X42982991Y-45876002D01*
X42821637Y-45793788D01*
X42649406Y-45737828D01*
X42470549Y-45709500D01*
X42470546Y-45709500D01*
X42289454Y-45709500D01*
X42289451Y-45709500D01*
X42110593Y-45737828D01*
X41938362Y-45793788D01*
X41777008Y-45876002D01*
X41703752Y-45929225D01*
X41630499Y-45982447D01*
X41502447Y-46110499D01*
X41480205Y-46141113D01*
X41396002Y-46257008D01*
X41313788Y-46418362D01*
X41257828Y-46590593D01*
X41229500Y-46769450D01*
X40990500Y-46769450D01*
X40962171Y-46590593D01*
X40962171Y-46590591D01*
X40906211Y-46418361D01*
X40823996Y-46257006D01*
X40717553Y-46110499D01*
X40589501Y-45982447D01*
X40442994Y-45876004D01*
X40442993Y-45876003D01*
X40442991Y-45876002D01*
X40281637Y-45793788D01*
X40109406Y-45737828D01*
X39930549Y-45709500D01*
X39930546Y-45709500D01*
X39749454Y-45709500D01*
X39749451Y-45709500D01*
X39570593Y-45737828D01*
X39398362Y-45793788D01*
X39237008Y-45876002D01*
X39163752Y-45929225D01*
X39090499Y-45982447D01*
X38962447Y-46110499D01*
X38940205Y-46141113D01*
X38856002Y-46257008D01*
X38773788Y-46418362D01*
X38717828Y-46590593D01*
X38689500Y-46769450D01*
X38450500Y-46769450D01*
X38422171Y-46590593D01*
X38422171Y-46590591D01*
X38366211Y-46418361D01*
X38283996Y-46257006D01*
X38177553Y-46110499D01*
X38049501Y-45982447D01*
X37902994Y-45876004D01*
X37902993Y-45876003D01*
X37902991Y-45876002D01*
X37741637Y-45793788D01*
X37569406Y-45737828D01*
X37390549Y-45709500D01*
X37390546Y-45709500D01*
X37209454Y-45709500D01*
X37209451Y-45709500D01*
X37030593Y-45737828D01*
X36858362Y-45793788D01*
X36697008Y-45876002D01*
X36623752Y-45929225D01*
X36550499Y-45982447D01*
X36422447Y-46110499D01*
X36400205Y-46141113D01*
X36316002Y-46257008D01*
X36233788Y-46418362D01*
X36177828Y-46590593D01*
X36149500Y-46769450D01*
X35910500Y-46769450D01*
X35882171Y-46590593D01*
X35882171Y-46590591D01*
X35826211Y-46418361D01*
X35743996Y-46257006D01*
X35637553Y-46110499D01*
X35509501Y-45982447D01*
X35362994Y-45876004D01*
X35362993Y-45876003D01*
X35362991Y-45876002D01*
X35201637Y-45793788D01*
X35029406Y-45737828D01*
X34850549Y-45709500D01*
X34850546Y-45709500D01*
X34669454Y-45709500D01*
X34669451Y-45709500D01*
X34490593Y-45737828D01*
X34318362Y-45793788D01*
X34157008Y-45876002D01*
X34083752Y-45929225D01*
X34010499Y-45982447D01*
X33882447Y-46110499D01*
X33860205Y-46141113D01*
X33776002Y-46257008D01*
X33693788Y-46418362D01*
X33637828Y-46590593D01*
X33609500Y-46769450D01*
X33370500Y-46769450D01*
X33342171Y-46590593D01*
X33342171Y-46590591D01*
X33286211Y-46418361D01*
X33203996Y-46257006D01*
X33097553Y-46110499D01*
X32969501Y-45982447D01*
X32822994Y-45876004D01*
X32822993Y-45876003D01*
X32822991Y-45876002D01*
X32661637Y-45793788D01*
X32489406Y-45737828D01*
X32310549Y-45709500D01*
X32310546Y-45709500D01*
X32129454Y-45709500D01*
X32129451Y-45709500D01*
X31950593Y-45737828D01*
X31778362Y-45793788D01*
X31617008Y-45876002D01*
X31543752Y-45929225D01*
X31470499Y-45982447D01*
X31342447Y-46110499D01*
X31320205Y-46141113D01*
X31236002Y-46257008D01*
X31153788Y-46418362D01*
X31097828Y-46590593D01*
X31069500Y-46769450D01*
X30830500Y-46769450D01*
X30802171Y-46590593D01*
X30802171Y-46590591D01*
X30746211Y-46418361D01*
X30663996Y-46257006D01*
X30557553Y-46110499D01*
X30429501Y-45982447D01*
X30282994Y-45876004D01*
X30282993Y-45876003D01*
X30282991Y-45876002D01*
X30121637Y-45793788D01*
X29949406Y-45737828D01*
X29770549Y-45709500D01*
X29770546Y-45709500D01*
X29589454Y-45709500D01*
X29589451Y-45709500D01*
X29410593Y-45737828D01*
X29238362Y-45793788D01*
X29077008Y-45876002D01*
X29003752Y-45929225D01*
X28930499Y-45982447D01*
X28802447Y-46110499D01*
X28780205Y-46141113D01*
X28696002Y-46257008D01*
X28613788Y-46418362D01*
X28557828Y-46590593D01*
X28529500Y-46769450D01*
X28290500Y-46769450D01*
X28262171Y-46590593D01*
X28262171Y-46590591D01*
X28206211Y-46418361D01*
X28123996Y-46257006D01*
X28017553Y-46110499D01*
X27889501Y-45982447D01*
X27742994Y-45876004D01*
X27742993Y-45876003D01*
X27742991Y-45876002D01*
X27581637Y-45793788D01*
X27409406Y-45737828D01*
X27230549Y-45709500D01*
X27230546Y-45709500D01*
X27049454Y-45709500D01*
X27049451Y-45709500D01*
X26870593Y-45737828D01*
X26698362Y-45793788D01*
X26537008Y-45876002D01*
X26463752Y-45929225D01*
X26390499Y-45982447D01*
X26262447Y-46110499D01*
X26240205Y-46141113D01*
X26156002Y-46257008D01*
X26073788Y-46418362D01*
X26017828Y-46590593D01*
X25989500Y-46769450D01*
X25750500Y-46769450D01*
X25722171Y-46590593D01*
X25722171Y-46590591D01*
X25666211Y-46418361D01*
X25583996Y-46257006D01*
X25477553Y-46110499D01*
X25349501Y-45982447D01*
X25202994Y-45876004D01*
X25202993Y-45876003D01*
X25202991Y-45876002D01*
X25041637Y-45793788D01*
X24869406Y-45737828D01*
X24690549Y-45709500D01*
X24690546Y-45709500D01*
X24509454Y-45709500D01*
X24509451Y-45709500D01*
X24330593Y-45737828D01*
X24158362Y-45793788D01*
X23997008Y-45876002D01*
X23923752Y-45929225D01*
X23850499Y-45982447D01*
X23722447Y-46110499D01*
X23700205Y-46141113D01*
X23616002Y-46257008D01*
X23533788Y-46418362D01*
X23477828Y-46590593D01*
X23449500Y-46769450D01*
X23210500Y-46769450D01*
X23182171Y-46590593D01*
X23182171Y-46590591D01*
X23126211Y-46418361D01*
X23043996Y-46257006D01*
X22937553Y-46110499D01*
X22809501Y-45982447D01*
X22662994Y-45876004D01*
X22662993Y-45876003D01*
X22662991Y-45876002D01*
X22501637Y-45793788D01*
X22329406Y-45737828D01*
X22150549Y-45709500D01*
X22150546Y-45709500D01*
X21969454Y-45709500D01*
X21969451Y-45709500D01*
X21790593Y-45737828D01*
X21618362Y-45793788D01*
X21457008Y-45876002D01*
X21383752Y-45929225D01*
X21310499Y-45982447D01*
X21182447Y-46110499D01*
X21160205Y-46141113D01*
X21076002Y-46257008D01*
X20993788Y-46418362D01*
X20937828Y-46590593D01*
X20909500Y-46769450D01*
X20670500Y-46769450D01*
X20642171Y-46590593D01*
X20642171Y-46590591D01*
X20586211Y-46418361D01*
X20503996Y-46257006D01*
X20397553Y-46110499D01*
X20269501Y-45982447D01*
X20122994Y-45876004D01*
X20122993Y-45876003D01*
X20122991Y-45876002D01*
X19961637Y-45793788D01*
X19789406Y-45737828D01*
X19610549Y-45709500D01*
X19610546Y-45709500D01*
X19429454Y-45709500D01*
X19429451Y-45709500D01*
X19250593Y-45737828D01*
X19078362Y-45793788D01*
X18917008Y-45876002D01*
X18843752Y-45929225D01*
X18770499Y-45982447D01*
X18642447Y-46110499D01*
X18620205Y-46141113D01*
X18536002Y-46257008D01*
X18453788Y-46418362D01*
X18397828Y-46590593D01*
X18369500Y-46769450D01*
X18130500Y-46769450D01*
X18102171Y-46590593D01*
X18102171Y-46590591D01*
X18046211Y-46418361D01*
X17963996Y-46257006D01*
X17857553Y-46110499D01*
X17729501Y-45982447D01*
X17582994Y-45876004D01*
X17582993Y-45876003D01*
X17582991Y-45876002D01*
X17421637Y-45793788D01*
X17249406Y-45737828D01*
X17070549Y-45709500D01*
X17070546Y-45709500D01*
X16889454Y-45709500D01*
X16889451Y-45709500D01*
X16710593Y-45737828D01*
X16538362Y-45793788D01*
X16377008Y-45876002D01*
X16303752Y-45929225D01*
X16230499Y-45982447D01*
X16102447Y-46110499D01*
X16080205Y-46141113D01*
X15996002Y-46257008D01*
X15913788Y-46418362D01*
X15857828Y-46590593D01*
X15829500Y-46769450D01*
X15590500Y-46769450D01*
X15562171Y-46590593D01*
X15562171Y-46590591D01*
X15506211Y-46418361D01*
X15423996Y-46257006D01*
X15317553Y-46110499D01*
X15189501Y-45982447D01*
X15042994Y-45876004D01*
X15042993Y-45876003D01*
X15042991Y-45876002D01*
X14881637Y-45793788D01*
X14709406Y-45737828D01*
X14530549Y-45709500D01*
X14530546Y-45709500D01*
X14349454Y-45709500D01*
X14349451Y-45709500D01*
X14170593Y-45737828D01*
X13998362Y-45793788D01*
X13837008Y-45876002D01*
X13763752Y-45929225D01*
X13690499Y-45982447D01*
X13562447Y-46110499D01*
X13540205Y-46141113D01*
X13456002Y-46257008D01*
X13373788Y-46418362D01*
X13317828Y-46590593D01*
X13289500Y-46769450D01*
X13050500Y-46769450D01*
X13022171Y-46590593D01*
X13022171Y-46590591D01*
X12966211Y-46418361D01*
X12883996Y-46257006D01*
X12777553Y-46110499D01*
X12649501Y-45982447D01*
X12502994Y-45876004D01*
X12502993Y-45876003D01*
X12502991Y-45876002D01*
X12341637Y-45793788D01*
X12169406Y-45737828D01*
X11990549Y-45709500D01*
X11990546Y-45709500D01*
X11809454Y-45709500D01*
X11809451Y-45709500D01*
X11630593Y-45737828D01*
X11458362Y-45793788D01*
X11297008Y-45876002D01*
X11223752Y-45929225D01*
X11150499Y-45982447D01*
X11022447Y-46110499D01*
X11000205Y-46141113D01*
X10916002Y-46257008D01*
X10833788Y-46418362D01*
X10777828Y-46590593D01*
X10749500Y-46769450D01*
X10510500Y-46769450D01*
X10482171Y-46590593D01*
X10482171Y-46590591D01*
X10426211Y-46418361D01*
X10343996Y-46257006D01*
X10237553Y-46110499D01*
X10109501Y-45982447D01*
X9962994Y-45876004D01*
X9962993Y-45876003D01*
X9962991Y-45876002D01*
X9801637Y-45793788D01*
X9629406Y-45737828D01*
X9450549Y-45709500D01*
X9450546Y-45709500D01*
X9269454Y-45709500D01*
X9269451Y-45709500D01*
X9090593Y-45737828D01*
X8918362Y-45793788D01*
X8757008Y-45876002D01*
X8683752Y-45929225D01*
X8610499Y-45982447D01*
X8482447Y-46110499D01*
X8460205Y-46141113D01*
X8376002Y-46257008D01*
X8293788Y-46418362D01*
X8237828Y-46590593D01*
X8209500Y-46769450D01*
X7970500Y-46769450D01*
X7942171Y-46590593D01*
X7942171Y-46590591D01*
X7886211Y-46418361D01*
X7803996Y-46257006D01*
X7697553Y-46110499D01*
X7569501Y-45982447D01*
X7422994Y-45876004D01*
X7422993Y-45876003D01*
X7422991Y-45876002D01*
X7261637Y-45793788D01*
X7089406Y-45737828D01*
X6910549Y-45709500D01*
X6910546Y-45709500D01*
X6729454Y-45709500D01*
X6729451Y-45709500D01*
X6550593Y-45737828D01*
X6378362Y-45793788D01*
X6217008Y-45876002D01*
X6143752Y-45929225D01*
X6070499Y-45982447D01*
X5942447Y-46110499D01*
X5920205Y-46141113D01*
X5836002Y-46257008D01*
X5753788Y-46418362D01*
X5697828Y-46590593D01*
X5669500Y-46769450D01*
X5430500Y-46769450D01*
X5402171Y-46590593D01*
X5402171Y-46590591D01*
X5346211Y-46418361D01*
X5263996Y-46257006D01*
X5157553Y-46110499D01*
X5029501Y-45982447D01*
X4882994Y-45876004D01*
X4882993Y-45876003D01*
X4882991Y-45876002D01*
X4721637Y-45793788D01*
X4549406Y-45737828D01*
X4370549Y-45709500D01*
X4370546Y-45709500D01*
X4189454Y-45709500D01*
X4189451Y-45709500D01*
X4010593Y-45737828D01*
X3838362Y-45793788D01*
X3677008Y-45876002D01*
X3603752Y-45929225D01*
X3530499Y-45982447D01*
X3402447Y-46110499D01*
X3380205Y-46141113D01*
X3296002Y-46257008D01*
X3213788Y-46418362D01*
X3157828Y-46590593D01*
X3129500Y-46769450D01*
X2890500Y-46769450D01*
X2862171Y-46590593D01*
X2862171Y-46590591D01*
X2806211Y-46418361D01*
X2723996Y-46257006D01*
X2617553Y-46110499D01*
X2489501Y-45982447D01*
X2342994Y-45876004D01*
X2342993Y-45876003D01*
X2342991Y-45876002D01*
X2181637Y-45793788D01*
X2009406Y-45737828D01*
X1830549Y-45709500D01*
X1830546Y-45709500D01*
X1649454Y-45709500D01*
X1649451Y-45709500D01*
X1470593Y-45737828D01*
X1298362Y-45793788D01*
X1137008Y-45876002D01*
X1063752Y-45929225D01*
X990499Y-45982447D01*
X862447Y-46110499D01*
X831974Y-46152442D01*
X779093Y-46225227D01*
X729592Y-46261191D01*
X668407Y-46261191D01*
X618907Y-46225227D01*
X600000Y-46167036D01*
X600000Y-42056893D01*
X54449500Y-42056893D01*
X54449500Y-44143106D01*
X54460123Y-44231565D01*
X54515637Y-44372339D01*
X54515638Y-44372341D01*
X54515639Y-44372342D01*
X54607078Y-44492922D01*
X54727658Y-44584361D01*
X54727659Y-44584361D01*
X54727660Y-44584362D01*
X54798047Y-44612119D01*
X54868436Y-44639877D01*
X54956898Y-44650500D01*
X54956900Y-44650500D01*
X57043100Y-44650500D01*
X57043102Y-44650500D01*
X57131564Y-44639877D01*
X57272342Y-44584361D01*
X57392922Y-44492922D01*
X57484361Y-44372342D01*
X57539877Y-44231564D01*
X57550500Y-44143102D01*
X57550500Y-42977969D01*
X66649500Y-42977969D01*
X66649500Y-43222030D01*
X66687677Y-43463071D01*
X66763096Y-43695185D01*
X66873892Y-43912637D01*
X66952348Y-44020623D01*
X67017345Y-44110083D01*
X67189917Y-44282655D01*
X67313357Y-44372339D01*
X67387362Y-44426107D01*
X67496088Y-44481505D01*
X67604815Y-44536904D01*
X67836924Y-44612321D01*
X67836925Y-44612321D01*
X67836928Y-44612322D01*
X68077970Y-44650500D01*
X68077973Y-44650500D01*
X68322030Y-44650500D01*
X68563071Y-44612322D01*
X68563072Y-44612321D01*
X68563076Y-44612321D01*
X68795185Y-44536904D01*
X69012639Y-44426106D01*
X69210083Y-44282655D01*
X69382655Y-44110083D01*
X69526106Y-43912639D01*
X69636904Y-43695185D01*
X69712321Y-43463076D01*
X69750500Y-43222027D01*
X69750500Y-42977973D01*
X69750500Y-42977969D01*
X69712322Y-42736928D01*
X69712321Y-42736924D01*
X69636904Y-42504815D01*
X69526106Y-42287361D01*
X69382655Y-42089917D01*
X69210083Y-41917345D01*
X69086639Y-41827658D01*
X69012637Y-41773892D01*
X68795185Y-41663096D01*
X68563071Y-41587677D01*
X68322030Y-41549500D01*
X68322027Y-41549500D01*
X68077973Y-41549500D01*
X68077970Y-41549500D01*
X67836928Y-41587677D01*
X67604814Y-41663096D01*
X67387362Y-41773892D01*
X67189918Y-41917344D01*
X67017344Y-42089918D01*
X66873892Y-42287362D01*
X66763096Y-42504814D01*
X66687677Y-42736928D01*
X66649500Y-42977969D01*
X57550500Y-42977969D01*
X57550500Y-42056898D01*
X57539877Y-41968436D01*
X57484361Y-41827658D01*
X57392922Y-41707078D01*
X57272342Y-41615639D01*
X57272341Y-41615638D01*
X57272339Y-41615637D01*
X57131565Y-41560123D01*
X57043106Y-41549500D01*
X57043102Y-41549500D01*
X54956898Y-41549500D01*
X54956893Y-41549500D01*
X54868434Y-41560123D01*
X54727660Y-41615637D01*
X54727656Y-41615640D01*
X54607081Y-41707075D01*
X54607075Y-41707081D01*
X54515640Y-41827656D01*
X54515637Y-41827660D01*
X54460123Y-41968434D01*
X54449500Y-42056893D01*
X600000Y-42056893D01*
X600000Y-28906893D01*
X55399500Y-28906893D01*
X55399500Y-31093106D01*
X55410123Y-31181565D01*
X55465637Y-31322339D01*
X55465638Y-31322341D01*
X55465639Y-31322342D01*
X55557078Y-31442922D01*
X55677658Y-31534361D01*
X55677659Y-31534361D01*
X55677660Y-31534362D01*
X55745438Y-31561090D01*
X55818436Y-31589877D01*
X55906898Y-31600500D01*
X55906900Y-31600500D01*
X58093100Y-31600500D01*
X58093102Y-31600500D01*
X58181564Y-31589877D01*
X58322342Y-31534361D01*
X58442922Y-31442922D01*
X58534361Y-31322342D01*
X58589877Y-31181564D01*
X58600500Y-31093102D01*
X58600500Y-29874034D01*
X60399500Y-29874034D01*
X60399500Y-30125965D01*
X60438908Y-30374780D01*
X60438910Y-30374785D01*
X60516759Y-30614379D01*
X60631130Y-30838845D01*
X60779207Y-31042656D01*
X60957344Y-31220793D01*
X61161155Y-31368870D01*
X61385621Y-31483241D01*
X61625215Y-31561090D01*
X61625216Y-31561090D01*
X61625219Y-31561091D01*
X61874035Y-31600500D01*
X61874038Y-31600500D01*
X62125965Y-31600500D01*
X62374780Y-31561091D01*
X62374781Y-31561090D01*
X62374785Y-31561090D01*
X62614379Y-31483241D01*
X62838845Y-31368870D01*
X63042656Y-31220793D01*
X63220793Y-31042656D01*
X63368870Y-30838845D01*
X63483241Y-30614379D01*
X63561090Y-30374785D01*
X63600500Y-30125962D01*
X63600500Y-29874038D01*
X63600500Y-29874034D01*
X65399500Y-29874034D01*
X65399500Y-30125965D01*
X65438908Y-30374780D01*
X65438910Y-30374785D01*
X65516759Y-30614379D01*
X65631130Y-30838845D01*
X65779207Y-31042656D01*
X65957344Y-31220793D01*
X66161155Y-31368870D01*
X66385621Y-31483241D01*
X66625215Y-31561090D01*
X66625216Y-31561090D01*
X66625219Y-31561091D01*
X66874035Y-31600500D01*
X66874038Y-31600500D01*
X67125965Y-31600500D01*
X67374780Y-31561091D01*
X67374781Y-31561090D01*
X67374785Y-31561090D01*
X67614379Y-31483241D01*
X67838845Y-31368870D01*
X68042656Y-31220793D01*
X68220793Y-31042656D01*
X68368870Y-30838845D01*
X68483241Y-30614379D01*
X68561090Y-30374785D01*
X68600500Y-30125962D01*
X68600500Y-29874038D01*
X68600500Y-29874034D01*
X68561091Y-29625219D01*
X68561090Y-29625215D01*
X68483241Y-29385621D01*
X68368870Y-29161155D01*
X68220793Y-28957344D01*
X68042656Y-28779207D01*
X67838845Y-28631130D01*
X67838844Y-28631129D01*
X67838842Y-28631128D01*
X67614379Y-28516759D01*
X67374780Y-28438908D01*
X67125965Y-28399500D01*
X67125962Y-28399500D01*
X66874038Y-28399500D01*
X66874035Y-28399500D01*
X66625219Y-28438908D01*
X66385620Y-28516759D01*
X66161157Y-28631128D01*
X65957345Y-28779206D01*
X65779206Y-28957345D01*
X65631128Y-29161157D01*
X65516759Y-29385620D01*
X65438908Y-29625219D01*
X65399500Y-29874034D01*
X63600500Y-29874034D01*
X63561091Y-29625219D01*
X63561090Y-29625215D01*
X63483241Y-29385621D01*
X63368870Y-29161155D01*
X63220793Y-28957344D01*
X63042656Y-28779207D01*
X62838845Y-28631130D01*
X62838844Y-28631129D01*
X62838842Y-28631128D01*
X62614379Y-28516759D01*
X62374780Y-28438908D01*
X62125965Y-28399500D01*
X62125962Y-28399500D01*
X61874038Y-28399500D01*
X61874035Y-28399500D01*
X61625219Y-28438908D01*
X61385620Y-28516759D01*
X61161157Y-28631128D01*
X60957345Y-28779206D01*
X60779206Y-28957345D01*
X60631128Y-29161157D01*
X60516759Y-29385620D01*
X60438908Y-29625219D01*
X60399500Y-29874034D01*
X58600500Y-29874034D01*
X58600500Y-28906898D01*
X58589877Y-28818436D01*
X58534361Y-28677658D01*
X58442922Y-28557078D01*
X58322342Y-28465639D01*
X58322341Y-28465638D01*
X58322339Y-28465637D01*
X58181565Y-28410123D01*
X58093106Y-28399500D01*
X58093102Y-28399500D01*
X55906898Y-28399500D01*
X55906893Y-28399500D01*
X55818434Y-28410123D01*
X55677660Y-28465637D01*
X55677656Y-28465640D01*
X55557081Y-28557075D01*
X55557075Y-28557081D01*
X55465640Y-28677656D01*
X55465637Y-28677660D01*
X55410123Y-28818434D01*
X55399500Y-28906893D01*
X600000Y-28906893D01*
X600000Y-26073385D01*
X74899500Y-26073385D01*
X74899500Y-26246614D01*
X74926597Y-26417702D01*
X74926598Y-26417706D01*
X74980123Y-26582438D01*
X74980125Y-26582441D01*
X74980126Y-26582444D01*
X74980127Y-26582445D01*
X75058768Y-26736788D01*
X75160586Y-26876928D01*
X75283072Y-26999414D01*
X75423212Y-27101232D01*
X75577555Y-27179873D01*
X75577557Y-27179873D01*
X75577558Y-27179874D01*
X75577561Y-27179876D01*
X75742293Y-27233401D01*
X75742297Y-27233402D01*
X75913386Y-27260500D01*
X75913389Y-27260500D01*
X76086614Y-27260500D01*
X76257702Y-27233402D01*
X76257706Y-27233401D01*
X76422438Y-27179876D01*
X76422440Y-27179874D01*
X76422445Y-27179873D01*
X76576788Y-27101232D01*
X76716928Y-26999414D01*
X76839414Y-26876928D01*
X76941232Y-26736788D01*
X77019873Y-26582445D01*
X77019874Y-26582440D01*
X77019876Y-26582438D01*
X77073401Y-26417706D01*
X77073402Y-26417702D01*
X77100500Y-26246614D01*
X77100500Y-26073385D01*
X77073402Y-25902297D01*
X77073401Y-25902293D01*
X77019876Y-25737561D01*
X77019874Y-25737558D01*
X77019873Y-25737557D01*
X77019873Y-25737555D01*
X76941232Y-25583212D01*
X76839414Y-25443072D01*
X76716928Y-25320586D01*
X76576788Y-25218768D01*
X76576787Y-25218767D01*
X76576785Y-25218766D01*
X76422441Y-25140125D01*
X76422438Y-25140123D01*
X76257706Y-25086598D01*
X76257702Y-25086597D01*
X76086614Y-25059500D01*
X76086611Y-25059500D01*
X75913389Y-25059500D01*
X75913386Y-25059500D01*
X75742297Y-25086597D01*
X75742293Y-25086598D01*
X75577561Y-25140123D01*
X75577558Y-25140125D01*
X75423214Y-25218766D01*
X75283073Y-25320585D01*
X75160585Y-25443073D01*
X75058766Y-25583214D01*
X74980125Y-25737558D01*
X74980123Y-25737561D01*
X74926598Y-25902293D01*
X74926597Y-25902297D01*
X74899500Y-26073385D01*
X600000Y-26073385D01*
X600000Y-24917681D01*
X600000Y-24917680D01*
X600000Y-24788095D01*
X604385Y-24782059D01*
X1257036Y-24129407D01*
X1274075Y-24192993D01*
X1339901Y-24307007D01*
X1432993Y-24400099D01*
X1547007Y-24465925D01*
X1610589Y-24482962D01*
X978282Y-25115269D01*
X978282Y-25115270D01*
X1032440Y-25154619D01*
X1032446Y-25154623D01*
X1221784Y-25251095D01*
X1423878Y-25316759D01*
X1633750Y-25350000D01*
X1846250Y-25350000D01*
X2056121Y-25316759D01*
X2258215Y-25251095D01*
X2447556Y-25154620D01*
X2501716Y-25115270D01*
X1869408Y-24482962D01*
X1932993Y-24465925D01*
X2047007Y-24400099D01*
X2140099Y-24307007D01*
X2205925Y-24192993D01*
X2222962Y-24129408D01*
X2855270Y-24761716D01*
X2894622Y-24707554D01*
X2921789Y-24654235D01*
X2965053Y-24610970D01*
X3025485Y-24601398D01*
X3080002Y-24629175D01*
X3098209Y-24654234D01*
X3125376Y-24707553D01*
X3125380Y-24707559D01*
X3164728Y-24761716D01*
X3164729Y-24761716D01*
X3797037Y-24129407D01*
X3814075Y-24192993D01*
X3879901Y-24307007D01*
X3972993Y-24400099D01*
X4087007Y-24465925D01*
X4150589Y-24482962D01*
X3518282Y-25115269D01*
X3518282Y-25115270D01*
X3572440Y-25154619D01*
X3572446Y-25154623D01*
X3761784Y-25251095D01*
X3963878Y-25316759D01*
X4173750Y-25350000D01*
X4386250Y-25350000D01*
X4596121Y-25316759D01*
X4798215Y-25251095D01*
X4987556Y-25154620D01*
X5041716Y-25115270D01*
X4409408Y-24482962D01*
X4472993Y-24465925D01*
X4587007Y-24400099D01*
X4680099Y-24307007D01*
X4745925Y-24192993D01*
X4762962Y-24129408D01*
X5395270Y-24761716D01*
X5434620Y-24707556D01*
X5531096Y-24518213D01*
X5560727Y-24427016D01*
X5596690Y-24377516D01*
X5654881Y-24358608D01*
X5713072Y-24377515D01*
X5749036Y-24427013D01*
X5753788Y-24441637D01*
X5835190Y-24601398D01*
X5836004Y-24602994D01*
X5942447Y-24749501D01*
X6070499Y-24877553D01*
X6217006Y-24983996D01*
X6378361Y-25066211D01*
X6550591Y-25122171D01*
X6622136Y-25133502D01*
X6729451Y-25150500D01*
X6729454Y-25150500D01*
X6910549Y-25150500D01*
X6999977Y-25136335D01*
X7089409Y-25122171D01*
X7261639Y-25066211D01*
X7422994Y-24983996D01*
X7569501Y-24877553D01*
X7697553Y-24749501D01*
X7803996Y-24602994D01*
X7886211Y-24441639D01*
X7942171Y-24269409D01*
X7970500Y-24090546D01*
X7970500Y-23909454D01*
X7970500Y-23909450D01*
X8209500Y-23909450D01*
X8209500Y-24090549D01*
X8237828Y-24269406D01*
X8293788Y-24441637D01*
X8375190Y-24601398D01*
X8376004Y-24602994D01*
X8482447Y-24749501D01*
X8610499Y-24877553D01*
X8757006Y-24983996D01*
X8918361Y-25066211D01*
X9090591Y-25122171D01*
X9162136Y-25133502D01*
X9269451Y-25150500D01*
X9269454Y-25150500D01*
X9450549Y-25150500D01*
X9539977Y-25136335D01*
X9629409Y-25122171D01*
X9801639Y-25066211D01*
X9962994Y-24983996D01*
X10109501Y-24877553D01*
X10237553Y-24749501D01*
X10343996Y-24602994D01*
X10426211Y-24441639D01*
X10482171Y-24269409D01*
X10510500Y-24090546D01*
X10510500Y-23909454D01*
X10510500Y-23909450D01*
X10749500Y-23909450D01*
X10749500Y-24090549D01*
X10777828Y-24269406D01*
X10833788Y-24441637D01*
X10915190Y-24601398D01*
X10916004Y-24602994D01*
X11022447Y-24749501D01*
X11150499Y-24877553D01*
X11297006Y-24983996D01*
X11458361Y-25066211D01*
X11630591Y-25122171D01*
X11702136Y-25133502D01*
X11809451Y-25150500D01*
X11809454Y-25150500D01*
X11990549Y-25150500D01*
X12079977Y-25136335D01*
X12169409Y-25122171D01*
X12341639Y-25066211D01*
X12502994Y-24983996D01*
X12649501Y-24877553D01*
X12777553Y-24749501D01*
X12883996Y-24602994D01*
X12966211Y-24441639D01*
X13022171Y-24269409D01*
X13050500Y-24090546D01*
X13050500Y-23909454D01*
X13050500Y-23909450D01*
X13289500Y-23909450D01*
X13289500Y-24090549D01*
X13317828Y-24269406D01*
X13373788Y-24441637D01*
X13455190Y-24601398D01*
X13456004Y-24602994D01*
X13562447Y-24749501D01*
X13690499Y-24877553D01*
X13837006Y-24983996D01*
X13998361Y-25066211D01*
X14170591Y-25122171D01*
X14242136Y-25133502D01*
X14349451Y-25150500D01*
X14349454Y-25150500D01*
X14530549Y-25150500D01*
X14619977Y-25136335D01*
X14709409Y-25122171D01*
X14881639Y-25066211D01*
X15042994Y-24983996D01*
X15189501Y-24877553D01*
X15317553Y-24749501D01*
X15423996Y-24602994D01*
X15506211Y-24441639D01*
X15562171Y-24269409D01*
X15590500Y-24090546D01*
X15590500Y-23909454D01*
X15590500Y-23909450D01*
X15829500Y-23909450D01*
X15829500Y-24090549D01*
X15857828Y-24269406D01*
X15913788Y-24441637D01*
X15995190Y-24601398D01*
X15996004Y-24602994D01*
X16102447Y-24749501D01*
X16230499Y-24877553D01*
X16377006Y-24983996D01*
X16538361Y-25066211D01*
X16710591Y-25122171D01*
X16782136Y-25133502D01*
X16889451Y-25150500D01*
X16889454Y-25150500D01*
X17070549Y-25150500D01*
X17159977Y-25136335D01*
X17249409Y-25122171D01*
X17421639Y-25066211D01*
X17582994Y-24983996D01*
X17729501Y-24877553D01*
X17857553Y-24749501D01*
X17963996Y-24602994D01*
X18046211Y-24441639D01*
X18102171Y-24269409D01*
X18130500Y-24090546D01*
X18130500Y-23909454D01*
X18130500Y-23909450D01*
X18369500Y-23909450D01*
X18369500Y-24090549D01*
X18397828Y-24269406D01*
X18453788Y-24441637D01*
X18535190Y-24601398D01*
X18536004Y-24602994D01*
X18642447Y-24749501D01*
X18770499Y-24877553D01*
X18917006Y-24983996D01*
X19078361Y-25066211D01*
X19250591Y-25122171D01*
X19322136Y-25133502D01*
X19429451Y-25150500D01*
X19429454Y-25150500D01*
X19610549Y-25150500D01*
X19699977Y-25136335D01*
X19789409Y-25122171D01*
X19961639Y-25066211D01*
X20122994Y-24983996D01*
X20269501Y-24877553D01*
X20397553Y-24749501D01*
X20503996Y-24602994D01*
X20586211Y-24441639D01*
X20642171Y-24269409D01*
X20670500Y-24090546D01*
X20670500Y-23909454D01*
X20670500Y-23909450D01*
X20909500Y-23909450D01*
X20909500Y-24090549D01*
X20937828Y-24269406D01*
X20993788Y-24441637D01*
X21075190Y-24601398D01*
X21076004Y-24602994D01*
X21182447Y-24749501D01*
X21310499Y-24877553D01*
X21457006Y-24983996D01*
X21618361Y-25066211D01*
X21790591Y-25122171D01*
X21862136Y-25133502D01*
X21969451Y-25150500D01*
X21969454Y-25150500D01*
X22150549Y-25150500D01*
X22239977Y-25136335D01*
X22329409Y-25122171D01*
X22501639Y-25066211D01*
X22662994Y-24983996D01*
X22809501Y-24877553D01*
X22937553Y-24749501D01*
X23043996Y-24602994D01*
X23126211Y-24441639D01*
X23182171Y-24269409D01*
X23210500Y-24090546D01*
X23210500Y-23909454D01*
X23210500Y-23909450D01*
X23449500Y-23909450D01*
X23449500Y-24090549D01*
X23477828Y-24269406D01*
X23533788Y-24441637D01*
X23615190Y-24601398D01*
X23616004Y-24602994D01*
X23722447Y-24749501D01*
X23850499Y-24877553D01*
X23997006Y-24983996D01*
X24158361Y-25066211D01*
X24330591Y-25122171D01*
X24402136Y-25133502D01*
X24509451Y-25150500D01*
X24509454Y-25150500D01*
X24690549Y-25150500D01*
X24779977Y-25136335D01*
X24869409Y-25122171D01*
X25041639Y-25066211D01*
X25202994Y-24983996D01*
X25349501Y-24877553D01*
X25477553Y-24749501D01*
X25583996Y-24602994D01*
X25666211Y-24441639D01*
X25722171Y-24269409D01*
X25750500Y-24090546D01*
X25750500Y-23909454D01*
X25750500Y-23909450D01*
X25989500Y-23909450D01*
X25989500Y-24090549D01*
X26017828Y-24269406D01*
X26073788Y-24441637D01*
X26155190Y-24601398D01*
X26156004Y-24602994D01*
X26262447Y-24749501D01*
X26390499Y-24877553D01*
X26537006Y-24983996D01*
X26698361Y-25066211D01*
X26870591Y-25122171D01*
X26942136Y-25133502D01*
X27049451Y-25150500D01*
X27049454Y-25150500D01*
X27230549Y-25150500D01*
X27319977Y-25136335D01*
X27409409Y-25122171D01*
X27581639Y-25066211D01*
X27742994Y-24983996D01*
X27889501Y-24877553D01*
X28017553Y-24749501D01*
X28123996Y-24602994D01*
X28206211Y-24441639D01*
X28262171Y-24269409D01*
X28290500Y-24090546D01*
X28290500Y-23909454D01*
X28290500Y-23909450D01*
X28529500Y-23909450D01*
X28529500Y-24090549D01*
X28557828Y-24269406D01*
X28613788Y-24441637D01*
X28695190Y-24601398D01*
X28696004Y-24602994D01*
X28802447Y-24749501D01*
X28930499Y-24877553D01*
X29077006Y-24983996D01*
X29238361Y-25066211D01*
X29410591Y-25122171D01*
X29482136Y-25133502D01*
X29589451Y-25150500D01*
X29589454Y-25150500D01*
X29770549Y-25150500D01*
X29859977Y-25136335D01*
X29949409Y-25122171D01*
X30121639Y-25066211D01*
X30282994Y-24983996D01*
X30429501Y-24877553D01*
X30557553Y-24749501D01*
X30663996Y-24602994D01*
X30746211Y-24441639D01*
X30802171Y-24269409D01*
X30830500Y-24090546D01*
X30830500Y-23909454D01*
X30830500Y-23909450D01*
X31069500Y-23909450D01*
X31069500Y-24090549D01*
X31097828Y-24269406D01*
X31153788Y-24441637D01*
X31235190Y-24601398D01*
X31236004Y-24602994D01*
X31342447Y-24749501D01*
X31470499Y-24877553D01*
X31617006Y-24983996D01*
X31778361Y-25066211D01*
X31950591Y-25122171D01*
X32022136Y-25133502D01*
X32129451Y-25150500D01*
X32129454Y-25150500D01*
X32310549Y-25150500D01*
X32399977Y-25136335D01*
X32489409Y-25122171D01*
X32661639Y-25066211D01*
X32822994Y-24983996D01*
X32969501Y-24877553D01*
X33097553Y-24749501D01*
X33203996Y-24602994D01*
X33286211Y-24441639D01*
X33342171Y-24269409D01*
X33370500Y-24090546D01*
X33370500Y-23909454D01*
X33370500Y-23909450D01*
X33609500Y-23909450D01*
X33609500Y-24090549D01*
X33637828Y-24269406D01*
X33693788Y-24441637D01*
X33775190Y-24601398D01*
X33776004Y-24602994D01*
X33882447Y-24749501D01*
X34010499Y-24877553D01*
X34157006Y-24983996D01*
X34318361Y-25066211D01*
X34490591Y-25122171D01*
X34562136Y-25133502D01*
X34669451Y-25150500D01*
X34669454Y-25150500D01*
X34850549Y-25150500D01*
X34939977Y-25136335D01*
X35029409Y-25122171D01*
X35201639Y-25066211D01*
X35362994Y-24983996D01*
X35509501Y-24877553D01*
X35637553Y-24749501D01*
X35743996Y-24602994D01*
X35826211Y-24441639D01*
X35882171Y-24269409D01*
X35910500Y-24090546D01*
X35910500Y-23909454D01*
X35910500Y-23909450D01*
X36149500Y-23909450D01*
X36149500Y-24090549D01*
X36177828Y-24269406D01*
X36233788Y-24441637D01*
X36315190Y-24601398D01*
X36316004Y-24602994D01*
X36422447Y-24749501D01*
X36550499Y-24877553D01*
X36697006Y-24983996D01*
X36858361Y-25066211D01*
X37030591Y-25122171D01*
X37102136Y-25133502D01*
X37209451Y-25150500D01*
X37209454Y-25150500D01*
X37390549Y-25150500D01*
X37479977Y-25136335D01*
X37569409Y-25122171D01*
X37741639Y-25066211D01*
X37902994Y-24983996D01*
X38049501Y-24877553D01*
X38177553Y-24749501D01*
X38283996Y-24602994D01*
X38366211Y-24441639D01*
X38422171Y-24269409D01*
X38450500Y-24090546D01*
X38450500Y-23909454D01*
X38450500Y-23909450D01*
X38689500Y-23909450D01*
X38689500Y-24090549D01*
X38717828Y-24269406D01*
X38773788Y-24441637D01*
X38855190Y-24601398D01*
X38856004Y-24602994D01*
X38962447Y-24749501D01*
X39090499Y-24877553D01*
X39237006Y-24983996D01*
X39398361Y-25066211D01*
X39570591Y-25122171D01*
X39642136Y-25133502D01*
X39749451Y-25150500D01*
X39749454Y-25150500D01*
X39930549Y-25150500D01*
X40019977Y-25136335D01*
X40109409Y-25122171D01*
X40281639Y-25066211D01*
X40442994Y-24983996D01*
X40589501Y-24877553D01*
X40717553Y-24749501D01*
X40823996Y-24602994D01*
X40906211Y-24441639D01*
X40962171Y-24269409D01*
X40990500Y-24090546D01*
X40990500Y-23909454D01*
X40990500Y-23909450D01*
X41229500Y-23909450D01*
X41229500Y-24090549D01*
X41257828Y-24269406D01*
X41313788Y-24441637D01*
X41395190Y-24601398D01*
X41396004Y-24602994D01*
X41502447Y-24749501D01*
X41630499Y-24877553D01*
X41777006Y-24983996D01*
X41938361Y-25066211D01*
X42110591Y-25122171D01*
X42182136Y-25133502D01*
X42289451Y-25150500D01*
X42289454Y-25150500D01*
X42470549Y-25150500D01*
X42559977Y-25136335D01*
X42649409Y-25122171D01*
X42821639Y-25066211D01*
X42982994Y-24983996D01*
X43129501Y-24877553D01*
X43257553Y-24749501D01*
X43363996Y-24602994D01*
X43446211Y-24441639D01*
X43502171Y-24269409D01*
X43530500Y-24090546D01*
X43530500Y-23909454D01*
X43530500Y-23909450D01*
X43769500Y-23909450D01*
X43769500Y-24090549D01*
X43797828Y-24269406D01*
X43853788Y-24441637D01*
X43935190Y-24601398D01*
X43936004Y-24602994D01*
X44042447Y-24749501D01*
X44170499Y-24877553D01*
X44317006Y-24983996D01*
X44478361Y-25066211D01*
X44650591Y-25122171D01*
X44722136Y-25133502D01*
X44829451Y-25150500D01*
X44829454Y-25150500D01*
X45010549Y-25150500D01*
X45099977Y-25136335D01*
X45189409Y-25122171D01*
X45361639Y-25066211D01*
X45522994Y-24983996D01*
X45669501Y-24877553D01*
X45797553Y-24749501D01*
X45903996Y-24602994D01*
X45986211Y-24441639D01*
X46042171Y-24269409D01*
X46070500Y-24090546D01*
X46070500Y-23909454D01*
X46070500Y-23909450D01*
X46309500Y-23909450D01*
X46309500Y-24090549D01*
X46337828Y-24269406D01*
X46393788Y-24441637D01*
X46475190Y-24601398D01*
X46476004Y-24602994D01*
X46582447Y-24749501D01*
X46710499Y-24877553D01*
X46857006Y-24983996D01*
X47018361Y-25066211D01*
X47190591Y-25122171D01*
X47262136Y-25133502D01*
X47369451Y-25150500D01*
X47369454Y-25150500D01*
X47550549Y-25150500D01*
X47639977Y-25136335D01*
X47729409Y-25122171D01*
X47901639Y-25066211D01*
X48062994Y-24983996D01*
X48209501Y-24877553D01*
X48337553Y-24749501D01*
X48443996Y-24602994D01*
X48526211Y-24441639D01*
X48582171Y-24269409D01*
X48610500Y-24090546D01*
X48610500Y-23909454D01*
X48610500Y-23909450D01*
X48582171Y-23730593D01*
X48582171Y-23730591D01*
X48526211Y-23558361D01*
X48443996Y-23397006D01*
X48337553Y-23250499D01*
X48209501Y-23122447D01*
X48185666Y-23105130D01*
X48849500Y-23105130D01*
X48849500Y-24894860D01*
X48849501Y-24894863D01*
X48852414Y-24919990D01*
X48877756Y-24977385D01*
X48897794Y-25022765D01*
X48977235Y-25102206D01*
X49080009Y-25147585D01*
X49105135Y-25150500D01*
X50894864Y-25150499D01*
X50919991Y-25147585D01*
X51022765Y-25102206D01*
X51102206Y-25022765D01*
X51147585Y-24919991D01*
X51150500Y-24894865D01*
X51150499Y-23105136D01*
X51147585Y-23080009D01*
X51102206Y-22977235D01*
X51022765Y-22897794D01*
X50919991Y-22852415D01*
X50919990Y-22852414D01*
X50919988Y-22852414D01*
X50894868Y-22849500D01*
X49105139Y-22849500D01*
X49105136Y-22849501D01*
X49080009Y-22852414D01*
X48977235Y-22897794D01*
X48897794Y-22977235D01*
X48852414Y-23080011D01*
X48849500Y-23105130D01*
X48185666Y-23105130D01*
X48062994Y-23016004D01*
X48062993Y-23016003D01*
X48062991Y-23016002D01*
X47901637Y-22933788D01*
X47729406Y-22877828D01*
X47550549Y-22849500D01*
X47550546Y-22849500D01*
X47369454Y-22849500D01*
X47369451Y-22849500D01*
X47190593Y-22877828D01*
X47018362Y-22933788D01*
X46857008Y-23016002D01*
X46783752Y-23069225D01*
X46710499Y-23122447D01*
X46582447Y-23250499D01*
X46551975Y-23292440D01*
X46476002Y-23397008D01*
X46393788Y-23558362D01*
X46337828Y-23730593D01*
X46309500Y-23909450D01*
X46070500Y-23909450D01*
X46042171Y-23730593D01*
X46042171Y-23730591D01*
X45986211Y-23558361D01*
X45903996Y-23397006D01*
X45797553Y-23250499D01*
X45669501Y-23122447D01*
X45522994Y-23016004D01*
X45522993Y-23016003D01*
X45522991Y-23016002D01*
X45361637Y-22933788D01*
X45189406Y-22877828D01*
X45010549Y-22849500D01*
X45010546Y-22849500D01*
X44829454Y-22849500D01*
X44829451Y-22849500D01*
X44650593Y-22877828D01*
X44478362Y-22933788D01*
X44317008Y-23016002D01*
X44243752Y-23069225D01*
X44170499Y-23122447D01*
X44042447Y-23250499D01*
X44011975Y-23292440D01*
X43936002Y-23397008D01*
X43853788Y-23558362D01*
X43797828Y-23730593D01*
X43769500Y-23909450D01*
X43530500Y-23909450D01*
X43502171Y-23730593D01*
X43502171Y-23730591D01*
X43446211Y-23558361D01*
X43363996Y-23397006D01*
X43257553Y-23250499D01*
X43129501Y-23122447D01*
X42982994Y-23016004D01*
X42982993Y-23016003D01*
X42982991Y-23016002D01*
X42821637Y-22933788D01*
X42649406Y-22877828D01*
X42470549Y-22849500D01*
X42470546Y-22849500D01*
X42289454Y-22849500D01*
X42289451Y-22849500D01*
X42110593Y-22877828D01*
X41938362Y-22933788D01*
X41777008Y-23016002D01*
X41703752Y-23069225D01*
X41630499Y-23122447D01*
X41502447Y-23250499D01*
X41471975Y-23292440D01*
X41396002Y-23397008D01*
X41313788Y-23558362D01*
X41257828Y-23730593D01*
X41229500Y-23909450D01*
X40990500Y-23909450D01*
X40962171Y-23730593D01*
X40962171Y-23730591D01*
X40906211Y-23558361D01*
X40823996Y-23397006D01*
X40717553Y-23250499D01*
X40589501Y-23122447D01*
X40442994Y-23016004D01*
X40442993Y-23016003D01*
X40442991Y-23016002D01*
X40281637Y-22933788D01*
X40109406Y-22877828D01*
X39930549Y-22849500D01*
X39930546Y-22849500D01*
X39749454Y-22849500D01*
X39749451Y-22849500D01*
X39570593Y-22877828D01*
X39398362Y-22933788D01*
X39237008Y-23016002D01*
X39163752Y-23069225D01*
X39090499Y-23122447D01*
X38962447Y-23250499D01*
X38931975Y-23292440D01*
X38856002Y-23397008D01*
X38773788Y-23558362D01*
X38717828Y-23730593D01*
X38689500Y-23909450D01*
X38450500Y-23909450D01*
X38422171Y-23730593D01*
X38422171Y-23730591D01*
X38366211Y-23558361D01*
X38283996Y-23397006D01*
X38177553Y-23250499D01*
X38049501Y-23122447D01*
X37902994Y-23016004D01*
X37902993Y-23016003D01*
X37902991Y-23016002D01*
X37741637Y-22933788D01*
X37569406Y-22877828D01*
X37390549Y-22849500D01*
X37390546Y-22849500D01*
X37209454Y-22849500D01*
X37209451Y-22849500D01*
X37030593Y-22877828D01*
X36858362Y-22933788D01*
X36697008Y-23016002D01*
X36623752Y-23069225D01*
X36550499Y-23122447D01*
X36422447Y-23250499D01*
X36391975Y-23292440D01*
X36316002Y-23397008D01*
X36233788Y-23558362D01*
X36177828Y-23730593D01*
X36149500Y-23909450D01*
X35910500Y-23909450D01*
X35882171Y-23730593D01*
X35882171Y-23730591D01*
X35826211Y-23558361D01*
X35743996Y-23397006D01*
X35637553Y-23250499D01*
X35509501Y-23122447D01*
X35362994Y-23016004D01*
X35362993Y-23016003D01*
X35362991Y-23016002D01*
X35201637Y-22933788D01*
X35029406Y-22877828D01*
X34850549Y-22849500D01*
X34850546Y-22849500D01*
X34669454Y-22849500D01*
X34669451Y-22849500D01*
X34490593Y-22877828D01*
X34318362Y-22933788D01*
X34157008Y-23016002D01*
X34083752Y-23069225D01*
X34010499Y-23122447D01*
X33882447Y-23250499D01*
X33851975Y-23292440D01*
X33776002Y-23397008D01*
X33693788Y-23558362D01*
X33637828Y-23730593D01*
X33609500Y-23909450D01*
X33370500Y-23909450D01*
X33342171Y-23730593D01*
X33342171Y-23730591D01*
X33286211Y-23558361D01*
X33203996Y-23397006D01*
X33097553Y-23250499D01*
X32969501Y-23122447D01*
X32822994Y-23016004D01*
X32822993Y-23016003D01*
X32822991Y-23016002D01*
X32661637Y-22933788D01*
X32489406Y-22877828D01*
X32310549Y-22849500D01*
X32310546Y-22849500D01*
X32129454Y-22849500D01*
X32129451Y-22849500D01*
X31950593Y-22877828D01*
X31778362Y-22933788D01*
X31617008Y-23016002D01*
X31543752Y-23069225D01*
X31470499Y-23122447D01*
X31342447Y-23250499D01*
X31311975Y-23292440D01*
X31236002Y-23397008D01*
X31153788Y-23558362D01*
X31097828Y-23730593D01*
X31069500Y-23909450D01*
X30830500Y-23909450D01*
X30802171Y-23730593D01*
X30802171Y-23730591D01*
X30746211Y-23558361D01*
X30663996Y-23397006D01*
X30557553Y-23250499D01*
X30429501Y-23122447D01*
X30282994Y-23016004D01*
X30282993Y-23016003D01*
X30282991Y-23016002D01*
X30121637Y-22933788D01*
X29949406Y-22877828D01*
X29770549Y-22849500D01*
X29770546Y-22849500D01*
X29589454Y-22849500D01*
X29589451Y-22849500D01*
X29410593Y-22877828D01*
X29238362Y-22933788D01*
X29077008Y-23016002D01*
X29003752Y-23069225D01*
X28930499Y-23122447D01*
X28802447Y-23250499D01*
X28771975Y-23292440D01*
X28696002Y-23397008D01*
X28613788Y-23558362D01*
X28557828Y-23730593D01*
X28529500Y-23909450D01*
X28290500Y-23909450D01*
X28262171Y-23730593D01*
X28262171Y-23730591D01*
X28206211Y-23558361D01*
X28123996Y-23397006D01*
X28017553Y-23250499D01*
X27889501Y-23122447D01*
X27742994Y-23016004D01*
X27742993Y-23016003D01*
X27742991Y-23016002D01*
X27581637Y-22933788D01*
X27409406Y-22877828D01*
X27230549Y-22849500D01*
X27230546Y-22849500D01*
X27049454Y-22849500D01*
X27049451Y-22849500D01*
X26870593Y-22877828D01*
X26698362Y-22933788D01*
X26537008Y-23016002D01*
X26463752Y-23069225D01*
X26390499Y-23122447D01*
X26262447Y-23250499D01*
X26231975Y-23292440D01*
X26156002Y-23397008D01*
X26073788Y-23558362D01*
X26017828Y-23730593D01*
X25989500Y-23909450D01*
X25750500Y-23909450D01*
X25722171Y-23730593D01*
X25722171Y-23730591D01*
X25666211Y-23558361D01*
X25583996Y-23397006D01*
X25477553Y-23250499D01*
X25349501Y-23122447D01*
X25202994Y-23016004D01*
X25202993Y-23016003D01*
X25202991Y-23016002D01*
X25041637Y-22933788D01*
X24869406Y-22877828D01*
X24690549Y-22849500D01*
X24690546Y-22849500D01*
X24509454Y-22849500D01*
X24509451Y-22849500D01*
X24330593Y-22877828D01*
X24158362Y-22933788D01*
X23997008Y-23016002D01*
X23923752Y-23069225D01*
X23850499Y-23122447D01*
X23722447Y-23250499D01*
X23691975Y-23292440D01*
X23616002Y-23397008D01*
X23533788Y-23558362D01*
X23477828Y-23730593D01*
X23449500Y-23909450D01*
X23210500Y-23909450D01*
X23182171Y-23730593D01*
X23182171Y-23730591D01*
X23126211Y-23558361D01*
X23043996Y-23397006D01*
X22937553Y-23250499D01*
X22809501Y-23122447D01*
X22662994Y-23016004D01*
X22662993Y-23016003D01*
X22662991Y-23016002D01*
X22501637Y-22933788D01*
X22329406Y-22877828D01*
X22150549Y-22849500D01*
X22150546Y-22849500D01*
X21969454Y-22849500D01*
X21969451Y-22849500D01*
X21790593Y-22877828D01*
X21618362Y-22933788D01*
X21457008Y-23016002D01*
X21383752Y-23069225D01*
X21310499Y-23122447D01*
X21182447Y-23250499D01*
X21151975Y-23292440D01*
X21076002Y-23397008D01*
X20993788Y-23558362D01*
X20937828Y-23730593D01*
X20909500Y-23909450D01*
X20670500Y-23909450D01*
X20642171Y-23730593D01*
X20642171Y-23730591D01*
X20586211Y-23558361D01*
X20503996Y-23397006D01*
X20397553Y-23250499D01*
X20269501Y-23122447D01*
X20122994Y-23016004D01*
X20122993Y-23016003D01*
X20122991Y-23016002D01*
X19961637Y-22933788D01*
X19789406Y-22877828D01*
X19610549Y-22849500D01*
X19610546Y-22849500D01*
X19429454Y-22849500D01*
X19429451Y-22849500D01*
X19250593Y-22877828D01*
X19078362Y-22933788D01*
X18917008Y-23016002D01*
X18843752Y-23069225D01*
X18770499Y-23122447D01*
X18642447Y-23250499D01*
X18611975Y-23292440D01*
X18536002Y-23397008D01*
X18453788Y-23558362D01*
X18397828Y-23730593D01*
X18369500Y-23909450D01*
X18130500Y-23909450D01*
X18102171Y-23730593D01*
X18102171Y-23730591D01*
X18046211Y-23558361D01*
X17963996Y-23397006D01*
X17857553Y-23250499D01*
X17729501Y-23122447D01*
X17582994Y-23016004D01*
X17582993Y-23016003D01*
X17582991Y-23016002D01*
X17421637Y-22933788D01*
X17249406Y-22877828D01*
X17070549Y-22849500D01*
X17070546Y-22849500D01*
X16889454Y-22849500D01*
X16889451Y-22849500D01*
X16710593Y-22877828D01*
X16538362Y-22933788D01*
X16377008Y-23016002D01*
X16303752Y-23069225D01*
X16230499Y-23122447D01*
X16102447Y-23250499D01*
X16071975Y-23292440D01*
X15996002Y-23397008D01*
X15913788Y-23558362D01*
X15857828Y-23730593D01*
X15829500Y-23909450D01*
X15590500Y-23909450D01*
X15562171Y-23730593D01*
X15562171Y-23730591D01*
X15506211Y-23558361D01*
X15423996Y-23397006D01*
X15317553Y-23250499D01*
X15189501Y-23122447D01*
X15042994Y-23016004D01*
X15042993Y-23016003D01*
X15042991Y-23016002D01*
X14881637Y-22933788D01*
X14709406Y-22877828D01*
X14530549Y-22849500D01*
X14530546Y-22849500D01*
X14349454Y-22849500D01*
X14349451Y-22849500D01*
X14170593Y-22877828D01*
X13998362Y-22933788D01*
X13837008Y-23016002D01*
X13763752Y-23069225D01*
X13690499Y-23122447D01*
X13562447Y-23250499D01*
X13531975Y-23292440D01*
X13456002Y-23397008D01*
X13373788Y-23558362D01*
X13317828Y-23730593D01*
X13289500Y-23909450D01*
X13050500Y-23909450D01*
X13022171Y-23730593D01*
X13022171Y-23730591D01*
X12966211Y-23558361D01*
X12883996Y-23397006D01*
X12777553Y-23250499D01*
X12649501Y-23122447D01*
X12502994Y-23016004D01*
X12502993Y-23016003D01*
X12502991Y-23016002D01*
X12341637Y-22933788D01*
X12169406Y-22877828D01*
X11990549Y-22849500D01*
X11990546Y-22849500D01*
X11809454Y-22849500D01*
X11809451Y-22849500D01*
X11630593Y-22877828D01*
X11458362Y-22933788D01*
X11297008Y-23016002D01*
X11223752Y-23069225D01*
X11150499Y-23122447D01*
X11022447Y-23250499D01*
X10991975Y-23292440D01*
X10916002Y-23397008D01*
X10833788Y-23558362D01*
X10777828Y-23730593D01*
X10749500Y-23909450D01*
X10510500Y-23909450D01*
X10482171Y-23730593D01*
X10482171Y-23730591D01*
X10426211Y-23558361D01*
X10343996Y-23397006D01*
X10237553Y-23250499D01*
X10109501Y-23122447D01*
X9962994Y-23016004D01*
X9962993Y-23016003D01*
X9962991Y-23016002D01*
X9801637Y-22933788D01*
X9629406Y-22877828D01*
X9450549Y-22849500D01*
X9450546Y-22849500D01*
X9269454Y-22849500D01*
X9269451Y-22849500D01*
X9090593Y-22877828D01*
X8918362Y-22933788D01*
X8757008Y-23016002D01*
X8683752Y-23069225D01*
X8610499Y-23122447D01*
X8482447Y-23250499D01*
X8451975Y-23292440D01*
X8376002Y-23397008D01*
X8293788Y-23558362D01*
X8237828Y-23730593D01*
X8209500Y-23909450D01*
X7970500Y-23909450D01*
X7942171Y-23730593D01*
X7942171Y-23730591D01*
X7886211Y-23558361D01*
X7803996Y-23397006D01*
X7697553Y-23250499D01*
X7569501Y-23122447D01*
X7422994Y-23016004D01*
X7422993Y-23016003D01*
X7422991Y-23016002D01*
X7261637Y-22933788D01*
X7089406Y-22877828D01*
X6910549Y-22849500D01*
X6910546Y-22849500D01*
X6729454Y-22849500D01*
X6729451Y-22849500D01*
X6550593Y-22877828D01*
X6378362Y-22933788D01*
X6217008Y-23016002D01*
X6143752Y-23069225D01*
X6070499Y-23122447D01*
X5942447Y-23250499D01*
X5911975Y-23292440D01*
X5836002Y-23397008D01*
X5753787Y-23558364D01*
X5753786Y-23558366D01*
X5749035Y-23572988D01*
X5713069Y-23622486D01*
X5654878Y-23641391D01*
X5596688Y-23622481D01*
X5560727Y-23572983D01*
X5531096Y-23481786D01*
X5434623Y-23292446D01*
X5434619Y-23292440D01*
X5395270Y-23238282D01*
X5395269Y-23238282D01*
X4762962Y-23870589D01*
X4745925Y-23807007D01*
X4680099Y-23692993D01*
X4587007Y-23599901D01*
X4472993Y-23534075D01*
X4409407Y-23517037D01*
X5041716Y-22884729D01*
X5041716Y-22884728D01*
X4987559Y-22845380D01*
X4987553Y-22845376D01*
X4798215Y-22748904D01*
X4596121Y-22683240D01*
X4386250Y-22650000D01*
X4173750Y-22650000D01*
X3963878Y-22683240D01*
X3761784Y-22748904D01*
X3572446Y-22845376D01*
X3572442Y-22845378D01*
X3518282Y-22884728D01*
X4150591Y-23517037D01*
X4087007Y-23534075D01*
X3972993Y-23599901D01*
X3879901Y-23692993D01*
X3814075Y-23807007D01*
X3797037Y-23870591D01*
X3164728Y-23238282D01*
X3125378Y-23292442D01*
X3125376Y-23292446D01*
X3098210Y-23345764D01*
X3054945Y-23389029D01*
X2994513Y-23398600D01*
X2939996Y-23370822D01*
X2921790Y-23345764D01*
X2894623Y-23292446D01*
X2894619Y-23292440D01*
X2855270Y-23238282D01*
X2855269Y-23238282D01*
X2222962Y-23870589D01*
X2205925Y-23807007D01*
X2140099Y-23692993D01*
X2047007Y-23599901D01*
X1932993Y-23534075D01*
X1869407Y-23517037D01*
X2501716Y-22884729D01*
X2501716Y-22884728D01*
X2447559Y-22845380D01*
X2447553Y-22845376D01*
X2258215Y-22748904D01*
X2056121Y-22683240D01*
X1846250Y-22650000D01*
X1633750Y-22650000D01*
X1423878Y-22683240D01*
X1221784Y-22748904D01*
X1032446Y-22845376D01*
X1032442Y-22845378D01*
X978282Y-22884728D01*
X1610591Y-23517037D01*
X1547007Y-23534075D01*
X1432993Y-23599901D01*
X1339901Y-23692993D01*
X1274075Y-23807007D01*
X1257037Y-23870591D01*
X604386Y-23217940D01*
X600000Y-23209331D01*
X600000Y-21877969D01*
X54449500Y-21877969D01*
X54449500Y-22122030D01*
X54487677Y-22363071D01*
X54563096Y-22595185D01*
X54673892Y-22812637D01*
X54752348Y-22920623D01*
X54817345Y-23010083D01*
X54989917Y-23182655D01*
X55083294Y-23250497D01*
X55187362Y-23326107D01*
X55275121Y-23370822D01*
X55404815Y-23436904D01*
X55636924Y-23512321D01*
X55636925Y-23512321D01*
X55636928Y-23512322D01*
X55877970Y-23550500D01*
X55877973Y-23550500D01*
X56122030Y-23550500D01*
X56363071Y-23512322D01*
X56363072Y-23512321D01*
X56363076Y-23512321D01*
X56595185Y-23436904D01*
X56812639Y-23326106D01*
X57010083Y-23182655D01*
X57182655Y-23010083D01*
X57326106Y-22812639D01*
X57436904Y-22595185D01*
X57512321Y-22363076D01*
X57550500Y-22122027D01*
X57550500Y-21877973D01*
X57550500Y-21877969D01*
X66649500Y-21877969D01*
X66649500Y-22122030D01*
X66687677Y-22363071D01*
X66763096Y-22595185D01*
X66873892Y-22812637D01*
X66952348Y-22920623D01*
X67017345Y-23010083D01*
X67189917Y-23182655D01*
X67283294Y-23250497D01*
X67387362Y-23326107D01*
X67475121Y-23370822D01*
X67604815Y-23436904D01*
X67836924Y-23512321D01*
X67836925Y-23512321D01*
X67836928Y-23512322D01*
X68077970Y-23550500D01*
X68077973Y-23550500D01*
X68322030Y-23550500D01*
X68563071Y-23512322D01*
X68563072Y-23512321D01*
X68563076Y-23512321D01*
X68795185Y-23436904D01*
X69012639Y-23326106D01*
X69210083Y-23182655D01*
X69382655Y-23010083D01*
X69526106Y-22812639D01*
X69636904Y-22595185D01*
X69712321Y-22363076D01*
X69750500Y-22122027D01*
X69750500Y-21877973D01*
X69750500Y-21877969D01*
X69712322Y-21636928D01*
X69712321Y-21636924D01*
X69636904Y-21404815D01*
X69526106Y-21187361D01*
X69382655Y-20989917D01*
X69210083Y-20817345D01*
X69120623Y-20752348D01*
X69012637Y-20673892D01*
X68795185Y-20563096D01*
X68563071Y-20487677D01*
X68322030Y-20449500D01*
X68322027Y-20449500D01*
X68077973Y-20449500D01*
X68077970Y-20449500D01*
X67836928Y-20487677D01*
X67604814Y-20563096D01*
X67387362Y-20673892D01*
X67189918Y-20817344D01*
X67017344Y-20989918D01*
X66873892Y-21187362D01*
X66763096Y-21404814D01*
X66687677Y-21636928D01*
X66649500Y-21877969D01*
X57550500Y-21877969D01*
X57512322Y-21636928D01*
X57512321Y-21636924D01*
X57436904Y-21404815D01*
X57326106Y-21187361D01*
X57182655Y-20989917D01*
X57010083Y-20817345D01*
X56920623Y-20752348D01*
X56812637Y-20673892D01*
X56595185Y-20563096D01*
X56363071Y-20487677D01*
X56122030Y-20449500D01*
X56122027Y-20449500D01*
X55877973Y-20449500D01*
X55877970Y-20449500D01*
X55636928Y-20487677D01*
X55404814Y-20563096D01*
X55187362Y-20673892D01*
X54989918Y-20817344D01*
X54817344Y-20989918D01*
X54673892Y-21187362D01*
X54563096Y-21404814D01*
X54487677Y-21636928D01*
X54449500Y-21877969D01*
X600000Y-21877969D01*
X600000Y-15205130D01*
X19174500Y-15205130D01*
X19174500Y-16794860D01*
X19174501Y-16794863D01*
X19177414Y-16819990D01*
X19185991Y-16839414D01*
X19222794Y-16922765D01*
X19302235Y-17002206D01*
X19405009Y-17047585D01*
X19430135Y-17050500D01*
X20569864Y-17050499D01*
X20594991Y-17047585D01*
X20697765Y-17002206D01*
X20740270Y-16959700D01*
X20794785Y-16931925D01*
X20855217Y-16941496D01*
X20865275Y-16947392D01*
X20878970Y-16956543D01*
X20878983Y-16956550D01*
X20886593Y-16959702D01*
X21029211Y-17018776D01*
X21188695Y-17050500D01*
X21188696Y-17050500D01*
X21351304Y-17050500D01*
X21351305Y-17050500D01*
X21510789Y-17018776D01*
X21661021Y-16956548D01*
X21689954Y-16937215D01*
X21748837Y-16920607D01*
X21806241Y-16941783D01*
X21814957Y-16949527D01*
X21886596Y-17021166D01*
X21886600Y-17021169D01*
X22054472Y-17133340D01*
X22054484Y-17133346D01*
X22241016Y-17210609D01*
X22241019Y-17210610D01*
X22289999Y-17220352D01*
X22290000Y-17220352D01*
X22290000Y-16280330D01*
X22309745Y-16300075D01*
X22395255Y-16349444D01*
X22490630Y-16375000D01*
X22589370Y-16375000D01*
X22684745Y-16349444D01*
X22770255Y-16300075D01*
X22790000Y-16280330D01*
X22790000Y-17220352D01*
X22838980Y-17210610D01*
X22838983Y-17210609D01*
X23025515Y-17133346D01*
X23025527Y-17133340D01*
X23193399Y-17021169D01*
X23193403Y-17021166D01*
X23336166Y-16878403D01*
X23336169Y-16878399D01*
X23448340Y-16710527D01*
X23448346Y-16710515D01*
X23525609Y-16523983D01*
X23525609Y-16523981D01*
X23564999Y-16325956D01*
X23565000Y-16325952D01*
X23565000Y-16250001D01*
X23564999Y-16250000D01*
X22820330Y-16250000D01*
X22840075Y-16230255D01*
X22889444Y-16144745D01*
X22915000Y-16049370D01*
X22915000Y-15950630D01*
X22905020Y-15913385D01*
X28899500Y-15913385D01*
X28899500Y-16086614D01*
X28926597Y-16257702D01*
X28926598Y-16257706D01*
X28980123Y-16422438D01*
X28980125Y-16422441D01*
X29031862Y-16523983D01*
X29058768Y-16576788D01*
X29160586Y-16716928D01*
X29283072Y-16839414D01*
X29423212Y-16941232D01*
X29577555Y-17019873D01*
X29577557Y-17019873D01*
X29577558Y-17019874D01*
X29577561Y-17019876D01*
X29742293Y-17073401D01*
X29742297Y-17073402D01*
X29913386Y-17100500D01*
X29913389Y-17100500D01*
X30086614Y-17100500D01*
X30257702Y-17073402D01*
X30257706Y-17073401D01*
X30422438Y-17019876D01*
X30422440Y-17019874D01*
X30422445Y-17019873D01*
X30576788Y-16941232D01*
X30716928Y-16839414D01*
X30839414Y-16716928D01*
X30941232Y-16576788D01*
X31019873Y-16422445D01*
X31019874Y-16422440D01*
X31019876Y-16422438D01*
X31073401Y-16257706D01*
X31073402Y-16257702D01*
X31100500Y-16086614D01*
X31100500Y-15913385D01*
X39059500Y-15913385D01*
X39059500Y-16086614D01*
X39086597Y-16257702D01*
X39086598Y-16257706D01*
X39140123Y-16422438D01*
X39140125Y-16422441D01*
X39191862Y-16523983D01*
X39218768Y-16576788D01*
X39320586Y-16716928D01*
X39443072Y-16839414D01*
X39583212Y-16941232D01*
X39737555Y-17019873D01*
X39737557Y-17019873D01*
X39737558Y-17019874D01*
X39737561Y-17019876D01*
X39902293Y-17073401D01*
X39902297Y-17073402D01*
X40073386Y-17100500D01*
X40073389Y-17100500D01*
X40246614Y-17100500D01*
X40417702Y-17073402D01*
X40417706Y-17073401D01*
X40582438Y-17019876D01*
X40582440Y-17019874D01*
X40582445Y-17019873D01*
X40736788Y-16941232D01*
X40876928Y-16839414D01*
X40999414Y-16716928D01*
X41101232Y-16576788D01*
X41179873Y-16422445D01*
X41179874Y-16422440D01*
X41179876Y-16422438D01*
X41233401Y-16257706D01*
X41233402Y-16257702D01*
X41260500Y-16086614D01*
X41260500Y-15913385D01*
X41256728Y-15889570D01*
X41254891Y-15877969D01*
X52449500Y-15877969D01*
X52449500Y-16122030D01*
X52487677Y-16363071D01*
X52563096Y-16595185D01*
X52673892Y-16812637D01*
X52693347Y-16839414D01*
X52817345Y-17010083D01*
X52989917Y-17182655D01*
X53041803Y-17220352D01*
X53187362Y-17326107D01*
X53296088Y-17381505D01*
X53404815Y-17436904D01*
X53636924Y-17512321D01*
X53636925Y-17512321D01*
X53636928Y-17512322D01*
X53877970Y-17550500D01*
X53877973Y-17550500D01*
X54122030Y-17550500D01*
X54363071Y-17512322D01*
X54363072Y-17512321D01*
X54363076Y-17512321D01*
X54595185Y-17436904D01*
X54812639Y-17326106D01*
X55010083Y-17182655D01*
X55182655Y-17010083D01*
X55326106Y-16812639D01*
X55436904Y-16595185D01*
X55512321Y-16363076D01*
X55514480Y-16349444D01*
X55550500Y-16122030D01*
X55550500Y-15913385D01*
X74899500Y-15913385D01*
X74899500Y-16086614D01*
X74926597Y-16257702D01*
X74926598Y-16257706D01*
X74980123Y-16422438D01*
X74980125Y-16422441D01*
X75031862Y-16523983D01*
X75058768Y-16576788D01*
X75160586Y-16716928D01*
X75283072Y-16839414D01*
X75423212Y-16941232D01*
X75577555Y-17019873D01*
X75577557Y-17019873D01*
X75577558Y-17019874D01*
X75577561Y-17019876D01*
X75742293Y-17073401D01*
X75742297Y-17073402D01*
X75913386Y-17100500D01*
X75913389Y-17100500D01*
X76086614Y-17100500D01*
X76257702Y-17073402D01*
X76257706Y-17073401D01*
X76422438Y-17019876D01*
X76422440Y-17019874D01*
X76422445Y-17019873D01*
X76576788Y-16941232D01*
X76716928Y-16839414D01*
X76839414Y-16716928D01*
X76941232Y-16576788D01*
X77019873Y-16422445D01*
X77019874Y-16422440D01*
X77019876Y-16422438D01*
X77073401Y-16257706D01*
X77073402Y-16257702D01*
X77100500Y-16086614D01*
X77100500Y-15913385D01*
X77073402Y-15742297D01*
X77073401Y-15742293D01*
X77019876Y-15577561D01*
X77019874Y-15577558D01*
X77019873Y-15577557D01*
X77019873Y-15577555D01*
X76941232Y-15423212D01*
X76839414Y-15283072D01*
X76716928Y-15160586D01*
X76576788Y-15058768D01*
X76576787Y-15058767D01*
X76576785Y-15058766D01*
X76422441Y-14980125D01*
X76422438Y-14980123D01*
X76257706Y-14926598D01*
X76257702Y-14926597D01*
X76086614Y-14899500D01*
X76086611Y-14899500D01*
X75913389Y-14899500D01*
X75913386Y-14899500D01*
X75742297Y-14926597D01*
X75742293Y-14926598D01*
X75577561Y-14980123D01*
X75577558Y-14980125D01*
X75423214Y-15058766D01*
X75283073Y-15160585D01*
X75160585Y-15283073D01*
X75058766Y-15423214D01*
X74980125Y-15577558D01*
X74980123Y-15577561D01*
X74926598Y-15742293D01*
X74926597Y-15742297D01*
X74899500Y-15913385D01*
X55550500Y-15913385D01*
X55550500Y-15877969D01*
X55512322Y-15636928D01*
X55512321Y-15636924D01*
X55436904Y-15404815D01*
X55357398Y-15248775D01*
X55326107Y-15187362D01*
X55240269Y-15069216D01*
X55182655Y-14989917D01*
X55010083Y-14817345D01*
X54920623Y-14752348D01*
X54812637Y-14673892D01*
X54595185Y-14563096D01*
X54363071Y-14487677D01*
X54122030Y-14449500D01*
X54122027Y-14449500D01*
X53877973Y-14449500D01*
X53877970Y-14449500D01*
X53636928Y-14487677D01*
X53404814Y-14563096D01*
X53187362Y-14673892D01*
X52989918Y-14817344D01*
X52817344Y-14989918D01*
X52673892Y-15187362D01*
X52563096Y-15404814D01*
X52487677Y-15636928D01*
X52449500Y-15877969D01*
X41254891Y-15877969D01*
X41233402Y-15742297D01*
X41233401Y-15742293D01*
X41179876Y-15577561D01*
X41179874Y-15577558D01*
X41179873Y-15577557D01*
X41179873Y-15577555D01*
X41101232Y-15423212D01*
X40999414Y-15283072D01*
X40876928Y-15160586D01*
X40736788Y-15058768D01*
X40736787Y-15058767D01*
X40736785Y-15058766D01*
X40582441Y-14980125D01*
X40582438Y-14980123D01*
X40417706Y-14926598D01*
X40417702Y-14926597D01*
X40246614Y-14899500D01*
X40246611Y-14899500D01*
X40073389Y-14899500D01*
X40073386Y-14899500D01*
X39902297Y-14926597D01*
X39902293Y-14926598D01*
X39737561Y-14980123D01*
X39737558Y-14980125D01*
X39583214Y-15058766D01*
X39443073Y-15160585D01*
X39320585Y-15283073D01*
X39218766Y-15423214D01*
X39140125Y-15577558D01*
X39140123Y-15577561D01*
X39086598Y-15742293D01*
X39086597Y-15742297D01*
X39059500Y-15913385D01*
X31100500Y-15913385D01*
X31073402Y-15742297D01*
X31073401Y-15742293D01*
X31019876Y-15577561D01*
X31019874Y-15577558D01*
X31019873Y-15577557D01*
X31019873Y-15577555D01*
X30941232Y-15423212D01*
X30839414Y-15283072D01*
X30716928Y-15160586D01*
X30576788Y-15058768D01*
X30576787Y-15058767D01*
X30576785Y-15058766D01*
X30422441Y-14980125D01*
X30422438Y-14980123D01*
X30257706Y-14926598D01*
X30257702Y-14926597D01*
X30086614Y-14899500D01*
X30086611Y-14899500D01*
X29913389Y-14899500D01*
X29913386Y-14899500D01*
X29742297Y-14926597D01*
X29742293Y-14926598D01*
X29577561Y-14980123D01*
X29577558Y-14980125D01*
X29423214Y-15058766D01*
X29283073Y-15160585D01*
X29160585Y-15283073D01*
X29058766Y-15423214D01*
X28980125Y-15577558D01*
X28980123Y-15577561D01*
X28926598Y-15742293D01*
X28926597Y-15742297D01*
X28899500Y-15913385D01*
X22905020Y-15913385D01*
X22889444Y-15855255D01*
X22840075Y-15769745D01*
X22820330Y-15750000D01*
X23564999Y-15750000D01*
X23565000Y-15749999D01*
X23565000Y-15674047D01*
X23564999Y-15674043D01*
X23525609Y-15476018D01*
X23525609Y-15476016D01*
X23448346Y-15289484D01*
X23448340Y-15289472D01*
X23336169Y-15121600D01*
X23336166Y-15121596D01*
X23193403Y-14978833D01*
X23193399Y-14978830D01*
X23025527Y-14866659D01*
X23025515Y-14866653D01*
X22838984Y-14789390D01*
X22790000Y-14779646D01*
X22790000Y-15719670D01*
X22770255Y-15699925D01*
X22684745Y-15650556D01*
X22589370Y-15625000D01*
X22490630Y-15625000D01*
X22395255Y-15650556D01*
X22309745Y-15699925D01*
X22290000Y-15719670D01*
X22290000Y-14779646D01*
X22241015Y-14789390D01*
X22054484Y-14866653D01*
X22054472Y-14866659D01*
X21886601Y-14978829D01*
X21814957Y-15050472D01*
X21760440Y-15078248D01*
X21700008Y-15068676D01*
X21689953Y-15062783D01*
X21661026Y-15043454D01*
X21661016Y-15043449D01*
X21510790Y-14981224D01*
X21351305Y-14949500D01*
X21188695Y-14949500D01*
X21188694Y-14949500D01*
X21029209Y-14981224D01*
X20878978Y-15043451D01*
X20878977Y-15043452D01*
X20865267Y-15052612D01*
X20806377Y-15069216D01*
X20748975Y-15048035D01*
X20740275Y-15040304D01*
X20697765Y-14997794D01*
X20594991Y-14952415D01*
X20594990Y-14952414D01*
X20594988Y-14952414D01*
X20569868Y-14949500D01*
X19430139Y-14949500D01*
X19430136Y-14949501D01*
X19405009Y-14952414D01*
X19302235Y-14997794D01*
X19222794Y-15077235D01*
X19177414Y-15180011D01*
X19174500Y-15205130D01*
X600000Y-15205130D01*
X600000Y-10906893D01*
X5399500Y-10906893D01*
X5399500Y-13093106D01*
X5410123Y-13181565D01*
X5465637Y-13322339D01*
X5465638Y-13322341D01*
X5465639Y-13322342D01*
X5557078Y-13442922D01*
X5677658Y-13534361D01*
X5677659Y-13534361D01*
X5677660Y-13534362D01*
X5748047Y-13562119D01*
X5818436Y-13589877D01*
X5906898Y-13600500D01*
X5906900Y-13600500D01*
X8093100Y-13600500D01*
X8093102Y-13600500D01*
X8181564Y-13589877D01*
X8322342Y-13534361D01*
X8442922Y-13442922D01*
X8534361Y-13322342D01*
X8589877Y-13181564D01*
X8600500Y-13093102D01*
X8600500Y-11882021D01*
X10200000Y-11882021D01*
X10200000Y-12117978D01*
X10230798Y-12351908D01*
X10230798Y-12351913D01*
X10291867Y-12579824D01*
X10291871Y-12579837D01*
X10382163Y-12797824D01*
X10382165Y-12797829D01*
X10500142Y-13002169D01*
X10562720Y-13083724D01*
X11398957Y-12247486D01*
X11423978Y-12307890D01*
X11495112Y-12414351D01*
X11585649Y-12504888D01*
X11692110Y-12576022D01*
X11752510Y-12601041D01*
X10916274Y-13437278D01*
X10916273Y-13437278D01*
X10997830Y-13499857D01*
X11202170Y-13617834D01*
X11202175Y-13617836D01*
X11420162Y-13708128D01*
X11420175Y-13708132D01*
X11648088Y-13769201D01*
X11882021Y-13799999D01*
X11882023Y-13800000D01*
X12117977Y-13800000D01*
X12117978Y-13799999D01*
X12351908Y-13769201D01*
X12351913Y-13769201D01*
X12579824Y-13708132D01*
X12579837Y-13708128D01*
X12797824Y-13617836D01*
X12797829Y-13617834D01*
X13002165Y-13499860D01*
X13083724Y-13437278D01*
X12247487Y-12601041D01*
X12307890Y-12576022D01*
X12414351Y-12504888D01*
X12504888Y-12414351D01*
X12576022Y-12307890D01*
X12601041Y-12247487D01*
X13437278Y-13083724D01*
X13499856Y-13002170D01*
X13519617Y-12967943D01*
X21577500Y-12967943D01*
X21577500Y-13126057D01*
X21618423Y-13278784D01*
X21697480Y-13415716D01*
X21809284Y-13527520D01*
X21946216Y-13606577D01*
X22098943Y-13647500D01*
X22098945Y-13647500D01*
X22257055Y-13647500D01*
X22257057Y-13647500D01*
X22409784Y-13606577D01*
X22546716Y-13527520D01*
X22658520Y-13415716D01*
X22737577Y-13278784D01*
X22778500Y-13126057D01*
X22778500Y-12967943D01*
X22737577Y-12815216D01*
X22658520Y-12678284D01*
X22546716Y-12566480D01*
X22409784Y-12487423D01*
X22257057Y-12446500D01*
X22098943Y-12446500D01*
X21946216Y-12487423D01*
X21809284Y-12566480D01*
X21697480Y-12678284D01*
X21618423Y-12815216D01*
X21577500Y-12967943D01*
X13519617Y-12967943D01*
X13551943Y-12911954D01*
X13551945Y-12911952D01*
X13617834Y-12797828D01*
X13617836Y-12797824D01*
X13708128Y-12579837D01*
X13708132Y-12579824D01*
X13769201Y-12351913D01*
X13769201Y-12351908D01*
X13799999Y-12117978D01*
X13800000Y-12117977D01*
X13800000Y-11882023D01*
X13799999Y-11882021D01*
X13769201Y-11648091D01*
X13769201Y-11648086D01*
X13708132Y-11420175D01*
X13708128Y-11420162D01*
X13617836Y-11202175D01*
X13617834Y-11202170D01*
X13499857Y-10997830D01*
X13437278Y-10916274D01*
X12601041Y-11752510D01*
X12576022Y-11692110D01*
X12504888Y-11585649D01*
X12414351Y-11495112D01*
X12307890Y-11423978D01*
X12247486Y-11398957D01*
X13083724Y-10562720D01*
X13083725Y-10562720D01*
X13002169Y-10500142D01*
X12797829Y-10382165D01*
X12797824Y-10382163D01*
X12579837Y-10291871D01*
X12579824Y-10291867D01*
X12351911Y-10230798D01*
X12117978Y-10200000D01*
X11882021Y-10200000D01*
X11648091Y-10230798D01*
X11648086Y-10230798D01*
X11420175Y-10291867D01*
X11420162Y-10291871D01*
X11202175Y-10382163D01*
X11202170Y-10382165D01*
X10997831Y-10500141D01*
X10916274Y-10562720D01*
X11752512Y-11398958D01*
X11692110Y-11423978D01*
X11585649Y-11495112D01*
X11495112Y-11585649D01*
X11423978Y-11692110D01*
X11398958Y-11752512D01*
X10562720Y-10916274D01*
X10500141Y-10997831D01*
X10382165Y-11202170D01*
X10382163Y-11202175D01*
X10291871Y-11420162D01*
X10291867Y-11420175D01*
X10230798Y-11648086D01*
X10230798Y-11648091D01*
X10200000Y-11882021D01*
X8600500Y-11882021D01*
X8600500Y-10906898D01*
X8589877Y-10818436D01*
X8534361Y-10677658D01*
X8442922Y-10557078D01*
X8322342Y-10465639D01*
X8322341Y-10465638D01*
X8322339Y-10465637D01*
X8181565Y-10410123D01*
X8093106Y-10399500D01*
X8093102Y-10399500D01*
X5906898Y-10399500D01*
X5906893Y-10399500D01*
X5818434Y-10410123D01*
X5677660Y-10465637D01*
X5677656Y-10465640D01*
X5557081Y-10557075D01*
X5557075Y-10557081D01*
X5465640Y-10677656D01*
X5465637Y-10677660D01*
X5410123Y-10818434D01*
X5399500Y-10906893D01*
X600000Y-10906893D01*
X600000Y-8956893D01*
X54449500Y-8956893D01*
X54449500Y-11043106D01*
X54460123Y-11131565D01*
X54515637Y-11272339D01*
X54515638Y-11272341D01*
X54515639Y-11272342D01*
X54607078Y-11392922D01*
X54727658Y-11484361D01*
X54727659Y-11484361D01*
X54727660Y-11484362D01*
X54739926Y-11489199D01*
X54868436Y-11539877D01*
X54956898Y-11550500D01*
X54956900Y-11550500D01*
X57043100Y-11550500D01*
X57043102Y-11550500D01*
X57131564Y-11539877D01*
X57272342Y-11484361D01*
X57392922Y-11392922D01*
X57484361Y-11272342D01*
X57539877Y-11131564D01*
X57550500Y-11043102D01*
X57550500Y-9877969D01*
X66649500Y-9877969D01*
X66649500Y-10122030D01*
X66687677Y-10363071D01*
X66763096Y-10595185D01*
X66873892Y-10812637D01*
X66942373Y-10906893D01*
X67017345Y-11010083D01*
X67189917Y-11182655D01*
X67313357Y-11272339D01*
X67387362Y-11326107D01*
X67483280Y-11374979D01*
X67604815Y-11436904D01*
X67836924Y-11512321D01*
X67836925Y-11512321D01*
X67836928Y-11512322D01*
X68077970Y-11550500D01*
X68077973Y-11550500D01*
X68322030Y-11550500D01*
X68563071Y-11512322D01*
X68563072Y-11512321D01*
X68563076Y-11512321D01*
X68795185Y-11436904D01*
X69012639Y-11326106D01*
X69210083Y-11182655D01*
X69382655Y-11010083D01*
X69526106Y-10812639D01*
X69550117Y-10765515D01*
X74799500Y-10765515D01*
X74799500Y-10954484D01*
X74829058Y-11141113D01*
X74887453Y-11320832D01*
X74970774Y-11484361D01*
X74973240Y-11489199D01*
X75084310Y-11642073D01*
X75217927Y-11775690D01*
X75370801Y-11886760D01*
X75539168Y-11972547D01*
X75643188Y-12006345D01*
X75692689Y-12042309D01*
X75711596Y-12100500D01*
X75692689Y-12158691D01*
X75643189Y-12194655D01*
X75612596Y-12199500D01*
X75055139Y-12199500D01*
X75055136Y-12199501D01*
X75030009Y-12202414D01*
X74927235Y-12247794D01*
X74847794Y-12327235D01*
X74802414Y-12430011D01*
X74799500Y-12455130D01*
X74799500Y-14344860D01*
X74799501Y-14344863D01*
X74802414Y-14369990D01*
X74827756Y-14427385D01*
X74847794Y-14472765D01*
X74927235Y-14552206D01*
X75030009Y-14597585D01*
X75055135Y-14600500D01*
X76944864Y-14600499D01*
X76969991Y-14597585D01*
X77072765Y-14552206D01*
X77152206Y-14472765D01*
X77197585Y-14369991D01*
X77200500Y-14344865D01*
X77200499Y-12455136D01*
X77197585Y-12430009D01*
X77152206Y-12327235D01*
X77072765Y-12247794D01*
X76969991Y-12202415D01*
X76969990Y-12202414D01*
X76969988Y-12202414D01*
X76944869Y-12199500D01*
X76387404Y-12199500D01*
X76329213Y-12180593D01*
X76293249Y-12131093D01*
X76293249Y-12069907D01*
X76329213Y-12020407D01*
X76356810Y-12006346D01*
X76460832Y-11972547D01*
X76629199Y-11886760D01*
X76782073Y-11775690D01*
X76915690Y-11642073D01*
X77026760Y-11489199D01*
X77112547Y-11320832D01*
X77170940Y-11141118D01*
X77172453Y-11131564D01*
X77200500Y-10954484D01*
X77200500Y-10765515D01*
X77170941Y-10578886D01*
X77170940Y-10578882D01*
X77112547Y-10399168D01*
X77026760Y-10230801D01*
X76915690Y-10077927D01*
X76782073Y-9944310D01*
X76629199Y-9833240D01*
X76629198Y-9833239D01*
X76629196Y-9833238D01*
X76460832Y-9747453D01*
X76281113Y-9689058D01*
X76094484Y-9659500D01*
X76094481Y-9659500D01*
X75905519Y-9659500D01*
X75905516Y-9659500D01*
X75718886Y-9689058D01*
X75539167Y-9747453D01*
X75370803Y-9833238D01*
X75217928Y-9944309D01*
X75084309Y-10077928D01*
X74973238Y-10230803D01*
X74887453Y-10399167D01*
X74829058Y-10578886D01*
X74799500Y-10765515D01*
X69550117Y-10765515D01*
X69636904Y-10595185D01*
X69712321Y-10363076D01*
X69723600Y-10291867D01*
X69750500Y-10122030D01*
X69750500Y-9877969D01*
X69712322Y-9636928D01*
X69712321Y-9636924D01*
X69636904Y-9404815D01*
X69526106Y-9187361D01*
X69382655Y-8989917D01*
X69210083Y-8817345D01*
X69086639Y-8727658D01*
X69012637Y-8673892D01*
X68795185Y-8563096D01*
X68563071Y-8487677D01*
X68322030Y-8449500D01*
X68322027Y-8449500D01*
X68077973Y-8449500D01*
X68077970Y-8449500D01*
X67836928Y-8487677D01*
X67604814Y-8563096D01*
X67387362Y-8673892D01*
X67189918Y-8817344D01*
X67017344Y-8989918D01*
X66873892Y-9187362D01*
X66763096Y-9404814D01*
X66687677Y-9636928D01*
X66649500Y-9877969D01*
X57550500Y-9877969D01*
X57550500Y-8956898D01*
X57539877Y-8868436D01*
X57484361Y-8727658D01*
X57392922Y-8607078D01*
X57272342Y-8515639D01*
X57272341Y-8515638D01*
X57272339Y-8515637D01*
X57131565Y-8460123D01*
X57043106Y-8449500D01*
X57043102Y-8449500D01*
X54956898Y-8449500D01*
X54956893Y-8449500D01*
X54868434Y-8460123D01*
X54727660Y-8515637D01*
X54727656Y-8515640D01*
X54607081Y-8607075D01*
X54607075Y-8607081D01*
X54515640Y-8727656D01*
X54515637Y-8727660D01*
X54460123Y-8868434D01*
X54449500Y-8956893D01*
X600000Y-8956893D01*
X600000Y-4878710D01*
X3149500Y-4878710D01*
X3149500Y-5121289D01*
X3181161Y-5361781D01*
X3181161Y-5361786D01*
X3243944Y-5596092D01*
X3243948Y-5596105D01*
X3336772Y-5820204D01*
X3336774Y-5820208D01*
X3336776Y-5820212D01*
X3376938Y-5889774D01*
X3458066Y-6030292D01*
X3605729Y-6222731D01*
X3605731Y-6222733D01*
X3605735Y-6222738D01*
X3777262Y-6394265D01*
X3777266Y-6394268D01*
X3777268Y-6394270D01*
X3964059Y-6537599D01*
X3969711Y-6541936D01*
X4179788Y-6663224D01*
X4403900Y-6756054D01*
X4638211Y-6818838D01*
X4878712Y-6850500D01*
X4878713Y-6850500D01*
X5121287Y-6850500D01*
X5121288Y-6850500D01*
X5361789Y-6818838D01*
X5596100Y-6756054D01*
X5820212Y-6663224D01*
X6030289Y-6541936D01*
X6222738Y-6394265D01*
X6394265Y-6222738D01*
X6541936Y-6030289D01*
X6663224Y-5820212D01*
X6756054Y-5596100D01*
X6818838Y-5361789D01*
X6850500Y-5121288D01*
X6850500Y-5106892D01*
X16599500Y-5106892D01*
X16599500Y-6893098D01*
X16599501Y-6893108D01*
X16610123Y-6981564D01*
X16610124Y-6981570D01*
X16644303Y-7068239D01*
X16665639Y-7122343D01*
X16757077Y-7242923D01*
X16877657Y-7334361D01*
X17018435Y-7389877D01*
X17106897Y-7400500D01*
X18893102Y-7400499D01*
X18981565Y-7389877D01*
X19122343Y-7334361D01*
X19242923Y-7242923D01*
X19334361Y-7122343D01*
X19389877Y-6981565D01*
X19400500Y-6893103D01*
X19400499Y-5889774D01*
X26759500Y-5889774D01*
X26759500Y-6110225D01*
X26793984Y-6327948D01*
X26862102Y-6537599D01*
X26862104Y-6537602D01*
X26862105Y-6537606D01*
X26962185Y-6734022D01*
X27091758Y-6912365D01*
X27247635Y-7068242D01*
X27425978Y-7197815D01*
X27622394Y-7297895D01*
X27832049Y-7366015D01*
X27919140Y-7379809D01*
X28049775Y-7400500D01*
X28049778Y-7400500D01*
X28270225Y-7400500D01*
X28379086Y-7383257D01*
X28487951Y-7366015D01*
X28697606Y-7297895D01*
X28894022Y-7197815D01*
X29072365Y-7068242D01*
X29228242Y-6912365D01*
X29357815Y-6734022D01*
X29457895Y-6537606D01*
X29526015Y-6327951D01*
X29560500Y-6110222D01*
X29560500Y-5889778D01*
X29560500Y-5889774D01*
X29526015Y-5672051D01*
X29526015Y-5672049D01*
X29457895Y-5462394D01*
X29357815Y-5265978D01*
X29242233Y-5106892D01*
X33599500Y-5106892D01*
X33599500Y-6893098D01*
X33599501Y-6893108D01*
X33610123Y-6981564D01*
X33610124Y-6981570D01*
X33644303Y-7068239D01*
X33665639Y-7122343D01*
X33757077Y-7242923D01*
X33877657Y-7334361D01*
X34018435Y-7389877D01*
X34106897Y-7400500D01*
X35893102Y-7400499D01*
X35981565Y-7389877D01*
X36122343Y-7334361D01*
X36242923Y-7242923D01*
X36334361Y-7122343D01*
X36389877Y-6981565D01*
X36400500Y-6893103D01*
X36400499Y-5889774D01*
X43759500Y-5889774D01*
X43759500Y-6110225D01*
X43793984Y-6327948D01*
X43862102Y-6537599D01*
X43862104Y-6537602D01*
X43862105Y-6537606D01*
X43962185Y-6734022D01*
X44091758Y-6912365D01*
X44247635Y-7068242D01*
X44425978Y-7197815D01*
X44622394Y-7297895D01*
X44832049Y-7366015D01*
X44919140Y-7379809D01*
X45049775Y-7400500D01*
X45049778Y-7400500D01*
X45270225Y-7400500D01*
X45379086Y-7383257D01*
X45487951Y-7366015D01*
X45697606Y-7297895D01*
X45894022Y-7197815D01*
X46072365Y-7068242D01*
X46228242Y-6912365D01*
X46357815Y-6734022D01*
X46457895Y-6537606D01*
X46526015Y-6327951D01*
X46560500Y-6110222D01*
X46560500Y-5889778D01*
X46560500Y-5889774D01*
X46526015Y-5672051D01*
X46526015Y-5672049D01*
X46457895Y-5462394D01*
X46357815Y-5265978D01*
X46228242Y-5087635D01*
X46072365Y-4931758D01*
X45999350Y-4878710D01*
X73149500Y-4878710D01*
X73149500Y-5121289D01*
X73181161Y-5361781D01*
X73181161Y-5361786D01*
X73243944Y-5596092D01*
X73243948Y-5596105D01*
X73336772Y-5820204D01*
X73336774Y-5820208D01*
X73336776Y-5820212D01*
X73376938Y-5889774D01*
X73458066Y-6030292D01*
X73605729Y-6222731D01*
X73605731Y-6222733D01*
X73605735Y-6222738D01*
X73777262Y-6394265D01*
X73777266Y-6394268D01*
X73777268Y-6394270D01*
X73964059Y-6537599D01*
X73969711Y-6541936D01*
X74179788Y-6663224D01*
X74403900Y-6756054D01*
X74638211Y-6818838D01*
X74878712Y-6850500D01*
X74878713Y-6850500D01*
X75121287Y-6850500D01*
X75121288Y-6850500D01*
X75361789Y-6818838D01*
X75596100Y-6756054D01*
X75820212Y-6663224D01*
X76030289Y-6541936D01*
X76222738Y-6394265D01*
X76394265Y-6222738D01*
X76541936Y-6030289D01*
X76663224Y-5820212D01*
X76756054Y-5596100D01*
X76818838Y-5361789D01*
X76850500Y-5121288D01*
X76850500Y-4878712D01*
X76818838Y-4638211D01*
X76756054Y-4403900D01*
X76663224Y-4179788D01*
X76541936Y-3969711D01*
X76394265Y-3777262D01*
X76222738Y-3605735D01*
X76222733Y-3605731D01*
X76222731Y-3605729D01*
X76030292Y-3458066D01*
X76030289Y-3458064D01*
X75820212Y-3336776D01*
X75820208Y-3336774D01*
X75820204Y-3336772D01*
X75596105Y-3243948D01*
X75596104Y-3243947D01*
X75596100Y-3243946D01*
X75361789Y-3181162D01*
X75361786Y-3181161D01*
X75361784Y-3181161D01*
X75121289Y-3149500D01*
X75121288Y-3149500D01*
X74878712Y-3149500D01*
X74878710Y-3149500D01*
X74638218Y-3181161D01*
X74638213Y-3181161D01*
X74403907Y-3243944D01*
X74403894Y-3243948D01*
X74179795Y-3336772D01*
X73969707Y-3458066D01*
X73777268Y-3605729D01*
X73605729Y-3777268D01*
X73458066Y-3969707D01*
X73336772Y-4179795D01*
X73243948Y-4403894D01*
X73243944Y-4403907D01*
X73181161Y-4638213D01*
X73181161Y-4638218D01*
X73149500Y-4878710D01*
X45999350Y-4878710D01*
X45894022Y-4802185D01*
X45894021Y-4802184D01*
X45894019Y-4802183D01*
X45804825Y-4756736D01*
X45697606Y-4702105D01*
X45697602Y-4702104D01*
X45697599Y-4702102D01*
X45487948Y-4633984D01*
X45270225Y-4599500D01*
X45270222Y-4599500D01*
X45049778Y-4599500D01*
X45049775Y-4599500D01*
X44832051Y-4633984D01*
X44622400Y-4702102D01*
X44425980Y-4802183D01*
X44336806Y-4866971D01*
X44247635Y-4931758D01*
X44091758Y-5087635D01*
X44077763Y-5106898D01*
X43962183Y-5265980D01*
X43862102Y-5462400D01*
X43793984Y-5672051D01*
X43759500Y-5889774D01*
X36400499Y-5889774D01*
X36400499Y-5106898D01*
X36389877Y-5018435D01*
X36334361Y-4877657D01*
X36242923Y-4757077D01*
X36122343Y-4665639D01*
X36052791Y-4638211D01*
X35981566Y-4610123D01*
X35893104Y-4599500D01*
X34106901Y-4599500D01*
X34106891Y-4599501D01*
X34018435Y-4610123D01*
X34018429Y-4610124D01*
X33877656Y-4665639D01*
X33757080Y-4757074D01*
X33757074Y-4757080D01*
X33665639Y-4877656D01*
X33610123Y-5018433D01*
X33599500Y-5106892D01*
X29242233Y-5106892D01*
X29228242Y-5087635D01*
X29072365Y-4931758D01*
X28894022Y-4802185D01*
X28894021Y-4802184D01*
X28894019Y-4802183D01*
X28804825Y-4756736D01*
X28697606Y-4702105D01*
X28697602Y-4702104D01*
X28697599Y-4702102D01*
X28487948Y-4633984D01*
X28270225Y-4599500D01*
X28270222Y-4599500D01*
X28049778Y-4599500D01*
X28049775Y-4599500D01*
X27832051Y-4633984D01*
X27622400Y-4702102D01*
X27425980Y-4802183D01*
X27336806Y-4866971D01*
X27247635Y-4931758D01*
X27091758Y-5087635D01*
X27077763Y-5106898D01*
X26962183Y-5265980D01*
X26862102Y-5462400D01*
X26793984Y-5672051D01*
X26759500Y-5889774D01*
X19400499Y-5889774D01*
X19400499Y-5106898D01*
X19389877Y-5018435D01*
X19334361Y-4877657D01*
X19242923Y-4757077D01*
X19122343Y-4665639D01*
X19052791Y-4638211D01*
X18981566Y-4610123D01*
X18893104Y-4599500D01*
X17106901Y-4599500D01*
X17106891Y-4599501D01*
X17018435Y-4610123D01*
X17018429Y-4610124D01*
X16877656Y-4665639D01*
X16757080Y-4757074D01*
X16757074Y-4757080D01*
X16665639Y-4877656D01*
X16610123Y-5018433D01*
X16599500Y-5106892D01*
X6850500Y-5106892D01*
X6850500Y-4878712D01*
X6818838Y-4638211D01*
X6756054Y-4403900D01*
X6663224Y-4179788D01*
X6541936Y-3969711D01*
X6394265Y-3777262D01*
X6222738Y-3605735D01*
X6222733Y-3605731D01*
X6222731Y-3605729D01*
X6030292Y-3458066D01*
X6030289Y-3458064D01*
X5820212Y-3336776D01*
X5820208Y-3336774D01*
X5820204Y-3336772D01*
X5596105Y-3243948D01*
X5596104Y-3243947D01*
X5596100Y-3243946D01*
X5361789Y-3181162D01*
X5361786Y-3181161D01*
X5361784Y-3181161D01*
X5121289Y-3149500D01*
X5121288Y-3149500D01*
X4878712Y-3149500D01*
X4878710Y-3149500D01*
X4638218Y-3181161D01*
X4638213Y-3181161D01*
X4403907Y-3243944D01*
X4403894Y-3243948D01*
X4179795Y-3336772D01*
X3969707Y-3458066D01*
X3777268Y-3605729D01*
X3605729Y-3777268D01*
X3458066Y-3969707D01*
X3336772Y-4179795D01*
X3243948Y-4403894D01*
X3243944Y-4403907D01*
X3181161Y-4638213D01*
X3181161Y-4638218D01*
X3149500Y-4878710D01*
X600000Y-4878710D01*
X600000Y-699000D01*
X618907Y-640809D01*
X668407Y-604845D01*
X699000Y-600000D01*
X79301000Y-600000D01*
X79359191Y-618907D01*
G37*
%TD.AperFunction*%
%TD*%
M02*
