%TF.GenerationSoftware,KiCad,Pcbnew,10.0.4*%
%TF.CreationDate,2026-07-18T21:48:22+02:00*%
%TF.ProjectId,BluePill-Relay-Carrier,426c7565-5069-46c6-9c2d-52656c61792d,rev?*%
%TF.SameCoordinates,Original*%
%TF.FileFunction,Copper,L3,Inr*%
%TF.FilePolarity,Positive*%
%FSLAX46Y46*%
G04 Gerber Fmt 4.6, Leading zero omitted, Abs format (unit mm)*
G04 Created by KiCad (PCBNEW 10.0.4) date 2026-07-18 21:48:22*
%MOMM*%
%LPD*%
G01*
G04 APERTURE LIST*
G04 Aperture macros list*
%AMRoundRect*
0 Rectangle with rounded corners*
0 $1 Rounding radius*
0 $2 $3 $4 $5 $6 $7 $8 $9 X,Y pos of 4 corners*
0 Add a 4 corners polygon primitive as box body*
4,1,4,$2,$3,$4,$5,$6,$7,$8,$9,$2,$3,0*
0 Add four circle primitives for the rounded corners*
1,1,$1+$1,$2,$3*
1,1,$1+$1,$4,$5*
1,1,$1+$1,$6,$7*
1,1,$1+$1,$8,$9*
0 Add four rect primitives between the rounded corners*
20,1,$1+$1,$2,$3,$4,$5,0*
20,1,$1+$1,$4,$5,$6,$7,0*
20,1,$1+$1,$6,$7,$8,$9,0*
20,1,$1+$1,$8,$9,$2,$3,0*%
G04 Aperture macros list end*
%TA.AperFunction,ComponentPad*%
%ADD10R,1.700000X1.700000*%
%TD*%
%TA.AperFunction,ComponentPad*%
%ADD11C,1.700000*%
%TD*%
%TA.AperFunction,ComponentPad*%
%ADD12C,2.500000*%
%TD*%
%TA.AperFunction,ComponentPad*%
%ADD13RoundRect,0.250000X-1.000000X-1.000000X1.000000X-1.000000X1.000000X1.000000X-1.000000X1.000000X0*%
%TD*%
%TA.AperFunction,ComponentPad*%
%ADD14RoundRect,0.250000X0.550000X-0.550000X0.550000X0.550000X-0.550000X0.550000X-0.550000X-0.550000X0*%
%TD*%
%TA.AperFunction,ComponentPad*%
%ADD15C,1.600000*%
%TD*%
%TA.AperFunction,ComponentPad*%
%ADD16RoundRect,0.250000X-1.050000X-1.050000X1.050000X-1.050000X1.050000X1.050000X-1.050000X1.050000X0*%
%TD*%
%TA.AperFunction,ComponentPad*%
%ADD17C,2.600000*%
%TD*%
%TA.AperFunction,ComponentPad*%
%ADD18R,1.800000X1.800000*%
%TD*%
%TA.AperFunction,ComponentPad*%
%ADD19C,1.800000*%
%TD*%
%TA.AperFunction,ComponentPad*%
%ADD20RoundRect,0.249999X-0.850001X-0.850001X0.850001X-0.850001X0.850001X0.850001X-0.850001X0.850001X0*%
%TD*%
%TA.AperFunction,ComponentPad*%
%ADD21C,2.200000*%
%TD*%
%TA.AperFunction,ComponentPad*%
%ADD22R,1.050000X1.500000*%
%TD*%
%TA.AperFunction,ComponentPad*%
%ADD23O,1.050000X1.500000*%
%TD*%
%TA.AperFunction,ViaPad*%
%ADD24C,0.600000*%
%TD*%
G04 APERTURE END LIST*
D10*
%TO.N,N/C*%
%TO.C,U1*%
X50000000Y-24000000D03*
D11*
X47460000Y-24000000D03*
X44920000Y-24000000D03*
X42380000Y-24000000D03*
%TO.N,PA0*%
X39840000Y-24000000D03*
%TO.N,PA1*%
X37300000Y-24000000D03*
%TO.N,N/C*%
X34760000Y-24000000D03*
X32220000Y-24000000D03*
X29680000Y-24000000D03*
X27140000Y-24000000D03*
X24600000Y-24000000D03*
X22060000Y-24000000D03*
X19520000Y-24000000D03*
X16980000Y-24000000D03*
X14440000Y-24000000D03*
X11900000Y-24000000D03*
X9360000Y-24000000D03*
X6820000Y-24000000D03*
%TO.N,GND*%
X4280000Y-24000000D03*
X1740000Y-24000000D03*
%TD*%
D12*
%TO.N,RY1_COM*%
%TO.C,RY1*%
X54000000Y-16000000D03*
%TO.N,RY1_NC*%
X68200000Y-10000000D03*
%TO.N,RY1_NO*%
X68200000Y-22000000D03*
D13*
%TO.N,+5V*%
X56000000Y-10000000D03*
D12*
%TO.N,RY1_Drive*%
X56000000Y-22000000D03*
%TD*%
D14*
%TO.N,+5V*%
%TO.C,C1*%
X18000000Y-55000000D03*
D15*
%TO.N,GND*%
X18000000Y-52500000D03*
%TD*%
%TO.N,LED2_K*%
%TO.C,R4*%
X76000000Y-51000000D03*
%TO.N,RY2_Drive*%
X76000000Y-61160000D03*
%TD*%
D16*
%TO.N,+5V*%
%TO.C,J4*%
X26000000Y-62000000D03*
D17*
%TO.N,GND*%
X31000000Y-62000000D03*
%TO.N,PB6*%
X36000000Y-62000000D03*
%TO.N,PB7*%
X41000000Y-62000000D03*
%TD*%
D15*
%TO.N,+5V*%
%TO.C,C2*%
X28000000Y-53000000D03*
%TO.N,GND*%
X33000000Y-53000000D03*
%TD*%
D18*
%TO.N,LED2_K*%
%TO.C,D5*%
X76000000Y-49000000D03*
D19*
%TO.N,+5V*%
X76000000Y-46460000D03*
%TD*%
D18*
%TO.N,LED1_K*%
%TO.C,D4*%
X76000000Y-14000000D03*
D19*
%TO.N,+5V*%
X76000000Y-11460000D03*
%TD*%
D10*
%TO.N,N/C*%
%TO.C,U2*%
X50000000Y-46860000D03*
D11*
%TO.N,GND*%
X47460000Y-46860000D03*
%TO.N,+5V*%
X44920000Y-46860000D03*
%TO.N,N/C*%
X42380000Y-46860000D03*
X39840000Y-46860000D03*
%TO.N,PB7*%
X37300000Y-46860000D03*
%TO.N,PB6*%
X34760000Y-46860000D03*
%TO.N,N/C*%
X32220000Y-46860000D03*
X29680000Y-46860000D03*
X27140000Y-46860000D03*
X24600000Y-46860000D03*
X22060000Y-46860000D03*
X19520000Y-46860000D03*
X16980000Y-46860000D03*
X14440000Y-46860000D03*
X11900000Y-46860000D03*
X9360000Y-46860000D03*
X6820000Y-46860000D03*
X4280000Y-46860000D03*
X1740000Y-46860000D03*
%TD*%
D16*
%TO.N,RY2_COM*%
%TO.C,J3*%
X57000000Y-62000000D03*
D17*
%TO.N,RY2_NO*%
X62000000Y-62000000D03*
%TO.N,RY2_NC*%
X67000000Y-62000000D03*
%TD*%
D20*
%TO.N,+5V*%
%TO.C,D2*%
X8000000Y-63000000D03*
D21*
%TO.N,RY2_Drive*%
X18160000Y-63000000D03*
%TD*%
D20*
%TO.N,+5V*%
%TO.C,D3*%
X18000000Y-6000000D03*
D21*
%TO.N,VCC_IN*%
X28160000Y-6000000D03*
%TD*%
D22*
%TO.N,Q2B*%
%TO.C,Q2*%
X8000000Y-53000000D03*
D23*
%TO.N,RY2_Drive*%
X9270000Y-53000000D03*
%TO.N,GND*%
X10540000Y-53000000D03*
%TD*%
D15*
%TO.N,PA0*%
%TO.C,R1*%
X30000000Y-16000000D03*
%TO.N,Q1B*%
X40160000Y-16000000D03*
%TD*%
D16*
%TO.N,VCC_IN*%
%TO.C,J1*%
X7000000Y-12000000D03*
D17*
%TO.N,GND*%
X12000000Y-12000000D03*
%TD*%
D12*
%TO.N,RY2_COM*%
%TO.C,RY2*%
X54000000Y-50000000D03*
%TO.N,RY2_NC*%
X68200000Y-44000000D03*
%TO.N,RY2_NO*%
X68200000Y-56000000D03*
D13*
%TO.N,+5V*%
X56000000Y-44000000D03*
D12*
%TO.N,RY2_Drive*%
X56000000Y-56000000D03*
%TD*%
D15*
%TO.N,LED1_K*%
%TO.C,R3*%
X76000000Y-16000000D03*
%TO.N,RY1_Drive*%
X76000000Y-26160000D03*
%TD*%
D16*
%TO.N,RY1_COM*%
%TO.C,J2*%
X57000000Y-30000000D03*
D17*
%TO.N,RY1_NO*%
X62000000Y-30000000D03*
%TO.N,RY1_NC*%
X67000000Y-30000000D03*
%TD*%
D15*
%TO.N,PA1*%
%TO.C,R2*%
X38000000Y-53000000D03*
%TO.N,Q2B*%
X48160000Y-53000000D03*
%TD*%
D20*
%TO.N,+5V*%
%TO.C,D1*%
X35000000Y-6000000D03*
D21*
%TO.N,RY1_Drive*%
X45160000Y-6000000D03*
%TD*%
D22*
%TO.N,Q1B*%
%TO.C,Q1*%
X20000000Y-16000000D03*
D23*
%TO.N,RY1_Drive*%
X21270000Y-16000000D03*
%TO.N,GND*%
X22540000Y-16000000D03*
%TD*%
D24*
%TO.N,PA1*%
X52031500Y-48014000D03*
%TO.N,RY1_Drive*%
X22178000Y-13047000D03*
%TD*%
%TA.AperFunction,Conductor*%
%TO.N,+5V*%
G36*
X79359191Y-618907D02*
G01*
X79395155Y-668407D01*
X79400000Y-699000D01*
X79400000Y-69301000D01*
X79381093Y-69359191D01*
X79331593Y-69395155D01*
X79301000Y-69400000D01*
X699000Y-69400000D01*
X640809Y-69381093D01*
X604845Y-69331593D01*
X600000Y-69301000D01*
X600000Y-64878710D01*
X3149500Y-64878710D01*
X3149500Y-65121289D01*
X3181161Y-65361781D01*
X3181161Y-65361786D01*
X3243944Y-65596092D01*
X3243948Y-65596105D01*
X3336772Y-65820204D01*
X3336774Y-65820208D01*
X3336776Y-65820212D01*
X3458064Y-66030289D01*
X3458066Y-66030292D01*
X3605729Y-66222731D01*
X3605731Y-66222733D01*
X3605735Y-66222738D01*
X3777262Y-66394265D01*
X3777266Y-66394268D01*
X3777268Y-66394270D01*
X3969707Y-66541933D01*
X3969711Y-66541936D01*
X4179788Y-66663224D01*
X4403900Y-66756054D01*
X4638211Y-66818838D01*
X4878712Y-66850500D01*
X4878713Y-66850500D01*
X5121287Y-66850500D01*
X5121288Y-66850500D01*
X5361789Y-66818838D01*
X5596100Y-66756054D01*
X5820212Y-66663224D01*
X6030289Y-66541936D01*
X6222738Y-66394265D01*
X6394265Y-66222738D01*
X6541936Y-66030289D01*
X6663224Y-65820212D01*
X6756054Y-65596100D01*
X6818838Y-65361789D01*
X6850500Y-65121288D01*
X6850500Y-64878712D01*
X6850500Y-64878710D01*
X73149500Y-64878710D01*
X73149500Y-65121289D01*
X73181161Y-65361781D01*
X73181161Y-65361786D01*
X73243944Y-65596092D01*
X73243948Y-65596105D01*
X73336772Y-65820204D01*
X73336774Y-65820208D01*
X73336776Y-65820212D01*
X73458064Y-66030289D01*
X73458066Y-66030292D01*
X73605729Y-66222731D01*
X73605731Y-66222733D01*
X73605735Y-66222738D01*
X73777262Y-66394265D01*
X73777266Y-66394268D01*
X73777268Y-66394270D01*
X73969707Y-66541933D01*
X73969711Y-66541936D01*
X74179788Y-66663224D01*
X74403900Y-66756054D01*
X74638211Y-66818838D01*
X74878712Y-66850500D01*
X74878713Y-66850500D01*
X75121287Y-66850500D01*
X75121288Y-66850500D01*
X75361789Y-66818838D01*
X75596100Y-66756054D01*
X75820212Y-66663224D01*
X76030289Y-66541936D01*
X76222738Y-66394265D01*
X76394265Y-66222738D01*
X76541936Y-66030289D01*
X76663224Y-65820212D01*
X76756054Y-65596100D01*
X76818838Y-65361789D01*
X76850500Y-65121288D01*
X76850500Y-64878712D01*
X76818838Y-64638211D01*
X76756054Y-64403900D01*
X76663224Y-64179788D01*
X76541936Y-63969711D01*
X76403661Y-63789507D01*
X76394270Y-63777268D01*
X76394268Y-63777266D01*
X76394265Y-63777262D01*
X76222738Y-63605735D01*
X76222733Y-63605731D01*
X76222731Y-63605729D01*
X76030292Y-63458066D01*
X76030289Y-63458064D01*
X75820212Y-63336776D01*
X75820208Y-63336774D01*
X75820204Y-63336772D01*
X75596105Y-63243948D01*
X75596104Y-63243947D01*
X75596100Y-63243946D01*
X75361789Y-63181162D01*
X75361786Y-63181161D01*
X75361784Y-63181161D01*
X75121289Y-63149500D01*
X75121288Y-63149500D01*
X74878712Y-63149500D01*
X74878710Y-63149500D01*
X74638218Y-63181161D01*
X74638213Y-63181161D01*
X74403907Y-63243944D01*
X74403894Y-63243948D01*
X74179795Y-63336772D01*
X73969707Y-63458066D01*
X73777268Y-63605729D01*
X73605729Y-63777268D01*
X73458066Y-63969707D01*
X73336772Y-64179795D01*
X73243948Y-64403894D01*
X73243944Y-64403907D01*
X73181161Y-64638213D01*
X73181161Y-64638218D01*
X73149500Y-64878710D01*
X6850500Y-64878710D01*
X6824605Y-64682017D01*
X6835755Y-64621858D01*
X6880137Y-64579741D01*
X6940799Y-64571755D01*
X6953899Y-64575122D01*
X6997308Y-64589506D01*
X7100012Y-64599999D01*
X7749998Y-64599999D01*
X7750000Y-64599998D01*
X7750000Y-63490747D01*
X7787708Y-63512518D01*
X7927591Y-63550000D01*
X8072409Y-63550000D01*
X8212292Y-63512518D01*
X8250000Y-63490747D01*
X8250000Y-64599998D01*
X8250001Y-64599999D01*
X8899986Y-64599999D01*
X9002687Y-64589507D01*
X9002699Y-64589504D01*
X9169125Y-64534357D01*
X9318341Y-64442317D01*
X9318342Y-64442317D01*
X9442317Y-64318342D01*
X9442317Y-64318341D01*
X9534357Y-64169125D01*
X9589506Y-64002693D01*
X9600000Y-63899987D01*
X9600000Y-63250001D01*
X9599999Y-63250000D01*
X8490748Y-63250000D01*
X8512518Y-63212292D01*
X8550000Y-63072409D01*
X8550000Y-62927591D01*
X8539867Y-62889774D01*
X16759500Y-62889774D01*
X16759500Y-63110225D01*
X16793984Y-63327948D01*
X16862102Y-63537599D01*
X16862104Y-63537602D01*
X16862105Y-63537606D01*
X16962185Y-63734022D01*
X17091758Y-63912365D01*
X17247635Y-64068242D01*
X17425978Y-64197815D01*
X17622394Y-64297895D01*
X17832049Y-64366015D01*
X17919140Y-64379809D01*
X18049775Y-64400500D01*
X18049778Y-64400500D01*
X18270225Y-64400500D01*
X18379086Y-64383257D01*
X18487951Y-64366015D01*
X18697606Y-64297895D01*
X18894022Y-64197815D01*
X19072365Y-64068242D01*
X19228242Y-63912365D01*
X19357815Y-63734022D01*
X19457895Y-63537606D01*
X19526015Y-63327951D01*
X19545855Y-63202687D01*
X19560500Y-63110225D01*
X19560500Y-62889774D01*
X19526015Y-62672051D01*
X19526015Y-62672049D01*
X19457895Y-62462394D01*
X19357815Y-62265978D01*
X19228242Y-62087635D01*
X19072365Y-61931758D01*
X18894022Y-61802185D01*
X18894021Y-61802184D01*
X18894019Y-61802183D01*
X18791602Y-61749999D01*
X18697606Y-61702105D01*
X18697602Y-61702104D01*
X18697599Y-61702102D01*
X18487948Y-61633984D01*
X18270225Y-61599500D01*
X18270222Y-61599500D01*
X18049778Y-61599500D01*
X18049775Y-61599500D01*
X17832051Y-61633984D01*
X17622400Y-61702102D01*
X17425980Y-61802183D01*
X17336806Y-61866971D01*
X17247635Y-61931758D01*
X17091758Y-62087635D01*
X17081879Y-62101233D01*
X16962183Y-62265980D01*
X16862102Y-62462400D01*
X16793984Y-62672051D01*
X16759500Y-62889774D01*
X8539867Y-62889774D01*
X8512518Y-62787708D01*
X8490748Y-62750000D01*
X9599998Y-62750000D01*
X9599999Y-62749999D01*
X9599999Y-62100013D01*
X9589507Y-61997312D01*
X9589504Y-61997300D01*
X9534357Y-61830874D01*
X9442317Y-61681658D01*
X9442317Y-61681657D01*
X9318342Y-61557682D01*
X9169125Y-61465642D01*
X9002693Y-61410493D01*
X8899987Y-61400000D01*
X8250001Y-61400000D01*
X8250000Y-61400001D01*
X8250000Y-62509252D01*
X8212292Y-62487482D01*
X8072409Y-62450000D01*
X7927591Y-62450000D01*
X7787708Y-62487482D01*
X7750000Y-62509252D01*
X7750000Y-61400001D01*
X7749999Y-61400000D01*
X7100013Y-61400000D01*
X6997312Y-61410492D01*
X6997300Y-61410495D01*
X6830874Y-61465642D01*
X6681658Y-61557682D01*
X6681657Y-61557682D01*
X6557682Y-61681657D01*
X6557682Y-61681658D01*
X6465642Y-61830874D01*
X6410493Y-61997306D01*
X6400000Y-62100012D01*
X6400000Y-62749999D01*
X6400001Y-62750000D01*
X7509252Y-62750000D01*
X7487482Y-62787708D01*
X7450000Y-62927591D01*
X7450000Y-63072409D01*
X7487482Y-63212292D01*
X7509252Y-63250000D01*
X6400002Y-63250000D01*
X6400000Y-63250001D01*
X6400000Y-63543990D01*
X6381093Y-63602181D01*
X6331592Y-63638145D01*
X6270407Y-63638145D01*
X6230998Y-63613995D01*
X6222738Y-63605735D01*
X6222733Y-63605731D01*
X6222731Y-63605729D01*
X6030292Y-63458066D01*
X6030289Y-63458064D01*
X5820212Y-63336776D01*
X5820208Y-63336774D01*
X5820204Y-63336772D01*
X5596105Y-63243948D01*
X5596104Y-63243947D01*
X5596100Y-63243946D01*
X5361789Y-63181162D01*
X5361786Y-63181161D01*
X5361784Y-63181161D01*
X5121289Y-63149500D01*
X5121288Y-63149500D01*
X4878712Y-63149500D01*
X4878710Y-63149500D01*
X4638218Y-63181161D01*
X4638213Y-63181161D01*
X4403907Y-63243944D01*
X4403894Y-63243948D01*
X4179795Y-63336772D01*
X3969707Y-63458066D01*
X3777268Y-63605729D01*
X3605729Y-63777268D01*
X3458066Y-63969707D01*
X3336772Y-64179795D01*
X3243948Y-64403894D01*
X3243944Y-64403907D01*
X3181161Y-64638213D01*
X3181161Y-64638218D01*
X3149500Y-64878710D01*
X600000Y-64878710D01*
X600000Y-60900012D01*
X24200000Y-60900012D01*
X24200000Y-61749999D01*
X24200001Y-61750000D01*
X25399999Y-61750000D01*
X25374979Y-61810402D01*
X25350000Y-61935981D01*
X25350000Y-62064019D01*
X25374979Y-62189598D01*
X25399999Y-62250000D01*
X24200002Y-62250000D01*
X24200001Y-62250001D01*
X24200001Y-63099986D01*
X24210492Y-63202687D01*
X24210495Y-63202699D01*
X24265643Y-63369124D01*
X24357680Y-63518340D01*
X24481659Y-63642319D01*
X24630875Y-63734356D01*
X24797306Y-63789506D01*
X24900012Y-63799999D01*
X25749998Y-63799999D01*
X25750000Y-63799998D01*
X25750000Y-62600001D01*
X25810402Y-62625021D01*
X25935981Y-62650000D01*
X26064019Y-62650000D01*
X26189598Y-62625021D01*
X26250000Y-62600001D01*
X26250000Y-63799998D01*
X26250001Y-63799999D01*
X27099986Y-63799999D01*
X27202687Y-63789507D01*
X27202699Y-63789504D01*
X27369124Y-63734356D01*
X27518340Y-63642319D01*
X27642319Y-63518340D01*
X27734356Y-63369124D01*
X27789506Y-63202693D01*
X27800000Y-63099987D01*
X27800000Y-62250001D01*
X27799999Y-62250000D01*
X26600001Y-62250000D01*
X26625021Y-62189598D01*
X26650000Y-62064019D01*
X26650000Y-61935981D01*
X26637678Y-61874034D01*
X29399500Y-61874034D01*
X29399500Y-62125965D01*
X29438908Y-62374780D01*
X29516759Y-62614379D01*
X29585860Y-62749999D01*
X29631130Y-62838845D01*
X29779207Y-63042656D01*
X29957344Y-63220793D01*
X30161155Y-63368870D01*
X30385621Y-63483241D01*
X30625215Y-63561090D01*
X30625216Y-63561090D01*
X30625219Y-63561091D01*
X30874035Y-63600500D01*
X30874038Y-63600500D01*
X31125965Y-63600500D01*
X31374780Y-63561091D01*
X31374781Y-63561090D01*
X31374785Y-63561090D01*
X31614379Y-63483241D01*
X31838845Y-63368870D01*
X32042656Y-63220793D01*
X32220793Y-63042656D01*
X32368870Y-62838845D01*
X32483241Y-62614379D01*
X32561090Y-62374785D01*
X32578323Y-62265980D01*
X32600500Y-62125965D01*
X32600500Y-61874034D01*
X34399500Y-61874034D01*
X34399500Y-62125965D01*
X34438908Y-62374780D01*
X34516759Y-62614379D01*
X34585860Y-62749999D01*
X34631130Y-62838845D01*
X34779207Y-63042656D01*
X34957344Y-63220793D01*
X35161155Y-63368870D01*
X35385621Y-63483241D01*
X35625215Y-63561090D01*
X35625216Y-63561090D01*
X35625219Y-63561091D01*
X35874035Y-63600500D01*
X35874038Y-63600500D01*
X36125965Y-63600500D01*
X36374780Y-63561091D01*
X36374781Y-63561090D01*
X36374785Y-63561090D01*
X36614379Y-63483241D01*
X36838845Y-63368870D01*
X37042656Y-63220793D01*
X37220793Y-63042656D01*
X37368870Y-62838845D01*
X37483241Y-62614379D01*
X37561090Y-62374785D01*
X37578323Y-62265980D01*
X37600500Y-62125965D01*
X37600500Y-61874034D01*
X39399500Y-61874034D01*
X39399500Y-62125965D01*
X39438908Y-62374780D01*
X39516759Y-62614379D01*
X39585860Y-62749999D01*
X39631130Y-62838845D01*
X39779207Y-63042656D01*
X39957344Y-63220793D01*
X40161155Y-63368870D01*
X40385621Y-63483241D01*
X40625215Y-63561090D01*
X40625216Y-63561090D01*
X40625219Y-63561091D01*
X40874035Y-63600500D01*
X40874038Y-63600500D01*
X41125965Y-63600500D01*
X41374780Y-63561091D01*
X41374781Y-63561090D01*
X41374785Y-63561090D01*
X41614379Y-63483241D01*
X41838845Y-63368870D01*
X42042656Y-63220793D01*
X42220793Y-63042656D01*
X42368870Y-62838845D01*
X42483241Y-62614379D01*
X42561090Y-62374785D01*
X42578323Y-62265980D01*
X42600500Y-62125965D01*
X42600500Y-61874034D01*
X42561091Y-61625219D01*
X42561090Y-61625215D01*
X42483241Y-61385621D01*
X42426055Y-61273388D01*
X42368871Y-61161156D01*
X42224270Y-60962130D01*
X42224269Y-60962128D01*
X42220796Y-60957348D01*
X42220795Y-60957347D01*
X42220793Y-60957344D01*
X42170342Y-60906893D01*
X55399500Y-60906893D01*
X55399500Y-63093106D01*
X55410123Y-63181565D01*
X55465637Y-63322339D01*
X55465638Y-63322341D01*
X55465639Y-63322342D01*
X55557078Y-63442922D01*
X55677658Y-63534361D01*
X55677659Y-63534361D01*
X55677660Y-63534362D01*
X55745438Y-63561090D01*
X55818436Y-63589877D01*
X55906898Y-63600500D01*
X55906900Y-63600500D01*
X58093100Y-63600500D01*
X58093102Y-63600500D01*
X58181564Y-63589877D01*
X58322342Y-63534361D01*
X58442922Y-63442922D01*
X58534361Y-63322342D01*
X58589877Y-63181564D01*
X58600500Y-63093102D01*
X58600500Y-61874034D01*
X60399500Y-61874034D01*
X60399500Y-62125965D01*
X60438908Y-62374780D01*
X60516759Y-62614379D01*
X60585860Y-62749999D01*
X60631130Y-62838845D01*
X60779207Y-63042656D01*
X60957344Y-63220793D01*
X61161155Y-63368870D01*
X61385621Y-63483241D01*
X61625215Y-63561090D01*
X61625216Y-63561090D01*
X61625219Y-63561091D01*
X61874035Y-63600500D01*
X61874038Y-63600500D01*
X62125965Y-63600500D01*
X62374780Y-63561091D01*
X62374781Y-63561090D01*
X62374785Y-63561090D01*
X62614379Y-63483241D01*
X62838845Y-63368870D01*
X63042656Y-63220793D01*
X63220793Y-63042656D01*
X63368870Y-62838845D01*
X63483241Y-62614379D01*
X63561090Y-62374785D01*
X63578323Y-62265980D01*
X63600500Y-62125965D01*
X63600500Y-61874034D01*
X65399500Y-61874034D01*
X65399500Y-62125965D01*
X65438908Y-62374780D01*
X65516759Y-62614379D01*
X65585860Y-62749999D01*
X65631130Y-62838845D01*
X65779207Y-63042656D01*
X65957344Y-63220793D01*
X66161155Y-63368870D01*
X66385621Y-63483241D01*
X66625215Y-63561090D01*
X66625216Y-63561090D01*
X66625219Y-63561091D01*
X66874035Y-63600500D01*
X66874038Y-63600500D01*
X67125965Y-63600500D01*
X67374780Y-63561091D01*
X67374781Y-63561090D01*
X67374785Y-63561090D01*
X67614379Y-63483241D01*
X67838845Y-63368870D01*
X68042656Y-63220793D01*
X68220793Y-63042656D01*
X68368870Y-62838845D01*
X68483241Y-62614379D01*
X68561090Y-62374785D01*
X68578323Y-62265980D01*
X68600500Y-62125965D01*
X68600500Y-61874034D01*
X68561091Y-61625219D01*
X68561090Y-61625215D01*
X68483241Y-61385621D01*
X68368870Y-61161155D01*
X68368868Y-61161151D01*
X68344558Y-61127692D01*
X68344556Y-61127690D01*
X68305104Y-61073389D01*
X68305101Y-61073385D01*
X74899500Y-61073385D01*
X74899500Y-61246614D01*
X74926597Y-61417702D01*
X74926598Y-61417706D01*
X74980123Y-61582438D01*
X74980125Y-61582441D01*
X75041094Y-61702102D01*
X75058768Y-61736788D01*
X75160586Y-61876928D01*
X75283072Y-61999414D01*
X75423212Y-62101232D01*
X75577555Y-62179873D01*
X75577557Y-62179873D01*
X75577558Y-62179874D01*
X75577561Y-62179876D01*
X75742293Y-62233401D01*
X75742297Y-62233402D01*
X75913386Y-62260500D01*
X75913389Y-62260500D01*
X76086614Y-62260500D01*
X76257702Y-62233402D01*
X76257706Y-62233401D01*
X76422438Y-62179876D01*
X76422440Y-62179874D01*
X76422445Y-62179873D01*
X76576788Y-62101232D01*
X76716928Y-61999414D01*
X76839414Y-61876928D01*
X76941232Y-61736788D01*
X77019873Y-61582445D01*
X77019874Y-61582440D01*
X77019876Y-61582438D01*
X77073401Y-61417706D01*
X77073402Y-61417702D01*
X77100500Y-61246614D01*
X77100500Y-61073385D01*
X77073402Y-60902297D01*
X77073401Y-60902293D01*
X77019876Y-60737561D01*
X77019874Y-60737558D01*
X77019873Y-60737557D01*
X77019873Y-60737555D01*
X76941232Y-60583212D01*
X76839414Y-60443072D01*
X76716928Y-60320586D01*
X76576788Y-60218768D01*
X76576787Y-60218767D01*
X76576785Y-60218766D01*
X76422441Y-60140125D01*
X76422438Y-60140123D01*
X76257706Y-60086598D01*
X76257702Y-60086597D01*
X76086614Y-60059500D01*
X76086611Y-60059500D01*
X75913389Y-60059500D01*
X75913386Y-60059500D01*
X75742297Y-60086597D01*
X75742293Y-60086598D01*
X75577561Y-60140123D01*
X75577558Y-60140125D01*
X75423214Y-60218766D01*
X75283073Y-60320585D01*
X75160585Y-60443073D01*
X75058766Y-60583214D01*
X74980125Y-60737558D01*
X74980123Y-60737561D01*
X74926598Y-60902293D01*
X74926597Y-60902297D01*
X74899500Y-61073385D01*
X68305101Y-61073385D01*
X68220793Y-60957344D01*
X68042656Y-60779207D01*
X67838845Y-60631130D01*
X67838844Y-60631129D01*
X67838842Y-60631128D01*
X67614379Y-60516759D01*
X67374780Y-60438908D01*
X67125965Y-60399500D01*
X67125962Y-60399500D01*
X66874038Y-60399500D01*
X66874035Y-60399500D01*
X66625219Y-60438908D01*
X66385620Y-60516759D01*
X66161157Y-60631128D01*
X65957345Y-60779206D01*
X65779206Y-60957345D01*
X65631128Y-61161157D01*
X65516759Y-61385620D01*
X65438908Y-61625219D01*
X65399500Y-61874034D01*
X63600500Y-61874034D01*
X63561091Y-61625219D01*
X63561090Y-61625215D01*
X63483241Y-61385621D01*
X63368870Y-61161155D01*
X63220793Y-60957344D01*
X63042656Y-60779207D01*
X62838845Y-60631130D01*
X62838844Y-60631129D01*
X62838842Y-60631128D01*
X62614379Y-60516759D01*
X62374780Y-60438908D01*
X62125965Y-60399500D01*
X62125962Y-60399500D01*
X61874038Y-60399500D01*
X61874035Y-60399500D01*
X61625219Y-60438908D01*
X61385620Y-60516759D01*
X61161157Y-60631128D01*
X60957345Y-60779206D01*
X60779206Y-60957345D01*
X60631128Y-61161157D01*
X60516759Y-61385620D01*
X60438908Y-61625219D01*
X60399500Y-61874034D01*
X58600500Y-61874034D01*
X58600500Y-60906898D01*
X58589877Y-60818436D01*
X58534361Y-60677658D01*
X58442922Y-60557078D01*
X58322342Y-60465639D01*
X58322341Y-60465638D01*
X58322339Y-60465637D01*
X58181565Y-60410123D01*
X58093106Y-60399500D01*
X58093102Y-60399500D01*
X55906898Y-60399500D01*
X55906893Y-60399500D01*
X55818434Y-60410123D01*
X55677660Y-60465637D01*
X55677656Y-60465640D01*
X55557081Y-60557075D01*
X55557075Y-60557081D01*
X55465640Y-60677656D01*
X55465637Y-60677660D01*
X55410123Y-60818434D01*
X55399500Y-60906893D01*
X42170342Y-60906893D01*
X42042656Y-60779207D01*
X41838845Y-60631130D01*
X41838844Y-60631129D01*
X41838842Y-60631128D01*
X41614379Y-60516759D01*
X41374780Y-60438908D01*
X41125965Y-60399500D01*
X41125962Y-60399500D01*
X40874038Y-60399500D01*
X40874035Y-60399500D01*
X40625219Y-60438908D01*
X40385620Y-60516759D01*
X40161157Y-60631128D01*
X39957345Y-60779206D01*
X39779206Y-60957345D01*
X39631128Y-61161157D01*
X39516759Y-61385620D01*
X39438908Y-61625219D01*
X39399500Y-61874034D01*
X37600500Y-61874034D01*
X37561091Y-61625219D01*
X37561090Y-61625215D01*
X37483241Y-61385621D01*
X37368870Y-61161155D01*
X37220793Y-60957344D01*
X37042656Y-60779207D01*
X36838845Y-60631130D01*
X36838844Y-60631129D01*
X36838842Y-60631128D01*
X36614379Y-60516759D01*
X36374780Y-60438908D01*
X36125965Y-60399500D01*
X36125962Y-60399500D01*
X35874038Y-60399500D01*
X35874035Y-60399500D01*
X35625219Y-60438908D01*
X35385620Y-60516759D01*
X35161157Y-60631128D01*
X34957345Y-60779206D01*
X34779206Y-60957345D01*
X34631128Y-61161157D01*
X34516759Y-61385620D01*
X34438908Y-61625219D01*
X34399500Y-61874034D01*
X32600500Y-61874034D01*
X32561091Y-61625219D01*
X32561090Y-61625215D01*
X32483241Y-61385621D01*
X32368870Y-61161155D01*
X32220793Y-60957344D01*
X32042656Y-60779207D01*
X31838845Y-60631130D01*
X31838844Y-60631129D01*
X31838842Y-60631128D01*
X31614379Y-60516759D01*
X31374780Y-60438908D01*
X31125965Y-60399500D01*
X31125962Y-60399500D01*
X30874038Y-60399500D01*
X30874035Y-60399500D01*
X30625219Y-60438908D01*
X30385620Y-60516759D01*
X30161157Y-60631128D01*
X29957345Y-60779206D01*
X29779206Y-60957345D01*
X29631128Y-61161157D01*
X29516759Y-61385620D01*
X29438908Y-61625219D01*
X29399500Y-61874034D01*
X26637678Y-61874034D01*
X26625021Y-61810402D01*
X26600001Y-61750000D01*
X27799998Y-61750000D01*
X27799999Y-61749999D01*
X27799999Y-60900013D01*
X27789507Y-60797312D01*
X27789504Y-60797300D01*
X27734356Y-60630875D01*
X27642319Y-60481659D01*
X27518340Y-60357680D01*
X27369124Y-60265643D01*
X27202693Y-60210493D01*
X27099987Y-60200000D01*
X26250001Y-60200000D01*
X26250000Y-60200001D01*
X26250000Y-61399998D01*
X26189598Y-61374979D01*
X26064019Y-61350000D01*
X25935981Y-61350000D01*
X25810402Y-61374979D01*
X25750000Y-61399998D01*
X25750000Y-60200001D01*
X25749999Y-60200000D01*
X24900013Y-60200000D01*
X24797312Y-60210492D01*
X24797300Y-60210495D01*
X24630875Y-60265643D01*
X24481659Y-60357680D01*
X24357680Y-60481659D01*
X24265643Y-60630875D01*
X24210493Y-60797306D01*
X24200000Y-60900012D01*
X600000Y-60900012D01*
X600000Y-54400012D01*
X16700000Y-54400012D01*
X16700000Y-54749999D01*
X16700001Y-54750000D01*
X17684314Y-54750000D01*
X17679920Y-54754394D01*
X17627259Y-54845606D01*
X17600000Y-54947339D01*
X17600000Y-55052661D01*
X17627259Y-55154394D01*
X17679920Y-55245606D01*
X17684314Y-55250000D01*
X16700002Y-55250000D01*
X16700001Y-55250001D01*
X16700001Y-55599986D01*
X16710492Y-55702687D01*
X16710495Y-55702699D01*
X16765643Y-55869124D01*
X16857680Y-56018340D01*
X16981659Y-56142319D01*
X17130875Y-56234356D01*
X17297306Y-56289506D01*
X17400013Y-56299999D01*
X17749998Y-56299999D01*
X17750000Y-56299998D01*
X17750000Y-55315686D01*
X17754394Y-55320080D01*
X17845606Y-55372741D01*
X17947339Y-55400000D01*
X18052661Y-55400000D01*
X18154394Y-55372741D01*
X18245606Y-55320080D01*
X18250000Y-55315686D01*
X18250000Y-56299998D01*
X18250001Y-56299999D01*
X18599986Y-56299999D01*
X18702687Y-56289507D01*
X18702699Y-56289504D01*
X18869124Y-56234356D01*
X19018340Y-56142319D01*
X19142319Y-56018340D01*
X19228901Y-55877969D01*
X54449500Y-55877969D01*
X54449500Y-56122030D01*
X54487677Y-56363071D01*
X54563096Y-56595185D01*
X54673892Y-56812637D01*
X54752348Y-56920623D01*
X54817345Y-57010083D01*
X54989917Y-57182655D01*
X55133369Y-57286878D01*
X55187362Y-57326107D01*
X55296088Y-57381505D01*
X55404815Y-57436904D01*
X55636924Y-57512321D01*
X55636925Y-57512321D01*
X55636928Y-57512322D01*
X55877970Y-57550500D01*
X55877973Y-57550500D01*
X56122030Y-57550500D01*
X56363071Y-57512322D01*
X56363072Y-57512321D01*
X56363076Y-57512321D01*
X56595185Y-57436904D01*
X56812639Y-57326106D01*
X57010083Y-57182655D01*
X57182655Y-57010083D01*
X57326106Y-56812639D01*
X57436904Y-56595185D01*
X57512321Y-56363076D01*
X57522312Y-56299998D01*
X57550500Y-56122030D01*
X57550500Y-55877969D01*
X66649500Y-55877969D01*
X66649500Y-56122030D01*
X66687677Y-56363071D01*
X66763096Y-56595185D01*
X66873892Y-56812637D01*
X66952348Y-56920623D01*
X67017345Y-57010083D01*
X67189917Y-57182655D01*
X67333369Y-57286878D01*
X67387362Y-57326107D01*
X67496088Y-57381505D01*
X67604815Y-57436904D01*
X67836924Y-57512321D01*
X67836925Y-57512321D01*
X67836928Y-57512322D01*
X68077970Y-57550500D01*
X68077973Y-57550500D01*
X68322030Y-57550500D01*
X68563071Y-57512322D01*
X68563072Y-57512321D01*
X68563076Y-57512321D01*
X68795185Y-57436904D01*
X69012639Y-57326106D01*
X69210083Y-57182655D01*
X69382655Y-57010083D01*
X69526106Y-56812639D01*
X69636904Y-56595185D01*
X69712321Y-56363076D01*
X69722312Y-56299998D01*
X69750500Y-56122030D01*
X69750500Y-55877969D01*
X69712322Y-55636928D01*
X69700319Y-55599986D01*
X69636904Y-55404815D01*
X69526106Y-55187361D01*
X69382655Y-54989917D01*
X69210083Y-54817345D01*
X69117389Y-54749999D01*
X69012637Y-54673892D01*
X68795185Y-54563096D01*
X68563071Y-54487677D01*
X68322030Y-54449500D01*
X68322027Y-54449500D01*
X68077973Y-54449500D01*
X68077970Y-54449500D01*
X67836928Y-54487677D01*
X67604814Y-54563096D01*
X67387362Y-54673892D01*
X67189918Y-54817344D01*
X67017344Y-54989918D01*
X66873892Y-55187362D01*
X66763096Y-55404814D01*
X66687677Y-55636928D01*
X66649500Y-55877969D01*
X57550500Y-55877969D01*
X57512322Y-55636928D01*
X57500319Y-55599986D01*
X57436904Y-55404815D01*
X57326106Y-55187361D01*
X57182655Y-54989917D01*
X57010083Y-54817345D01*
X56917389Y-54749999D01*
X56812637Y-54673892D01*
X56595185Y-54563096D01*
X56363071Y-54487677D01*
X56122030Y-54449500D01*
X56122027Y-54449500D01*
X55877973Y-54449500D01*
X55877970Y-54449500D01*
X55636928Y-54487677D01*
X55404814Y-54563096D01*
X55187362Y-54673892D01*
X54989918Y-54817344D01*
X54817344Y-54989918D01*
X54673892Y-55187362D01*
X54563096Y-55404814D01*
X54487677Y-55636928D01*
X54449500Y-55877969D01*
X19228901Y-55877969D01*
X19234357Y-55869123D01*
X19242956Y-55843171D01*
X19243032Y-55842942D01*
X19289506Y-55702691D01*
X19300000Y-55599987D01*
X19300000Y-55250001D01*
X19299999Y-55250000D01*
X18315686Y-55250000D01*
X18320080Y-55245606D01*
X18372741Y-55154394D01*
X18400000Y-55052661D01*
X18400000Y-54947339D01*
X18372741Y-54845606D01*
X18320080Y-54754394D01*
X18315686Y-54750000D01*
X19299998Y-54750000D01*
X19299999Y-54749999D01*
X19299999Y-54400013D01*
X19289507Y-54297312D01*
X19289504Y-54297300D01*
X19234356Y-54130875D01*
X19211437Y-54093717D01*
X19211436Y-54093716D01*
X19142317Y-53981657D01*
X19018340Y-53857680D01*
X18869124Y-53765643D01*
X18702693Y-53710493D01*
X18599987Y-53700000D01*
X18481291Y-53700000D01*
X18423100Y-53681093D01*
X18387136Y-53631593D01*
X18387136Y-53570407D01*
X18423100Y-53520907D01*
X18436346Y-53512790D01*
X18463358Y-53499027D01*
X18576788Y-53441232D01*
X18716928Y-53339414D01*
X18839414Y-53216928D01*
X18941232Y-53076788D01*
X19019873Y-52922445D01*
X19027918Y-52897684D01*
X26700000Y-52897684D01*
X26700000Y-53102315D01*
X26732008Y-53304412D01*
X26795243Y-53499027D01*
X26888139Y-53681348D01*
X26888143Y-53681353D01*
X26920523Y-53725920D01*
X26920524Y-53725920D01*
X27600000Y-53046444D01*
X27600000Y-53052661D01*
X27627259Y-53154394D01*
X27679920Y-53245606D01*
X27754394Y-53320080D01*
X27845606Y-53372741D01*
X27947339Y-53400000D01*
X27953553Y-53400000D01*
X27274078Y-54079475D01*
X27318647Y-54111858D01*
X27500972Y-54204756D01*
X27695587Y-54267991D01*
X27897685Y-54300000D01*
X28102315Y-54300000D01*
X28304412Y-54267991D01*
X28499027Y-54204756D01*
X28681342Y-54111863D01*
X28681350Y-54111858D01*
X28725920Y-54079475D01*
X28046445Y-53400000D01*
X28052661Y-53400000D01*
X28154394Y-53372741D01*
X28245606Y-53320080D01*
X28320080Y-53245606D01*
X28372741Y-53154394D01*
X28400000Y-53052661D01*
X28400000Y-53046445D01*
X29079475Y-53725920D01*
X29111858Y-53681350D01*
X29111863Y-53681342D01*
X29204756Y-53499027D01*
X29267991Y-53304412D01*
X29300000Y-53102315D01*
X29300000Y-52913385D01*
X31899500Y-52913385D01*
X31899500Y-53086614D01*
X31926597Y-53257702D01*
X31926598Y-53257706D01*
X31980123Y-53422438D01*
X31980125Y-53422441D01*
X32057042Y-53573402D01*
X32058768Y-53576788D01*
X32160586Y-53716928D01*
X32283072Y-53839414D01*
X32423212Y-53941232D01*
X32577555Y-54019873D01*
X32577557Y-54019873D01*
X32577558Y-54019874D01*
X32577561Y-54019876D01*
X32742293Y-54073401D01*
X32742297Y-54073402D01*
X32913386Y-54100500D01*
X32913389Y-54100500D01*
X33086614Y-54100500D01*
X33257702Y-54073402D01*
X33257706Y-54073401D01*
X33422438Y-54019876D01*
X33422440Y-54019874D01*
X33422445Y-54019873D01*
X33576788Y-53941232D01*
X33716928Y-53839414D01*
X33839414Y-53716928D01*
X33941232Y-53576788D01*
X34019873Y-53422445D01*
X34019874Y-53422440D01*
X34019876Y-53422438D01*
X34073401Y-53257706D01*
X34073402Y-53257702D01*
X34100500Y-53086614D01*
X34100500Y-52913385D01*
X36899500Y-52913385D01*
X36899500Y-53086614D01*
X36926597Y-53257702D01*
X36926598Y-53257706D01*
X36980123Y-53422438D01*
X36980125Y-53422441D01*
X37057042Y-53573402D01*
X37058768Y-53576788D01*
X37160586Y-53716928D01*
X37283072Y-53839414D01*
X37423212Y-53941232D01*
X37577555Y-54019873D01*
X37577557Y-54019873D01*
X37577558Y-54019874D01*
X37577561Y-54019876D01*
X37742293Y-54073401D01*
X37742297Y-54073402D01*
X37913386Y-54100500D01*
X37913389Y-54100500D01*
X38086614Y-54100500D01*
X38257702Y-54073402D01*
X38257706Y-54073401D01*
X38422438Y-54019876D01*
X38422440Y-54019874D01*
X38422445Y-54019873D01*
X38576788Y-53941232D01*
X38716928Y-53839414D01*
X38839414Y-53716928D01*
X38941232Y-53576788D01*
X39019873Y-53422445D01*
X39019874Y-53422440D01*
X39019876Y-53422438D01*
X39073401Y-53257706D01*
X39073402Y-53257702D01*
X39100500Y-53086614D01*
X39100500Y-52913385D01*
X47059500Y-52913385D01*
X47059500Y-53086614D01*
X47086597Y-53257702D01*
X47086598Y-53257706D01*
X47140123Y-53422438D01*
X47140125Y-53422441D01*
X47217042Y-53573402D01*
X47218768Y-53576788D01*
X47320586Y-53716928D01*
X47443072Y-53839414D01*
X47583212Y-53941232D01*
X47737555Y-54019873D01*
X47737557Y-54019873D01*
X47737558Y-54019874D01*
X47737561Y-54019876D01*
X47902293Y-54073401D01*
X47902297Y-54073402D01*
X48073386Y-54100500D01*
X48073389Y-54100500D01*
X48246614Y-54100500D01*
X48417702Y-54073402D01*
X48417706Y-54073401D01*
X48582438Y-54019876D01*
X48582440Y-54019874D01*
X48582445Y-54019873D01*
X48736788Y-53941232D01*
X48876928Y-53839414D01*
X48999414Y-53716928D01*
X49101232Y-53576788D01*
X49179873Y-53422445D01*
X49179874Y-53422440D01*
X49179876Y-53422438D01*
X49233401Y-53257706D01*
X49233402Y-53257702D01*
X49260500Y-53086614D01*
X49260500Y-52913385D01*
X49233402Y-52742297D01*
X49233401Y-52742293D01*
X49179876Y-52577561D01*
X49179874Y-52577558D01*
X49179873Y-52577557D01*
X49179873Y-52577555D01*
X49101232Y-52423212D01*
X48999414Y-52283072D01*
X48876928Y-52160586D01*
X48736788Y-52058768D01*
X48736787Y-52058767D01*
X48736785Y-52058766D01*
X48582441Y-51980125D01*
X48582438Y-51980123D01*
X48417706Y-51926598D01*
X48417702Y-51926597D01*
X48246614Y-51899500D01*
X48246611Y-51899500D01*
X48073389Y-51899500D01*
X48073386Y-51899500D01*
X47902297Y-51926597D01*
X47902293Y-51926598D01*
X47737561Y-51980123D01*
X47737558Y-51980125D01*
X47583214Y-52058766D01*
X47443073Y-52160585D01*
X47320585Y-52283073D01*
X47218766Y-52423214D01*
X47140125Y-52577558D01*
X47140123Y-52577561D01*
X47086598Y-52742293D01*
X47086597Y-52742297D01*
X47059500Y-52913385D01*
X39100500Y-52913385D01*
X39073402Y-52742297D01*
X39073401Y-52742293D01*
X39019876Y-52577561D01*
X39019874Y-52577558D01*
X39019873Y-52577557D01*
X39019873Y-52577555D01*
X38941232Y-52423212D01*
X38839414Y-52283072D01*
X38716928Y-52160586D01*
X38576788Y-52058768D01*
X38576787Y-52058767D01*
X38576785Y-52058766D01*
X38422441Y-51980125D01*
X38422438Y-51980123D01*
X38257706Y-51926598D01*
X38257702Y-51926597D01*
X38086614Y-51899500D01*
X38086611Y-51899500D01*
X37913389Y-51899500D01*
X37913386Y-51899500D01*
X37742297Y-51926597D01*
X37742293Y-51926598D01*
X37577561Y-51980123D01*
X37577558Y-51980125D01*
X37423214Y-52058766D01*
X37283073Y-52160585D01*
X37160585Y-52283073D01*
X37058766Y-52423214D01*
X36980125Y-52577558D01*
X36980123Y-52577561D01*
X36926598Y-52742293D01*
X36926597Y-52742297D01*
X36899500Y-52913385D01*
X34100500Y-52913385D01*
X34073402Y-52742297D01*
X34073401Y-52742293D01*
X34019876Y-52577561D01*
X34019874Y-52577558D01*
X34019873Y-52577557D01*
X34019873Y-52577555D01*
X33941232Y-52423212D01*
X33839414Y-52283072D01*
X33716928Y-52160586D01*
X33576788Y-52058768D01*
X33576787Y-52058767D01*
X33576785Y-52058766D01*
X33422441Y-51980125D01*
X33422438Y-51980123D01*
X33257706Y-51926598D01*
X33257702Y-51926597D01*
X33086614Y-51899500D01*
X33086611Y-51899500D01*
X32913389Y-51899500D01*
X32913386Y-51899500D01*
X32742297Y-51926597D01*
X32742293Y-51926598D01*
X32577561Y-51980123D01*
X32577558Y-51980125D01*
X32423214Y-52058766D01*
X32283073Y-52160585D01*
X32160585Y-52283073D01*
X32058766Y-52423214D01*
X31980125Y-52577558D01*
X31980123Y-52577561D01*
X31926598Y-52742293D01*
X31926597Y-52742297D01*
X31899500Y-52913385D01*
X29300000Y-52913385D01*
X29300000Y-52897684D01*
X29267991Y-52695587D01*
X29204756Y-52500972D01*
X29111858Y-52318647D01*
X29079475Y-52274078D01*
X28400000Y-52953553D01*
X28400000Y-52947339D01*
X28372741Y-52845606D01*
X28320080Y-52754394D01*
X28245606Y-52679920D01*
X28154394Y-52627259D01*
X28052661Y-52600000D01*
X28046445Y-52600000D01*
X28725920Y-51920524D01*
X28725920Y-51920523D01*
X28681353Y-51888143D01*
X28681348Y-51888139D01*
X28499027Y-51795243D01*
X28304412Y-51732008D01*
X28102315Y-51700000D01*
X27897685Y-51700000D01*
X27695587Y-51732008D01*
X27500972Y-51795243D01*
X27318651Y-51888139D01*
X27318647Y-51888141D01*
X27274078Y-51920523D01*
X27953555Y-52600000D01*
X27947339Y-52600000D01*
X27845606Y-52627259D01*
X27754394Y-52679920D01*
X27679920Y-52754394D01*
X27627259Y-52845606D01*
X27600000Y-52947339D01*
X27600000Y-52953555D01*
X26920523Y-52274078D01*
X26888141Y-52318647D01*
X26888139Y-52318651D01*
X26795243Y-52500972D01*
X26732008Y-52695587D01*
X26700000Y-52897684D01*
X19027918Y-52897684D01*
X19051917Y-52823821D01*
X19073401Y-52757706D01*
X19073402Y-52757702D01*
X19100500Y-52586614D01*
X19100500Y-52413385D01*
X19073402Y-52242297D01*
X19073401Y-52242293D01*
X19019876Y-52077561D01*
X19019872Y-52077552D01*
X18981989Y-52003201D01*
X18981988Y-52003200D01*
X18941233Y-51923214D01*
X18924004Y-51899500D01*
X18839414Y-51783072D01*
X18716928Y-51660586D01*
X18576788Y-51558768D01*
X18576787Y-51558767D01*
X18576785Y-51558766D01*
X18422441Y-51480125D01*
X18422438Y-51480123D01*
X18257706Y-51426598D01*
X18257702Y-51426597D01*
X18086614Y-51399500D01*
X18086611Y-51399500D01*
X17913389Y-51399500D01*
X17913386Y-51399500D01*
X17742297Y-51426597D01*
X17742293Y-51426598D01*
X17577561Y-51480123D01*
X17577558Y-51480125D01*
X17423214Y-51558766D01*
X17283073Y-51660585D01*
X17160585Y-51783073D01*
X17058766Y-51923214D01*
X16980125Y-52077558D01*
X16980123Y-52077561D01*
X16926598Y-52242293D01*
X16926597Y-52242297D01*
X16899500Y-52413385D01*
X16899500Y-52586614D01*
X16926597Y-52757702D01*
X16926598Y-52757706D01*
X16980123Y-52922438D01*
X16980125Y-52922441D01*
X17046474Y-53052661D01*
X17058768Y-53076788D01*
X17160586Y-53216928D01*
X17283072Y-53339414D01*
X17397354Y-53422445D01*
X17423215Y-53441234D01*
X17423217Y-53441235D01*
X17563654Y-53512790D01*
X17606919Y-53556054D01*
X17616491Y-53616486D01*
X17588714Y-53671003D01*
X17534198Y-53698781D01*
X17518711Y-53700000D01*
X17400013Y-53700000D01*
X17297312Y-53710492D01*
X17297300Y-53710495D01*
X17130875Y-53765643D01*
X16981659Y-53857680D01*
X16857680Y-53981659D01*
X16765643Y-54130875D01*
X16710493Y-54297306D01*
X16700000Y-54400012D01*
X600000Y-54400012D01*
X600000Y-52205130D01*
X7174500Y-52205130D01*
X7174500Y-53794860D01*
X7174501Y-53794863D01*
X7177414Y-53819990D01*
X7180702Y-53827436D01*
X7222794Y-53922765D01*
X7302235Y-54002206D01*
X7405009Y-54047585D01*
X7430135Y-54050500D01*
X8569864Y-54050499D01*
X8594991Y-54047585D01*
X8697765Y-54002206D01*
X8740270Y-53959700D01*
X8794785Y-53931925D01*
X8855217Y-53941496D01*
X8865275Y-53947392D01*
X8878970Y-53956543D01*
X8878983Y-53956550D01*
X8939602Y-53981659D01*
X9029211Y-54018776D01*
X9188695Y-54050500D01*
X9188696Y-54050500D01*
X9351304Y-54050500D01*
X9351305Y-54050500D01*
X9510789Y-54018776D01*
X9661021Y-53956548D01*
X9796225Y-53866208D01*
X9834998Y-53827434D01*
X9889513Y-53799659D01*
X9949945Y-53809230D01*
X9975000Y-53827433D01*
X10013775Y-53866208D01*
X10148979Y-53956548D01*
X10148980Y-53956548D01*
X10148981Y-53956549D01*
X10156593Y-53959702D01*
X10299211Y-54018776D01*
X10458695Y-54050500D01*
X10458696Y-54050500D01*
X10621304Y-54050500D01*
X10621305Y-54050500D01*
X10780789Y-54018776D01*
X10931021Y-53956548D01*
X11066225Y-53866208D01*
X11181208Y-53751225D01*
X11271548Y-53616021D01*
X11333776Y-53465789D01*
X11365500Y-53306305D01*
X11365500Y-52693695D01*
X11333776Y-52534211D01*
X11271548Y-52383979D01*
X11181208Y-52248775D01*
X11066225Y-52133792D01*
X10982064Y-52077558D01*
X10931018Y-52043450D01*
X10780790Y-51981224D01*
X10621305Y-51949500D01*
X10458695Y-51949500D01*
X10458694Y-51949500D01*
X10299209Y-51981224D01*
X10148981Y-52043450D01*
X10013775Y-52133791D01*
X9975003Y-52172563D01*
X9920486Y-52200340D01*
X9860054Y-52190768D01*
X9834997Y-52172563D01*
X9796224Y-52133791D01*
X9661018Y-52043450D01*
X9510790Y-51981224D01*
X9351305Y-51949500D01*
X9188695Y-51949500D01*
X9188694Y-51949500D01*
X9029209Y-51981224D01*
X8878978Y-52043451D01*
X8878977Y-52043452D01*
X8865267Y-52052612D01*
X8806377Y-52069216D01*
X8748975Y-52048035D01*
X8740275Y-52040304D01*
X8697765Y-51997794D01*
X8594991Y-51952415D01*
X8594990Y-51952414D01*
X8594988Y-51952414D01*
X8569868Y-51949500D01*
X7430139Y-51949500D01*
X7430136Y-51949501D01*
X7405009Y-51952414D01*
X7302235Y-51997794D01*
X7222794Y-52077235D01*
X7177414Y-52180011D01*
X7174500Y-52205130D01*
X600000Y-52205130D01*
X600000Y-49877969D01*
X52449500Y-49877969D01*
X52449500Y-50122030D01*
X52487677Y-50363071D01*
X52563096Y-50595185D01*
X52673892Y-50812637D01*
X52747090Y-50913385D01*
X52817345Y-51010083D01*
X52989917Y-51182655D01*
X53093211Y-51257702D01*
X53187362Y-51326107D01*
X53296088Y-51381505D01*
X53404815Y-51436904D01*
X53636924Y-51512321D01*
X53636925Y-51512321D01*
X53636928Y-51512322D01*
X53877970Y-51550500D01*
X53877973Y-51550500D01*
X54122030Y-51550500D01*
X54363071Y-51512322D01*
X54363072Y-51512321D01*
X54363076Y-51512321D01*
X54595185Y-51436904D01*
X54812639Y-51326106D01*
X55010083Y-51182655D01*
X55182655Y-51010083D01*
X55326106Y-50812639D01*
X55436904Y-50595185D01*
X55512321Y-50363076D01*
X55525878Y-50277482D01*
X55550500Y-50122030D01*
X55550500Y-49877969D01*
X55512322Y-49636928D01*
X55512321Y-49636924D01*
X55436904Y-49404815D01*
X55326106Y-49187361D01*
X55182655Y-48989917D01*
X55010083Y-48817345D01*
X54920623Y-48752348D01*
X54812637Y-48673892D01*
X54595185Y-48563096D01*
X54363071Y-48487677D01*
X54122030Y-48449500D01*
X54122027Y-48449500D01*
X53877973Y-48449500D01*
X53877970Y-48449500D01*
X53636928Y-48487677D01*
X53404814Y-48563096D01*
X53187362Y-48673892D01*
X52989918Y-48817344D01*
X52817344Y-48989918D01*
X52673892Y-49187362D01*
X52563096Y-49404814D01*
X52487677Y-49636928D01*
X52449500Y-49877969D01*
X600000Y-49877969D01*
X600000Y-47552963D01*
X618907Y-47494772D01*
X668407Y-47458808D01*
X729593Y-47458808D01*
X779090Y-47494770D01*
X862447Y-47609501D01*
X990499Y-47737553D01*
X1137006Y-47843996D01*
X1298361Y-47926211D01*
X1470591Y-47982171D01*
X1542136Y-47993502D01*
X1649451Y-48010500D01*
X1649454Y-48010500D01*
X1830549Y-48010500D01*
X1919977Y-47996335D01*
X2009409Y-47982171D01*
X2181639Y-47926211D01*
X2342994Y-47843996D01*
X2489501Y-47737553D01*
X2617553Y-47609501D01*
X2723996Y-47462994D01*
X2806211Y-47301639D01*
X2862171Y-47129409D01*
X2890500Y-46950546D01*
X2890500Y-46769454D01*
X2890500Y-46769450D01*
X3129500Y-46769450D01*
X3129500Y-46950549D01*
X3157828Y-47129406D01*
X3213788Y-47301637D01*
X3291636Y-47454423D01*
X3296004Y-47462994D01*
X3402447Y-47609501D01*
X3530499Y-47737553D01*
X3677006Y-47843996D01*
X3838361Y-47926211D01*
X4010591Y-47982171D01*
X4082136Y-47993502D01*
X4189451Y-48010500D01*
X4189454Y-48010500D01*
X4370549Y-48010500D01*
X4459977Y-47996335D01*
X4549409Y-47982171D01*
X4721639Y-47926211D01*
X4882994Y-47843996D01*
X5029501Y-47737553D01*
X5157553Y-47609501D01*
X5263996Y-47462994D01*
X5346211Y-47301639D01*
X5402171Y-47129409D01*
X5430500Y-46950546D01*
X5430500Y-46769454D01*
X5430500Y-46769450D01*
X5669500Y-46769450D01*
X5669500Y-46950549D01*
X5697828Y-47129406D01*
X5753788Y-47301637D01*
X5831636Y-47454423D01*
X5836004Y-47462994D01*
X5942447Y-47609501D01*
X6070499Y-47737553D01*
X6217006Y-47843996D01*
X6378361Y-47926211D01*
X6550591Y-47982171D01*
X6622136Y-47993502D01*
X6729451Y-48010500D01*
X6729454Y-48010500D01*
X6910549Y-48010500D01*
X6999977Y-47996335D01*
X7089409Y-47982171D01*
X7261639Y-47926211D01*
X7422994Y-47843996D01*
X7569501Y-47737553D01*
X7697553Y-47609501D01*
X7803996Y-47462994D01*
X7886211Y-47301639D01*
X7942171Y-47129409D01*
X7970500Y-46950546D01*
X7970500Y-46769454D01*
X7970500Y-46769450D01*
X8209500Y-46769450D01*
X8209500Y-46950549D01*
X8237828Y-47129406D01*
X8293788Y-47301637D01*
X8371636Y-47454423D01*
X8376004Y-47462994D01*
X8482447Y-47609501D01*
X8610499Y-47737553D01*
X8757006Y-47843996D01*
X8918361Y-47926211D01*
X9090591Y-47982171D01*
X9162136Y-47993502D01*
X9269451Y-48010500D01*
X9269454Y-48010500D01*
X9450549Y-48010500D01*
X9539977Y-47996335D01*
X9629409Y-47982171D01*
X9801639Y-47926211D01*
X9962994Y-47843996D01*
X10109501Y-47737553D01*
X10237553Y-47609501D01*
X10343996Y-47462994D01*
X10426211Y-47301639D01*
X10482171Y-47129409D01*
X10510500Y-46950546D01*
X10510500Y-46769454D01*
X10510500Y-46769450D01*
X10749500Y-46769450D01*
X10749500Y-46950549D01*
X10777828Y-47129406D01*
X10833788Y-47301637D01*
X10911636Y-47454423D01*
X10916004Y-47462994D01*
X11022447Y-47609501D01*
X11150499Y-47737553D01*
X11297006Y-47843996D01*
X11458361Y-47926211D01*
X11630591Y-47982171D01*
X11702136Y-47993502D01*
X11809451Y-48010500D01*
X11809454Y-48010500D01*
X11990549Y-48010500D01*
X12079977Y-47996335D01*
X12169409Y-47982171D01*
X12341639Y-47926211D01*
X12502994Y-47843996D01*
X12649501Y-47737553D01*
X12777553Y-47609501D01*
X12883996Y-47462994D01*
X12966211Y-47301639D01*
X13022171Y-47129409D01*
X13050500Y-46950546D01*
X13050500Y-46769454D01*
X13050500Y-46769450D01*
X13289500Y-46769450D01*
X13289500Y-46950549D01*
X13317828Y-47129406D01*
X13373788Y-47301637D01*
X13451636Y-47454423D01*
X13456004Y-47462994D01*
X13562447Y-47609501D01*
X13690499Y-47737553D01*
X13837006Y-47843996D01*
X13998361Y-47926211D01*
X14170591Y-47982171D01*
X14242136Y-47993502D01*
X14349451Y-48010500D01*
X14349454Y-48010500D01*
X14530549Y-48010500D01*
X14619977Y-47996335D01*
X14709409Y-47982171D01*
X14881639Y-47926211D01*
X15042994Y-47843996D01*
X15189501Y-47737553D01*
X15317553Y-47609501D01*
X15423996Y-47462994D01*
X15506211Y-47301639D01*
X15562171Y-47129409D01*
X15590500Y-46950546D01*
X15590500Y-46769454D01*
X15590500Y-46769450D01*
X15829500Y-46769450D01*
X15829500Y-46950549D01*
X15857828Y-47129406D01*
X15913788Y-47301637D01*
X15991636Y-47454423D01*
X15996004Y-47462994D01*
X16102447Y-47609501D01*
X16230499Y-47737553D01*
X16377006Y-47843996D01*
X16538361Y-47926211D01*
X16710591Y-47982171D01*
X16782136Y-47993502D01*
X16889451Y-48010500D01*
X16889454Y-48010500D01*
X17070549Y-48010500D01*
X17159977Y-47996335D01*
X17249409Y-47982171D01*
X17421639Y-47926211D01*
X17582994Y-47843996D01*
X17729501Y-47737553D01*
X17857553Y-47609501D01*
X17963996Y-47462994D01*
X18046211Y-47301639D01*
X18102171Y-47129409D01*
X18130500Y-46950546D01*
X18130500Y-46769454D01*
X18130500Y-46769450D01*
X18369500Y-46769450D01*
X18369500Y-46950549D01*
X18397828Y-47129406D01*
X18453788Y-47301637D01*
X18531636Y-47454423D01*
X18536004Y-47462994D01*
X18642447Y-47609501D01*
X18770499Y-47737553D01*
X18917006Y-47843996D01*
X19078361Y-47926211D01*
X19250591Y-47982171D01*
X19322136Y-47993502D01*
X19429451Y-48010500D01*
X19429454Y-48010500D01*
X19610549Y-48010500D01*
X19699977Y-47996335D01*
X19789409Y-47982171D01*
X19961639Y-47926211D01*
X20122994Y-47843996D01*
X20269501Y-47737553D01*
X20397553Y-47609501D01*
X20503996Y-47462994D01*
X20586211Y-47301639D01*
X20642171Y-47129409D01*
X20670500Y-46950546D01*
X20670500Y-46769454D01*
X20670500Y-46769450D01*
X20909500Y-46769450D01*
X20909500Y-46950549D01*
X20937828Y-47129406D01*
X20993788Y-47301637D01*
X21071636Y-47454423D01*
X21076004Y-47462994D01*
X21182447Y-47609501D01*
X21310499Y-47737553D01*
X21457006Y-47843996D01*
X21618361Y-47926211D01*
X21790591Y-47982171D01*
X21862136Y-47993502D01*
X21969451Y-48010500D01*
X21969454Y-48010500D01*
X22150549Y-48010500D01*
X22239977Y-47996335D01*
X22329409Y-47982171D01*
X22501639Y-47926211D01*
X22662994Y-47843996D01*
X22809501Y-47737553D01*
X22937553Y-47609501D01*
X23043996Y-47462994D01*
X23126211Y-47301639D01*
X23182171Y-47129409D01*
X23210500Y-46950546D01*
X23210500Y-46769454D01*
X23210500Y-46769450D01*
X23449500Y-46769450D01*
X23449500Y-46950549D01*
X23477828Y-47129406D01*
X23533788Y-47301637D01*
X23611636Y-47454423D01*
X23616004Y-47462994D01*
X23722447Y-47609501D01*
X23850499Y-47737553D01*
X23997006Y-47843996D01*
X24158361Y-47926211D01*
X24330591Y-47982171D01*
X24402136Y-47993502D01*
X24509451Y-48010500D01*
X24509454Y-48010500D01*
X24690549Y-48010500D01*
X24779977Y-47996335D01*
X24869409Y-47982171D01*
X25041639Y-47926211D01*
X25202994Y-47843996D01*
X25349501Y-47737553D01*
X25477553Y-47609501D01*
X25583996Y-47462994D01*
X25666211Y-47301639D01*
X25722171Y-47129409D01*
X25750500Y-46950546D01*
X25750500Y-46769454D01*
X25750500Y-46769450D01*
X25989500Y-46769450D01*
X25989500Y-46950549D01*
X26017828Y-47129406D01*
X26073788Y-47301637D01*
X26151636Y-47454423D01*
X26156004Y-47462994D01*
X26262447Y-47609501D01*
X26390499Y-47737553D01*
X26537006Y-47843996D01*
X26698361Y-47926211D01*
X26870591Y-47982171D01*
X26942136Y-47993502D01*
X27049451Y-48010500D01*
X27049454Y-48010500D01*
X27230549Y-48010500D01*
X27319977Y-47996335D01*
X27409409Y-47982171D01*
X27581639Y-47926211D01*
X27742994Y-47843996D01*
X27889501Y-47737553D01*
X28017553Y-47609501D01*
X28123996Y-47462994D01*
X28206211Y-47301639D01*
X28262171Y-47129409D01*
X28290500Y-46950546D01*
X28290500Y-46769454D01*
X28290500Y-46769450D01*
X28529500Y-46769450D01*
X28529500Y-46950549D01*
X28557828Y-47129406D01*
X28613788Y-47301637D01*
X28691636Y-47454423D01*
X28696004Y-47462994D01*
X28802447Y-47609501D01*
X28930499Y-47737553D01*
X29077006Y-47843996D01*
X29238361Y-47926211D01*
X29410591Y-47982171D01*
X29482136Y-47993502D01*
X29589451Y-48010500D01*
X29589454Y-48010500D01*
X29770549Y-48010500D01*
X29859977Y-47996335D01*
X29949409Y-47982171D01*
X30121639Y-47926211D01*
X30282994Y-47843996D01*
X30429501Y-47737553D01*
X30557553Y-47609501D01*
X30663996Y-47462994D01*
X30746211Y-47301639D01*
X30802171Y-47129409D01*
X30830500Y-46950546D01*
X30830500Y-46769454D01*
X30830500Y-46769450D01*
X31069500Y-46769450D01*
X31069500Y-46950549D01*
X31097828Y-47129406D01*
X31153788Y-47301637D01*
X31231636Y-47454423D01*
X31236004Y-47462994D01*
X31342447Y-47609501D01*
X31470499Y-47737553D01*
X31617006Y-47843996D01*
X31778361Y-47926211D01*
X31950591Y-47982171D01*
X32022136Y-47993502D01*
X32129451Y-48010500D01*
X32129454Y-48010500D01*
X32310549Y-48010500D01*
X32399977Y-47996335D01*
X32489409Y-47982171D01*
X32661639Y-47926211D01*
X32822994Y-47843996D01*
X32969501Y-47737553D01*
X33097553Y-47609501D01*
X33203996Y-47462994D01*
X33286211Y-47301639D01*
X33342171Y-47129409D01*
X33370500Y-46950546D01*
X33370500Y-46769454D01*
X33370500Y-46769450D01*
X33609500Y-46769450D01*
X33609500Y-46950549D01*
X33637828Y-47129406D01*
X33693788Y-47301637D01*
X33771636Y-47454423D01*
X33776004Y-47462994D01*
X33882447Y-47609501D01*
X34010499Y-47737553D01*
X34157006Y-47843996D01*
X34318361Y-47926211D01*
X34490591Y-47982171D01*
X34562136Y-47993502D01*
X34669451Y-48010500D01*
X34669454Y-48010500D01*
X34850549Y-48010500D01*
X34939977Y-47996335D01*
X35029409Y-47982171D01*
X35201639Y-47926211D01*
X35362994Y-47843996D01*
X35509501Y-47737553D01*
X35637553Y-47609501D01*
X35743996Y-47462994D01*
X35826211Y-47301639D01*
X35882171Y-47129409D01*
X35910500Y-46950546D01*
X35910500Y-46769454D01*
X35910500Y-46769450D01*
X36149500Y-46769450D01*
X36149500Y-46950549D01*
X36177828Y-47129406D01*
X36233788Y-47301637D01*
X36311636Y-47454423D01*
X36316004Y-47462994D01*
X36422447Y-47609501D01*
X36550499Y-47737553D01*
X36697006Y-47843996D01*
X36858361Y-47926211D01*
X37030591Y-47982171D01*
X37102136Y-47993502D01*
X37209451Y-48010500D01*
X37209454Y-48010500D01*
X37390549Y-48010500D01*
X37479977Y-47996335D01*
X37569409Y-47982171D01*
X37741639Y-47926211D01*
X37902994Y-47843996D01*
X38049501Y-47737553D01*
X38177553Y-47609501D01*
X38283996Y-47462994D01*
X38366211Y-47301639D01*
X38422171Y-47129409D01*
X38450500Y-46950546D01*
X38450500Y-46769454D01*
X38450500Y-46769450D01*
X38689500Y-46769450D01*
X38689500Y-46950549D01*
X38717828Y-47129406D01*
X38773788Y-47301637D01*
X38851636Y-47454423D01*
X38856004Y-47462994D01*
X38962447Y-47609501D01*
X39090499Y-47737553D01*
X39237006Y-47843996D01*
X39398361Y-47926211D01*
X39570591Y-47982171D01*
X39642136Y-47993502D01*
X39749451Y-48010500D01*
X39749454Y-48010500D01*
X39930549Y-48010500D01*
X40019977Y-47996335D01*
X40109409Y-47982171D01*
X40281639Y-47926211D01*
X40442994Y-47843996D01*
X40589501Y-47737553D01*
X40717553Y-47609501D01*
X40823996Y-47462994D01*
X40906211Y-47301639D01*
X40962171Y-47129409D01*
X40990500Y-46950546D01*
X40990500Y-46769454D01*
X40990500Y-46769450D01*
X41229500Y-46769450D01*
X41229500Y-46950549D01*
X41257828Y-47129406D01*
X41313788Y-47301637D01*
X41391636Y-47454423D01*
X41396004Y-47462994D01*
X41502447Y-47609501D01*
X41630499Y-47737553D01*
X41777006Y-47843996D01*
X41938361Y-47926211D01*
X42110591Y-47982171D01*
X42182136Y-47993502D01*
X42289451Y-48010500D01*
X42289454Y-48010500D01*
X42470549Y-48010500D01*
X42559977Y-47996335D01*
X42649409Y-47982171D01*
X42821639Y-47926211D01*
X42821642Y-47926209D01*
X42821646Y-47926208D01*
X42925608Y-47873235D01*
X42972527Y-47849329D01*
X42972530Y-47849328D01*
X42976166Y-47847474D01*
X42982994Y-47843996D01*
X43129501Y-47737553D01*
X43257553Y-47609501D01*
X43363996Y-47462994D01*
X43446211Y-47301639D01*
X43450962Y-47287018D01*
X43486924Y-47237517D01*
X43545115Y-47218608D01*
X43603306Y-47237514D01*
X43639271Y-47287013D01*
X43639272Y-47287015D01*
X43668904Y-47378215D01*
X43765376Y-47567553D01*
X43765380Y-47567559D01*
X43804728Y-47621716D01*
X43804729Y-47621716D01*
X44437037Y-46989407D01*
X44454075Y-47052993D01*
X44519901Y-47167007D01*
X44612993Y-47260099D01*
X44727007Y-47325925D01*
X44790589Y-47342962D01*
X44158282Y-47975269D01*
X44158282Y-47975270D01*
X44212440Y-48014619D01*
X44212446Y-48014623D01*
X44401784Y-48111095D01*
X44603878Y-48176759D01*
X44813750Y-48210000D01*
X45026250Y-48210000D01*
X45236121Y-48176759D01*
X45438215Y-48111095D01*
X45627556Y-48014620D01*
X45681716Y-47975270D01*
X45049408Y-47342962D01*
X45112993Y-47325925D01*
X45227007Y-47260099D01*
X45320099Y-47167007D01*
X45385925Y-47052993D01*
X45402962Y-46989408D01*
X46035270Y-47621716D01*
X46074620Y-47567556D01*
X46171096Y-47378213D01*
X46200727Y-47287016D01*
X46236690Y-47237516D01*
X46294881Y-47218608D01*
X46353072Y-47237515D01*
X46389036Y-47287013D01*
X46393788Y-47301637D01*
X46471636Y-47454423D01*
X46476004Y-47462994D01*
X46582447Y-47609501D01*
X46710499Y-47737553D01*
X46857006Y-47843996D01*
X47018361Y-47926211D01*
X47190591Y-47982171D01*
X47262136Y-47993502D01*
X47369451Y-48010500D01*
X47369454Y-48010500D01*
X47550549Y-48010500D01*
X47639977Y-47996335D01*
X47729409Y-47982171D01*
X47901639Y-47926211D01*
X48062994Y-47843996D01*
X48209501Y-47737553D01*
X48337553Y-47609501D01*
X48443996Y-47462994D01*
X48526211Y-47301639D01*
X48582171Y-47129409D01*
X48610500Y-46950546D01*
X48610500Y-46769454D01*
X48610500Y-46769450D01*
X48582171Y-46590593D01*
X48582171Y-46590591D01*
X48526211Y-46418361D01*
X48443996Y-46257006D01*
X48337553Y-46110499D01*
X48209501Y-45982447D01*
X48185666Y-45965130D01*
X48849500Y-45965130D01*
X48849500Y-47754860D01*
X48849501Y-47754863D01*
X48852414Y-47779990D01*
X48862316Y-47802415D01*
X48897794Y-47882765D01*
X48977235Y-47962206D01*
X49080009Y-48007585D01*
X49105135Y-48010500D01*
X50894864Y-48010499D01*
X50919991Y-48007585D01*
X51022765Y-47962206D01*
X51050028Y-47934943D01*
X51431000Y-47934943D01*
X51431000Y-48093057D01*
X51471923Y-48245784D01*
X51550980Y-48382716D01*
X51662784Y-48494520D01*
X51799716Y-48573577D01*
X51952443Y-48614500D01*
X51952445Y-48614500D01*
X52110555Y-48614500D01*
X52110557Y-48614500D01*
X52263284Y-48573577D01*
X52400216Y-48494520D01*
X52512020Y-48382716D01*
X52591077Y-48245784D01*
X52632000Y-48093057D01*
X52632000Y-47934943D01*
X52591077Y-47782216D01*
X52512020Y-47645284D01*
X52400216Y-47533480D01*
X52263284Y-47454423D01*
X52110557Y-47413500D01*
X51952443Y-47413500D01*
X51799716Y-47454423D01*
X51662784Y-47533480D01*
X51550980Y-47645284D01*
X51471923Y-47782216D01*
X51431000Y-47934943D01*
X51050028Y-47934943D01*
X51102206Y-47882765D01*
X51147585Y-47779991D01*
X51150500Y-47754865D01*
X51150499Y-46349814D01*
X74600000Y-46349814D01*
X74600000Y-46570185D01*
X74634471Y-46787829D01*
X74702569Y-46997413D01*
X74802609Y-47193753D01*
X74848932Y-47257512D01*
X75557861Y-46548582D01*
X75580667Y-46633694D01*
X75639910Y-46736306D01*
X75723694Y-46820090D01*
X75826306Y-46879333D01*
X75911414Y-46902137D01*
X75202485Y-47611067D01*
X75215340Y-47620406D01*
X75251305Y-47669906D01*
X75251306Y-47731091D01*
X75215343Y-47780592D01*
X75157153Y-47799500D01*
X75055139Y-47799500D01*
X75055136Y-47799501D01*
X75030009Y-47802414D01*
X74927235Y-47847794D01*
X74847794Y-47927235D01*
X74802414Y-48030011D01*
X74799500Y-48055130D01*
X74799500Y-49944860D01*
X74799501Y-49944863D01*
X74802414Y-49969990D01*
X74827756Y-50027385D01*
X74847794Y-50072765D01*
X74927235Y-50152206D01*
X75030009Y-50197585D01*
X75039484Y-50198684D01*
X75095107Y-50224168D01*
X75125129Y-50277482D01*
X75118080Y-50338260D01*
X75108170Y-50355214D01*
X75058770Y-50423208D01*
X75058767Y-50423212D01*
X74980125Y-50577558D01*
X74980123Y-50577561D01*
X74926598Y-50742293D01*
X74926597Y-50742297D01*
X74899500Y-50913385D01*
X74899500Y-51086614D01*
X74926597Y-51257702D01*
X74926598Y-51257706D01*
X74980123Y-51422438D01*
X74980125Y-51422441D01*
X75045373Y-51550500D01*
X75058768Y-51576788D01*
X75160586Y-51716928D01*
X75283072Y-51839414D01*
X75423212Y-51941232D01*
X75577555Y-52019873D01*
X75577557Y-52019873D01*
X75577558Y-52019874D01*
X75577561Y-52019876D01*
X75742293Y-52073401D01*
X75742297Y-52073402D01*
X75913386Y-52100500D01*
X75913389Y-52100500D01*
X76086614Y-52100500D01*
X76257702Y-52073402D01*
X76257706Y-52073401D01*
X76422438Y-52019876D01*
X76422440Y-52019874D01*
X76422445Y-52019873D01*
X76576788Y-51941232D01*
X76716928Y-51839414D01*
X76839414Y-51716928D01*
X76941232Y-51576788D01*
X77019873Y-51422445D01*
X77019874Y-51422440D01*
X77019876Y-51422438D01*
X77073401Y-51257706D01*
X77073402Y-51257702D01*
X77100500Y-51086614D01*
X77100500Y-50913385D01*
X77073402Y-50742297D01*
X77073401Y-50742293D01*
X77019876Y-50577561D01*
X77019874Y-50577558D01*
X77019873Y-50577557D01*
X77019873Y-50577555D01*
X76941232Y-50423212D01*
X76891828Y-50355214D01*
X76872922Y-50297024D01*
X76891829Y-50238833D01*
X76941329Y-50202869D01*
X76960518Y-50198683D01*
X76969991Y-50197585D01*
X77072765Y-50152206D01*
X77152206Y-50072765D01*
X77197585Y-49969991D01*
X77200500Y-49944865D01*
X77200499Y-48055136D01*
X77197585Y-48030009D01*
X77152206Y-47927235D01*
X77072765Y-47847794D01*
X76969991Y-47802415D01*
X76969990Y-47802414D01*
X76969988Y-47802414D01*
X76944869Y-47799500D01*
X76842849Y-47799500D01*
X76784658Y-47780593D01*
X76748694Y-47731093D01*
X76748694Y-47669907D01*
X76784658Y-47620408D01*
X76797513Y-47611067D01*
X76088584Y-46902138D01*
X76173694Y-46879333D01*
X76276306Y-46820090D01*
X76360090Y-46736306D01*
X76419333Y-46633694D01*
X76442138Y-46548584D01*
X77151067Y-47257513D01*
X77197388Y-47193757D01*
X77297430Y-46997413D01*
X77365528Y-46787829D01*
X77400000Y-46570185D01*
X77400000Y-46349814D01*
X77365528Y-46132170D01*
X77297430Y-45922586D01*
X77197387Y-45726241D01*
X77151067Y-45662485D01*
X76442137Y-46371414D01*
X76419333Y-46286306D01*
X76360090Y-46183694D01*
X76276306Y-46099910D01*
X76173694Y-46040667D01*
X76088582Y-46017861D01*
X76797512Y-45308932D01*
X76733753Y-45262609D01*
X76537413Y-45162569D01*
X76327829Y-45094471D01*
X76110185Y-45060000D01*
X75889815Y-45060000D01*
X75672170Y-45094471D01*
X75462586Y-45162569D01*
X75266239Y-45262613D01*
X75202485Y-45308931D01*
X75911415Y-46017861D01*
X75826306Y-46040667D01*
X75723694Y-46099910D01*
X75639910Y-46183694D01*
X75580667Y-46286306D01*
X75557861Y-46371415D01*
X74848931Y-45662485D01*
X74802613Y-45726239D01*
X74702569Y-45922586D01*
X74634471Y-46132170D01*
X74600000Y-46349814D01*
X51150499Y-46349814D01*
X51150499Y-45965136D01*
X51147585Y-45940009D01*
X51102206Y-45837235D01*
X51022765Y-45757794D01*
X50919991Y-45712415D01*
X50919990Y-45712414D01*
X50919988Y-45712414D01*
X50894868Y-45709500D01*
X49105139Y-45709500D01*
X49105136Y-45709501D01*
X49080009Y-45712414D01*
X48977235Y-45757794D01*
X48897794Y-45837235D01*
X48852414Y-45940011D01*
X48849500Y-45965130D01*
X48185666Y-45965130D01*
X48062994Y-45876004D01*
X48062993Y-45876003D01*
X48062991Y-45876002D01*
X47901637Y-45793788D01*
X47729406Y-45737828D01*
X47550549Y-45709500D01*
X47550546Y-45709500D01*
X47369454Y-45709500D01*
X47369451Y-45709500D01*
X47190593Y-45737828D01*
X47018362Y-45793788D01*
X46857008Y-45876002D01*
X46792891Y-45922586D01*
X46710499Y-45982447D01*
X46582447Y-46110499D01*
X46551975Y-46152440D01*
X46476002Y-46257008D01*
X46393787Y-46418364D01*
X46393786Y-46418366D01*
X46389035Y-46432988D01*
X46353069Y-46482486D01*
X46294878Y-46501391D01*
X46236688Y-46482481D01*
X46200727Y-46432983D01*
X46171096Y-46341786D01*
X46074623Y-46152446D01*
X46074619Y-46152440D01*
X46035270Y-46098282D01*
X46035269Y-46098282D01*
X45402962Y-46730589D01*
X45385925Y-46667007D01*
X45320099Y-46552993D01*
X45227007Y-46459901D01*
X45112993Y-46394075D01*
X45049407Y-46377037D01*
X45681716Y-45744729D01*
X45681716Y-45744728D01*
X45627559Y-45705380D01*
X45627553Y-45705376D01*
X45438215Y-45608904D01*
X45236121Y-45543240D01*
X45026250Y-45510000D01*
X44813750Y-45510000D01*
X44603878Y-45543240D01*
X44401784Y-45608904D01*
X44212446Y-45705376D01*
X44212442Y-45705378D01*
X44158282Y-45744728D01*
X44790591Y-46377037D01*
X44727007Y-46394075D01*
X44612993Y-46459901D01*
X44519901Y-46552993D01*
X44454075Y-46667007D01*
X44437037Y-46730591D01*
X43804728Y-46098282D01*
X43765378Y-46152442D01*
X43765376Y-46152446D01*
X43668904Y-46341784D01*
X43639272Y-46432984D01*
X43603308Y-46482484D01*
X43545117Y-46501391D01*
X43486926Y-46482484D01*
X43450962Y-46432984D01*
X43450962Y-46432983D01*
X43449824Y-46429483D01*
X43446211Y-46418361D01*
X43363996Y-46257006D01*
X43257553Y-46110499D01*
X43129501Y-45982447D01*
X42982994Y-45876004D01*
X42982990Y-45876001D01*
X42982988Y-45876000D01*
X42972527Y-45870670D01*
X42972526Y-45870670D01*
X42821637Y-45793788D01*
X42649406Y-45737828D01*
X42470549Y-45709500D01*
X42470546Y-45709500D01*
X42289454Y-45709500D01*
X42289451Y-45709500D01*
X42110593Y-45737828D01*
X41938362Y-45793788D01*
X41777008Y-45876002D01*
X41712891Y-45922586D01*
X41630499Y-45982447D01*
X41502447Y-46110499D01*
X41471975Y-46152440D01*
X41396002Y-46257008D01*
X41313788Y-46418362D01*
X41257828Y-46590593D01*
X41229500Y-46769450D01*
X40990500Y-46769450D01*
X40962171Y-46590593D01*
X40962171Y-46590591D01*
X40906211Y-46418361D01*
X40823996Y-46257006D01*
X40717553Y-46110499D01*
X40589501Y-45982447D01*
X40442994Y-45876004D01*
X40442993Y-45876003D01*
X40442991Y-45876002D01*
X40281637Y-45793788D01*
X40109406Y-45737828D01*
X39930549Y-45709500D01*
X39930546Y-45709500D01*
X39749454Y-45709500D01*
X39749451Y-45709500D01*
X39570593Y-45737828D01*
X39398362Y-45793788D01*
X39237008Y-45876002D01*
X39172891Y-45922586D01*
X39090499Y-45982447D01*
X38962447Y-46110499D01*
X38931975Y-46152440D01*
X38856002Y-46257008D01*
X38773788Y-46418362D01*
X38717828Y-46590593D01*
X38689500Y-46769450D01*
X38450500Y-46769450D01*
X38422171Y-46590593D01*
X38422171Y-46590591D01*
X38366211Y-46418361D01*
X38283996Y-46257006D01*
X38177553Y-46110499D01*
X38049501Y-45982447D01*
X37902994Y-45876004D01*
X37902993Y-45876003D01*
X37902991Y-45876002D01*
X37741637Y-45793788D01*
X37569406Y-45737828D01*
X37390549Y-45709500D01*
X37390546Y-45709500D01*
X37209454Y-45709500D01*
X37209451Y-45709500D01*
X37030593Y-45737828D01*
X36858362Y-45793788D01*
X36697008Y-45876002D01*
X36632891Y-45922586D01*
X36550499Y-45982447D01*
X36422447Y-46110499D01*
X36391975Y-46152440D01*
X36316002Y-46257008D01*
X36233788Y-46418362D01*
X36177828Y-46590593D01*
X36149500Y-46769450D01*
X35910500Y-46769450D01*
X35882171Y-46590593D01*
X35882171Y-46590591D01*
X35826211Y-46418361D01*
X35743996Y-46257006D01*
X35637553Y-46110499D01*
X35509501Y-45982447D01*
X35362994Y-45876004D01*
X35362993Y-45876003D01*
X35362991Y-45876002D01*
X35201637Y-45793788D01*
X35029406Y-45737828D01*
X34850549Y-45709500D01*
X34850546Y-45709500D01*
X34669454Y-45709500D01*
X34669451Y-45709500D01*
X34490593Y-45737828D01*
X34318362Y-45793788D01*
X34157008Y-45876002D01*
X34092891Y-45922586D01*
X34010499Y-45982447D01*
X33882447Y-46110499D01*
X33851975Y-46152440D01*
X33776002Y-46257008D01*
X33693788Y-46418362D01*
X33637828Y-46590593D01*
X33609500Y-46769450D01*
X33370500Y-46769450D01*
X33342171Y-46590593D01*
X33342171Y-46590591D01*
X33286211Y-46418361D01*
X33203996Y-46257006D01*
X33097553Y-46110499D01*
X32969501Y-45982447D01*
X32822994Y-45876004D01*
X32822993Y-45876003D01*
X32822991Y-45876002D01*
X32661637Y-45793788D01*
X32489406Y-45737828D01*
X32310549Y-45709500D01*
X32310546Y-45709500D01*
X32129454Y-45709500D01*
X32129451Y-45709500D01*
X31950593Y-45737828D01*
X31778362Y-45793788D01*
X31617008Y-45876002D01*
X31552891Y-45922586D01*
X31470499Y-45982447D01*
X31342447Y-46110499D01*
X31311975Y-46152440D01*
X31236002Y-46257008D01*
X31153788Y-46418362D01*
X31097828Y-46590593D01*
X31069500Y-46769450D01*
X30830500Y-46769450D01*
X30802171Y-46590593D01*
X30802171Y-46590591D01*
X30746211Y-46418361D01*
X30663996Y-46257006D01*
X30557553Y-46110499D01*
X30429501Y-45982447D01*
X30282994Y-45876004D01*
X30282993Y-45876003D01*
X30282991Y-45876002D01*
X30121637Y-45793788D01*
X29949406Y-45737828D01*
X29770549Y-45709500D01*
X29770546Y-45709500D01*
X29589454Y-45709500D01*
X29589451Y-45709500D01*
X29410593Y-45737828D01*
X29238362Y-45793788D01*
X29077008Y-45876002D01*
X29012891Y-45922586D01*
X28930499Y-45982447D01*
X28802447Y-46110499D01*
X28771975Y-46152440D01*
X28696002Y-46257008D01*
X28613788Y-46418362D01*
X28557828Y-46590593D01*
X28529500Y-46769450D01*
X28290500Y-46769450D01*
X28262171Y-46590593D01*
X28262171Y-46590591D01*
X28206211Y-46418361D01*
X28123996Y-46257006D01*
X28017553Y-46110499D01*
X27889501Y-45982447D01*
X27742994Y-45876004D01*
X27742993Y-45876003D01*
X27742991Y-45876002D01*
X27581637Y-45793788D01*
X27409406Y-45737828D01*
X27230549Y-45709500D01*
X27230546Y-45709500D01*
X27049454Y-45709500D01*
X27049451Y-45709500D01*
X26870593Y-45737828D01*
X26698362Y-45793788D01*
X26537008Y-45876002D01*
X26472891Y-45922586D01*
X26390499Y-45982447D01*
X26262447Y-46110499D01*
X26231975Y-46152440D01*
X26156002Y-46257008D01*
X26073788Y-46418362D01*
X26017828Y-46590593D01*
X25989500Y-46769450D01*
X25750500Y-46769450D01*
X25722171Y-46590593D01*
X25722171Y-46590591D01*
X25666211Y-46418361D01*
X25583996Y-46257006D01*
X25477553Y-46110499D01*
X25349501Y-45982447D01*
X25202994Y-45876004D01*
X25202993Y-45876003D01*
X25202991Y-45876002D01*
X25041637Y-45793788D01*
X24869406Y-45737828D01*
X24690549Y-45709500D01*
X24690546Y-45709500D01*
X24509454Y-45709500D01*
X24509451Y-45709500D01*
X24330593Y-45737828D01*
X24158362Y-45793788D01*
X23997008Y-45876002D01*
X23932891Y-45922586D01*
X23850499Y-45982447D01*
X23722447Y-46110499D01*
X23691975Y-46152440D01*
X23616002Y-46257008D01*
X23533788Y-46418362D01*
X23477828Y-46590593D01*
X23449500Y-46769450D01*
X23210500Y-46769450D01*
X23182171Y-46590593D01*
X23182171Y-46590591D01*
X23126211Y-46418361D01*
X23043996Y-46257006D01*
X22937553Y-46110499D01*
X22809501Y-45982447D01*
X22662994Y-45876004D01*
X22662993Y-45876003D01*
X22662991Y-45876002D01*
X22501637Y-45793788D01*
X22329406Y-45737828D01*
X22150549Y-45709500D01*
X22150546Y-45709500D01*
X21969454Y-45709500D01*
X21969451Y-45709500D01*
X21790593Y-45737828D01*
X21618362Y-45793788D01*
X21457008Y-45876002D01*
X21392891Y-45922586D01*
X21310499Y-45982447D01*
X21182447Y-46110499D01*
X21151975Y-46152440D01*
X21076002Y-46257008D01*
X20993788Y-46418362D01*
X20937828Y-46590593D01*
X20909500Y-46769450D01*
X20670500Y-46769450D01*
X20642171Y-46590593D01*
X20642171Y-46590591D01*
X20586211Y-46418361D01*
X20503996Y-46257006D01*
X20397553Y-46110499D01*
X20269501Y-45982447D01*
X20122994Y-45876004D01*
X20122993Y-45876003D01*
X20122991Y-45876002D01*
X19961637Y-45793788D01*
X19789406Y-45737828D01*
X19610549Y-45709500D01*
X19610546Y-45709500D01*
X19429454Y-45709500D01*
X19429451Y-45709500D01*
X19250593Y-45737828D01*
X19078362Y-45793788D01*
X18917008Y-45876002D01*
X18852891Y-45922586D01*
X18770499Y-45982447D01*
X18642447Y-46110499D01*
X18611975Y-46152440D01*
X18536002Y-46257008D01*
X18453788Y-46418362D01*
X18397828Y-46590593D01*
X18369500Y-46769450D01*
X18130500Y-46769450D01*
X18102171Y-46590593D01*
X18102171Y-46590591D01*
X18046211Y-46418361D01*
X17963996Y-46257006D01*
X17857553Y-46110499D01*
X17729501Y-45982447D01*
X17582994Y-45876004D01*
X17582993Y-45876003D01*
X17582991Y-45876002D01*
X17421637Y-45793788D01*
X17249406Y-45737828D01*
X17070549Y-45709500D01*
X17070546Y-45709500D01*
X16889454Y-45709500D01*
X16889451Y-45709500D01*
X16710593Y-45737828D01*
X16538362Y-45793788D01*
X16377008Y-45876002D01*
X16312891Y-45922586D01*
X16230499Y-45982447D01*
X16102447Y-46110499D01*
X16071975Y-46152440D01*
X15996002Y-46257008D01*
X15913788Y-46418362D01*
X15857828Y-46590593D01*
X15829500Y-46769450D01*
X15590500Y-46769450D01*
X15562171Y-46590593D01*
X15562171Y-46590591D01*
X15506211Y-46418361D01*
X15423996Y-46257006D01*
X15317553Y-46110499D01*
X15189501Y-45982447D01*
X15042994Y-45876004D01*
X15042993Y-45876003D01*
X15042991Y-45876002D01*
X14881637Y-45793788D01*
X14709406Y-45737828D01*
X14530549Y-45709500D01*
X14530546Y-45709500D01*
X14349454Y-45709500D01*
X14349451Y-45709500D01*
X14170593Y-45737828D01*
X13998362Y-45793788D01*
X13837008Y-45876002D01*
X13772891Y-45922586D01*
X13690499Y-45982447D01*
X13562447Y-46110499D01*
X13531975Y-46152440D01*
X13456002Y-46257008D01*
X13373788Y-46418362D01*
X13317828Y-46590593D01*
X13289500Y-46769450D01*
X13050500Y-46769450D01*
X13022171Y-46590593D01*
X13022171Y-46590591D01*
X12966211Y-46418361D01*
X12883996Y-46257006D01*
X12777553Y-46110499D01*
X12649501Y-45982447D01*
X12502994Y-45876004D01*
X12502993Y-45876003D01*
X12502991Y-45876002D01*
X12341637Y-45793788D01*
X12169406Y-45737828D01*
X11990549Y-45709500D01*
X11990546Y-45709500D01*
X11809454Y-45709500D01*
X11809451Y-45709500D01*
X11630593Y-45737828D01*
X11458362Y-45793788D01*
X11297008Y-45876002D01*
X11232891Y-45922586D01*
X11150499Y-45982447D01*
X11022447Y-46110499D01*
X10991975Y-46152440D01*
X10916002Y-46257008D01*
X10833788Y-46418362D01*
X10777828Y-46590593D01*
X10749500Y-46769450D01*
X10510500Y-46769450D01*
X10482171Y-46590593D01*
X10482171Y-46590591D01*
X10426211Y-46418361D01*
X10343996Y-46257006D01*
X10237553Y-46110499D01*
X10109501Y-45982447D01*
X9962994Y-45876004D01*
X9962993Y-45876003D01*
X9962991Y-45876002D01*
X9801637Y-45793788D01*
X9629406Y-45737828D01*
X9450549Y-45709500D01*
X9450546Y-45709500D01*
X9269454Y-45709500D01*
X9269451Y-45709500D01*
X9090593Y-45737828D01*
X8918362Y-45793788D01*
X8757008Y-45876002D01*
X8692891Y-45922586D01*
X8610499Y-45982447D01*
X8482447Y-46110499D01*
X8451975Y-46152440D01*
X8376002Y-46257008D01*
X8293788Y-46418362D01*
X8237828Y-46590593D01*
X8209500Y-46769450D01*
X7970500Y-46769450D01*
X7942171Y-46590593D01*
X7942171Y-46590591D01*
X7886211Y-46418361D01*
X7803996Y-46257006D01*
X7697553Y-46110499D01*
X7569501Y-45982447D01*
X7422994Y-45876004D01*
X7422993Y-45876003D01*
X7422991Y-45876002D01*
X7261637Y-45793788D01*
X7089406Y-45737828D01*
X6910549Y-45709500D01*
X6910546Y-45709500D01*
X6729454Y-45709500D01*
X6729451Y-45709500D01*
X6550593Y-45737828D01*
X6378362Y-45793788D01*
X6217008Y-45876002D01*
X6152891Y-45922586D01*
X6070499Y-45982447D01*
X5942447Y-46110499D01*
X5911975Y-46152440D01*
X5836002Y-46257008D01*
X5753788Y-46418362D01*
X5697828Y-46590593D01*
X5669500Y-46769450D01*
X5430500Y-46769450D01*
X5402171Y-46590593D01*
X5402171Y-46590591D01*
X5346211Y-46418361D01*
X5263996Y-46257006D01*
X5157553Y-46110499D01*
X5029501Y-45982447D01*
X4882994Y-45876004D01*
X4882993Y-45876003D01*
X4882991Y-45876002D01*
X4721637Y-45793788D01*
X4549406Y-45737828D01*
X4370549Y-45709500D01*
X4370546Y-45709500D01*
X4189454Y-45709500D01*
X4189451Y-45709500D01*
X4010593Y-45737828D01*
X3838362Y-45793788D01*
X3677008Y-45876002D01*
X3612891Y-45922586D01*
X3530499Y-45982447D01*
X3402447Y-46110499D01*
X3371975Y-46152440D01*
X3296002Y-46257008D01*
X3213788Y-46418362D01*
X3157828Y-46590593D01*
X3129500Y-46769450D01*
X2890500Y-46769450D01*
X2862171Y-46590593D01*
X2862171Y-46590591D01*
X2806211Y-46418361D01*
X2723996Y-46257006D01*
X2617553Y-46110499D01*
X2489501Y-45982447D01*
X2342994Y-45876004D01*
X2342993Y-45876003D01*
X2342991Y-45876002D01*
X2181637Y-45793788D01*
X2009406Y-45737828D01*
X1830549Y-45709500D01*
X1830546Y-45709500D01*
X1649454Y-45709500D01*
X1649451Y-45709500D01*
X1470593Y-45737828D01*
X1298362Y-45793788D01*
X1137008Y-45876002D01*
X1072891Y-45922586D01*
X990499Y-45982447D01*
X862447Y-46110499D01*
X831974Y-46152442D01*
X779093Y-46225227D01*
X729592Y-46261191D01*
X668407Y-46261191D01*
X618907Y-46225227D01*
X600000Y-46167036D01*
X600000Y-42950012D01*
X54250000Y-42950012D01*
X54250000Y-43749999D01*
X54250001Y-43750000D01*
X55399999Y-43750000D01*
X55374979Y-43810402D01*
X55350000Y-43935981D01*
X55350000Y-44064019D01*
X55374979Y-44189598D01*
X55399999Y-44250000D01*
X54250002Y-44250000D01*
X54250001Y-44250001D01*
X54250001Y-45049986D01*
X54260492Y-45152687D01*
X54260495Y-45152699D01*
X54315643Y-45319124D01*
X54407680Y-45468340D01*
X54531659Y-45592319D01*
X54680875Y-45684356D01*
X54847306Y-45739506D01*
X54950012Y-45749999D01*
X55749998Y-45749999D01*
X55750000Y-45749998D01*
X55750000Y-44600001D01*
X55810402Y-44625021D01*
X55935981Y-44650000D01*
X56064019Y-44650000D01*
X56189598Y-44625021D01*
X56250000Y-44600001D01*
X56250000Y-45749998D01*
X56250001Y-45749999D01*
X57049986Y-45749999D01*
X57152687Y-45739507D01*
X57152699Y-45739504D01*
X57319124Y-45684356D01*
X57468340Y-45592319D01*
X57592319Y-45468340D01*
X57684356Y-45319124D01*
X57739506Y-45152693D01*
X57750000Y-45049987D01*
X57750000Y-44250001D01*
X57749999Y-44250000D01*
X56600001Y-44250000D01*
X56625021Y-44189598D01*
X56650000Y-44064019D01*
X56650000Y-43935981D01*
X56638461Y-43877969D01*
X66649500Y-43877969D01*
X66649500Y-44122030D01*
X66687677Y-44363071D01*
X66763096Y-44595185D01*
X66873892Y-44812637D01*
X66952348Y-44920623D01*
X67017345Y-45010083D01*
X67189917Y-45182655D01*
X67333369Y-45286878D01*
X67387362Y-45326107D01*
X67496088Y-45381505D01*
X67604815Y-45436904D01*
X67836924Y-45512321D01*
X67836925Y-45512321D01*
X67836928Y-45512322D01*
X68077970Y-45550500D01*
X68077973Y-45550500D01*
X68322030Y-45550500D01*
X68563071Y-45512322D01*
X68563072Y-45512321D01*
X68563076Y-45512321D01*
X68795185Y-45436904D01*
X69012639Y-45326106D01*
X69210083Y-45182655D01*
X69382655Y-45010083D01*
X69526106Y-44812639D01*
X69636904Y-44595185D01*
X69712321Y-44363076D01*
X69750500Y-44122027D01*
X69750500Y-43877973D01*
X69750500Y-43877969D01*
X69712322Y-43636928D01*
X69712321Y-43636924D01*
X69636904Y-43404815D01*
X69526106Y-43187361D01*
X69382655Y-42989917D01*
X69210083Y-42817345D01*
X69022248Y-42680875D01*
X69012637Y-42673892D01*
X68795185Y-42563096D01*
X68563071Y-42487677D01*
X68322030Y-42449500D01*
X68322027Y-42449500D01*
X68077973Y-42449500D01*
X68077970Y-42449500D01*
X67836928Y-42487677D01*
X67604814Y-42563096D01*
X67387362Y-42673892D01*
X67189918Y-42817344D01*
X67017344Y-42989918D01*
X66873892Y-43187362D01*
X66763096Y-43404814D01*
X66687677Y-43636928D01*
X66649500Y-43877969D01*
X56638461Y-43877969D01*
X56625021Y-43810402D01*
X56600001Y-43750000D01*
X57749998Y-43750000D01*
X57749999Y-43749999D01*
X57749999Y-42950013D01*
X57739507Y-42847312D01*
X57739504Y-42847300D01*
X57684356Y-42680875D01*
X57592319Y-42531659D01*
X57468340Y-42407680D01*
X57319124Y-42315643D01*
X57152693Y-42260493D01*
X57049987Y-42250000D01*
X56250001Y-42250000D01*
X56250000Y-42250001D01*
X56250000Y-43399998D01*
X56189598Y-43374979D01*
X56064019Y-43350000D01*
X55935981Y-43350000D01*
X55810402Y-43374979D01*
X55750000Y-43399998D01*
X55750000Y-42250001D01*
X55749999Y-42250000D01*
X54950013Y-42250000D01*
X54847312Y-42260492D01*
X54847300Y-42260495D01*
X54680875Y-42315643D01*
X54531659Y-42407680D01*
X54407680Y-42531659D01*
X54315643Y-42680875D01*
X54260493Y-42847306D01*
X54250000Y-42950012D01*
X600000Y-42950012D01*
X600000Y-28906893D01*
X55399500Y-28906893D01*
X55399500Y-31093106D01*
X55410123Y-31181565D01*
X55465637Y-31322339D01*
X55465638Y-31322341D01*
X55465639Y-31322342D01*
X55557078Y-31442922D01*
X55677658Y-31534361D01*
X55677659Y-31534361D01*
X55677660Y-31534362D01*
X55745438Y-31561090D01*
X55818436Y-31589877D01*
X55906898Y-31600500D01*
X55906900Y-31600500D01*
X58093100Y-31600500D01*
X58093102Y-31600500D01*
X58181564Y-31589877D01*
X58322342Y-31534361D01*
X58442922Y-31442922D01*
X58534361Y-31322342D01*
X58589877Y-31181564D01*
X58600500Y-31093102D01*
X58600500Y-29874034D01*
X60399500Y-29874034D01*
X60399500Y-30125965D01*
X60438908Y-30374780D01*
X60438910Y-30374785D01*
X60516759Y-30614379D01*
X60631130Y-30838845D01*
X60779207Y-31042656D01*
X60957344Y-31220793D01*
X61161155Y-31368870D01*
X61385621Y-31483241D01*
X61625215Y-31561090D01*
X61625216Y-31561090D01*
X61625219Y-31561091D01*
X61874035Y-31600500D01*
X61874038Y-31600500D01*
X62125965Y-31600500D01*
X62374780Y-31561091D01*
X62374781Y-31561090D01*
X62374785Y-31561090D01*
X62614379Y-31483241D01*
X62838845Y-31368870D01*
X63042656Y-31220793D01*
X63220793Y-31042656D01*
X63368870Y-30838845D01*
X63483241Y-30614379D01*
X63561090Y-30374785D01*
X63600500Y-30125962D01*
X63600500Y-29874038D01*
X63600500Y-29874034D01*
X65399500Y-29874034D01*
X65399500Y-30125965D01*
X65438908Y-30374780D01*
X65438910Y-30374785D01*
X65516759Y-30614379D01*
X65631130Y-30838845D01*
X65779207Y-31042656D01*
X65957344Y-31220793D01*
X66161155Y-31368870D01*
X66385621Y-31483241D01*
X66625215Y-31561090D01*
X66625216Y-31561090D01*
X66625219Y-31561091D01*
X66874035Y-31600500D01*
X66874038Y-31600500D01*
X67125965Y-31600500D01*
X67374780Y-31561091D01*
X67374781Y-31561090D01*
X67374785Y-31561090D01*
X67614379Y-31483241D01*
X67838845Y-31368870D01*
X68042656Y-31220793D01*
X68220793Y-31042656D01*
X68368870Y-30838845D01*
X68483241Y-30614379D01*
X68561090Y-30374785D01*
X68600500Y-30125962D01*
X68600500Y-29874038D01*
X68600500Y-29874034D01*
X68561091Y-29625219D01*
X68561090Y-29625215D01*
X68483241Y-29385621D01*
X68368870Y-29161155D01*
X68220793Y-28957344D01*
X68042656Y-28779207D01*
X67838845Y-28631130D01*
X67838844Y-28631129D01*
X67838842Y-28631128D01*
X67614379Y-28516759D01*
X67374780Y-28438908D01*
X67125965Y-28399500D01*
X67125962Y-28399500D01*
X66874038Y-28399500D01*
X66874035Y-28399500D01*
X66625219Y-28438908D01*
X66385620Y-28516759D01*
X66161157Y-28631128D01*
X65957345Y-28779206D01*
X65779206Y-28957345D01*
X65631128Y-29161157D01*
X65516759Y-29385620D01*
X65438908Y-29625219D01*
X65399500Y-29874034D01*
X63600500Y-29874034D01*
X63561091Y-29625219D01*
X63561090Y-29625215D01*
X63483241Y-29385621D01*
X63368870Y-29161155D01*
X63220793Y-28957344D01*
X63042656Y-28779207D01*
X62838845Y-28631130D01*
X62838844Y-28631129D01*
X62838842Y-28631128D01*
X62614379Y-28516759D01*
X62374780Y-28438908D01*
X62125965Y-28399500D01*
X62125962Y-28399500D01*
X61874038Y-28399500D01*
X61874035Y-28399500D01*
X61625219Y-28438908D01*
X61385620Y-28516759D01*
X61161157Y-28631128D01*
X60957345Y-28779206D01*
X60779206Y-28957345D01*
X60631128Y-29161157D01*
X60516759Y-29385620D01*
X60438908Y-29625219D01*
X60399500Y-29874034D01*
X58600500Y-29874034D01*
X58600500Y-28906898D01*
X58589877Y-28818436D01*
X58534361Y-28677658D01*
X58442922Y-28557078D01*
X58322342Y-28465639D01*
X58322341Y-28465638D01*
X58322339Y-28465637D01*
X58181565Y-28410123D01*
X58093106Y-28399500D01*
X58093102Y-28399500D01*
X55906898Y-28399500D01*
X55906893Y-28399500D01*
X55818434Y-28410123D01*
X55677660Y-28465637D01*
X55677656Y-28465640D01*
X55557081Y-28557075D01*
X55557075Y-28557081D01*
X55465640Y-28677656D01*
X55465637Y-28677660D01*
X55410123Y-28818434D01*
X55399500Y-28906893D01*
X600000Y-28906893D01*
X600000Y-26073385D01*
X74899500Y-26073385D01*
X74899500Y-26246614D01*
X74926597Y-26417702D01*
X74926598Y-26417706D01*
X74980123Y-26582438D01*
X74980125Y-26582441D01*
X74980126Y-26582444D01*
X74980127Y-26582445D01*
X75058768Y-26736788D01*
X75160586Y-26876928D01*
X75283072Y-26999414D01*
X75423212Y-27101232D01*
X75577555Y-27179873D01*
X75577557Y-27179873D01*
X75577558Y-27179874D01*
X75577561Y-27179876D01*
X75742293Y-27233401D01*
X75742297Y-27233402D01*
X75913386Y-27260500D01*
X75913389Y-27260500D01*
X76086614Y-27260500D01*
X76257702Y-27233402D01*
X76257706Y-27233401D01*
X76422438Y-27179876D01*
X76422440Y-27179874D01*
X76422445Y-27179873D01*
X76576788Y-27101232D01*
X76716928Y-26999414D01*
X76839414Y-26876928D01*
X76941232Y-26736788D01*
X77019873Y-26582445D01*
X77019874Y-26582440D01*
X77019876Y-26582438D01*
X77073401Y-26417706D01*
X77073402Y-26417702D01*
X77100500Y-26246614D01*
X77100500Y-26073385D01*
X77073402Y-25902297D01*
X77073401Y-25902293D01*
X77019876Y-25737561D01*
X77019874Y-25737558D01*
X77019873Y-25737557D01*
X77019873Y-25737555D01*
X76941232Y-25583212D01*
X76839414Y-25443072D01*
X76716928Y-25320586D01*
X76576788Y-25218768D01*
X76576787Y-25218767D01*
X76576785Y-25218766D01*
X76422441Y-25140125D01*
X76422438Y-25140123D01*
X76257706Y-25086598D01*
X76257702Y-25086597D01*
X76086614Y-25059500D01*
X76086611Y-25059500D01*
X75913389Y-25059500D01*
X75913386Y-25059500D01*
X75742297Y-25086597D01*
X75742293Y-25086598D01*
X75577561Y-25140123D01*
X75577558Y-25140125D01*
X75423214Y-25218766D01*
X75283073Y-25320585D01*
X75160585Y-25443073D01*
X75058766Y-25583214D01*
X74980125Y-25737558D01*
X74980123Y-25737561D01*
X74926598Y-25902293D01*
X74926597Y-25902297D01*
X74899500Y-26073385D01*
X600000Y-26073385D01*
X600000Y-24692963D01*
X618907Y-24634772D01*
X668407Y-24598808D01*
X729593Y-24598808D01*
X779090Y-24634770D01*
X862447Y-24749501D01*
X990499Y-24877553D01*
X1137006Y-24983996D01*
X1298361Y-25066211D01*
X1470591Y-25122171D01*
X1542136Y-25133502D01*
X1649451Y-25150500D01*
X1649454Y-25150500D01*
X1830549Y-25150500D01*
X1919977Y-25136335D01*
X2009409Y-25122171D01*
X2181639Y-25066211D01*
X2342994Y-24983996D01*
X2489501Y-24877553D01*
X2617553Y-24749501D01*
X2723996Y-24602994D01*
X2806211Y-24441639D01*
X2862171Y-24269409D01*
X2890500Y-24090546D01*
X2890500Y-23909454D01*
X2890500Y-23909450D01*
X3129500Y-23909450D01*
X3129500Y-24090549D01*
X3157828Y-24269406D01*
X3157829Y-24269409D01*
X3213789Y-24441639D01*
X3296004Y-24602994D01*
X3402447Y-24749501D01*
X3530499Y-24877553D01*
X3677006Y-24983996D01*
X3838361Y-25066211D01*
X4010591Y-25122171D01*
X4082136Y-25133502D01*
X4189451Y-25150500D01*
X4189454Y-25150500D01*
X4370549Y-25150500D01*
X4459977Y-25136335D01*
X4549409Y-25122171D01*
X4721639Y-25066211D01*
X4882994Y-24983996D01*
X5029501Y-24877553D01*
X5157553Y-24749501D01*
X5263996Y-24602994D01*
X5346211Y-24441639D01*
X5402171Y-24269409D01*
X5430500Y-24090546D01*
X5430500Y-23909454D01*
X5430500Y-23909450D01*
X5669500Y-23909450D01*
X5669500Y-24090549D01*
X5697828Y-24269406D01*
X5697829Y-24269409D01*
X5753789Y-24441639D01*
X5836004Y-24602994D01*
X5942447Y-24749501D01*
X6070499Y-24877553D01*
X6217006Y-24983996D01*
X6378361Y-25066211D01*
X6550591Y-25122171D01*
X6622136Y-25133502D01*
X6729451Y-25150500D01*
X6729454Y-25150500D01*
X6910549Y-25150500D01*
X6999977Y-25136335D01*
X7089409Y-25122171D01*
X7261639Y-25066211D01*
X7422994Y-24983996D01*
X7569501Y-24877553D01*
X7697553Y-24749501D01*
X7803996Y-24602994D01*
X7886211Y-24441639D01*
X7942171Y-24269409D01*
X7970500Y-24090546D01*
X7970500Y-23909454D01*
X7970500Y-23909450D01*
X8209500Y-23909450D01*
X8209500Y-24090549D01*
X8237828Y-24269406D01*
X8237829Y-24269409D01*
X8293789Y-24441639D01*
X8376004Y-24602994D01*
X8482447Y-24749501D01*
X8610499Y-24877553D01*
X8757006Y-24983996D01*
X8918361Y-25066211D01*
X9090591Y-25122171D01*
X9162136Y-25133502D01*
X9269451Y-25150500D01*
X9269454Y-25150500D01*
X9450549Y-25150500D01*
X9539977Y-25136335D01*
X9629409Y-25122171D01*
X9801639Y-25066211D01*
X9962994Y-24983996D01*
X10109501Y-24877553D01*
X10237553Y-24749501D01*
X10343996Y-24602994D01*
X10426211Y-24441639D01*
X10482171Y-24269409D01*
X10510500Y-24090546D01*
X10510500Y-23909454D01*
X10510500Y-23909450D01*
X10749500Y-23909450D01*
X10749500Y-24090549D01*
X10777828Y-24269406D01*
X10777829Y-24269409D01*
X10833789Y-24441639D01*
X10916004Y-24602994D01*
X11022447Y-24749501D01*
X11150499Y-24877553D01*
X11297006Y-24983996D01*
X11458361Y-25066211D01*
X11630591Y-25122171D01*
X11702136Y-25133502D01*
X11809451Y-25150500D01*
X11809454Y-25150500D01*
X11990549Y-25150500D01*
X12079977Y-25136335D01*
X12169409Y-25122171D01*
X12341639Y-25066211D01*
X12502994Y-24983996D01*
X12649501Y-24877553D01*
X12777553Y-24749501D01*
X12883996Y-24602994D01*
X12966211Y-24441639D01*
X13022171Y-24269409D01*
X13050500Y-24090546D01*
X13050500Y-23909454D01*
X13050500Y-23909450D01*
X13289500Y-23909450D01*
X13289500Y-24090549D01*
X13317828Y-24269406D01*
X13317829Y-24269409D01*
X13373789Y-24441639D01*
X13456004Y-24602994D01*
X13562447Y-24749501D01*
X13690499Y-24877553D01*
X13837006Y-24983996D01*
X13998361Y-25066211D01*
X14170591Y-25122171D01*
X14242136Y-25133502D01*
X14349451Y-25150500D01*
X14349454Y-25150500D01*
X14530549Y-25150500D01*
X14619977Y-25136335D01*
X14709409Y-25122171D01*
X14881639Y-25066211D01*
X15042994Y-24983996D01*
X15189501Y-24877553D01*
X15317553Y-24749501D01*
X15423996Y-24602994D01*
X15506211Y-24441639D01*
X15562171Y-24269409D01*
X15590500Y-24090546D01*
X15590500Y-23909454D01*
X15590500Y-23909450D01*
X15829500Y-23909450D01*
X15829500Y-24090549D01*
X15857828Y-24269406D01*
X15857829Y-24269409D01*
X15913789Y-24441639D01*
X15996004Y-24602994D01*
X16102447Y-24749501D01*
X16230499Y-24877553D01*
X16377006Y-24983996D01*
X16538361Y-25066211D01*
X16710591Y-25122171D01*
X16782136Y-25133502D01*
X16889451Y-25150500D01*
X16889454Y-25150500D01*
X17070549Y-25150500D01*
X17159977Y-25136335D01*
X17249409Y-25122171D01*
X17421639Y-25066211D01*
X17582994Y-24983996D01*
X17729501Y-24877553D01*
X17857553Y-24749501D01*
X17963996Y-24602994D01*
X18046211Y-24441639D01*
X18102171Y-24269409D01*
X18130500Y-24090546D01*
X18130500Y-23909454D01*
X18130500Y-23909450D01*
X18369500Y-23909450D01*
X18369500Y-24090549D01*
X18397828Y-24269406D01*
X18397829Y-24269409D01*
X18453789Y-24441639D01*
X18536004Y-24602994D01*
X18642447Y-24749501D01*
X18770499Y-24877553D01*
X18917006Y-24983996D01*
X19078361Y-25066211D01*
X19250591Y-25122171D01*
X19322136Y-25133502D01*
X19429451Y-25150500D01*
X19429454Y-25150500D01*
X19610549Y-25150500D01*
X19699977Y-25136335D01*
X19789409Y-25122171D01*
X19961639Y-25066211D01*
X20122994Y-24983996D01*
X20269501Y-24877553D01*
X20397553Y-24749501D01*
X20503996Y-24602994D01*
X20586211Y-24441639D01*
X20642171Y-24269409D01*
X20670500Y-24090546D01*
X20670500Y-23909454D01*
X20670500Y-23909450D01*
X20909500Y-23909450D01*
X20909500Y-24090549D01*
X20937828Y-24269406D01*
X20937829Y-24269409D01*
X20993789Y-24441639D01*
X21076004Y-24602994D01*
X21182447Y-24749501D01*
X21310499Y-24877553D01*
X21457006Y-24983996D01*
X21618361Y-25066211D01*
X21790591Y-25122171D01*
X21862136Y-25133502D01*
X21969451Y-25150500D01*
X21969454Y-25150500D01*
X22150549Y-25150500D01*
X22239977Y-25136335D01*
X22329409Y-25122171D01*
X22501639Y-25066211D01*
X22662994Y-24983996D01*
X22809501Y-24877553D01*
X22937553Y-24749501D01*
X23043996Y-24602994D01*
X23126211Y-24441639D01*
X23182171Y-24269409D01*
X23210500Y-24090546D01*
X23210500Y-23909454D01*
X23210500Y-23909450D01*
X23449500Y-23909450D01*
X23449500Y-24090549D01*
X23477828Y-24269406D01*
X23477829Y-24269409D01*
X23533789Y-24441639D01*
X23616004Y-24602994D01*
X23722447Y-24749501D01*
X23850499Y-24877553D01*
X23997006Y-24983996D01*
X24158361Y-25066211D01*
X24330591Y-25122171D01*
X24402136Y-25133502D01*
X24509451Y-25150500D01*
X24509454Y-25150500D01*
X24690549Y-25150500D01*
X24779977Y-25136335D01*
X24869409Y-25122171D01*
X25041639Y-25066211D01*
X25202994Y-24983996D01*
X25349501Y-24877553D01*
X25477553Y-24749501D01*
X25583996Y-24602994D01*
X25666211Y-24441639D01*
X25722171Y-24269409D01*
X25750500Y-24090546D01*
X25750500Y-23909454D01*
X25750500Y-23909450D01*
X25989500Y-23909450D01*
X25989500Y-24090549D01*
X26017828Y-24269406D01*
X26017829Y-24269409D01*
X26073789Y-24441639D01*
X26156004Y-24602994D01*
X26262447Y-24749501D01*
X26390499Y-24877553D01*
X26537006Y-24983996D01*
X26698361Y-25066211D01*
X26870591Y-25122171D01*
X26942136Y-25133502D01*
X27049451Y-25150500D01*
X27049454Y-25150500D01*
X27230549Y-25150500D01*
X27319977Y-25136335D01*
X27409409Y-25122171D01*
X27581639Y-25066211D01*
X27742994Y-24983996D01*
X27889501Y-24877553D01*
X28017553Y-24749501D01*
X28123996Y-24602994D01*
X28206211Y-24441639D01*
X28262171Y-24269409D01*
X28290500Y-24090546D01*
X28290500Y-23909454D01*
X28290500Y-23909450D01*
X28529500Y-23909450D01*
X28529500Y-24090549D01*
X28557828Y-24269406D01*
X28557829Y-24269409D01*
X28613789Y-24441639D01*
X28696004Y-24602994D01*
X28802447Y-24749501D01*
X28930499Y-24877553D01*
X29077006Y-24983996D01*
X29238361Y-25066211D01*
X29410591Y-25122171D01*
X29482136Y-25133502D01*
X29589451Y-25150500D01*
X29589454Y-25150500D01*
X29770549Y-25150500D01*
X29859977Y-25136335D01*
X29949409Y-25122171D01*
X30121639Y-25066211D01*
X30282994Y-24983996D01*
X30429501Y-24877553D01*
X30557553Y-24749501D01*
X30663996Y-24602994D01*
X30746211Y-24441639D01*
X30802171Y-24269409D01*
X30830500Y-24090546D01*
X30830500Y-23909454D01*
X30830500Y-23909450D01*
X31069500Y-23909450D01*
X31069500Y-24090549D01*
X31097828Y-24269406D01*
X31097829Y-24269409D01*
X31153789Y-24441639D01*
X31236004Y-24602994D01*
X31342447Y-24749501D01*
X31470499Y-24877553D01*
X31617006Y-24983996D01*
X31778361Y-25066211D01*
X31950591Y-25122171D01*
X32022136Y-25133502D01*
X32129451Y-25150500D01*
X32129454Y-25150500D01*
X32310549Y-25150500D01*
X32399977Y-25136335D01*
X32489409Y-25122171D01*
X32661639Y-25066211D01*
X32822994Y-24983996D01*
X32969501Y-24877553D01*
X33097553Y-24749501D01*
X33203996Y-24602994D01*
X33286211Y-24441639D01*
X33342171Y-24269409D01*
X33370500Y-24090546D01*
X33370500Y-23909454D01*
X33370500Y-23909450D01*
X33609500Y-23909450D01*
X33609500Y-24090549D01*
X33637828Y-24269406D01*
X33637829Y-24269409D01*
X33693789Y-24441639D01*
X33776004Y-24602994D01*
X33882447Y-24749501D01*
X34010499Y-24877553D01*
X34157006Y-24983996D01*
X34318361Y-25066211D01*
X34490591Y-25122171D01*
X34562136Y-25133502D01*
X34669451Y-25150500D01*
X34669454Y-25150500D01*
X34850549Y-25150500D01*
X34939977Y-25136335D01*
X35029409Y-25122171D01*
X35201639Y-25066211D01*
X35362994Y-24983996D01*
X35509501Y-24877553D01*
X35637553Y-24749501D01*
X35743996Y-24602994D01*
X35826211Y-24441639D01*
X35882171Y-24269409D01*
X35910500Y-24090546D01*
X35910500Y-23909454D01*
X35910500Y-23909450D01*
X36149500Y-23909450D01*
X36149500Y-24090549D01*
X36177828Y-24269406D01*
X36177829Y-24269409D01*
X36233789Y-24441639D01*
X36316004Y-24602994D01*
X36422447Y-24749501D01*
X36550499Y-24877553D01*
X36697006Y-24983996D01*
X36858361Y-25066211D01*
X37030591Y-25122171D01*
X37102136Y-25133502D01*
X37209451Y-25150500D01*
X37209454Y-25150500D01*
X37390549Y-25150500D01*
X37479977Y-25136335D01*
X37569409Y-25122171D01*
X37741639Y-25066211D01*
X37902994Y-24983996D01*
X38049501Y-24877553D01*
X38177553Y-24749501D01*
X38283996Y-24602994D01*
X38366211Y-24441639D01*
X38422171Y-24269409D01*
X38450500Y-24090546D01*
X38450500Y-23909454D01*
X38450500Y-23909450D01*
X38689500Y-23909450D01*
X38689500Y-24090549D01*
X38717828Y-24269406D01*
X38717829Y-24269409D01*
X38773789Y-24441639D01*
X38856004Y-24602994D01*
X38962447Y-24749501D01*
X39090499Y-24877553D01*
X39237006Y-24983996D01*
X39398361Y-25066211D01*
X39570591Y-25122171D01*
X39642136Y-25133502D01*
X39749451Y-25150500D01*
X39749454Y-25150500D01*
X39930549Y-25150500D01*
X40019977Y-25136335D01*
X40109409Y-25122171D01*
X40281639Y-25066211D01*
X40442994Y-24983996D01*
X40589501Y-24877553D01*
X40717553Y-24749501D01*
X40823996Y-24602994D01*
X40906211Y-24441639D01*
X40962171Y-24269409D01*
X40990500Y-24090546D01*
X40990500Y-23909454D01*
X40990500Y-23909450D01*
X41229500Y-23909450D01*
X41229500Y-24090549D01*
X41257828Y-24269406D01*
X41257829Y-24269409D01*
X41313789Y-24441639D01*
X41396004Y-24602994D01*
X41502447Y-24749501D01*
X41630499Y-24877553D01*
X41777006Y-24983996D01*
X41938361Y-25066211D01*
X42110591Y-25122171D01*
X42182136Y-25133502D01*
X42289451Y-25150500D01*
X42289454Y-25150500D01*
X42470549Y-25150500D01*
X42559977Y-25136335D01*
X42649409Y-25122171D01*
X42821639Y-25066211D01*
X42982994Y-24983996D01*
X43129501Y-24877553D01*
X43257553Y-24749501D01*
X43363996Y-24602994D01*
X43446211Y-24441639D01*
X43502171Y-24269409D01*
X43530500Y-24090546D01*
X43530500Y-23909454D01*
X43530500Y-23909450D01*
X43769500Y-23909450D01*
X43769500Y-24090549D01*
X43797828Y-24269406D01*
X43797829Y-24269409D01*
X43853789Y-24441639D01*
X43936004Y-24602994D01*
X44042447Y-24749501D01*
X44170499Y-24877553D01*
X44317006Y-24983996D01*
X44478361Y-25066211D01*
X44650591Y-25122171D01*
X44722136Y-25133502D01*
X44829451Y-25150500D01*
X44829454Y-25150500D01*
X45010549Y-25150500D01*
X45099977Y-25136335D01*
X45189409Y-25122171D01*
X45361639Y-25066211D01*
X45522994Y-24983996D01*
X45669501Y-24877553D01*
X45797553Y-24749501D01*
X45903996Y-24602994D01*
X45986211Y-24441639D01*
X46042171Y-24269409D01*
X46070500Y-24090546D01*
X46070500Y-23909454D01*
X46070500Y-23909450D01*
X46309500Y-23909450D01*
X46309500Y-24090549D01*
X46337828Y-24269406D01*
X46337829Y-24269409D01*
X46393789Y-24441639D01*
X46476004Y-24602994D01*
X46582447Y-24749501D01*
X46710499Y-24877553D01*
X46857006Y-24983996D01*
X47018361Y-25066211D01*
X47190591Y-25122171D01*
X47262136Y-25133502D01*
X47369451Y-25150500D01*
X47369454Y-25150500D01*
X47550549Y-25150500D01*
X47639977Y-25136335D01*
X47729409Y-25122171D01*
X47901639Y-25066211D01*
X48062994Y-24983996D01*
X48209501Y-24877553D01*
X48337553Y-24749501D01*
X48443996Y-24602994D01*
X48526211Y-24441639D01*
X48582171Y-24269409D01*
X48610500Y-24090546D01*
X48610500Y-23909454D01*
X48610500Y-23909450D01*
X48582171Y-23730593D01*
X48582171Y-23730591D01*
X48526211Y-23558361D01*
X48443996Y-23397006D01*
X48337553Y-23250499D01*
X48209501Y-23122447D01*
X48185666Y-23105130D01*
X48849500Y-23105130D01*
X48849500Y-24894860D01*
X48849501Y-24894863D01*
X48852414Y-24919990D01*
X48877756Y-24977385D01*
X48897794Y-25022765D01*
X48977235Y-25102206D01*
X49080009Y-25147585D01*
X49105135Y-25150500D01*
X50894864Y-25150499D01*
X50919991Y-25147585D01*
X51022765Y-25102206D01*
X51102206Y-25022765D01*
X51147585Y-24919991D01*
X51150500Y-24894865D01*
X51150499Y-23105136D01*
X51147585Y-23080009D01*
X51102206Y-22977235D01*
X51022765Y-22897794D01*
X50919991Y-22852415D01*
X50919990Y-22852414D01*
X50919988Y-22852414D01*
X50894868Y-22849500D01*
X49105139Y-22849500D01*
X49105136Y-22849501D01*
X49080009Y-22852414D01*
X48977235Y-22897794D01*
X48897794Y-22977235D01*
X48852414Y-23080011D01*
X48849500Y-23105130D01*
X48185666Y-23105130D01*
X48062994Y-23016004D01*
X48062993Y-23016003D01*
X48062991Y-23016002D01*
X47901637Y-22933788D01*
X47729406Y-22877828D01*
X47550549Y-22849500D01*
X47550546Y-22849500D01*
X47369454Y-22849500D01*
X47369451Y-22849500D01*
X47190593Y-22877828D01*
X47018362Y-22933788D01*
X46857008Y-23016002D01*
X46783752Y-23069225D01*
X46710499Y-23122447D01*
X46582447Y-23250499D01*
X46541371Y-23307036D01*
X46476002Y-23397008D01*
X46393788Y-23558362D01*
X46337828Y-23730593D01*
X46309500Y-23909450D01*
X46070500Y-23909450D01*
X46042171Y-23730593D01*
X46042171Y-23730591D01*
X45986211Y-23558361D01*
X45903996Y-23397006D01*
X45797553Y-23250499D01*
X45669501Y-23122447D01*
X45522994Y-23016004D01*
X45522993Y-23016003D01*
X45522991Y-23016002D01*
X45361637Y-22933788D01*
X45189406Y-22877828D01*
X45010549Y-22849500D01*
X45010546Y-22849500D01*
X44829454Y-22849500D01*
X44829451Y-22849500D01*
X44650593Y-22877828D01*
X44478362Y-22933788D01*
X44317008Y-23016002D01*
X44243752Y-23069225D01*
X44170499Y-23122447D01*
X44042447Y-23250499D01*
X44001371Y-23307036D01*
X43936002Y-23397008D01*
X43853788Y-23558362D01*
X43797828Y-23730593D01*
X43769500Y-23909450D01*
X43530500Y-23909450D01*
X43502171Y-23730593D01*
X43502171Y-23730591D01*
X43446211Y-23558361D01*
X43363996Y-23397006D01*
X43257553Y-23250499D01*
X43129501Y-23122447D01*
X42982994Y-23016004D01*
X42982993Y-23016003D01*
X42982991Y-23016002D01*
X42821637Y-22933788D01*
X42649406Y-22877828D01*
X42470549Y-22849500D01*
X42470546Y-22849500D01*
X42289454Y-22849500D01*
X42289451Y-22849500D01*
X42110593Y-22877828D01*
X41938362Y-22933788D01*
X41777008Y-23016002D01*
X41703752Y-23069225D01*
X41630499Y-23122447D01*
X41502447Y-23250499D01*
X41461371Y-23307036D01*
X41396002Y-23397008D01*
X41313788Y-23558362D01*
X41257828Y-23730593D01*
X41229500Y-23909450D01*
X40990500Y-23909450D01*
X40962171Y-23730593D01*
X40962171Y-23730591D01*
X40906211Y-23558361D01*
X40823996Y-23397006D01*
X40717553Y-23250499D01*
X40589501Y-23122447D01*
X40442994Y-23016004D01*
X40442993Y-23016003D01*
X40442991Y-23016002D01*
X40281637Y-22933788D01*
X40109406Y-22877828D01*
X39930549Y-22849500D01*
X39930546Y-22849500D01*
X39749454Y-22849500D01*
X39749451Y-22849500D01*
X39570593Y-22877828D01*
X39398362Y-22933788D01*
X39237008Y-23016002D01*
X39163752Y-23069225D01*
X39090499Y-23122447D01*
X38962447Y-23250499D01*
X38921371Y-23307036D01*
X38856002Y-23397008D01*
X38773788Y-23558362D01*
X38717828Y-23730593D01*
X38689500Y-23909450D01*
X38450500Y-23909450D01*
X38422171Y-23730593D01*
X38422171Y-23730591D01*
X38366211Y-23558361D01*
X38283996Y-23397006D01*
X38177553Y-23250499D01*
X38049501Y-23122447D01*
X37902994Y-23016004D01*
X37902993Y-23016003D01*
X37902991Y-23016002D01*
X37741637Y-22933788D01*
X37569406Y-22877828D01*
X37390549Y-22849500D01*
X37390546Y-22849500D01*
X37209454Y-22849500D01*
X37209451Y-22849500D01*
X37030593Y-22877828D01*
X36858362Y-22933788D01*
X36697008Y-23016002D01*
X36623752Y-23069225D01*
X36550499Y-23122447D01*
X36422447Y-23250499D01*
X36381371Y-23307036D01*
X36316002Y-23397008D01*
X36233788Y-23558362D01*
X36177828Y-23730593D01*
X36149500Y-23909450D01*
X35910500Y-23909450D01*
X35882171Y-23730593D01*
X35882171Y-23730591D01*
X35826211Y-23558361D01*
X35743996Y-23397006D01*
X35637553Y-23250499D01*
X35509501Y-23122447D01*
X35362994Y-23016004D01*
X35362993Y-23016003D01*
X35362991Y-23016002D01*
X35201637Y-22933788D01*
X35029406Y-22877828D01*
X34850549Y-22849500D01*
X34850546Y-22849500D01*
X34669454Y-22849500D01*
X34669451Y-22849500D01*
X34490593Y-22877828D01*
X34318362Y-22933788D01*
X34157008Y-23016002D01*
X34083752Y-23069225D01*
X34010499Y-23122447D01*
X33882447Y-23250499D01*
X33841371Y-23307036D01*
X33776002Y-23397008D01*
X33693788Y-23558362D01*
X33637828Y-23730593D01*
X33609500Y-23909450D01*
X33370500Y-23909450D01*
X33342171Y-23730593D01*
X33342171Y-23730591D01*
X33286211Y-23558361D01*
X33203996Y-23397006D01*
X33097553Y-23250499D01*
X32969501Y-23122447D01*
X32822994Y-23016004D01*
X32822993Y-23016003D01*
X32822991Y-23016002D01*
X32661637Y-22933788D01*
X32489406Y-22877828D01*
X32310549Y-22849500D01*
X32310546Y-22849500D01*
X32129454Y-22849500D01*
X32129451Y-22849500D01*
X31950593Y-22877828D01*
X31778362Y-22933788D01*
X31617008Y-23016002D01*
X31543752Y-23069225D01*
X31470499Y-23122447D01*
X31342447Y-23250499D01*
X31301371Y-23307036D01*
X31236002Y-23397008D01*
X31153788Y-23558362D01*
X31097828Y-23730593D01*
X31069500Y-23909450D01*
X30830500Y-23909450D01*
X30802171Y-23730593D01*
X30802171Y-23730591D01*
X30746211Y-23558361D01*
X30663996Y-23397006D01*
X30557553Y-23250499D01*
X30429501Y-23122447D01*
X30282994Y-23016004D01*
X30282993Y-23016003D01*
X30282991Y-23016002D01*
X30121637Y-22933788D01*
X29949406Y-22877828D01*
X29770549Y-22849500D01*
X29770546Y-22849500D01*
X29589454Y-22849500D01*
X29589451Y-22849500D01*
X29410593Y-22877828D01*
X29238362Y-22933788D01*
X29077008Y-23016002D01*
X29003752Y-23069225D01*
X28930499Y-23122447D01*
X28802447Y-23250499D01*
X28761371Y-23307036D01*
X28696002Y-23397008D01*
X28613788Y-23558362D01*
X28557828Y-23730593D01*
X28529500Y-23909450D01*
X28290500Y-23909450D01*
X28262171Y-23730593D01*
X28262171Y-23730591D01*
X28206211Y-23558361D01*
X28123996Y-23397006D01*
X28017553Y-23250499D01*
X27889501Y-23122447D01*
X27742994Y-23016004D01*
X27742993Y-23016003D01*
X27742991Y-23016002D01*
X27581637Y-22933788D01*
X27409406Y-22877828D01*
X27230549Y-22849500D01*
X27230546Y-22849500D01*
X27049454Y-22849500D01*
X27049451Y-22849500D01*
X26870593Y-22877828D01*
X26698362Y-22933788D01*
X26537008Y-23016002D01*
X26463752Y-23069225D01*
X26390499Y-23122447D01*
X26262447Y-23250499D01*
X26221371Y-23307036D01*
X26156002Y-23397008D01*
X26073788Y-23558362D01*
X26017828Y-23730593D01*
X25989500Y-23909450D01*
X25750500Y-23909450D01*
X25722171Y-23730593D01*
X25722171Y-23730591D01*
X25666211Y-23558361D01*
X25583996Y-23397006D01*
X25477553Y-23250499D01*
X25349501Y-23122447D01*
X25202994Y-23016004D01*
X25202993Y-23016003D01*
X25202991Y-23016002D01*
X25041637Y-22933788D01*
X24869406Y-22877828D01*
X24690549Y-22849500D01*
X24690546Y-22849500D01*
X24509454Y-22849500D01*
X24509451Y-22849500D01*
X24330593Y-22877828D01*
X24158362Y-22933788D01*
X23997008Y-23016002D01*
X23923752Y-23069225D01*
X23850499Y-23122447D01*
X23722447Y-23250499D01*
X23681371Y-23307036D01*
X23616002Y-23397008D01*
X23533788Y-23558362D01*
X23477828Y-23730593D01*
X23449500Y-23909450D01*
X23210500Y-23909450D01*
X23182171Y-23730593D01*
X23182171Y-23730591D01*
X23126211Y-23558361D01*
X23043996Y-23397006D01*
X22937553Y-23250499D01*
X22809501Y-23122447D01*
X22662994Y-23016004D01*
X22662993Y-23016003D01*
X22662991Y-23016002D01*
X22501637Y-22933788D01*
X22329406Y-22877828D01*
X22150549Y-22849500D01*
X22150546Y-22849500D01*
X21969454Y-22849500D01*
X21969451Y-22849500D01*
X21790593Y-22877828D01*
X21618362Y-22933788D01*
X21457008Y-23016002D01*
X21383752Y-23069225D01*
X21310499Y-23122447D01*
X21182447Y-23250499D01*
X21141371Y-23307036D01*
X21076002Y-23397008D01*
X20993788Y-23558362D01*
X20937828Y-23730593D01*
X20909500Y-23909450D01*
X20670500Y-23909450D01*
X20642171Y-23730593D01*
X20642171Y-23730591D01*
X20586211Y-23558361D01*
X20503996Y-23397006D01*
X20397553Y-23250499D01*
X20269501Y-23122447D01*
X20122994Y-23016004D01*
X20122993Y-23016003D01*
X20122991Y-23016002D01*
X19961637Y-22933788D01*
X19789406Y-22877828D01*
X19610549Y-22849500D01*
X19610546Y-22849500D01*
X19429454Y-22849500D01*
X19429451Y-22849500D01*
X19250593Y-22877828D01*
X19078362Y-22933788D01*
X18917008Y-23016002D01*
X18843752Y-23069225D01*
X18770499Y-23122447D01*
X18642447Y-23250499D01*
X18601371Y-23307036D01*
X18536002Y-23397008D01*
X18453788Y-23558362D01*
X18397828Y-23730593D01*
X18369500Y-23909450D01*
X18130500Y-23909450D01*
X18102171Y-23730593D01*
X18102171Y-23730591D01*
X18046211Y-23558361D01*
X17963996Y-23397006D01*
X17857553Y-23250499D01*
X17729501Y-23122447D01*
X17582994Y-23016004D01*
X17582993Y-23016003D01*
X17582991Y-23016002D01*
X17421637Y-22933788D01*
X17249406Y-22877828D01*
X17070549Y-22849500D01*
X17070546Y-22849500D01*
X16889454Y-22849500D01*
X16889451Y-22849500D01*
X16710593Y-22877828D01*
X16538362Y-22933788D01*
X16377008Y-23016002D01*
X16303752Y-23069225D01*
X16230499Y-23122447D01*
X16102447Y-23250499D01*
X16061371Y-23307036D01*
X15996002Y-23397008D01*
X15913788Y-23558362D01*
X15857828Y-23730593D01*
X15829500Y-23909450D01*
X15590500Y-23909450D01*
X15562171Y-23730593D01*
X15562171Y-23730591D01*
X15506211Y-23558361D01*
X15423996Y-23397006D01*
X15317553Y-23250499D01*
X15189501Y-23122447D01*
X15042994Y-23016004D01*
X15042993Y-23016003D01*
X15042991Y-23016002D01*
X14881637Y-22933788D01*
X14709406Y-22877828D01*
X14530549Y-22849500D01*
X14530546Y-22849500D01*
X14349454Y-22849500D01*
X14349451Y-22849500D01*
X14170593Y-22877828D01*
X13998362Y-22933788D01*
X13837008Y-23016002D01*
X13763752Y-23069225D01*
X13690499Y-23122447D01*
X13562447Y-23250499D01*
X13521371Y-23307036D01*
X13456002Y-23397008D01*
X13373788Y-23558362D01*
X13317828Y-23730593D01*
X13289500Y-23909450D01*
X13050500Y-23909450D01*
X13022171Y-23730593D01*
X13022171Y-23730591D01*
X12966211Y-23558361D01*
X12883996Y-23397006D01*
X12777553Y-23250499D01*
X12649501Y-23122447D01*
X12502994Y-23016004D01*
X12502993Y-23016003D01*
X12502991Y-23016002D01*
X12341637Y-22933788D01*
X12169406Y-22877828D01*
X11990549Y-22849500D01*
X11990546Y-22849500D01*
X11809454Y-22849500D01*
X11809451Y-22849500D01*
X11630593Y-22877828D01*
X11458362Y-22933788D01*
X11297008Y-23016002D01*
X11223752Y-23069225D01*
X11150499Y-23122447D01*
X11022447Y-23250499D01*
X10981371Y-23307036D01*
X10916002Y-23397008D01*
X10833788Y-23558362D01*
X10777828Y-23730593D01*
X10749500Y-23909450D01*
X10510500Y-23909450D01*
X10482171Y-23730593D01*
X10482171Y-23730591D01*
X10426211Y-23558361D01*
X10343996Y-23397006D01*
X10237553Y-23250499D01*
X10109501Y-23122447D01*
X9962994Y-23016004D01*
X9962993Y-23016003D01*
X9962991Y-23016002D01*
X9801637Y-22933788D01*
X9629406Y-22877828D01*
X9450549Y-22849500D01*
X9450546Y-22849500D01*
X9269454Y-22849500D01*
X9269451Y-22849500D01*
X9090593Y-22877828D01*
X8918362Y-22933788D01*
X8757008Y-23016002D01*
X8683752Y-23069225D01*
X8610499Y-23122447D01*
X8482447Y-23250499D01*
X8441371Y-23307036D01*
X8376002Y-23397008D01*
X8293788Y-23558362D01*
X8237828Y-23730593D01*
X8209500Y-23909450D01*
X7970500Y-23909450D01*
X7942171Y-23730593D01*
X7942171Y-23730591D01*
X7886211Y-23558361D01*
X7803996Y-23397006D01*
X7697553Y-23250499D01*
X7569501Y-23122447D01*
X7422994Y-23016004D01*
X7422993Y-23016003D01*
X7422991Y-23016002D01*
X7261637Y-22933788D01*
X7089406Y-22877828D01*
X6910549Y-22849500D01*
X6910546Y-22849500D01*
X6729454Y-22849500D01*
X6729451Y-22849500D01*
X6550593Y-22877828D01*
X6378362Y-22933788D01*
X6217008Y-23016002D01*
X6143752Y-23069225D01*
X6070499Y-23122447D01*
X5942447Y-23250499D01*
X5901371Y-23307036D01*
X5836002Y-23397008D01*
X5753788Y-23558362D01*
X5697828Y-23730593D01*
X5669500Y-23909450D01*
X5430500Y-23909450D01*
X5402171Y-23730593D01*
X5402171Y-23730591D01*
X5346211Y-23558361D01*
X5263996Y-23397006D01*
X5157553Y-23250499D01*
X5029501Y-23122447D01*
X4882994Y-23016004D01*
X4882993Y-23016003D01*
X4882991Y-23016002D01*
X4721637Y-22933788D01*
X4549406Y-22877828D01*
X4370549Y-22849500D01*
X4370546Y-22849500D01*
X4189454Y-22849500D01*
X4189451Y-22849500D01*
X4010593Y-22877828D01*
X3838362Y-22933788D01*
X3677008Y-23016002D01*
X3603752Y-23069225D01*
X3530499Y-23122447D01*
X3402447Y-23250499D01*
X3361371Y-23307036D01*
X3296002Y-23397008D01*
X3213788Y-23558362D01*
X3157828Y-23730593D01*
X3129500Y-23909450D01*
X2890500Y-23909450D01*
X2862171Y-23730593D01*
X2862171Y-23730591D01*
X2806211Y-23558361D01*
X2723996Y-23397006D01*
X2617553Y-23250499D01*
X2489501Y-23122447D01*
X2342994Y-23016004D01*
X2342993Y-23016003D01*
X2342991Y-23016002D01*
X2181637Y-22933788D01*
X2009406Y-22877828D01*
X1830549Y-22849500D01*
X1830546Y-22849500D01*
X1649454Y-22849500D01*
X1649451Y-22849500D01*
X1470593Y-22877828D01*
X1298362Y-22933788D01*
X1137008Y-23016002D01*
X1063752Y-23069225D01*
X990499Y-23122447D01*
X862447Y-23250499D01*
X821371Y-23307036D01*
X779093Y-23365227D01*
X729592Y-23401191D01*
X668407Y-23401191D01*
X618907Y-23365227D01*
X600000Y-23307036D01*
X600000Y-21877969D01*
X54449500Y-21877969D01*
X54449500Y-22122030D01*
X54487677Y-22363071D01*
X54563096Y-22595185D01*
X54673892Y-22812637D01*
X54752348Y-22920623D01*
X54817345Y-23010083D01*
X54989917Y-23182655D01*
X55083294Y-23250497D01*
X55187362Y-23326107D01*
X55296088Y-23381505D01*
X55404815Y-23436904D01*
X55636924Y-23512321D01*
X55636925Y-23512321D01*
X55636928Y-23512322D01*
X55877970Y-23550500D01*
X55877973Y-23550500D01*
X56122030Y-23550500D01*
X56363071Y-23512322D01*
X56363072Y-23512321D01*
X56363076Y-23512321D01*
X56595185Y-23436904D01*
X56812639Y-23326106D01*
X57010083Y-23182655D01*
X57182655Y-23010083D01*
X57326106Y-22812639D01*
X57436904Y-22595185D01*
X57512321Y-22363076D01*
X57550500Y-22122027D01*
X57550500Y-21877973D01*
X57550500Y-21877969D01*
X66649500Y-21877969D01*
X66649500Y-22122030D01*
X66687677Y-22363071D01*
X66763096Y-22595185D01*
X66873892Y-22812637D01*
X66952348Y-22920623D01*
X67017345Y-23010083D01*
X67189917Y-23182655D01*
X67283294Y-23250497D01*
X67387362Y-23326107D01*
X67496088Y-23381505D01*
X67604815Y-23436904D01*
X67836924Y-23512321D01*
X67836925Y-23512321D01*
X67836928Y-23512322D01*
X68077970Y-23550500D01*
X68077973Y-23550500D01*
X68322030Y-23550500D01*
X68563071Y-23512322D01*
X68563072Y-23512321D01*
X68563076Y-23512321D01*
X68795185Y-23436904D01*
X69012639Y-23326106D01*
X69210083Y-23182655D01*
X69382655Y-23010083D01*
X69526106Y-22812639D01*
X69636904Y-22595185D01*
X69712321Y-22363076D01*
X69750500Y-22122027D01*
X69750500Y-21877973D01*
X69750500Y-21877969D01*
X69712322Y-21636928D01*
X69712321Y-21636924D01*
X69636904Y-21404815D01*
X69526106Y-21187361D01*
X69382655Y-20989917D01*
X69210083Y-20817345D01*
X69120623Y-20752348D01*
X69012637Y-20673892D01*
X68795185Y-20563096D01*
X68563071Y-20487677D01*
X68322030Y-20449500D01*
X68322027Y-20449500D01*
X68077973Y-20449500D01*
X68077970Y-20449500D01*
X67836928Y-20487677D01*
X67604814Y-20563096D01*
X67387362Y-20673892D01*
X67189918Y-20817344D01*
X67017344Y-20989918D01*
X66873892Y-21187362D01*
X66763096Y-21404814D01*
X66687677Y-21636928D01*
X66649500Y-21877969D01*
X57550500Y-21877969D01*
X57512322Y-21636928D01*
X57512321Y-21636924D01*
X57436904Y-21404815D01*
X57326106Y-21187361D01*
X57182655Y-20989917D01*
X57010083Y-20817345D01*
X56920623Y-20752348D01*
X56812637Y-20673892D01*
X56595185Y-20563096D01*
X56363071Y-20487677D01*
X56122030Y-20449500D01*
X56122027Y-20449500D01*
X55877973Y-20449500D01*
X55877970Y-20449500D01*
X55636928Y-20487677D01*
X55404814Y-20563096D01*
X55187362Y-20673892D01*
X54989918Y-20817344D01*
X54817344Y-20989918D01*
X54673892Y-21187362D01*
X54563096Y-21404814D01*
X54487677Y-21636928D01*
X54449500Y-21877969D01*
X600000Y-21877969D01*
X600000Y-15205130D01*
X19174500Y-15205130D01*
X19174500Y-16794860D01*
X19174501Y-16794863D01*
X19177414Y-16819990D01*
X19180702Y-16827436D01*
X19222794Y-16922765D01*
X19302235Y-17002206D01*
X19405009Y-17047585D01*
X19430135Y-17050500D01*
X20569864Y-17050499D01*
X20594991Y-17047585D01*
X20697765Y-17002206D01*
X20740270Y-16959700D01*
X20794785Y-16931925D01*
X20855217Y-16941496D01*
X20865275Y-16947392D01*
X20878970Y-16956543D01*
X20878983Y-16956550D01*
X20886593Y-16959702D01*
X21029211Y-17018776D01*
X21188695Y-17050500D01*
X21188696Y-17050500D01*
X21351304Y-17050500D01*
X21351305Y-17050500D01*
X21510789Y-17018776D01*
X21661021Y-16956548D01*
X21796225Y-16866208D01*
X21834998Y-16827434D01*
X21889513Y-16799659D01*
X21949945Y-16809230D01*
X21975000Y-16827433D01*
X22013775Y-16866208D01*
X22148979Y-16956548D01*
X22148980Y-16956548D01*
X22148981Y-16956549D01*
X22156593Y-16959702D01*
X22299211Y-17018776D01*
X22458695Y-17050500D01*
X22458696Y-17050500D01*
X22621304Y-17050500D01*
X22621305Y-17050500D01*
X22780789Y-17018776D01*
X22931021Y-16956548D01*
X23066225Y-16866208D01*
X23181208Y-16751225D01*
X23271548Y-16616021D01*
X23333776Y-16465789D01*
X23365500Y-16306305D01*
X23365500Y-15913385D01*
X28899500Y-15913385D01*
X28899500Y-16086614D01*
X28926597Y-16257702D01*
X28926598Y-16257706D01*
X28980123Y-16422438D01*
X28980125Y-16422441D01*
X28980126Y-16422444D01*
X28980127Y-16422445D01*
X29058768Y-16576788D01*
X29160586Y-16716928D01*
X29283072Y-16839414D01*
X29423212Y-16941232D01*
X29577555Y-17019873D01*
X29577557Y-17019873D01*
X29577558Y-17019874D01*
X29577561Y-17019876D01*
X29742293Y-17073401D01*
X29742297Y-17073402D01*
X29913386Y-17100500D01*
X29913389Y-17100500D01*
X30086614Y-17100500D01*
X30257702Y-17073402D01*
X30257706Y-17073401D01*
X30422438Y-17019876D01*
X30422440Y-17019874D01*
X30422445Y-17019873D01*
X30576788Y-16941232D01*
X30716928Y-16839414D01*
X30839414Y-16716928D01*
X30941232Y-16576788D01*
X31019873Y-16422445D01*
X31019874Y-16422440D01*
X31019876Y-16422438D01*
X31073401Y-16257706D01*
X31073402Y-16257702D01*
X31100500Y-16086614D01*
X31100500Y-15913385D01*
X39059500Y-15913385D01*
X39059500Y-16086614D01*
X39086597Y-16257702D01*
X39086598Y-16257706D01*
X39140123Y-16422438D01*
X39140125Y-16422441D01*
X39140126Y-16422444D01*
X39140127Y-16422445D01*
X39218768Y-16576788D01*
X39320586Y-16716928D01*
X39443072Y-16839414D01*
X39583212Y-16941232D01*
X39737555Y-17019873D01*
X39737557Y-17019873D01*
X39737558Y-17019874D01*
X39737561Y-17019876D01*
X39902293Y-17073401D01*
X39902297Y-17073402D01*
X40073386Y-17100500D01*
X40073389Y-17100500D01*
X40246614Y-17100500D01*
X40417702Y-17073402D01*
X40417706Y-17073401D01*
X40582438Y-17019876D01*
X40582440Y-17019874D01*
X40582445Y-17019873D01*
X40736788Y-16941232D01*
X40876928Y-16839414D01*
X40999414Y-16716928D01*
X41101232Y-16576788D01*
X41179873Y-16422445D01*
X41179874Y-16422440D01*
X41179876Y-16422438D01*
X41233401Y-16257706D01*
X41233402Y-16257702D01*
X41260500Y-16086614D01*
X41260500Y-15913385D01*
X41256728Y-15889570D01*
X41254891Y-15877969D01*
X52449500Y-15877969D01*
X52449500Y-16122030D01*
X52487677Y-16363071D01*
X52563096Y-16595185D01*
X52673892Y-16812637D01*
X52693347Y-16839414D01*
X52817345Y-17010083D01*
X52989917Y-17182655D01*
X53133369Y-17286878D01*
X53187362Y-17326107D01*
X53296088Y-17381505D01*
X53404815Y-17436904D01*
X53636924Y-17512321D01*
X53636925Y-17512321D01*
X53636928Y-17512322D01*
X53877970Y-17550500D01*
X53877973Y-17550500D01*
X54122030Y-17550500D01*
X54363071Y-17512322D01*
X54363072Y-17512321D01*
X54363076Y-17512321D01*
X54595185Y-17436904D01*
X54812639Y-17326106D01*
X55010083Y-17182655D01*
X55182655Y-17010083D01*
X55326106Y-16812639D01*
X55436904Y-16595185D01*
X55512321Y-16363076D01*
X55521313Y-16306303D01*
X55550500Y-16122030D01*
X55550500Y-15877969D01*
X55512322Y-15636928D01*
X55512321Y-15636924D01*
X55436904Y-15404815D01*
X55372025Y-15277482D01*
X55326107Y-15187362D01*
X55242847Y-15072765D01*
X55182655Y-14989917D01*
X55010083Y-14817345D01*
X54920623Y-14752348D01*
X54812637Y-14673892D01*
X54595185Y-14563096D01*
X54363071Y-14487677D01*
X54122030Y-14449500D01*
X54122027Y-14449500D01*
X53877973Y-14449500D01*
X53877970Y-14449500D01*
X53636928Y-14487677D01*
X53404814Y-14563096D01*
X53187362Y-14673892D01*
X52989918Y-14817344D01*
X52817344Y-14989918D01*
X52673892Y-15187362D01*
X52563096Y-15404814D01*
X52487677Y-15636928D01*
X52449500Y-15877969D01*
X41254891Y-15877969D01*
X41233402Y-15742297D01*
X41233401Y-15742293D01*
X41179876Y-15577561D01*
X41179874Y-15577558D01*
X41179873Y-15577557D01*
X41179873Y-15577555D01*
X41101232Y-15423212D01*
X40999414Y-15283072D01*
X40876928Y-15160586D01*
X40736788Y-15058768D01*
X40736787Y-15058767D01*
X40736785Y-15058766D01*
X40582441Y-14980125D01*
X40582438Y-14980123D01*
X40417706Y-14926598D01*
X40417702Y-14926597D01*
X40246614Y-14899500D01*
X40246611Y-14899500D01*
X40073389Y-14899500D01*
X40073386Y-14899500D01*
X39902297Y-14926597D01*
X39902293Y-14926598D01*
X39737561Y-14980123D01*
X39737558Y-14980125D01*
X39583214Y-15058766D01*
X39443073Y-15160585D01*
X39320585Y-15283073D01*
X39218766Y-15423214D01*
X39140125Y-15577558D01*
X39140123Y-15577561D01*
X39086598Y-15742293D01*
X39086597Y-15742297D01*
X39059500Y-15913385D01*
X31100500Y-15913385D01*
X31073402Y-15742297D01*
X31073401Y-15742293D01*
X31019876Y-15577561D01*
X31019874Y-15577558D01*
X31019873Y-15577557D01*
X31019873Y-15577555D01*
X30941232Y-15423212D01*
X30839414Y-15283072D01*
X30716928Y-15160586D01*
X30576788Y-15058768D01*
X30576787Y-15058767D01*
X30576785Y-15058766D01*
X30422441Y-14980125D01*
X30422438Y-14980123D01*
X30257706Y-14926598D01*
X30257702Y-14926597D01*
X30086614Y-14899500D01*
X30086611Y-14899500D01*
X29913389Y-14899500D01*
X29913386Y-14899500D01*
X29742297Y-14926597D01*
X29742293Y-14926598D01*
X29577561Y-14980123D01*
X29577558Y-14980125D01*
X29423214Y-15058766D01*
X29283073Y-15160585D01*
X29160585Y-15283073D01*
X29058766Y-15423214D01*
X28980125Y-15577558D01*
X28980123Y-15577561D01*
X28926598Y-15742293D01*
X28926597Y-15742297D01*
X28899500Y-15913385D01*
X23365500Y-15913385D01*
X23365500Y-15693695D01*
X23333776Y-15534211D01*
X23271548Y-15383979D01*
X23181208Y-15248775D01*
X23066225Y-15133792D01*
X22931021Y-15043452D01*
X22931020Y-15043451D01*
X22931018Y-15043450D01*
X22780790Y-14981224D01*
X22621305Y-14949500D01*
X22458695Y-14949500D01*
X22458694Y-14949500D01*
X22299209Y-14981224D01*
X22148981Y-15043450D01*
X22013775Y-15133791D01*
X21975003Y-15172563D01*
X21920486Y-15200340D01*
X21860054Y-15190768D01*
X21834997Y-15172563D01*
X21796224Y-15133791D01*
X21661018Y-15043450D01*
X21510790Y-14981224D01*
X21351305Y-14949500D01*
X21188695Y-14949500D01*
X21188694Y-14949500D01*
X21029209Y-14981224D01*
X20878978Y-15043451D01*
X20878977Y-15043452D01*
X20865267Y-15052612D01*
X20806377Y-15069216D01*
X20748975Y-15048035D01*
X20740275Y-15040304D01*
X20697765Y-14997794D01*
X20594991Y-14952415D01*
X20594990Y-14952414D01*
X20594988Y-14952414D01*
X20569868Y-14949500D01*
X19430139Y-14949500D01*
X19430136Y-14949501D01*
X19405009Y-14952414D01*
X19302235Y-14997794D01*
X19222794Y-15077235D01*
X19177414Y-15180011D01*
X19174500Y-15205130D01*
X600000Y-15205130D01*
X600000Y-10906893D01*
X5399500Y-10906893D01*
X5399500Y-13093106D01*
X5410123Y-13181565D01*
X5465637Y-13322339D01*
X5465638Y-13322341D01*
X5465639Y-13322342D01*
X5557078Y-13442922D01*
X5677658Y-13534361D01*
X5677659Y-13534361D01*
X5677660Y-13534362D01*
X5745438Y-13561090D01*
X5818436Y-13589877D01*
X5906898Y-13600500D01*
X5906900Y-13600500D01*
X8093100Y-13600500D01*
X8093102Y-13600500D01*
X8181564Y-13589877D01*
X8322342Y-13534361D01*
X8442922Y-13442922D01*
X8534361Y-13322342D01*
X8589877Y-13181564D01*
X8600500Y-13093102D01*
X8600500Y-11874034D01*
X10399500Y-11874034D01*
X10399500Y-12125965D01*
X10438908Y-12374780D01*
X10516759Y-12614379D01*
X10612567Y-12802414D01*
X10631130Y-12838845D01*
X10779207Y-13042656D01*
X10957344Y-13220793D01*
X11161155Y-13368870D01*
X11385621Y-13483241D01*
X11625215Y-13561090D01*
X11625216Y-13561090D01*
X11625219Y-13561091D01*
X11874035Y-13600500D01*
X11874038Y-13600500D01*
X12125965Y-13600500D01*
X12374780Y-13561091D01*
X12374781Y-13561090D01*
X12374785Y-13561090D01*
X12614379Y-13483241D01*
X12838845Y-13368870D01*
X13042656Y-13220793D01*
X13220793Y-13042656D01*
X13275075Y-12967943D01*
X21577500Y-12967943D01*
X21577500Y-13126057D01*
X21618423Y-13278784D01*
X21697480Y-13415716D01*
X21809284Y-13527520D01*
X21946216Y-13606577D01*
X22098943Y-13647500D01*
X22098945Y-13647500D01*
X22257055Y-13647500D01*
X22257057Y-13647500D01*
X22409784Y-13606577D01*
X22546716Y-13527520D01*
X22658520Y-13415716D01*
X22737577Y-13278784D01*
X22778500Y-13126057D01*
X22778500Y-12967943D01*
X22737577Y-12815216D01*
X22658520Y-12678284D01*
X22546716Y-12566480D01*
X22409784Y-12487423D01*
X22257057Y-12446500D01*
X22098943Y-12446500D01*
X21946216Y-12487423D01*
X21809284Y-12566480D01*
X21697480Y-12678284D01*
X21618423Y-12815216D01*
X21577500Y-12967943D01*
X13275075Y-12967943D01*
X13368870Y-12838845D01*
X13483241Y-12614379D01*
X13561090Y-12374785D01*
X13561091Y-12374780D01*
X13600500Y-12125965D01*
X13600500Y-11874034D01*
X13561091Y-11625219D01*
X13550401Y-11592319D01*
X13483241Y-11385621D01*
X13368870Y-11161155D01*
X13220793Y-10957344D01*
X13042656Y-10779207D01*
X12838845Y-10631130D01*
X12838844Y-10631129D01*
X12838842Y-10631128D01*
X12614379Y-10516759D01*
X12374780Y-10438908D01*
X12125965Y-10399500D01*
X12125962Y-10399500D01*
X11874038Y-10399500D01*
X11874035Y-10399500D01*
X11625219Y-10438908D01*
X11385620Y-10516759D01*
X11161157Y-10631128D01*
X10957345Y-10779206D01*
X10779206Y-10957345D01*
X10631128Y-11161157D01*
X10516759Y-11385620D01*
X10438908Y-11625219D01*
X10399500Y-11874034D01*
X8600500Y-11874034D01*
X8600500Y-10906898D01*
X8589877Y-10818436D01*
X8534361Y-10677658D01*
X8442922Y-10557078D01*
X8322342Y-10465639D01*
X8322341Y-10465638D01*
X8322339Y-10465637D01*
X8181565Y-10410123D01*
X8093106Y-10399500D01*
X8093102Y-10399500D01*
X5906898Y-10399500D01*
X5906893Y-10399500D01*
X5818434Y-10410123D01*
X5677660Y-10465637D01*
X5677656Y-10465640D01*
X5557081Y-10557075D01*
X5557075Y-10557081D01*
X5465640Y-10677656D01*
X5465637Y-10677660D01*
X5410123Y-10818434D01*
X5399500Y-10906893D01*
X600000Y-10906893D01*
X600000Y-8950012D01*
X54250000Y-8950012D01*
X54250000Y-9749999D01*
X54250001Y-9750000D01*
X55399999Y-9750000D01*
X55374979Y-9810402D01*
X55350000Y-9935981D01*
X55350000Y-10064019D01*
X55374979Y-10189598D01*
X55399999Y-10250000D01*
X54250002Y-10250000D01*
X54250001Y-10250001D01*
X54250001Y-11049986D01*
X54260492Y-11152687D01*
X54260495Y-11152699D01*
X54315643Y-11319124D01*
X54407680Y-11468340D01*
X54531659Y-11592319D01*
X54680875Y-11684356D01*
X54847306Y-11739506D01*
X54950012Y-11749999D01*
X55749998Y-11749999D01*
X55750000Y-11749998D01*
X55750000Y-10600001D01*
X55810402Y-10625021D01*
X55935981Y-10650000D01*
X56064019Y-10650000D01*
X56189598Y-10625021D01*
X56250000Y-10600001D01*
X56250000Y-11749998D01*
X56250001Y-11749999D01*
X57049986Y-11749999D01*
X57152687Y-11739507D01*
X57152699Y-11739504D01*
X57319124Y-11684356D01*
X57468340Y-11592319D01*
X57592319Y-11468340D01*
X57684356Y-11319124D01*
X57739506Y-11152693D01*
X57750000Y-11049987D01*
X57750000Y-10250001D01*
X57749999Y-10250000D01*
X56600001Y-10250000D01*
X56625021Y-10189598D01*
X56650000Y-10064019D01*
X56650000Y-9935981D01*
X56638461Y-9877969D01*
X66649500Y-9877969D01*
X66649500Y-10122030D01*
X66687677Y-10363071D01*
X66763096Y-10595185D01*
X66873892Y-10812637D01*
X66942373Y-10906893D01*
X67017345Y-11010083D01*
X67189917Y-11182655D01*
X67304405Y-11265835D01*
X67387362Y-11326107D01*
X67496088Y-11381505D01*
X67604815Y-11436904D01*
X67836924Y-11512321D01*
X67836925Y-11512321D01*
X67836928Y-11512322D01*
X68077970Y-11550500D01*
X68077973Y-11550500D01*
X68322030Y-11550500D01*
X68563071Y-11512322D01*
X68563072Y-11512321D01*
X68563076Y-11512321D01*
X68795185Y-11436904D01*
X68966109Y-11349814D01*
X74600000Y-11349814D01*
X74600000Y-11570185D01*
X74634471Y-11787829D01*
X74702569Y-11997413D01*
X74802609Y-12193753D01*
X74848932Y-12257512D01*
X75557861Y-11548582D01*
X75580667Y-11633694D01*
X75639910Y-11736306D01*
X75723694Y-11820090D01*
X75826306Y-11879333D01*
X75911414Y-11902137D01*
X75202485Y-12611067D01*
X75215340Y-12620406D01*
X75251305Y-12669906D01*
X75251306Y-12731091D01*
X75215343Y-12780592D01*
X75157153Y-12799500D01*
X75055139Y-12799500D01*
X75055136Y-12799501D01*
X75030009Y-12802414D01*
X74927235Y-12847794D01*
X74847794Y-12927235D01*
X74802414Y-13030011D01*
X74799500Y-13055130D01*
X74799500Y-14944860D01*
X74799501Y-14944863D01*
X74802414Y-14969990D01*
X74814691Y-14997794D01*
X74847794Y-15072765D01*
X74927235Y-15152206D01*
X75030009Y-15197585D01*
X75039484Y-15198684D01*
X75095107Y-15224168D01*
X75125129Y-15277482D01*
X75118080Y-15338260D01*
X75108170Y-15355214D01*
X75058770Y-15423208D01*
X75058767Y-15423212D01*
X74980125Y-15577558D01*
X74980123Y-15577561D01*
X74926598Y-15742293D01*
X74926597Y-15742297D01*
X74899500Y-15913385D01*
X74899500Y-16086614D01*
X74926597Y-16257702D01*
X74926598Y-16257706D01*
X74980123Y-16422438D01*
X74980125Y-16422441D01*
X74980126Y-16422444D01*
X74980127Y-16422445D01*
X75058768Y-16576788D01*
X75160586Y-16716928D01*
X75283072Y-16839414D01*
X75423212Y-16941232D01*
X75577555Y-17019873D01*
X75577557Y-17019873D01*
X75577558Y-17019874D01*
X75577561Y-17019876D01*
X75742293Y-17073401D01*
X75742297Y-17073402D01*
X75913386Y-17100500D01*
X75913389Y-17100500D01*
X76086614Y-17100500D01*
X76257702Y-17073402D01*
X76257706Y-17073401D01*
X76422438Y-17019876D01*
X76422440Y-17019874D01*
X76422445Y-17019873D01*
X76576788Y-16941232D01*
X76716928Y-16839414D01*
X76839414Y-16716928D01*
X76941232Y-16576788D01*
X77019873Y-16422445D01*
X77019874Y-16422440D01*
X77019876Y-16422438D01*
X77073401Y-16257706D01*
X77073402Y-16257702D01*
X77100500Y-16086614D01*
X77100500Y-15913385D01*
X77073402Y-15742297D01*
X77073401Y-15742293D01*
X77019876Y-15577561D01*
X77019874Y-15577558D01*
X77019873Y-15577557D01*
X77019873Y-15577555D01*
X76941232Y-15423212D01*
X76891828Y-15355214D01*
X76872922Y-15297024D01*
X76891829Y-15238833D01*
X76941329Y-15202869D01*
X76960518Y-15198683D01*
X76969991Y-15197585D01*
X77072765Y-15152206D01*
X77152206Y-15072765D01*
X77197585Y-14969991D01*
X77200500Y-14944865D01*
X77200499Y-13055136D01*
X77197585Y-13030009D01*
X77152206Y-12927235D01*
X77072765Y-12847794D01*
X76969991Y-12802415D01*
X76969990Y-12802414D01*
X76969988Y-12802414D01*
X76944869Y-12799500D01*
X76842849Y-12799500D01*
X76784658Y-12780593D01*
X76748694Y-12731093D01*
X76748694Y-12669907D01*
X76784658Y-12620408D01*
X76797513Y-12611067D01*
X76088584Y-11902138D01*
X76173694Y-11879333D01*
X76276306Y-11820090D01*
X76360090Y-11736306D01*
X76419333Y-11633694D01*
X76442138Y-11548584D01*
X77151067Y-12257513D01*
X77197388Y-12193757D01*
X77297430Y-11997413D01*
X77365528Y-11787829D01*
X77400000Y-11570185D01*
X77400000Y-11349814D01*
X77365528Y-11132170D01*
X77297430Y-10922586D01*
X77197387Y-10726241D01*
X77151067Y-10662485D01*
X76442137Y-11371414D01*
X76419333Y-11286306D01*
X76360090Y-11183694D01*
X76276306Y-11099910D01*
X76173694Y-11040667D01*
X76088582Y-11017861D01*
X76797512Y-10308932D01*
X76733753Y-10262609D01*
X76537413Y-10162569D01*
X76327829Y-10094471D01*
X76110185Y-10060000D01*
X75889815Y-10060000D01*
X75672170Y-10094471D01*
X75462586Y-10162569D01*
X75266239Y-10262613D01*
X75202485Y-10308931D01*
X75911415Y-11017861D01*
X75826306Y-11040667D01*
X75723694Y-11099910D01*
X75639910Y-11183694D01*
X75580667Y-11286306D01*
X75557861Y-11371415D01*
X74848931Y-10662485D01*
X74802613Y-10726239D01*
X74702569Y-10922586D01*
X74634471Y-11132170D01*
X74600000Y-11349814D01*
X68966109Y-11349814D01*
X69012639Y-11326106D01*
X69210083Y-11182655D01*
X69382655Y-11010083D01*
X69526106Y-10812639D01*
X69636904Y-10595185D01*
X69712321Y-10363076D01*
X69750500Y-10122027D01*
X69750500Y-9877973D01*
X69750500Y-9877969D01*
X69712322Y-9636928D01*
X69712321Y-9636924D01*
X69636904Y-9404815D01*
X69526106Y-9187361D01*
X69382655Y-8989917D01*
X69210083Y-8817345D01*
X69022248Y-8680875D01*
X69012637Y-8673892D01*
X68795185Y-8563096D01*
X68563071Y-8487677D01*
X68322030Y-8449500D01*
X68322027Y-8449500D01*
X68077973Y-8449500D01*
X68077970Y-8449500D01*
X67836928Y-8487677D01*
X67604814Y-8563096D01*
X67387362Y-8673892D01*
X67189918Y-8817344D01*
X67017344Y-8989918D01*
X66873892Y-9187362D01*
X66763096Y-9404814D01*
X66687677Y-9636928D01*
X66649500Y-9877969D01*
X56638461Y-9877969D01*
X56625021Y-9810402D01*
X56600001Y-9750000D01*
X57749998Y-9750000D01*
X57749999Y-9749999D01*
X57749999Y-8950013D01*
X57739507Y-8847312D01*
X57739504Y-8847300D01*
X57684356Y-8680875D01*
X57592319Y-8531659D01*
X57468340Y-8407680D01*
X57319124Y-8315643D01*
X57152693Y-8260493D01*
X57049987Y-8250000D01*
X56250001Y-8250000D01*
X56250000Y-8250001D01*
X56250000Y-9399998D01*
X56189598Y-9374979D01*
X56064019Y-9350000D01*
X55935981Y-9350000D01*
X55810402Y-9374979D01*
X55750000Y-9399998D01*
X55750000Y-8250001D01*
X55749999Y-8250000D01*
X54950013Y-8250000D01*
X54847312Y-8260492D01*
X54847300Y-8260495D01*
X54680875Y-8315643D01*
X54531659Y-8407680D01*
X54407680Y-8531659D01*
X54315643Y-8680875D01*
X54260493Y-8847306D01*
X54250000Y-8950012D01*
X600000Y-8950012D01*
X600000Y-4878710D01*
X3149500Y-4878710D01*
X3149500Y-5121289D01*
X3181161Y-5361781D01*
X3181161Y-5361786D01*
X3181162Y-5361789D01*
X3234243Y-5559890D01*
X3243944Y-5596092D01*
X3243948Y-5596105D01*
X3336772Y-5820204D01*
X3336774Y-5820207D01*
X3336776Y-5820212D01*
X3458064Y-6030289D01*
X3458066Y-6030292D01*
X3605729Y-6222731D01*
X3605731Y-6222733D01*
X3605735Y-6222738D01*
X3777262Y-6394265D01*
X3777266Y-6394268D01*
X3777268Y-6394270D01*
X3964059Y-6537599D01*
X3969711Y-6541936D01*
X4179788Y-6663224D01*
X4403900Y-6756054D01*
X4638211Y-6818838D01*
X4878712Y-6850500D01*
X4878713Y-6850500D01*
X5121287Y-6850500D01*
X5121288Y-6850500D01*
X5361789Y-6818838D01*
X5596100Y-6756054D01*
X5820212Y-6663224D01*
X6030289Y-6541936D01*
X6222738Y-6394265D01*
X6394265Y-6222738D01*
X6413683Y-6197431D01*
X6451057Y-6148726D01*
X6509616Y-6072409D01*
X6541936Y-6030289D01*
X6663224Y-5820212D01*
X6756054Y-5596100D01*
X6818838Y-5361789D01*
X6850500Y-5121288D01*
X6850500Y-5100012D01*
X16400000Y-5100012D01*
X16400000Y-5749999D01*
X16400001Y-5750000D01*
X17509252Y-5750000D01*
X17487482Y-5787708D01*
X17450000Y-5927591D01*
X17450000Y-6072409D01*
X17487482Y-6212292D01*
X17509252Y-6250000D01*
X16400002Y-6250000D01*
X16400001Y-6250001D01*
X16400001Y-6899986D01*
X16410492Y-7002687D01*
X16410495Y-7002699D01*
X16465642Y-7169125D01*
X16557682Y-7318341D01*
X16557682Y-7318342D01*
X16681657Y-7442317D01*
X16830874Y-7534357D01*
X16997306Y-7589506D01*
X17100012Y-7599999D01*
X17749998Y-7599999D01*
X17750000Y-7599998D01*
X17750000Y-6490747D01*
X17787708Y-6512518D01*
X17927591Y-6550000D01*
X18072409Y-6550000D01*
X18212292Y-6512518D01*
X18250000Y-6490747D01*
X18250000Y-7599998D01*
X18250001Y-7599999D01*
X18899986Y-7599999D01*
X19002687Y-7589507D01*
X19002699Y-7589504D01*
X19169125Y-7534357D01*
X19318341Y-7442317D01*
X19318342Y-7442317D01*
X19442317Y-7318342D01*
X19442317Y-7318341D01*
X19534357Y-7169125D01*
X19589506Y-7002693D01*
X19600000Y-6899987D01*
X19600000Y-6250001D01*
X19599999Y-6250000D01*
X18490748Y-6250000D01*
X18512518Y-6212292D01*
X18550000Y-6072409D01*
X18550000Y-5927591D01*
X18539867Y-5889774D01*
X26759500Y-5889774D01*
X26759500Y-6110225D01*
X26793984Y-6327948D01*
X26862102Y-6537599D01*
X26862104Y-6537602D01*
X26862105Y-6537606D01*
X26962185Y-6734022D01*
X27091758Y-6912365D01*
X27247635Y-7068242D01*
X27425978Y-7197815D01*
X27622394Y-7297895D01*
X27832049Y-7366015D01*
X27919140Y-7379809D01*
X28049775Y-7400500D01*
X28049778Y-7400500D01*
X28270225Y-7400500D01*
X28379086Y-7383257D01*
X28487951Y-7366015D01*
X28697606Y-7297895D01*
X28894022Y-7197815D01*
X29072365Y-7068242D01*
X29228242Y-6912365D01*
X29357815Y-6734022D01*
X29457895Y-6537606D01*
X29526015Y-6327951D01*
X29538361Y-6250001D01*
X29547310Y-6193506D01*
X29560500Y-6110225D01*
X29560500Y-5889774D01*
X29526015Y-5672051D01*
X29526015Y-5672049D01*
X29457895Y-5462394D01*
X29357815Y-5265978D01*
X29237234Y-5100012D01*
X33400000Y-5100012D01*
X33400000Y-5749999D01*
X33400001Y-5750000D01*
X34509252Y-5750000D01*
X34487482Y-5787708D01*
X34450000Y-5927591D01*
X34450000Y-6072409D01*
X34487482Y-6212292D01*
X34509252Y-6250000D01*
X33400002Y-6250000D01*
X33400001Y-6250001D01*
X33400001Y-6899986D01*
X33410492Y-7002687D01*
X33410495Y-7002699D01*
X33465642Y-7169125D01*
X33557682Y-7318341D01*
X33557682Y-7318342D01*
X33681657Y-7442317D01*
X33830874Y-7534357D01*
X33997306Y-7589506D01*
X34100012Y-7599999D01*
X34749998Y-7599999D01*
X34750000Y-7599998D01*
X34750000Y-6490747D01*
X34787708Y-6512518D01*
X34927591Y-6550000D01*
X35072409Y-6550000D01*
X35212292Y-6512518D01*
X35250000Y-6490747D01*
X35250000Y-7599998D01*
X35250001Y-7599999D01*
X35899986Y-7599999D01*
X36002687Y-7589507D01*
X36002699Y-7589504D01*
X36169125Y-7534357D01*
X36318341Y-7442317D01*
X36318342Y-7442317D01*
X36442317Y-7318342D01*
X36442317Y-7318341D01*
X36534357Y-7169125D01*
X36589506Y-7002693D01*
X36600000Y-6899987D01*
X36600000Y-6250001D01*
X36599999Y-6250000D01*
X35490748Y-6250000D01*
X35512518Y-6212292D01*
X35550000Y-6072409D01*
X35550000Y-5927591D01*
X35539867Y-5889774D01*
X43759500Y-5889774D01*
X43759500Y-6110225D01*
X43793984Y-6327948D01*
X43862102Y-6537599D01*
X43862104Y-6537602D01*
X43862105Y-6537606D01*
X43962185Y-6734022D01*
X44091758Y-6912365D01*
X44247635Y-7068242D01*
X44425978Y-7197815D01*
X44622394Y-7297895D01*
X44832049Y-7366015D01*
X44919140Y-7379809D01*
X45049775Y-7400500D01*
X45049778Y-7400500D01*
X45270225Y-7400500D01*
X45379086Y-7383257D01*
X45487951Y-7366015D01*
X45697606Y-7297895D01*
X45894022Y-7197815D01*
X46072365Y-7068242D01*
X46228242Y-6912365D01*
X46357815Y-6734022D01*
X46457895Y-6537606D01*
X46526015Y-6327951D01*
X46560500Y-6110222D01*
X46560500Y-5889778D01*
X46560500Y-5889774D01*
X46526015Y-5672051D01*
X46526015Y-5672049D01*
X46457895Y-5462394D01*
X46357815Y-5265978D01*
X46228242Y-5087635D01*
X46072365Y-4931758D01*
X45999350Y-4878710D01*
X73149500Y-4878710D01*
X73149500Y-5121289D01*
X73181161Y-5361781D01*
X73181161Y-5361786D01*
X73181162Y-5361789D01*
X73234243Y-5559890D01*
X73243944Y-5596092D01*
X73243948Y-5596105D01*
X73336772Y-5820204D01*
X73336774Y-5820207D01*
X73336776Y-5820212D01*
X73458064Y-6030289D01*
X73458066Y-6030292D01*
X73605729Y-6222731D01*
X73605731Y-6222733D01*
X73605735Y-6222738D01*
X73777262Y-6394265D01*
X73777266Y-6394268D01*
X73777268Y-6394270D01*
X73964059Y-6537599D01*
X73969711Y-6541936D01*
X74179788Y-6663224D01*
X74403900Y-6756054D01*
X74638211Y-6818838D01*
X74878712Y-6850500D01*
X74878713Y-6850500D01*
X75121287Y-6850500D01*
X75121288Y-6850500D01*
X75361789Y-6818838D01*
X75596100Y-6756054D01*
X75820212Y-6663224D01*
X76030289Y-6541936D01*
X76222738Y-6394265D01*
X76394265Y-6222738D01*
X76541936Y-6030289D01*
X76663224Y-5820212D01*
X76756054Y-5596100D01*
X76818838Y-5361789D01*
X76850500Y-5121288D01*
X76850500Y-4878712D01*
X76818838Y-4638211D01*
X76756054Y-4403900D01*
X76663224Y-4179788D01*
X76541936Y-3969711D01*
X76394265Y-3777262D01*
X76222738Y-3605735D01*
X76222733Y-3605731D01*
X76222731Y-3605729D01*
X76030292Y-3458066D01*
X76030289Y-3458064D01*
X75820212Y-3336776D01*
X75820208Y-3336774D01*
X75820204Y-3336772D01*
X75596105Y-3243948D01*
X75596104Y-3243947D01*
X75596100Y-3243946D01*
X75361789Y-3181162D01*
X75361786Y-3181161D01*
X75361784Y-3181161D01*
X75121289Y-3149500D01*
X75121288Y-3149500D01*
X74878712Y-3149500D01*
X74878710Y-3149500D01*
X74638218Y-3181161D01*
X74638213Y-3181161D01*
X74403907Y-3243944D01*
X74403894Y-3243948D01*
X74179795Y-3336772D01*
X73969707Y-3458066D01*
X73777268Y-3605729D01*
X73605729Y-3777268D01*
X73458066Y-3969707D01*
X73336772Y-4179795D01*
X73243948Y-4403894D01*
X73243944Y-4403907D01*
X73181161Y-4638213D01*
X73181161Y-4638218D01*
X73149500Y-4878710D01*
X45999350Y-4878710D01*
X45894022Y-4802185D01*
X45894021Y-4802184D01*
X45894019Y-4802183D01*
X45804825Y-4756736D01*
X45697606Y-4702105D01*
X45697602Y-4702104D01*
X45697599Y-4702102D01*
X45487948Y-4633984D01*
X45270225Y-4599500D01*
X45270222Y-4599500D01*
X45049778Y-4599500D01*
X45049775Y-4599500D01*
X44832051Y-4633984D01*
X44622400Y-4702102D01*
X44425980Y-4802183D01*
X44336806Y-4866971D01*
X44247635Y-4931758D01*
X44091758Y-5087635D01*
X44082766Y-5100012D01*
X43962183Y-5265980D01*
X43862102Y-5462400D01*
X43793984Y-5672051D01*
X43759500Y-5889774D01*
X35539867Y-5889774D01*
X35512518Y-5787708D01*
X35490748Y-5750000D01*
X36599998Y-5750000D01*
X36599999Y-5749999D01*
X36599999Y-5100013D01*
X36589507Y-4997312D01*
X36589504Y-4997300D01*
X36534357Y-4830874D01*
X36442317Y-4681658D01*
X36442317Y-4681657D01*
X36318342Y-4557682D01*
X36169125Y-4465642D01*
X36002693Y-4410493D01*
X35899987Y-4400000D01*
X35250001Y-4400000D01*
X35250000Y-4400001D01*
X35250000Y-5509252D01*
X35212292Y-5487482D01*
X35072409Y-5450000D01*
X34927591Y-5450000D01*
X34787708Y-5487482D01*
X34750000Y-5509252D01*
X34750000Y-4400001D01*
X34749999Y-4400000D01*
X34100013Y-4400000D01*
X33997312Y-4410492D01*
X33997300Y-4410495D01*
X33830874Y-4465642D01*
X33681658Y-4557682D01*
X33681657Y-4557682D01*
X33557682Y-4681657D01*
X33557682Y-4681658D01*
X33465642Y-4830874D01*
X33410493Y-4997306D01*
X33400000Y-5100012D01*
X29237234Y-5100012D01*
X29228242Y-5087635D01*
X29072365Y-4931758D01*
X28894022Y-4802185D01*
X28894021Y-4802184D01*
X28894019Y-4802183D01*
X28804825Y-4756736D01*
X28697606Y-4702105D01*
X28697602Y-4702104D01*
X28697599Y-4702102D01*
X28487948Y-4633984D01*
X28270225Y-4599500D01*
X28270222Y-4599500D01*
X28049778Y-4599500D01*
X28049775Y-4599500D01*
X27832051Y-4633984D01*
X27622400Y-4702102D01*
X27425980Y-4802183D01*
X27336806Y-4866971D01*
X27247635Y-4931758D01*
X27091758Y-5087635D01*
X27082766Y-5100012D01*
X26962183Y-5265980D01*
X26862102Y-5462400D01*
X26793984Y-5672051D01*
X26759500Y-5889774D01*
X18539867Y-5889774D01*
X18512518Y-5787708D01*
X18490748Y-5750000D01*
X19599998Y-5750000D01*
X19599999Y-5749999D01*
X19599999Y-5100013D01*
X19589507Y-4997312D01*
X19589504Y-4997300D01*
X19534357Y-4830874D01*
X19442317Y-4681658D01*
X19442317Y-4681657D01*
X19318342Y-4557682D01*
X19169125Y-4465642D01*
X19002693Y-4410493D01*
X18899987Y-4400000D01*
X18250001Y-4400000D01*
X18250000Y-4400001D01*
X18250000Y-5509252D01*
X18212292Y-5487482D01*
X18072409Y-5450000D01*
X17927591Y-5450000D01*
X17787708Y-5487482D01*
X17750000Y-5509252D01*
X17750000Y-4400001D01*
X17749999Y-4400000D01*
X17100013Y-4400000D01*
X16997312Y-4410492D01*
X16997300Y-4410495D01*
X16830874Y-4465642D01*
X16681658Y-4557682D01*
X16681657Y-4557682D01*
X16557682Y-4681657D01*
X16557682Y-4681658D01*
X16465642Y-4830874D01*
X16410493Y-4997306D01*
X16400000Y-5100012D01*
X6850500Y-5100012D01*
X6850500Y-4878712D01*
X6818838Y-4638211D01*
X6756054Y-4403900D01*
X6663224Y-4179788D01*
X6541936Y-3969711D01*
X6394265Y-3777262D01*
X6222738Y-3605735D01*
X6222733Y-3605731D01*
X6222731Y-3605729D01*
X6030292Y-3458066D01*
X6030289Y-3458064D01*
X5820212Y-3336776D01*
X5820208Y-3336774D01*
X5820204Y-3336772D01*
X5596105Y-3243948D01*
X5596104Y-3243947D01*
X5596100Y-3243946D01*
X5361789Y-3181162D01*
X5361786Y-3181161D01*
X5361784Y-3181161D01*
X5121289Y-3149500D01*
X5121288Y-3149500D01*
X4878712Y-3149500D01*
X4878710Y-3149500D01*
X4638218Y-3181161D01*
X4638213Y-3181161D01*
X4403907Y-3243944D01*
X4403894Y-3243948D01*
X4179795Y-3336772D01*
X3969707Y-3458066D01*
X3777268Y-3605729D01*
X3605729Y-3777268D01*
X3458066Y-3969707D01*
X3336772Y-4179795D01*
X3243948Y-4403894D01*
X3243944Y-4403907D01*
X3181161Y-4638213D01*
X3181161Y-4638218D01*
X3149500Y-4878710D01*
X600000Y-4878710D01*
X600000Y-699000D01*
X618907Y-640809D01*
X668407Y-604845D01*
X699000Y-600000D01*
X79301000Y-600000D01*
X79359191Y-618907D01*
G37*
%TD.AperFunction*%
%TD*%
M02*
