%TF.GenerationSoftware,KiCad,Pcbnew,10.0.4*%
%TF.CreationDate,2026-07-19T21:02:14+02:00*%
%TF.ProjectId,BluePill-Relay-Carrier,426c7565-5069-46c6-9c2d-52656c61792d,rev?*%
%TF.SameCoordinates,Original*%
%TF.FileFunction,Copper,L1,Top*%
%TF.FilePolarity,Positive*%
%FSLAX46Y46*%
G04 Gerber Fmt 4.6, Leading zero omitted, Abs format (unit mm)*
G04 Created by KiCad (PCBNEW 10.0.4) date 2026-07-19 21:02:14*
%MOMM*%
%LPD*%
G01*
G04 APERTURE LIST*
G04 Aperture macros list*
%AMRoundRect*
0 Rectangle with rounded corners*
0 $1 Rounding radius*
0 $2 $3 $4 $5 $6 $7 $8 $9 X,Y pos of 4 corners*
0 Add a 4 corners polygon primitive as box body*
4,1,4,$2,$3,$4,$5,$6,$7,$8,$9,$2,$3,0*
0 Add four circle primitives for the rounded corners*
1,1,$1+$1,$2,$3*
1,1,$1+$1,$4,$5*
1,1,$1+$1,$6,$7*
1,1,$1+$1,$8,$9*
0 Add four rect primitives between the rounded corners*
20,1,$1+$1,$2,$3,$4,$5,0*
20,1,$1+$1,$4,$5,$6,$7,0*
20,1,$1+$1,$6,$7,$8,$9,0*
20,1,$1+$1,$8,$9,$2,$3,0*%
G04 Aperture macros list end*
%TA.AperFunction,ComponentPad*%
%ADD10R,1.700000X1.700000*%
%TD*%
%TA.AperFunction,ComponentPad*%
%ADD11C,1.700000*%
%TD*%
%TA.AperFunction,ComponentPad*%
%ADD12C,2.500000*%
%TD*%
%TA.AperFunction,ComponentPad*%
%ADD13RoundRect,0.250000X-1.000000X-1.000000X1.000000X-1.000000X1.000000X1.000000X-1.000000X1.000000X0*%
%TD*%
%TA.AperFunction,ComponentPad*%
%ADD14RoundRect,0.250000X0.550000X-0.550000X0.550000X0.550000X-0.550000X0.550000X-0.550000X-0.550000X0*%
%TD*%
%TA.AperFunction,ComponentPad*%
%ADD15C,1.600000*%
%TD*%
%TA.AperFunction,ComponentPad*%
%ADD16RoundRect,0.250000X-1.050000X-1.050000X1.050000X-1.050000X1.050000X1.050000X-1.050000X1.050000X0*%
%TD*%
%TA.AperFunction,ComponentPad*%
%ADD17C,2.600000*%
%TD*%
%TA.AperFunction,ComponentPad*%
%ADD18R,1.800000X1.800000*%
%TD*%
%TA.AperFunction,ComponentPad*%
%ADD19C,1.800000*%
%TD*%
%TA.AperFunction,ComponentPad*%
%ADD20RoundRect,0.249999X-0.850001X-0.850001X0.850001X-0.850001X0.850001X0.850001X-0.850001X0.850001X0*%
%TD*%
%TA.AperFunction,ComponentPad*%
%ADD21C,2.200000*%
%TD*%
%TA.AperFunction,ComponentPad*%
%ADD22R,1.050000X1.500000*%
%TD*%
%TA.AperFunction,ComponentPad*%
%ADD23O,1.050000X1.500000*%
%TD*%
%TA.AperFunction,ViaPad*%
%ADD24C,0.600000*%
%TD*%
%TA.AperFunction,Conductor*%
%ADD25C,0.400000*%
%TD*%
G04 APERTURE END LIST*
D10*
%TO.P,U1,1*%
%TO.N,N/C*%
X50000000Y-24000000D03*
D11*
%TO.P,U1,2*%
X47460000Y-24000000D03*
%TO.P,U1,3*%
X44920000Y-24000000D03*
%TO.P,U1,4*%
X42380000Y-24000000D03*
%TO.P,U1,5*%
%TO.N,PA0*%
X39840000Y-24000000D03*
%TO.P,U1,6*%
%TO.N,PA1*%
X37300000Y-24000000D03*
%TO.P,U1,7*%
%TO.N,N/C*%
X34760000Y-24000000D03*
%TO.P,U1,8*%
X32220000Y-24000000D03*
%TO.P,U1,9*%
X29680000Y-24000000D03*
%TO.P,U1,10*%
X27140000Y-24000000D03*
%TO.P,U1,11*%
X24600000Y-24000000D03*
%TO.P,U1,12*%
X22060000Y-24000000D03*
%TO.P,U1,13*%
X19520000Y-24000000D03*
%TO.P,U1,14*%
X16980000Y-24000000D03*
%TO.P,U1,15*%
X14440000Y-24000000D03*
%TO.P,U1,16*%
X11900000Y-24000000D03*
%TO.P,U1,17*%
X9360000Y-24000000D03*
%TO.P,U1,18*%
X6820000Y-24000000D03*
%TO.P,U1,19*%
%TO.N,GND*%
X4280000Y-24000000D03*
%TO.P,U1,20*%
X1740000Y-24000000D03*
%TD*%
D12*
%TO.P,RY1,11*%
%TO.N,RY1_COM*%
X54000000Y-16000000D03*
%TO.P,RY1,12*%
%TO.N,RY1_NC*%
X68200000Y-10000000D03*
%TO.P,RY1,14*%
%TO.N,RY1_NO*%
X68200000Y-22000000D03*
D13*
%TO.P,RY1,A1*%
%TO.N,+5V*%
X56000000Y-10000000D03*
D12*
%TO.P,RY1,A2*%
%TO.N,RY1_Drive*%
X56000000Y-22000000D03*
%TD*%
D14*
%TO.P,C1,1*%
%TO.N,+5V*%
X18000000Y-55000000D03*
D15*
%TO.P,C1,2*%
%TO.N,GND*%
X18000000Y-52500000D03*
%TD*%
%TO.P,R4,1*%
%TO.N,LED2_K*%
X76000000Y-51000000D03*
%TO.P,R4,2*%
%TO.N,RY2_Drive*%
X76000000Y-61160000D03*
%TD*%
D16*
%TO.P,J4,1*%
%TO.N,+5V*%
X26000000Y-62000000D03*
D17*
%TO.P,J4,2*%
%TO.N,GND*%
X31000000Y-62000000D03*
%TO.P,J4,3*%
%TO.N,PB6*%
X36000000Y-62000000D03*
%TO.P,J4,4*%
%TO.N,PB7*%
X41000000Y-62000000D03*
%TD*%
D15*
%TO.P,C2,1*%
%TO.N,+5V*%
X28000000Y-53000000D03*
%TO.P,C2,2*%
%TO.N,GND*%
X33000000Y-53000000D03*
%TD*%
D18*
%TO.P,D5,1*%
%TO.N,LED2_K*%
X76000000Y-48400000D03*
D19*
%TO.P,D5,2*%
%TO.N,+5V*%
X76000000Y-45860000D03*
%TD*%
D18*
%TO.P,D4,1*%
%TO.N,LED1_K*%
X76000000Y-13400000D03*
D19*
%TO.P,D4,2*%
%TO.N,+5V*%
X76000000Y-10860000D03*
%TD*%
D10*
%TO.P,U2,1*%
%TO.N,N/C*%
X50000000Y-46860000D03*
D11*
%TO.P,U2,2*%
%TO.N,GND*%
X47460000Y-46860000D03*
%TO.P,U2,3*%
%TO.N,+5V*%
X44920000Y-46860000D03*
%TO.P,U2,4*%
%TO.N,N/C*%
X42380000Y-46860000D03*
%TO.P,U2,5*%
X39840000Y-46860000D03*
%TO.P,U2,6*%
%TO.N,PB7*%
X37300000Y-46860000D03*
%TO.P,U2,7*%
%TO.N,PB6*%
X34760000Y-46860000D03*
%TO.P,U2,8*%
%TO.N,N/C*%
X32220000Y-46860000D03*
%TO.P,U2,9*%
X29680000Y-46860000D03*
%TO.P,U2,10*%
X27140000Y-46860000D03*
%TO.P,U2,11*%
X24600000Y-46860000D03*
%TO.P,U2,12*%
X22060000Y-46860000D03*
%TO.P,U2,13*%
X19520000Y-46860000D03*
%TO.P,U2,14*%
X16980000Y-46860000D03*
%TO.P,U2,15*%
X14440000Y-46860000D03*
%TO.P,U2,16*%
X11900000Y-46860000D03*
%TO.P,U2,17*%
X9360000Y-46860000D03*
%TO.P,U2,18*%
X6820000Y-46860000D03*
%TO.P,U2,19*%
X4280000Y-46860000D03*
%TO.P,U2,20*%
X1740000Y-46860000D03*
%TD*%
D16*
%TO.P,J3,1*%
%TO.N,RY2_COM*%
X57000000Y-62000000D03*
D17*
%TO.P,J3,2*%
%TO.N,RY2_NO*%
X62000000Y-62000000D03*
%TO.P,J3,3*%
%TO.N,RY2_NC*%
X67000000Y-62000000D03*
%TD*%
D20*
%TO.P,D2,1*%
%TO.N,+5V*%
X8000000Y-63000000D03*
D21*
%TO.P,D2,2*%
%TO.N,RY2_Drive*%
X18160000Y-63000000D03*
%TD*%
D20*
%TO.P,D3,1*%
%TO.N,+5V*%
X18000000Y-6000000D03*
D21*
%TO.P,D3,2*%
%TO.N,VCC_IN*%
X28160000Y-6000000D03*
%TD*%
D22*
%TO.P,Q2,1*%
%TO.N,Q2B*%
X8000000Y-53000000D03*
D23*
%TO.P,Q2,2*%
%TO.N,RY2_Drive*%
X9270000Y-53000000D03*
%TO.P,Q2,3*%
%TO.N,GND*%
X10540000Y-53000000D03*
%TD*%
D15*
%TO.P,R1,1*%
%TO.N,PA0*%
X30000000Y-16000000D03*
%TO.P,R1,2*%
%TO.N,Q1B*%
X40160000Y-16000000D03*
%TD*%
D16*
%TO.P,J1,1*%
%TO.N,VCC_IN*%
X7000000Y-12000000D03*
D17*
%TO.P,J1,2*%
%TO.N,GND*%
X12000000Y-12000000D03*
%TD*%
D12*
%TO.P,RY2,11*%
%TO.N,RY2_COM*%
X54000000Y-49100000D03*
%TO.P,RY2,12*%
%TO.N,RY2_NC*%
X68200000Y-43100000D03*
%TO.P,RY2,14*%
%TO.N,RY2_NO*%
X68200000Y-55100000D03*
D13*
%TO.P,RY2,A1*%
%TO.N,+5V*%
X56000000Y-43100000D03*
D12*
%TO.P,RY2,A2*%
%TO.N,RY2_Drive*%
X56000000Y-55100000D03*
%TD*%
D15*
%TO.P,R3,1*%
%TO.N,LED1_K*%
X76000000Y-16000000D03*
%TO.P,R3,2*%
%TO.N,RY1_Drive*%
X76000000Y-26160000D03*
%TD*%
D16*
%TO.P,J2,1*%
%TO.N,RY1_COM*%
X57000000Y-30000000D03*
D17*
%TO.P,J2,2*%
%TO.N,RY1_NO*%
X62000000Y-30000000D03*
%TO.P,J2,3*%
%TO.N,RY1_NC*%
X67000000Y-30000000D03*
%TD*%
D15*
%TO.P,R2,1*%
%TO.N,PA1*%
X38000000Y-53000000D03*
%TO.P,R2,2*%
%TO.N,Q2B*%
X48160000Y-53000000D03*
%TD*%
D20*
%TO.P,D1,1*%
%TO.N,+5V*%
X35000000Y-6000000D03*
D21*
%TO.P,D1,2*%
%TO.N,RY1_Drive*%
X45160000Y-6000000D03*
%TD*%
D22*
%TO.P,Q1,1*%
%TO.N,Q1B*%
X20000000Y-16000000D03*
D23*
%TO.P,Q1,2*%
%TO.N,RY1_Drive*%
X21270000Y-16000000D03*
%TO.P,Q1,3*%
%TO.N,GND*%
X22540000Y-16000000D03*
%TD*%
D24*
%TO.N,PA1*%
X52031500Y-48014000D03*
%TO.N,RY1_Drive*%
X22178000Y-13047000D03*
%TD*%
%TO.N,PA1*%
D25*
X37300000Y-24000000D02*
X51358700Y-38058700D01*
X51410100Y-48014000D02*
X51358700Y-47962600D01*
X51410100Y-48014000D02*
X52031500Y-48014000D01*
X51358700Y-38058700D02*
X51358700Y-47962600D01*
X51358700Y-47962600D02*
X51111100Y-48210200D01*
X52031500Y-48014000D02*
X51410100Y-48014000D01*
X52031500Y-48014000D02*
X51410100Y-48014000D01*
%TO.N,RY1_COM*%
X57000000Y-30000000D02*
X57781100Y-29218900D01*
X57781100Y-29218900D02*
X57781100Y-19781100D01*
X57781100Y-19781100D02*
X54000000Y-16000000D01*
%TO.N,RY1_NC*%
X67000000Y-30000000D02*
X69993800Y-27006200D01*
X69993800Y-27006200D02*
X69993800Y-11793800D01*
X69993800Y-11793800D02*
X68200000Y-10000000D01*
%TO.N,RY1_NO*%
X62000000Y-28200000D02*
X68200000Y-22000000D01*
X62000000Y-30000000D02*
X62000000Y-28200000D01*
%TO.N,RY1_Drive*%
X45160000Y-6000000D02*
X45160000Y-11160000D01*
X21270000Y-13955000D02*
X22178000Y-13047000D01*
X45160000Y-11160000D02*
X56000000Y-22000000D01*
X21270000Y-16000000D02*
X21270000Y-13955000D01*
%TO.N,LED2_K*%
X76000000Y-49000000D02*
X76000000Y-51000000D01*
%TO.N,RY2_Drive*%
X9411700Y-54251700D02*
X18160000Y-63000000D01*
X9270000Y-53000000D02*
X9270000Y-54251700D01*
X9270000Y-54251700D02*
X9411700Y-54251700D01*
%TO.N,PB6*%
X36000000Y-62000000D02*
X36000000Y-48100000D01*
X36000000Y-48100000D02*
X34760000Y-46860000D01*
%TO.N,PB7*%
X41000000Y-50560000D02*
X37300000Y-46860000D01*
X41000000Y-62000000D02*
X41000000Y-50560000D01*
%TO.N,LED1_K*%
X76000000Y-16000000D02*
X76000000Y-14000000D01*
%TO.N,RY2_COM*%
X54000000Y-50000000D02*
X54000000Y-59000000D01*
X54000000Y-59000000D02*
X57000000Y-62000000D01*
%TO.N,RY2_NO*%
X63842700Y-63842700D02*
X62000000Y-62000000D01*
X68864000Y-56664000D02*
X68864000Y-62706500D01*
X68200000Y-56000000D02*
X68864000Y-56664000D01*
X67727800Y-63842700D02*
X63842700Y-63842700D01*
X68864000Y-62706500D02*
X67727800Y-63842700D01*
%TO.N,RY2_NC*%
X68200000Y-44000000D02*
X66380500Y-45819500D01*
X66380500Y-45819500D02*
X66380500Y-61380500D01*
X66380500Y-61380500D02*
X67000000Y-62000000D01*
%TD*%
M02*
